<svg xmlns="http://www.w3.org/2000/svg" version="1.1" xmlns:xlink="http://www.w3.org/1999/xlink" width="512" height="512" x="0" y="0" viewBox="0 0 340 340" style="enable-background:new 0 0 512 512" xml:space="preserve" class=""><g><linearGradient id="a" x1="170" x2="170" y1="181.594" y2="332.93" gradientUnits="userSpaceOnUse"><stop offset="0" stop-color="#ffd4ca"></stop><stop offset="1" stop-color="#ff9d9d"></stop></linearGradient><linearGradient id="b" x1="171.083" x2="171.083" y1="153.005" y2="227.069" gradientUnits="userSpaceOnUse"><stop offset="0" stop-color="#f78784"></stop><stop offset="1" stop-color="#dd5e5e"></stop></linearGradient><linearGradient xlink:href="#a" id="c" x1="170" x2="170" y1="39.442" y2="191.753"></linearGradient><path fill="url(#a)" d="M222.479 232.159c-10.724-6.7-17.42-12.75-21.427-17.1a20.3 20.3 0 0 1-5.289-13.755v-25.03h-51.526V201.3a20.3 20.3 0 0 1-5.289 13.755c-4.007 4.353-10.7 10.4-21.427 17.1-21.31 13.322-44.581 39.311-42.278 79.472h189.514c2.303-40.157-20.968-66.146-42.278-79.468z" opacity="1" data-original="url(#a)"></path><path fill="url(#b)" d="M144.237 176.271v20.614c10.51 7.032 28.55 15.336 53.692 13.63a20.6 20.6 0 0 1-2.166-9.214v-25.03z" opacity="1" data-original="url(#b)"></path><path fill="url(#a)" d="M216.79 120.966S228 63.338 185.117 50.128a51.449 51.449 0 0 0-30.234 0C112 63.338 123.21 120.966 123.21 120.966s-11.373-6.824-11.373 12.672 15.6 21.446 15.6 21.446c4.259 15.891 15.045 24.348 24.692 28.828a42.5 42.5 0 0 0 35.748 0c9.647-4.48 20.432-12.937 24.692-28.828 0 0 15.6-1.95 15.6-21.446s-11.379-12.672-11.379-12.672z" opacity="1" data-original="url(#a)"></path><path fill="#ffffff" d="m140.489 118.721 21.341 11.82s-3.152 7.669-10.885 8.048a11.835 11.835 0 0 1-10.831-6.142c-1.772-3.205-2.791-7.895.375-13.726zM199.511 118.721l-21.341 11.82s3.152 7.669 10.885 8.048a11.832 11.832 0 0 0 10.83-6.142c1.772-3.205 2.792-7.895-.374-13.726z" opacity="1" data-original="#ffffff"></path><g fill="#3c3c4f"><path d="M267.849 311.808c2.744-47.868-29.667-73.483-43.729-82.274-10.773-6.735-17.252-12.731-20.79-16.574a17.134 17.134 0 0 1-4.472-11.66v-20.4a45.6 45.6 0 0 0 16.161-23.157c6.557-1.738 16.24-8.3 16.24-24.109 0-8.374-1.95-13.548-5.964-15.821a8.745 8.745 0 0 0-4.762-1.084 101.1 101.1 0 0 0-.441-26.719c-3.546-22.257-15.325-37.072-34.063-42.845a54.225 54.225 0 0 0-32.058 0c-18.739 5.773-30.517 20.588-34.063 42.845a101.1 101.1 0 0 0-.441 26.719 8.773 8.773 0 0 0-4.762 1.084c-4.014 2.273-5.964 7.447-5.964 15.821 0 15.81 9.683 22.371 16.239 24.109a45.6 45.6 0 0 0 16.161 23.157v20.4a17.136 17.136 0 0 1-4.471 11.66c-3.54 3.844-10.021 9.841-20.791 16.574-14.062 8.791-46.472 34.406-43.728 82.274a3.1 3.1 0 0 0 3.091 2.919h189.516a3.1 3.1 0 0 0 3.091-2.919zM130.424 154.282a3.124 3.124 0 0 0-2.586-2.268c-.527-.073-12.9-1.979-12.9-18.376 0-7.943 1.962-9.935 2.806-10.422a2.53 2.53 0 0 1 1.285-.313 6.2 6.2 0 0 1 2.593.718 3.1 3.1 0 0 0 4.633-3.245 95.55 95.55 0 0 1-.2-29.545c3.221-19.957 13.229-32.656 29.745-37.744a48.066 48.066 0 0 1 28.412 0c16.516 5.088 26.523 17.787 29.745 37.744a95.633 95.633 0 0 1-.2 29.544 3.1 3.1 0 0 0 4.632 3.246c.022-.015 2.354-1.271 3.861-.415.849.48 2.823 2.459 2.823 10.432 0 16.4-12.379 18.3-12.886 18.373a3.1 3.1 0 0 0-2.606 2.271c-3.278 12.231-11.018 21.256-23 26.822a39.266 39.266 0 0 1-33.14 0c-11.998-5.566-19.741-14.591-23.017-26.822zm131.364 154.252H78.212c-1.108-42.693 28.112-65.724 40.95-73.75 9.116-5.7 16.539-11.63 22.064-17.63a23.312 23.312 0 0 0 6.107-15.854v-16.369a54.919 54.919 0 0 0 3.489 1.789 45.444 45.444 0 0 0 38.356 0 55.963 55.963 0 0 0 3.488-1.788V201.3a23.31 23.31 0 0 0 6.108 15.854c3.8 4.123 10.706 10.53 22.063 17.63 12.839 8.026 42.063 31.057 40.951 73.75z" fill="#3c3c4f" opacity="1" data-original="#3c3c4f" class=""></path><path d="M164.694 131.718a3.1 3.1 0 0 0-1.364-3.886l-21.342-11.82a3.1 3.1 0 0 0-4.221 1.231c-3.929 7.239-2.365 13.078-.362 16.7a14.988 14.988 0 0 0 13 7.753q.345 0 .692-.017c9.587-.466 13.438-9.579 13.597-9.961zm-13.9 3.778a8.752 8.752 0 0 1-7.969-4.547A9.931 9.931 0 0 1 142 123.1l15.54 8.6a9.107 9.107 0 0 1-6.746 3.8zM188.9 141.681q.346.016.692.017a14.992 14.992 0 0 0 13-7.753c2-3.624 3.567-9.463-.362-16.7a3.1 3.1 0 0 0-4.221-1.231l-21.342 11.82a3.1 3.1 0 0 0-1.364 3.886c.162.38 4.013 9.493 13.597 9.961zM198 123.1a9.931 9.931 0 0 1-.829 7.854 8.765 8.765 0 0 1-7.969 4.547 9.113 9.113 0 0 1-6.747-3.791zM24.33 258.229a3.095 3.095 0 0 0 3.943-1.9c4.36-12.508 12.1-24.284 23-35a3.1 3.1 0 0 0-4.342-4.416C35.347 228.3 27.1 240.873 22.426 254.285a3.1 3.1 0 0 0 1.904 3.944zM99.061 31.036a3.1 3.1 0 1 0-3.693-4.971C76.917 39.773 61.616 67.536 56.386 96.8c-4.717 26.382-1.366 51.5 10.245 76.8a27.367 27.367 0 0 1-3.473 28.619A3.1 3.1 0 0 0 68 206.075a33.532 33.532 0 0 0 4.258-35.062C61.193 146.9 58 122.983 62.482 97.885c6.036-33.767 23.477-57.115 36.579-66.849zM23.323 192.3a3.1 3.1 0 0 0 4.367-.315 36.525 36.525 0 0 0 7.98-32.128 158.578 158.578 0 0 1-1.306-6.124 3.1 3.1 0 1 0-6.08 1.171c.407 2.115.863 4.256 1.357 6.365a30.313 30.313 0 0 1-6.633 26.664 3.1 3.1 0 0 0 .315 4.367zM58.336 26.015a3.1 3.1 0 0 0-4.311.759c-1.26 1.8-30.835 44.713-28.544 103.692a3.1 3.1 0 0 0 3.091 2.976h.122a3.1 3.1 0 0 0 2.974-3.214C29.461 73.407 58.8 30.751 59.1 30.327a3.1 3.1 0 0 0-.764-4.312z" fill="#3c3c4f" opacity="1" data-original="#3c3c4f" class=""></path><path d="M99.217 220.19a34.588 34.588 0 0 0 7.55-50.521 49.5 49.5 0 0 0-4.4-4.789c-21.719-23.787-16.707-46.439-11.781-57.834a99.581 99.581 0 0 0 3.5-9.433 3.1 3.1 0 0 0-5.9-1.866 93.049 93.049 0 0 1-3.285 8.842c-4.449 10.293-12.091 37.19 12.988 64.571.066.072.138.143.21.208a42.387 42.387 0 0 1 3.872 4.213 28 28 0 0 1 6.051 22.037 28.529 28.529 0 0 1-12.26 19.436c-22.322 15.026-59.18 47.586-55.277 96.821a3.1 3.1 0 0 0 3.083 2.852c.082 0 .165 0 .248-.01a3.1 3.1 0 0 0 2.842-3.331C43 265.288 78.019 234.462 99.217 220.19zM100.064 72.435A3.1 3.1 0 0 0 102.9 70.6c8.313-18.716 20.553-31.917 36.379-39.237a3.1 3.1 0 1 0-2.6-5.62c-17.23 7.969-30.5 22.214-39.439 42.343a3.1 3.1 0 0 0 2.828 4.354zM241.9 169.372c.075-.067.146-.138.214-.212 25.077-27.379 17.437-54.277 12.988-64.571a99.293 99.293 0 0 1-5.054-15.089c-10-39.681-31.149-56.676-47.127-63.944a3.1 3.1 0 0 0-2.564 5.636c21.44 9.754 36.138 29.882 43.687 59.822a105.513 105.513 0 0 0 5.374 16.035c4.925 11.4 9.936 34.048-11.781 57.834a49.367 49.367 0 0 0-4.4 4.789 34.338 34.338 0 0 0-6.94 29.228 3.1 3.1 0 0 0 3.021 2.432 3.062 3.062 0 0 0 .667-.073 3.1 3.1 0 0 0 2.359-3.688 28.182 28.182 0 0 1 5.693-23.987 42.325 42.325 0 0 1 3.863-4.212zM296.184 314.717c.083.007.166.01.248.01a3.1 3.1 0 0 0 3.083-2.852c3.437-43.363-24.247-73.8-48.077-91.7a3.1 3.1 0 1 0-3.718 4.951c22.586 16.966 48.837 45.7 45.622 86.261a3.1 3.1 0 0 0 2.842 3.33z" fill="#3c3c4f" opacity="1" data-original="#3c3c4f" class=""></path><path d="M317.574 254.285c-7.686-22.046-23.863-37.987-36.08-47.478a27.409 27.409 0 0 1-8.125-33.211c11.611-25.3 14.962-50.418 10.245-76.8a133.526 133.526 0 0 0-16.731-45.07 3.1 3.1 0 1 0-5.3 3.2 127.257 127.257 0 0 1 15.938 42.96c4.487 25.1 1.289 49.018-9.777 73.128a33.578 33.578 0 0 0 9.953 40.684c11.558 8.978 26.845 24.009 34.033 44.627a3.1 3.1 0 1 0 5.847-2.039zM314.1 110.49a3.1 3.1 0 0 0-6.174.5 158.33 158.33 0 0 1-3.6 48.868 36.525 36.525 0 0 0 7.98 32.129 3.1 3.1 0 0 0 4.682-4.052 30.321 30.321 0 0 1-6.634-26.665 164.538 164.538 0 0 0 3.746-50.78zM304.776 89.354a3.1 3.1 0 0 0 3.026 2.458 3.14 3.14 0 0 0 .642-.067 3.1 3.1 0 0 0 2.391-3.668c-7.692-36.513-24.163-60.308-24.86-61.3a3.1 3.1 0 1 0-5.071 3.554c.163.23 16.439 23.738 23.872 59.023zM95.108 85.682a3.084 3.084 0 1 0-3.084-3.082 3.083 3.083 0 0 0 3.084 3.082z" fill="#3c3c4f" opacity="1" data-original="#3c3c4f" class=""></path><circle cx="236.787" cy="212.677" r="3.084" fill="#3c3c4f" opacity="1" data-original="#3c3c4f" class=""></circle><path d="M255.1 36.146a3.084 3.084 0 1 0-3.083 3.084 3.083 3.083 0 0 0 3.083-3.084z" fill="#3c3c4f" opacity="1" data-original="#3c3c4f" class=""></path></g></g></svg>