<svg xmlns="http://www.w3.org/2000/svg" version="1.1" xmlns:xlink="http://www.w3.org/1999/xlink" width="512" height="512" x="0" y="0" viewBox="0 0 340 340" style="enable-background:new 0 0 512 512" xml:space="preserve" class=""><g><linearGradient id="a" x1="270.295" x2="77.945" y1="304.144" y2="46.877" gradientUnits="userSpaceOnUse"><stop offset="0" stop-color="#93a2ff"></stop><stop offset=".5" stop-color="#acdaff"></stop><stop offset="1" stop-color="#d7f2ff"></stop></linearGradient><linearGradient id="b" x1="202.97" x2="158.936" y1="132.714" y2="183.127" gradientUnits="userSpaceOnUse"><stop offset="0" stop-color="#fff09a"></stop><stop offset="1" stop-color="#ffb74c"></stop></linearGradient><linearGradient id="c" x1="123.322" x2="151.964" y1="169.259" y2="195.321" gradientTransform="rotate(-45 148.52 192.423)" gradientUnits="userSpaceOnUse"><stop offset="0" stop-color="#ffab35"></stop><stop offset="1" stop-color="#f7803d"></stop></linearGradient><path fill="url(#a)" d="M294.724 201.812a128.78 128.78 0 0 1-113.1 96.362v-29.253a99.635 99.635 0 0 0 87.294-87.294H318.4a3.34 3.34 0 0 0 3.328-3.172q.231-4.2.232-8.455A152 152 0 0 0 203.339 21.724a3.337 3.337 0 0 0-4.066 3.254v17.066a3.343 3.343 0 0 0 2.539 3.232 128.779 128.779 0 0 1 96.362 113.1h-29.253a99.634 99.634 0 0 0-87.294-87.294V21.6a3.34 3.34 0 0 0-3.172-3.328q-4.2-.231-8.455-.232A152 152 0 0 0 21.724 136.661a3.337 3.337 0 0 0 3.254 4.066h17.066a3.344 3.344 0 0 0 3.232-2.539 128.78 128.78 0 0 1 113.1-96.362v29.232a99.655 99.655 0 0 0-87.294 87.315H21.6a3.34 3.34 0 0 0-3.328 3.172q-.231 4.2-.232 8.455a152 152 0 0 0 118.621 148.276 3.337 3.337 0 0 0 4.066-3.254v-17.067a3.343 3.343 0 0 0-2.539-3.231 128.78 128.78 0 0 1-96.362-113.1h29.253a99.635 99.635 0 0 0 87.294 87.294V318.4a3.341 3.341 0 0 0 3.172 3.328q4.2.231 8.455.232a152 152 0 0 0 148.276-118.621 3.337 3.337 0 0 0-3.254-4.066h-17.066a3.343 3.343 0 0 0-3.232 2.539zm-136.351 30.072v15.966a78.752 78.752 0 0 1-66.223-66.223h15.966a3.33 3.33 0 0 0 3.33-3.33V161.7a3.33 3.33 0 0 0-3.33-3.33H92.15A78.91 78.91 0 0 1 158.373 92v16.113a3.33 3.33 0 0 0 3.33 3.33H178.3a3.33 3.33 0 0 0 3.33-3.33V92.15a78.752 78.752 0 0 1 66.223 66.223h-15.969a3.33 3.33 0 0 0-3.33 3.33V178.3a3.33 3.33 0 0 0 3.33 3.33h15.966a78.752 78.752 0 0 1-66.223 66.223v-15.969a3.33 3.33 0 0 0-3.33-3.33H161.7a3.33 3.33 0 0 0-3.327 3.33z" opacity="1" data-original="url(#a)"></path><path fill="url(#b)" d="M206.5 140.5a6.71 6.71 0 0 0-6.076-6.076c-18.4-1.76-35.893 15.729-35.893 15.729l-22.411 22.411a51.648 51.648 0 0 0 26.24 26.24l22.409-22.404s17.489-17.493 15.731-35.9z" opacity="1" data-original="url(#b)"></path><path fill="url(#c)" d="M129.989 182.914H167.1v13.344a5.591 5.591 0 0 1-5.591 5.591H135.58a5.591 5.591 0 0 1-5.591-5.591v-13.344z" transform="rotate(45 148.59 192.37)" opacity="1" data-original="url(#c)"></path><g fill="#3c3c4f"><path d="M92.149 178.3a3.321 3.321 0 0 0-3.287 3.811 82.076 82.076 0 0 0 69.024 69.024 3.324 3.324 0 0 0 3.811-3.288v-15.969H178.3v15.972a3.324 3.324 0 0 0 3.324 3.324 3.2 3.2 0 0 0 .487-.036 82.076 82.076 0 0 0 69.024-69.024 3.321 3.321 0 0 0-3.287-3.811h-15.969V161.7h15.972a3.321 3.321 0 0 0 3.287-3.811 82.076 82.076 0 0 0-69.024-69.025 3.325 3.325 0 0 0-3.811 3.288v15.972H161.7V92a3.324 3.324 0 0 0-3.811-3.288C122.5 93.955 94.117 122.4 88.862 157.886a3.321 3.321 0 0 0 3.287 3.811h15.972V178.3zm19.3-23.254H96.1a75.966 75.966 0 0 1 58.945-59.091v15.487a3.324 3.324 0 0 0 3.324 3.324h23.254a3.324 3.324 0 0 0 3.324-3.324V96.105a75.882 75.882 0 0 1 58.953 58.944h-15.345a3.324 3.324 0 0 0-3.324 3.324v23.254a3.324 3.324 0 0 0 3.324 3.324H243.9a75.882 75.882 0 0 1-58.949 58.949v-15.346a3.324 3.324 0 0 0-3.324-3.324h-23.254a3.324 3.324 0 0 0-3.324 3.324V243.9A75.882 75.882 0 0 1 96.1 184.951h15.341a3.324 3.324 0 0 0 3.324-3.324v-23.254a3.324 3.324 0 0 0-3.32-3.324z" fill="#3c3c4f" opacity="1" data-original="#3c3c4f"></path><path d="M140.09 322.39a3.322 3.322 0 0 0 3.961-3.262v-23.786a3.323 3.323 0 0 0-2.571-3.237 124.959 124.959 0 0 1-95.966-107.154h22.649A103.146 103.146 0 0 0 155.049 272v49.519a3.325 3.325 0 0 0 3.074 3.315c3.935.3 7.932.448 11.877.448 74.123 0 138.212-52.726 152.39-125.371a3.323 3.323 0 0 0-3.263-3.96h-23.785a3.322 3.322 0 0 0-3.237 2.571 124.96 124.96 0 0 1-107.154 95.967v-22.65a102.972 102.972 0 0 0 86.886-86.886h49.68a3.325 3.325 0 0 0 3.315-3.073c.3-3.931.448-7.928.448-11.878 0-74.123-52.726-138.212-125.37-152.39a3.322 3.322 0 0 0-3.961 3.262v23.784a3.323 3.323 0 0 0 2.571 3.242 124.959 124.959 0 0 1 95.966 107.154h-22.649a102.972 102.972 0 0 0-86.886-86.886V18.483a3.324 3.324 0 0 0-3.074-3.315c-3.931-.3-7.927-.448-11.877-.448-74.123 0-138.212 52.726-152.39 125.371a3.323 3.323 0 0 0 3.263 3.96h23.785a3.322 3.322 0 0 0 3.242-2.571 124.96 124.96 0 0 1 107.149-95.967v22.629a103 103 0 0 0-86.886 86.907h-49.68a3.325 3.325 0 0 0-3.315 3.073A156.78 156.78 0 0 0 14.72 170c0 74.123 52.726 138.212 125.37 152.39zM21.6 161.7h49.479a3.324 3.324 0 0 0 3.3-2.94 95.773 95.773 0 0 1 84.376-84.4 3.324 3.324 0 0 0 2.94-3.3V41.826a3.323 3.323 0 0 0-3.621-3.311A132.11 132.11 0 0 0 42.045 137.4h-17.08A148.841 148.841 0 0 1 170 21.368c2.757 0 5.539.076 8.3.229v49.482a3.324 3.324 0 0 0 2.94 3.3 95.761 95.761 0 0 1 84.376 84.376 3.324 3.324 0 0 0 3.3 2.94h29.253a3.325 3.325 0 0 0 3.311-3.621A132.11 132.11 0 0 0 202.6 42.045V24.964A148.843 148.843 0 0 1 318.632 170c0 2.758-.077 5.539-.229 8.3h-49.482a3.324 3.324 0 0 0-3.3 2.94 95.761 95.761 0 0 1-84.376 84.376 3.324 3.324 0 0 0-2.94 3.3v29.253a3.323 3.323 0 0 0 3.621 3.311 132.11 132.11 0 0 0 116.029-98.88h17.08A148.841 148.841 0 0 1 170 318.632c-2.756 0-5.537-.077-8.3-.229v-49.32a3.324 3.324 0 0 0-2.94-3.3c-43.787-5.092-79.272-40.645-84.376-84.538a3.324 3.324 0 0 0-3.3-2.94H41.826a3.325 3.325 0 0 0-3.311 3.621A132.11 132.11 0 0 0 137.4 297.955v17.081A148.843 148.843 0 0 1 21.368 170c0-2.758.077-5.539.232-8.3z" fill="#3c3c4f" opacity="1" data-original="#3c3c4f"></path><path d="M148.665 210.593a8.927 8.927 0 0 0 12.608 0l9.43-9.431 22.411-22.412c.76-.759 18.575-18.823 16.688-38.558a10.088 10.088 0 0 0-9.069-9.07c-19.728-1.892-37.8 15.928-38.559 16.688l-22.408 22.408-9.437 9.436a8.927 8.927 0 0 0 0 12.607zm18.212-58.085c.164-.163 16.631-16.356 33.229-14.772a3.385 3.385 0 0 1 3.082 3.084c1.588 16.6-14.608 33.063-14.769 33.225l-20.061 20.061-21.539-21.539zm-31.844 31.845 7.086-7.085 21.538 21.539-7.085 7.085a2.272 2.272 0 0 1-3.207 0l-18.331-18.332a2.271 2.271 0 0 1-.001-3.207z" fill="#3c3c4f" opacity="1" data-original="#3c3c4f"></path></g></g></svg>