<svg xmlns="http://www.w3.org/2000/svg" version="1.1" xmlns:xlink="http://www.w3.org/1999/xlink" width="512" height="512" x="0" y="0" viewBox="0 0 340 340" style="enable-background:new 0 0 512 512" xml:space="preserve" class=""><g><linearGradient id="a" x1="275.493" x2="275.493" y1="-.397" y2="165.126" gradientUnits="userSpaceOnUse"><stop offset="0" stop-color="#f1f686"></stop><stop offset="1" stop-color="#aac163"></stop></linearGradient><linearGradient xlink:href="#a" id="c" x1="64.507" x2="64.507" y1="154.972" y2="291.284"></linearGradient><linearGradient id="b" x1="175.235" x2="175.235" y1="188.661" y2="357.03" gradientUnits="userSpaceOnUse"><stop offset="0" stop-color="#ffd4ca"></stop><stop offset="1" stop-color="#ff9d9d"></stop></linearGradient><linearGradient id="d" x1="181.003" x2="181.003" y1="171.193" y2="268.599" gradientUnits="userSpaceOnUse"><stop offset="0" stop-color="#f78784"></stop><stop offset="1" stop-color="#dd5e5e"></stop></linearGradient><linearGradient xlink:href="#b" id="e" x1="175.235" x2="175.235" y1="69.18" y2="269.065"></linearGradient><path fill="url(#a)" d="M311.54 49.013h-20.553V28.46H260v20.553h-20.553V80H260v20.553h30.987V80h20.553z" opacity="1" data-original="url(#a)" class=""></path><path fill="url(#a)" d="M100.553 190.553H80V170H49.013v20.553H28.46v30.987h20.553v20.553H80V221.54h20.553z" opacity="1" data-original="url(#a)" class=""></path><path fill="url(#b)" d="M227.714 257.68a120.92 120.92 0 0 1-15.106-11.015c-22.311-11.248-43.8-19.48-63.136-19.844a20.3 20.3 0 0 1-5.289 13.756c-4.007 4.352-10.7 10.4-21.427 17.1-21.31 13.323-34.668 30.714-33.078 53.863h171.114c1.59-23.149-11.768-40.54-33.078-53.86z" opacity="1" data-original="url(#b)" class=""></path><path fill="url(#d)" d="M212.61 246.662a78.229 78.229 0 0 1-6.323-6.085A20.3 20.3 0 0 1 201 226.821v-25.03h-51.528v25.03c0 .557-.031 1.111-.075 1.662 11.213 9.476 31.763 21.117 63.213 18.179z" opacity="1" data-original="url(#d)" class=""></path><path fill="url(#b)" d="M222.025 150.452s11.208-54.974-31.673-68.184a51.449 51.449 0 0 0-30.234 0c-42.882 13.21-31.673 68.184-31.673 68.184s-11.373-6.824-11.373 12.672 15.6 21.446 15.6 21.446c4.259 15.891 15.045 24.349 24.692 28.828a42.494 42.494 0 0 0 35.748 0c9.647-4.479 20.432-12.937 24.692-28.828 0 0 15.6-1.95 15.6-21.446s-11.379-12.672-11.379-12.672z" opacity="1" data-original="url(#b)" class=""></path><g fill="#3c3c4f"><path d="M314.636 49.013a3.1 3.1 0 0 0-3.1-3.1h-17.453V28.46a3.1 3.1 0 0 0-3.1-3.1H260a3.1 3.1 0 0 0-3.1 3.1v17.457h-17.453a3.1 3.1 0 0 0-3.1 3.1V80a3.1 3.1 0 0 0 3.1 3.1H256.9v17.457a3.1 3.1 0 0 0 3.1 3.1h30.987a3.1 3.1 0 0 0 3.1-3.1V83.1h17.453a3.1 3.1 0 0 0 3.1-3.1zM308.444 76.9h-17.457a3.1 3.1 0 0 0-3.1 3.1v17.457H263.1V80a3.1 3.1 0 0 0-3.1-3.1h-17.457V52.109H260a3.1 3.1 0 0 0 3.1-3.1V31.556h24.8v17.457a3.1 3.1 0 0 0 3.1 3.1h17.457zM28.46 224.636h17.457v17.457a3.1 3.1 0 0 0 3.1 3.1H80a3.1 3.1 0 0 0 3.1-3.1v-17.457h17.456a3.1 3.1 0 0 0 3.1-3.1v-30.983a3.1 3.1 0 0 0-3.1-3.1H83.1V170a3.1 3.1 0 0 0-3.1-3.1H49.013a3.1 3.1 0 0 0-3.1 3.1v17.457H28.46a3.1 3.1 0 0 0-3.1 3.1v30.983a3.1 3.1 0 0 0 3.1 3.096zm3.1-30.987h17.453a3.1 3.1 0 0 0 3.1-3.1V173.1h24.8v17.457a3.1 3.1 0 0 0 3.1 3.1h17.444v24.795H80a3.1 3.1 0 0 0-3.1 3.1V239H52.1v-17.46a3.1 3.1 0 0 0-3.1-3.1H31.556z" fill="#3c3c4f" opacity="1" data-original="#3c3c4f"></path><path d="M141.905 238.48c-3.539 3.844-10.019 9.84-20.791 16.574-24.444 15.282-36.06 34.358-34.525 56.7a3.1 3.1 0 0 0 3.089 2.884h171.114a3.1 3.1 0 0 0 3.09-2.884c1.534-22.34-10.082-41.416-34.527-56.7-10.772-6.735-17.252-12.731-20.79-16.574a17.132 17.132 0 0 1-4.472-11.659v-16.265c0-.053-.013-.1-.015-.154a45.587 45.587 0 0 0 16.176-23.169c6.556-1.738 16.24-8.3 16.24-24.109 0-8.373-1.951-13.549-5.965-15.821a8.778 8.778 0 0 0-4.735-1.085 92.964 92.964 0 0 0-.47-25.412c-3.553-21.378-15.331-35.727-34.061-41.5a54.234 54.234 0 0 0-32.056 0c-18.73 5.77-30.509 20.119-34.06 41.5a92.843 92.843 0 0 0-.47 25.412 8.747 8.747 0 0 0-4.737 1.085c-4.014 2.272-5.964 7.448-5.964 15.821 0 15.811 9.683 22.371 16.239 24.109a45.6 45.6 0 0 0 16.161 23.157v16.431a17.136 17.136 0 0 1-4.471 11.659zm-6.246-54.712a3.124 3.124 0 0 0-2.586-2.268c-.527-.073-12.9-1.978-12.9-18.376 0-7.943 1.962-9.935 2.806-10.423a2.55 2.55 0 0 1 1.286-.312 6.2 6.2 0 0 1 2.592.718 3.1 3.1 0 0 0 4.627-3.272 87.2 87.2 0 0 1-.2-28.177c3.218-19.085 13.226-31.342 29.747-36.431a48.071 48.071 0 0 1 28.411 0c16.521 5.089 26.529 17.346 29.747 36.431a87.147 87.147 0 0 1-.2 28.177 3.105 3.105 0 0 0 4.6 3.285c.023-.013 2.363-1.307 3.9-.419.844.488 2.806 2.48 2.806 10.423 0 16.4-12.378 18.3-12.884 18.373a3.1 3.1 0 0 0-2.607 2.271c-3.278 12.232-11.018 21.256-23 26.822a39.266 39.266 0 0 1-33.14 0c-11.986-5.565-19.726-14.59-23.005-26.822zm20.4 32.438a45.439 45.439 0 0 0 38.354 0 55.99 55.99 0 0 0 3.489-1.788v12.4a23.31 23.31 0 0 0 6.108 15.853c3.8 4.123 10.705 10.529 22.064 17.631 21.579 13.491 31.992 29.263 31.748 48.139H92.649c-.244-18.876 10.17-34.649 31.748-48.139 8.989-5.62 16.619-11.716 22.064-17.631a23.313 23.313 0 0 0 6.107-15.853v-12.4a55.466 55.466 0 0 0 3.49 1.788z" fill="#3c3c4f" opacity="1" data-original="#3c3c4f"></path></g></g></svg>