<svg xmlns="http://www.w3.org/2000/svg" version="1.1" xmlns:xlink="http://www.w3.org/1999/xlink" width="512" height="512" x="0" y="0" viewBox="0 0 511.991 511.991" style="enable-background:new 0 0 512 512" xml:space="preserve" class=""><g><path fill="#fc7d4b" d="M434.446 383.688v64.508c0 3.54-1.865 6.82-4.914 8.625-15.224 9.066-64.458 36.075-128.074 47.519-5.135.923-10.14-2.237-11.484-7.281-4.754-17.792-17.411-32.365-33.969-39.726-16.568 7.351-29.235 21.924-33.989 39.726-1.344 5.045-6.348 8.204-11.484 7.271-63.616-11.433-112.849-38.442-128.074-47.509a10.02 10.02 0 0 1-4.914-8.625v-64.508z" opacity="1" data-original="#fc7d4b" class=""></path><path fill="#fb6a3b" d="M434.446 383.688v29.947H320.033c-4.824 13.77-17.943 23.669-33.338 23.669h-61.399c-15.395 0-28.513-9.899-33.337-23.669H77.545v-29.947z" opacity="1" data-original="#fb6a3b" class=""></path><path fill="#fb6a3b" d="M434.446 383.688v64.508c0 3.54-1.865 6.82-4.914 8.625-15.224 9.066-64.458 36.075-128.074 47.519-5.135.923-10.14-2.237-11.484-7.281a60.316 60.316 0 0 0-4.092-10.932c49.866-13.058 87.245-33.648 100.152-41.341a10.042 10.042 0 0 0 4.914-8.625v-52.473z" opacity="1" data-original="#fb6a3b" class=""></path><path fill="#fc7d4b" d="M434.451 197.247v165.365H77.54V197.247c0-2.319.924-4.537 2.564-6.178 12.775-12.784 68.053-74.903 45.347-172.642H386.54c-22.706 97.739 32.572 159.858 45.347 172.642a8.735 8.735 0 0 1 2.564 6.178z" opacity="1" data-original="#fc7d4b" class=""></path><g fill="#fb6a3b"><path d="m311.046 186.944 76.032-76.032c-6.71-25.585-8.866-56.635-.542-92.48h-16.478a29.527 29.527 0 0 0-3.861 3.25L255.996 131.883 145.774 21.661a29.853 29.853 0 0 0-3.841-3.229h-16.478c8.324 35.845 6.168 66.895-.542 92.48l76.032 76.032-123.4 123.4v52.273h57.839l120.612-120.612 120.612 120.612h57.839v-52.283zm-55.05 11.162-11.163-11.163 11.163-11.153 11.163 11.153z" fill="#fb6a3b" opacity="1" data-original="#fb6a3b" class=""></path><path d="M399.153 143.758a95.228 95.228 0 0 1-11.805 9.568 25.32 25.32 0 0 1-14.352 4.443c-10.631 0-20.219-6.71-23.87-16.689-4.433-12.155-6.78-23.89-7.983-33.789-12.687-1.394-22.586-12.186-22.586-25.244V18.432h67.978c-12.304 52.964-1.703 95.469 12.618 125.326zM193.433 18.432v63.616c0 13.058-9.899 23.85-22.586 25.244-1.203 9.899-3.55 21.633-7.983 33.789-3.641 9.979-13.239 16.689-23.87 16.689-5.135.01-10.1-1.534-14.352-4.443a95.21 95.21 0 0 1-11.804-9.568c14.322-29.857 24.923-72.361 12.617-125.326h67.978z" fill="#fb6a3b" opacity="1" data-original="#fb6a3b" class=""></path><path d="M434.446 197.244v165.373H390.95V197.244a8.763 8.763 0 0 0-2.558-6.178c-12.777-12.777-68.059-74.899-45.352-172.634h43.497c-22.706 97.735 32.575 159.857 45.352 172.634a8.762 8.762 0 0 1 2.557 6.178z" fill="#fb6a3b" opacity="1" data-original="#fb6a3b" class=""></path></g><path fill="#ba7c65" d="M283.036 18.428V94.28c0 5.888-4.773 10.661-10.661 10.661h-32.759c-5.888 0-10.661-4.773-10.661-10.661V18.428z" opacity="1" data-original="#ba7c65" class=""></path><path fill="#925b46" d="M434.446 361.925v31.652H77.545v-31.652l34.821-34.822h287.259z" opacity="1" data-original="#925b46"></path><g fill="#865240"><path d="M112.366 327.103h59.193l-66.474 66.474h-27.54v-31.652zM434.446 361.925v31.652h-27.54l-66.474-66.474h59.193z" fill="#865240" opacity="1" data-original="#865240"></path></g><path fill="#e0d3ce" d="M286.695 417.245h-61.4c-8.433 0-15.269-6.836-15.269-15.269v-83.27c0-8.433 6.836-15.269 15.269-15.269h61.4c8.433 0 15.269 6.836 15.269 15.269v83.27c0 8.432-6.836 15.269-15.269 15.269zm-51.365-25.303h41.332V328.74H235.33z" opacity="1" data-original="#e0d3ce"></path><path fill="#ba7c65" d="M242.746 226.891 79.567 390.061c-6.088 6.087-16.496 1.776-16.496-6.833V357.18a9.663 9.663 0 0 1 2.83-6.833l150.155-150.146c3.774-3.773 9.892-3.773 13.666 0l13.024 13.024a9.663 9.663 0 0 1 0 13.666zM407.077 62.554 295.942 173.688c-3.781 3.781-9.899 3.781-13.67 0l-13.028-13.018c-3.771-3.781-3.771-9.899 0-13.67L380.379 35.866c3.781-3.771 9.899-3.771 13.67 0l13.028 13.028c3.771 3.771 3.771 9.889 0 13.66z" opacity="1" data-original="#ba7c65" class=""></path><path fill="#a96a53" d="m407.077 62.554-62.573 62.573c-1.615-6.589-2.668-12.847-3.36-18.504-8.144-.893-15.134-5.667-19.106-12.416l58.34-58.34c3.781-3.771 9.899-3.771 13.67 0l13.028 13.028c3.772 3.77 3.772 9.888.001 13.659z" opacity="1" data-original="#a96a53"></path><path fill="#ba7c65" d="m242.747 160.67-13.028 13.018c-3.771 3.781-9.889 3.781-13.67 0L104.915 62.554c-3.771-3.771-3.771-9.889 0-13.66l13.028-13.028c3.771-3.771 9.889-3.771 13.67 0L242.747 147c3.771 3.771 3.771 9.889 0 13.67z" opacity="1" data-original="#ba7c65" class=""></path><path fill="#a96a53" d="M189.953 94.206c-3.972 6.75-10.962 11.524-19.106 12.416-.692 5.657-1.745 11.915-3.36 18.504l-62.573-62.573c-3.771-3.771-3.771-9.889 0-13.66l13.028-13.028c3.771-3.771 9.889-3.771 13.67 0z" opacity="1" data-original="#a96a53"></path><path fill="#ba7c65" d="M448.92 357.18v26.048c0 8.609-10.408 12.92-16.496 6.833l-163.179-163.17a9.663 9.663 0 0 1 0-13.666l13.024-13.024a9.663 9.663 0 0 1 13.666 0L446.09 350.347a9.663 9.663 0 0 1 2.83 6.833z" opacity="1" data-original="#ba7c65" class=""></path><path fill="#e0d3ce" d="M338.617 18.161V82.05c0 3.728 3.728 6.304 7.215 4.986l14.4-5.442s-2.317 25.027 7.741 52.609c1.196 3.281 5.161 4.545 8.044 2.573 9.936-6.798 29.48-23.757 29.48-51.984L421.297 98c2.399 2.006 6.009 1.537 7.789-1.034 5.804-8.385 15.404-30.558 7.805-80.453-.79-5.191-5.283-9.013-10.534-9.013h-77.079c-5.887 0-10.661 4.773-10.661 10.661z" opacity="1" data-original="#e0d3ce"></path><path fill="#cdbfbb" d="M429.091 96.961c-1.785 2.577-5.396 3.049-7.793 1.043l-15.806-13.209c0 28.222-19.537 45.182-29.476 51.982-2.878 1.976-6.85.702-8.044-2.578-2.497-6.85-4.232-13.549-5.426-19.738 5.955-7.248 11.312-16.775 13.168-28.701.583-3.747 5.007-5.444 7.917-3.012l8.582 7.171c2.397 2.006 6.008 1.534 7.783-1.033 5.807-8.384 15.405-30.559 7.813-80.455a8.799 8.799 0 0 0-.191-.933h18.735c5.256 0 9.749 3.821 10.541 9.016 7.592 49.898-2.006 72.063-7.803 80.447z" opacity="1" data-original="#cdbfbb"></path><path fill="#e0d3ce" d="M173.374 18.161V82.05c0 3.728-3.728 6.304-7.215 4.986l-14.4-5.442s2.317 25.027-7.741 52.609c-1.196 3.281-5.161 4.545-8.044 2.573-9.936-6.798-29.48-23.757-29.48-51.984L90.695 98c-2.399 2.006-6.009 1.537-7.789-1.034-5.804-8.385-15.404-30.558-7.805-80.453.79-5.191 5.282-9.013 10.533-9.013h77.079c5.888 0 10.661 4.773 10.661 10.661z" opacity="1" data-original="#e0d3ce"></path><g fill="#fcc16d"><path d="m307.259 274.336-14.42-14.42a5.016 5.016 0 0 1 0-7.092l28.367-28.367a5.016 5.016 0 0 1 7.092 0l14.42 14.42a5.016 5.016 0 0 1 0 7.092l-28.367 28.367a5.014 5.014 0 0 1-7.092 0zM204.732 274.336l14.42-14.42a5.016 5.016 0 0 0 0-7.092l-28.367-28.367a5.016 5.016 0 0 0-7.092 0l-14.42 14.42a5.016 5.016 0 0 0 0 7.092l28.367 28.367a5.014 5.014 0 0 0 7.092 0z" fill="#fcc16d" opacity="1" data-original="#fcc16d"></path></g><path d="M276.662 321.239H235.33a7.499 7.499 0 0 0-7.5 7.5v63.202c0 4.143 3.357 7.5 7.5 7.5h41.332c4.143 0 7.5-3.357 7.5-7.5v-63.202a7.5 7.5 0 0 0-7.5-7.5zm-7.5 63.202H242.83v-48.202h26.332z" fill="#000000" opacity="1" data-original="#000000" class=""></path><path d="m451.392 345.043-9.441-9.441V197.247c0-4.332-1.69-8.409-4.759-11.479-5.813-5.818-25.532-27.242-37.887-60.94 5.113-6.775 9.696-15.218 12.041-25.37l5.141 4.297a12.877 12.877 0 0 0 9.963 2.875 12.814 12.814 0 0 0 8.803-5.395c6.774-9.784 16.958-33.949 9.055-85.85C442.949 6.47 435.401 0 426.357 0h-77.078c-7.443 0-13.847 4.505-16.649 10.928H179.361C176.56 4.505 170.155 0 162.712 0H85.634c-9.042 0-16.591 6.47-17.948 15.384-7.904 51.901 2.279 76.066 9.053 85.85a12.822 12.822 0 0 0 8.804 5.396c3.57.48 7.199-.565 9.963-2.875l5.141-4.297c2.345 10.152 6.927 18.595 12.041 25.371-12.353 33.687-32.045 55.093-37.887 60.94a16.138 16.138 0 0 0-4.759 11.479v31.591c0 4.143 3.357 7.5 7.5 7.5s7.5-3.357 7.5-7.5v-31.591c0-.327.131-.639.368-.876 7.642-7.647 25.688-27.865 38.644-59.378a82.784 82.784 0 0 0 7.686 5.972 12.785 12.785 0 0 0 11.187 1.633 12.753 12.753 0 0 0 8.137-7.826 133.964 133.964 0 0 0 4.085-13.378l51.468 51.467a50.97 50.97 0 0 0-.261 24.436l-16.477 16.476a12.635 12.635 0 0 0-2.638-.285 12.439 12.439 0 0 0-8.85 3.665l-14.421 14.422c-3.11 3.111-4.228 7.464-3.372 11.476l-75.556 75.551v-58.44c0-4.143-3.357-7.5-7.5-7.5s-7.5 3.357-7.5 7.5v73.439l-9.442 9.442a17.053 17.053 0 0 0-5.027 12.137v26.049c0 6.966 4.159 13.19 10.596 15.856a17.23 17.23 0 0 0 3.878 1.08v48.033c0 6.146 3.286 11.92 8.576 15.071 14.097 8.393 65.174 36.688 130.58 48.447 8.915 1.599 17.728-3.984 20.062-12.72 3.806-14.25 13.686-26.493 26.741-33.339 13.045 6.851 22.921 19.095 26.726 33.339 2.064 7.729 9.2 12.994 16.992 12.994 1.015 0 2.041-.09 3.068-.274 65.407-11.76 116.484-40.055 130.582-48.448 5.289-3.15 8.575-8.925 8.575-15.07v-48.033a17.23 17.23 0 0 0 3.878-1.08 17.113 17.113 0 0 0 10.596-15.856v-26.05a17.065 17.065 0 0 0-5.031-12.137zm-24.441-147.796v123.356l-24.749-24.748a7.5 7.5 0 0 0-10.606.001 7.498 7.498 0 0 0 .001 10.606l49.189 49.188c.409.408.635.952.635 1.529v26.049c0 1.194-.727 1.746-1.336 1.998-.607.254-1.513.377-2.357-.469L326.129 273.165l16.083-16.083 25.82 25.818c1.464 1.464 3.384 2.196 5.303 2.196s3.839-.732 5.304-2.197a7.498 7.498 0 0 0-.001-10.606l-27.244-27.242c.856-4.012-.262-8.366-3.373-11.478l-14.42-14.42a12.437 12.437 0 0 0-8.85-3.665c-.898 0-1.78.101-2.638.285l-16.472-16.471a51.015 51.015 0 0 0-.268-24.438l51.469-51.469a133.935 133.935 0 0 0 4.084 13.377 12.753 12.753 0 0 0 8.137 7.826 12.783 12.783 0 0 0 11.186-1.632 82.866 82.866 0 0 0 7.689-5.976c12.968 31.537 31.034 51.768 38.642 59.38.24.238.371.55.371.877zm-140.255 98.69h-61.4c-12.555 0-22.769 10.214-22.769 22.769v.895h-41.888l36.851-36.849c1.182.364 2.424.555 3.696.555a12.44 12.44 0 0 0 8.85-3.666l14.42-14.42c3.386-3.387 4.417-8.246 3.102-12.535l15.694-15.692a51.35 51.35 0 0 0 12.735 1.603c4.297 0 8.593-.54 12.754-1.605l15.694 15.693c-1.315 4.289-.284 9.149 3.102 12.535l14.419 14.418.001.002a12.438 12.438 0 0 0 8.85 3.666c1.272 0 2.514-.191 3.696-.555l36.85 36.849h-41.887v-.895c-.002-12.555-10.216-22.768-22.77-22.768zm7.768 22.768v83.271c0 4.283-3.485 7.769-7.769 7.769h-61.4c-4.283 0-7.769-3.485-7.769-7.769v-83.271c0-4.283 3.485-7.769 7.769-7.769h61.4c4.284.001 7.769 3.486 7.769 7.769zM70.571 357.18c0-.577.226-1.121.634-1.529l98.574-98.569 16.084 16.083-111.6 111.593c-.846.845-1.75.722-2.356.469-.609-.252-1.336-.804-1.336-1.998zm75.067-22.58h56.888v51.477H94.159zm74.577-150.802c.878.137 1.767.226 2.672.226h.011a17.032 17.032 0 0 0 12.123-5.03l13.036-13.026c3.867-3.878 5.48-9.158 4.868-14.215a36.085 36.085 0 0 1 6.141.006c-.609 5.056 1.006 10.335 4.877 14.217l13.019 13.009a17.04 17.04 0 0 0 12.132 5.039h.011c.906 0 1.797-.09 2.676-.227a36.03 36.03 0 0 1 .116 6.326c-5.273-.864-10.872.717-14.93 4.774l-13.025 13.024c-4.212 4.213-5.767 10.088-4.676 15.533-2.172.195-4.36.172-6.533-.022 1.083-5.439-.475-11.304-4.682-15.512l-13.023-13.023c-4.06-4.059-9.663-5.639-14.938-4.773-.15-2.108-.1-4.223.125-6.326zm-39.341-157.87h40.581v2.994a7.454 7.454 0 0 0-4.29 2.482 7.5 7.5 0 0 0 .813 10.575l3.477 2.98v39.477l-3.477 2.98a7.498 7.498 0 0 0-.813 10.575 7.472 7.472 0 0 0 5.447 2.606c2.575 6.903 9.215 11.842 17.004 11.842h8.88v3.376c0 4.143 3.357 7.5 7.5 7.5s7.5-3.357 7.5-7.5v-3.376h8.88c7.789 0 14.429-4.939 17.004-11.841a7.473 7.473 0 0 0 5.466-2.607 7.5 7.5 0 0 0-.813-10.575l-3.495-2.996V44.976l3.495-2.996a7.498 7.498 0 0 0 .813-10.575 7.467 7.467 0 0 0-4.309-2.485v-2.991h40.581v48.677a7.651 7.651 0 0 0-.683.598l-62.766 62.768a51.003 51.003 0 0 0-23.346 0l-63.449-63.45zm94.663 65.391v2.96a3.165 3.165 0 0 1-3.161 3.161h-32.76a3.165 3.165 0 0 1-3.161-3.161v-2.944l19.55-16.759zm-8.008-26.621 8.008-6.865v13.729zm-31.074 6.881V57.818l8.027 6.88zm74.35 195.696L299.9 256.37l24.853-24.853 10.905 10.905zm-16.795-26.228-19.461-19.46a2.165 2.165 0 0 1-.001-3.059l13.025-13.023a2.163 2.163 0 0 1 3.059 0l19.461 19.459zm-72.649-35.542a2.124 2.124 0 0 1 1.529-.634c.408 0 1.005.11 1.529.634l13.023 13.022c.844.844.844 2.217.001 3.06l-19.462 19.46-16.083-16.083zM346.118 18.161A3.165 3.165 0 0 1 349.279 15h77.078c1.549 0 2.891 1.136 3.12 2.642 6.732 44.21-.568 64.851-5.272 73.015l-13.897-11.618a7.5 7.5 0 0 0-12.31 5.755c0 22.428-14.061 36.822-23.918 44.154-8.235-24.482-6.396-46.446-6.378-46.662a7.5 7.5 0 0 0-10.119-7.707l-11.464 4.332v-60.75zm2.366 75.891 4.075-1.54c.113 3.663.4 8.061.99 12.963l-62.911 62.911a2.131 2.131 0 0 1-1.534.639h-.002c-.405 0-.999-.11-1.528-.642l-13.019-13.009a2.172 2.172 0 0 1-.007-3.069l60.77-60.771c.42.382.862.744 1.336 1.071a12.822 12.822 0 0 0 11.83 1.447zm-72.947-55.975L256.005 54.82l-19.55-16.759V25.928h39.082zm-137.624 90.87c-9.857-7.331-23.918-21.726-23.918-44.154a7.499 7.499 0 0 0-7.499-7.5 7.505 7.505 0 0 0-4.812 1.745L87.787 90.656c-4.704-8.162-12.005-28.805-5.272-73.014.229-1.506 1.57-2.642 3.119-2.642h77.078a3.165 3.165 0 0 1 3.161 3.161V78.91l-11.464-4.332a7.508 7.508 0 0 0-10.121 7.695c.021.227 1.861 22.191-6.375 46.674zm21.519-36.435 4.074 1.54a12.838 12.838 0 0 0 11.831-1.446c.474-.328.916-.689 1.336-1.071l60.771 60.771c.844.844.84 2.221.001 3.061l-13.036 13.026a2.11 2.11 0 0 1-1.52.633h-.002a2.126 2.126 0 0 1-1.534-.64l-62.911-62.911c.59-4.902.877-9.3.99-12.963zm27.807 139.006 24.853 24.853-10.905 10.905-24.853-24.853zm238.458 218.863c-13.548 8.065-62.641 35.26-125.563 46.572-1.314.235-2.571-.547-2.913-1.827-5.333-19.962-19.245-36.235-38.169-44.649a7.506 7.506 0 0 0-6.09-.002c-18.938 8.406-32.858 24.682-38.192 44.652-.342 1.277-1.592 2.063-2.914 1.826-62.921-11.313-112.014-38.507-125.561-46.571a2.561 2.561 0 0 1-1.251-2.184v-47.122h117.482v.899c0 12.555 10.214 22.769 22.769 22.769h61.4c12.555 0 22.769-10.214 22.769-22.769v-.899h13.869c4.143 0 7.5-3.357 7.5-7.5s-3.357-7.5-7.5-7.5h-13.869V334.6h56.888l51.479 51.477h-61.173c-4.143 0-7.5 3.357-7.5 7.5s3.357 7.5 7.5 7.5h70.289v47.122a2.56 2.56 0 0 1-1.25 2.182z" fill="#000000" opacity="1" data-original="#000000" class=""></path><path d="m327.203 352.841-.09-.001h-.083c-4.104 0-7.408 3.305-7.453 7.419-.045 4.142 3.321 7.536 7.464 7.582h.083a7.5 7.5 0 0 0 .079-15zM353.956 367.841a7.5 7.5 0 0 0 .079-15l-.09-.001h-.083c-4.104 0-7.408 3.305-7.453 7.419-.045 4.142 3.321 7.536 7.464 7.582zM158.208 352.841l-.09-.001h-.083c-4.104 0-7.408 3.305-7.453 7.419-.045 4.142 3.321 7.536 7.464 7.582h.083a7.5 7.5 0 0 0 .079-15zM185.041 352.841l-.09-.001h-.083c-4.104 0-7.408 3.305-7.453 7.419-.045 4.142 3.321 7.536 7.464 7.582h.083a7.5 7.5 0 0 0 .079-15zM393.851 66.987c1.464 1.464 3.384 2.196 5.303 2.196s3.839-.732 5.304-2.196l6.918-6.918a7.5 7.5 0 0 0-10.607-10.607l-1.614 1.615-1.616-1.615a7.5 7.5 0 0 0-10.606.001 7.498 7.498 0 0 0 .001 10.606zM150.875 31.436a7.5 7.5 0 0 0-10.606-.001l-1.616 1.615-1.614-1.615a7.5 7.5 0 0 0-10.607 10.607l6.918 6.918a7.48 7.48 0 0 0 5.304 2.196 7.477 7.477 0 0 0 5.303-2.196l6.919-6.918a7.5 7.5 0 0 0-.001-10.606zM109.548 48.688l-1.614 1.614-1.615-1.615a7.5 7.5 0 0 0-10.607 10.607l6.919 6.919a7.502 7.502 0 0 0 10.608-.001l6.918-6.919a7.498 7.498 0 0 0-.001-10.606 7.503 7.503 0 0 0-10.608.001z" fill="#000000" opacity="1" data-original="#000000" class=""></path></g></svg>