<svg xmlns="http://www.w3.org/2000/svg" version="1.1" xmlns:xlink="http://www.w3.org/1999/xlink" width="512" height="512" x="0" y="0" viewBox="0 0 512 512" style="enable-background:new 0 0 512 512" xml:space="preserve" class=""><g><path fill="#995f47" d="M416 50V30h-42v20H196c-11.05 0-20 8.95-20 20v100c0 11.05 8.95 20 20 20h178v20h42v-20h86V50zm0 0" opacity="1" data-original="#995f47"></path><path fill="#ffd765" d="M176 170v-30h40c11.04 0 20-8.96 20-20 0-11.05-8.95-20-20-20h-40V70c0-11.05 8.95-20 20-20h100c0-22.09-17.91-40-40-40h-80c-33.133 0-60 26.84-60 60v100c0 33.137 26.848 60 60 60h80c22.09 0 40-17.91 40-40H196c-11.05 0-20-8.95-20-20zm0 0" opacity="1" data-original="#ffd765"></path><path fill="#995f47" d="M10 50h109.41A59.934 59.934 0 0 0 116 70v100c0 7.012 1.2 13.738 3.41 20H10zm0 0" opacity="1" data-original="#995f47"></path><path d="M416 110c-5.52 0-10 4.48-10 10s4.48 10 10 10 10-4.48 10-10-4.48-10-10-10zM296 100c5.52 0 10-4.48 10-10s-4.48-10-10-10-10 4.48-10 10 4.48 10 10 10zM296 140c-5.52 0-10 4.48-10 10s4.48 10 10 10 10-4.48 10-10-4.48-10-10-10zM50 80c-5.52 0-10 4.48-10 10s4.48 10 10 10 10-4.48 10-10-4.48-10-10-10zM50 140c-5.52 0-10 4.48-10 10s4.48 10 10 10 10-4.48 10-10-4.48-10-10-10zm0 0" fill="#000000" opacity="1" data-original="#000000" class=""></path><path d="M502 40h-76V30c0-5.523-4.477-10-10-10h-42c-5.523 0-10 4.477-10 10v10h-59.008C300.348 17.203 280.148 0 256 0h-80c-27.191 0-51.77 15.813-63.254 40H10C4.477 40 0 44.477 0 50v140c0 5.523 4.477 10 10 10h102.746c11.484 24.188 36.063 40 63.254 40h80c24.145 0 44.348-17.203 48.992-40H364v10c0 5.523 4.477 10 10 10h42c5.523 0 10-4.477 10-10v-10h76c5.523 0 10-4.477 10-10V50c0-5.523-4.477-10-10-10zM20 59.988h86.723a70.451 70.451 0 0 0-.723 10V170c0 3.367.254 6.703.723 10H20zM256 220h-80c-27.277 0-50-22.066-50-50V70c0-27.938 22.727-50 50-50h80c13.04 0 24.16 8.36 28.285 20H196c-16.543 0-30 13.457-30 30v21.703c-11.39 4.02-20 14.969-20 28.297 0 13.035 8.36 24.152 20 28.281V170c0 16.543 13.457 29.988 30 29.988h88.285C280.16 211.633 269.04 220 256 220zm-80-90c-5.516 0-10-4.484-10-10 0-5.52 4.477-10 10-10h40c5.516 0 10 4.484 10 10 0 5.52-4.477 10-10 10zm20 50c-5.516 0-10-4.484-10-10v-20h30c16.574 0 30-13.426 30-30 0-16.543-13.457-30-30-30h-30V70c0-5.516 4.484-10 10-10h168v120H196zm296 0h-66v-20c0-5.523-4.477-10-10-10s-10 4.477-10 10v40h-22V40h22v40c0 5.523 4.477 10 10 10s10-4.477 10-10V60h66zm0 0" fill="#000000" opacity="1" data-original="#000000" class=""></path></g></svg>