<svg xmlns="http://www.w3.org/2000/svg" version="1.1" xmlns:xlink="http://www.w3.org/1999/xlink" width="512" height="512" x="0" y="0" viewBox="0 0 682.667 682.665" style="enable-background:new 0 0 512 512" xml:space="preserve" class=""><g><defs><clipPath id="a" clipPathUnits="userSpaceOnUse"><path d="M0 511.999h512V0H0Z" fill="#000000" opacity="1" data-original="#000000"></path></clipPath></defs><g clip-path="url(#a)" transform="matrix(1.33333 0 0 -1.33333 0 682.665)"><path d="M0 0c11.268-7.512 18.269-13.641 31.432-13.641h248.097l-3.626 45.264c-4.81 57.39-52.794 101.52-110.384 101.52h-42.74c-45.385 0-82.177 36.792-82.177 82.178v69.487h-219.447V6.27h158.138A37.33 37.33 0 0 0 0 0" style="fill-opacity:1;fill-rule:nonzero;stroke:none" transform="translate(202.885 112.757)" fill="#a86d38" data-original="#a86d38"></path><path d="M24.04 119.026h20v278.538h-20z" style="fill-opacity:1;fill-rule:nonzero;stroke:none" fill="#995f30" data-original="#995f30"></path><path d="M0 0h-31.812c-16.439-17.41-26.537-40.873-26.537-66.709v-80.074h172.36l-3.626 45.263C105.574-44.13 57.591 0 0 0" style="fill-opacity:1;fill-rule:nonzero;stroke:none" transform="translate(368.403 245.9)" fill="#995f30" data-original="#995f30"></path><path d="M0 0h-20c-16.439-17.41-26.537-40.873-26.537-66.709v-80.074h20v80.074C-26.537-40.873-16.439-17.41 0 0" style="fill-opacity:1;fill-rule:nonzero;stroke:none" transform="translate(356.592 245.9)" fill="#8e552b" data-original="#8e552b"></path><path d="M0 0h-24.397v-91.064h89.063v26.397C64.666-28.952 35.714 0 0 0" style="fill-opacity:1;fill-rule:nonzero;stroke:none" transform="translate(48.438 210.09)" fill="#995f30" data-original="#995f30"></path><path d="M24.04 119.026h20v91.064h-20z" style="fill-opacity:1;fill-rule:nonzero;stroke:none" fill="#8e552b" data-original="#8e552b"></path><path d="M0 0h-219.446c-9.091 0-16.528-7.437-16.528-16.527v-56.928c0-9.089 7.437-16.527 16.528-16.527H0c9.09 0 16.527 7.438 16.527 16.527v56.928C16.527-7.437 9.09 0 0 0" style="fill-opacity:1;fill-rule:nonzero;stroke:none" transform="translate(243.486 485.546)" fill="#a86d38" data-original="#a86d38"></path><path d="M0 0v56.927c0 9.091 7.437 16.528 16.527 16.528h-20c-9.09 0-16.527-7.437-16.527-16.528V0c0-9.09 7.437-16.527 16.527-16.527h20C7.437-16.527 0-9.09 0 0" style="fill-opacity:1;fill-rule:nonzero;stroke:none" transform="translate(27.513 412.092)" fill="#995f30" data-original="#995f30"></path><path d="M0 0v-18.363c0-9.09 7.437-16.528 16.527-16.528h219.447c9.089 0 16.527 7.438 16.527 16.528V0z" style="fill-opacity:1;fill-rule:nonzero;stroke:none" transform="translate(7.513 430.455)" fill="#b78046" data-original="#b78046"></path><path d="M0 0v18.363h-20V0c0-9.089 7.437-16.527 16.527-16.527h20C7.437-16.527 0-9.09 0 0" style="fill-opacity:1;fill-rule:nonzero;stroke:none" transform="translate(27.513 412.092)" fill="#a86d38" data-original="#a86d38"></path><path d="M0 0v-37.063a8.091 8.091 0 0 1 8.092-8.092h138.703a7.46 7.46 0 0 1 7.46 7.461v6.712c0 5.318 6.221 7.661 11.907 3.871l17.661-11.775a37.329 37.329 0 0 1 20.706-6.269h276.486c8.811 0 15.954 7.142 15.954 15.954V0Z" style="fill-opacity:1;fill-rule:nonzero;stroke:none" transform="translate(7.513 71.608)" fill="#4d5370" data-original="#4d5370"></path><path d="M0 0v37.063h-20V0a8.091 8.091 0 0 1 8.092-8.092h20A8.091 8.091 0 0 0 0 0" style="fill-opacity:1;fill-rule:nonzero;stroke:none" transform="translate(27.513 34.544)" fill="#444a63" data-original="#444a63"></path><path d="M0 0v9.442c0 12.187-9.88 22.067-22.067 22.067h-248.099c-23.069 0-28.564 19.91-52.138 19.91h-166a8.665 8.665 0 0 1-8.665-8.665V0Z" style="fill-opacity:1;fill-rule:nonzero;stroke:none" transform="translate(504.481 69.608)" fill="#616584" data-original="#616584"></path><path d="M0 0a8.665 8.665 0 0 0 8.665 8.665h-20A8.665 8.665 0 0 1-20 0v-42.754H0Z" style="fill-opacity:1;fill-rule:nonzero;stroke:none" transform="translate(27.513 112.361)" fill="#4d5370" data-original="#4d5370"></path><path d="M0 0v-18.363c0-9.09 7.437-16.528 16.527-16.528h219.447c9.09 0 16.527 7.438 16.527 16.528V0z" style="stroke-width:15;stroke-linecap:round;stroke-linejoin:round;stroke-miterlimit:10;stroke-dasharray:none;stroke-opacity:1" transform="translate(7.516 430.455)" fill="none" stroke="#000000" stroke-width="15" stroke-linecap="round" stroke-linejoin="round" stroke-miterlimit="10" stroke-dasharray="none" stroke-opacity="" data-original="#000000"></path><path d="M0 0h-248.1c-13.161 0-20.159 6.126-31.43 13.641a37.33 37.33 0 0 1-20.707 6.269h-165.999a8.666 8.666 0 0 1-8.666-8.665v-77.817a8.092 8.092 0 0 1 8.091-8.092h138.704a7.462 7.462 0 0 1 7.461 7.461v6.712a5.738 5.738 0 0 0 5.738 5.738c2.195 0 4.342-.649 6.169-1.867l17.66-11.775a37.338 37.338 0 0 1 20.707-6.269H6.112c8.812 0 15.954 7.143 15.954 15.954v36.644C22.066-9.88 12.187 0 0 0Z" style="stroke-width:15;stroke-linecap:round;stroke-linejoin:round;stroke-miterlimit:10;stroke-dasharray:none;stroke-opacity:1" transform="translate(482.418 101.116)" fill="none" stroke="#000000" stroke-width="15" stroke-linecap="round" stroke-linejoin="round" stroke-miterlimit="10" stroke-dasharray="none" stroke-opacity="" data-original="#000000"></path><path d="M0 0v9.442c0 12.187-9.88 22.067-22.066 22.067h-248.1c-13.161 0-20.159 6.126-31.431 13.64a37.33 37.33 0 0 1-20.707 6.27h-165.999a8.666 8.666 0 0 1-8.666-8.665V0Z" style="stroke-width:15;stroke-linecap:round;stroke-linejoin:round;stroke-miterlimit:10;stroke-dasharray:none;stroke-opacity:1" transform="translate(504.484 69.608)" fill="none" stroke="#000000" stroke-width="15" stroke-linecap="round" stroke-linejoin="round" stroke-miterlimit="10" stroke-dasharray="none" stroke-opacity="" data-original="#000000"></path><path d="M0 0c11.268-7.512 18.27-13.641 31.432-13.641H279.53l-3.627 43.264c-4.809 57.39-52.794 101.52-110.384 101.52H122.78c-45.385 0-82.178 36.792-82.178 82.178v67.487h-219.447V6.27h158.138A37.33 37.33 0 0 0 0 0Z" style="stroke-width:15;stroke-linecap:round;stroke-linejoin:round;stroke-miterlimit:10;stroke-dasharray:none;stroke-opacity:1" transform="translate(202.888 114.757)" fill="none" stroke="#000000" stroke-width="15" stroke-linecap="round" stroke-linejoin="round" stroke-miterlimit="10" stroke-dasharray="none" stroke-opacity="" data-original="#000000"></path><path d="M0 0h-24.397v-89.064h89.064v24.397C64.667-28.952 35.715 0 0 0Z" style="stroke-width:15;stroke-linecap:round;stroke-linejoin:round;stroke-miterlimit:10;stroke-dasharray:none;stroke-opacity:1" transform="translate(48.44 210.09)" fill="none" stroke="#000000" stroke-width="15" stroke-linecap="round" stroke-linejoin="round" stroke-miterlimit="10" stroke-dasharray="none" stroke-opacity="" data-original="#000000"></path><path d="M0 0h46.928" style="stroke-width:15;stroke-linecap:round;stroke-linejoin:round;stroke-miterlimit:10;stroke-dasharray:none;stroke-opacity:1" transform="translate(206.303 348.278)" fill="none" stroke="#000000" stroke-width="15" stroke-linecap="round" stroke-linejoin="round" stroke-miterlimit="10" stroke-dasharray="none" stroke-opacity="" data-original="#000000"></path><path d="m0 0 46.794 3.543" style="stroke-width:15;stroke-linecap:round;stroke-linejoin:round;stroke-miterlimit:10;stroke-dasharray:none;stroke-opacity:1" transform="translate(207.747 307.426)" fill="none" stroke="#000000" stroke-width="15" stroke-linecap="round" stroke-linejoin="round" stroke-miterlimit="10" stroke-dasharray="none" stroke-opacity="" data-original="#000000"></path><path d="m0 0 41.59 20.246" style="stroke-width:15;stroke-linecap:round;stroke-linejoin:round;stroke-miterlimit:10;stroke-dasharray:none;stroke-opacity:1" transform="translate(225.064 260.683)" fill="none" stroke="#000000" stroke-width="15" stroke-linecap="round" stroke-linejoin="round" stroke-miterlimit="10" stroke-dasharray="none" stroke-opacity="" data-original="#000000"></path><path d="m0 0 25.181 36.646" style="stroke-width:15;stroke-linecap:round;stroke-linejoin:round;stroke-miterlimit:10;stroke-dasharray:none;stroke-opacity:1" transform="translate(264.148 222.067)" fill="none" stroke="#000000" stroke-width="15" stroke-linecap="round" stroke-linejoin="round" stroke-miterlimit="10" stroke-dasharray="none" stroke-opacity="" data-original="#000000"></path><path d="M0 0h-82.172c-9.09 0-16.527-7.437-16.527-16.527v-56.928c0-9.089 7.437-16.527 16.527-16.527h219.446c9.091 0 16.528 7.438 16.528 16.527v56.928c0 9.09-7.437 16.527-16.528 16.527H35" style="stroke-width:15;stroke-linecap:round;stroke-linejoin:round;stroke-miterlimit:10;stroke-dasharray:none;stroke-opacity:1" transform="translate(106.215 485.546)" fill="none" stroke="#000000" stroke-width="15" stroke-linecap="round" stroke-linejoin="round" stroke-miterlimit="10" stroke-dasharray="none" stroke-opacity="" data-original="#000000"></path><path d="M0 0v-46.942h172.359l-3.626 43.263c-4.81 57.39-52.795 101.52-110.385 101.52H26.536C10.922 81.304 1.036 59.305.083 35" style="stroke-width:15;stroke-linecap:round;stroke-linejoin:round;stroke-miterlimit:10;stroke-dasharray:none;stroke-opacity:1" transform="translate(310.059 148.059)" fill="none" stroke="#000000" stroke-width="15" stroke-linecap="round" stroke-linejoin="round" stroke-miterlimit="10" stroke-dasharray="none" stroke-opacity="" data-original="#000000"></path></g></g></svg>