<svg xmlns="http://www.w3.org/2000/svg" version="1.1" xmlns:xlink="http://www.w3.org/1999/xlink" width="512" height="512" x="0" y="0" viewBox="0 0 682.667 682.667" style="enable-background:new 0 0 512 512" xml:space="preserve" class=""><g><defs><clipPath id="a" clipPathUnits="userSpaceOnUse"><path d="M0 512h512V0H0Z" fill="#000000" opacity="1" data-original="#000000"></path></clipPath></defs><g clip-path="url(#a)" transform="matrix(1.33333 0 0 -1.33333 0 682.667)"><path d="M0 0c67.79 69.601 141.52 87.944 170.663 92.646 6.763 1.092 12.886-4.138 12.886-10.989V0Z" style="fill-opacity:1;fill-rule:nonzero;stroke:none" transform="translate(36.432 401.794)" fill="#766e6f" data-original="#766e6f"></path><path d="M0 0v-81.66h-34.28V0c0 2.24-.66 4.31-1.78 6.04 9.32 2.439 17.19 3.98 23.18 4.95C-6.12 12.08 0 6.85 0 0" style="fill-opacity:1;fill-rule:nonzero;stroke:none" transform="translate(219.98 483.45)" fill="#5b5555" data-original="#5b5555"></path><path d="M0 0c67.79 69.601 141.52 87.944 170.663 92.646 6.763 1.092 12.886-4.138 12.886-10.989V0Z" style="stroke-width:15;stroke-linecap:round;stroke-linejoin:round;stroke-miterlimit:10;stroke-dasharray:none;stroke-opacity:1" transform="translate(36.432 401.794)" fill="none" stroke="#000000" stroke-width="15" stroke-linecap="round" stroke-linejoin="round" stroke-miterlimit="10" stroke-dasharray="none" stroke-opacity="" data-original="#000000" class=""></path><path d="M0 0c-67.79 69.601-141.52 87.944-170.663 92.646-6.763 1.092-12.886-4.138-12.886-10.989V0Z" style="fill-opacity:1;fill-rule:nonzero;stroke:none" transform="translate(219.981 401.794)" fill="#b9acac" data-original="#b9acac"></path><path d="M0 0h-47.78c-48.21 49.49-99.42 73.07-135.46 84.25 1.3 5.52 6.69 9.35 12.58 8.4C-141.52 87.95-67.79 69.6 0 0" style="fill-opacity:1;fill-rule:nonzero;stroke:none" transform="translate(219.98 401.79)" fill="#9e9797" data-original="#9e9797"></path><path d="M0 0c-67.79 69.601-141.52 87.944-170.663 92.646-6.763 1.092-12.886-4.138-12.886-10.989V0Z" style="stroke-width:15;stroke-linecap:round;stroke-linejoin:round;stroke-miterlimit:10;stroke-dasharray:none;stroke-opacity:1" transform="translate(219.981 401.794)" fill="none" stroke="#000000" stroke-width="15" stroke-linecap="round" stroke-linejoin="round" stroke-miterlimit="10" stroke-dasharray="none" stroke-opacity="" data-original="#000000" class=""></path><path d="M0 0v-41.173c0-6.146 4.982-11.128 11.127-11.128H474.33c6.146 0 11.128 4.982 11.128 11.128V-.332z" style="fill-opacity:1;fill-rule:nonzero;stroke:none" transform="translate(19.042 69.716)" fill="#766e6f" data-original="#766e6f"></path><path d="M0 0h69.71c6.146 0 11.128 4.981 11.128 11.128v40.841l-485.458.332V11.128C-404.62 4.981-399.638 0-393.493 0h360.169" style="stroke-width:15;stroke-linecap:round;stroke-linejoin:round;stroke-miterlimit:10;stroke-dasharray:none;stroke-opacity:1" transform="translate(423.662 17.415)" fill="none" stroke="#000000" stroke-width="15" stroke-linecap="round" stroke-linejoin="round" stroke-miterlimit="10" stroke-dasharray="none" stroke-opacity="" data-original="#000000" class=""></path><path d="M0 0c-28.551 44.377-111.748 86.073-191.817 99.127-28.933 4.717-50.907 28.556-53.088 57.789l-9.098 121.939a11.128 11.128 0 0 1-11.097 10.3h-190.028c-6.146 0-11.128-4.981-11.128-11.127v-336.06c0-6.146 4.982-11.128 11.128-11.128H8.06c6.018 0 10.984 4.779 11.125 10.796C19.458-46.616 16.719-25.986 0 0" style="fill-opacity:1;fill-rule:nonzero;stroke:none" transform="translate(485.298 127.748)" fill="#935b44" data-original="#935b44"></path><path d="M0 0c-.14-6.01-5.1-10.79-11.12-10.79h-38.61c6.02 0 10.98 4.78 11.12 10.79.28 11.75-2.46 32.38-19.18 58.37-28.55 44.37-111.75 86.07-191.82 99.12-28.93 4.72-50.9 28.56-53.09 57.79l-9.09 121.94c-.44 5.81-5.28 10.301-11.1 10.301h38.61c5.82 0 10.66-4.491 11.09-10.301l9.1-121.94c2.18-29.23 24.16-53.07 53.09-57.79 80.07-13.05 163.27-54.75 191.82-99.12C-2.46 32.38.28 11.75 0 0" style="fill-opacity:1;fill-rule:nonzero;stroke:none" transform="translate(504.48 69.38)" fill="#87523e" data-original="#87523e" class=""></path><path d="M0 0h-39.489v-33.66h42.37c-.41 2.24-.71 4.51-.88 6.82z" style="fill-opacity:1;fill-rule:nonzero;stroke:none" transform="translate(238.389 311.5)" fill="#87523e" data-original="#87523e" class=""></path><path d="M0 0v-33.66h33.46c5.65-5.72 13.48-9.28 22.14-9.28h38.57c8.66 0 16.5 3.56 22.14 9.28h22V0Z" style="fill-opacity:1;fill-rule:nonzero;stroke:none" transform="translate(19.04 311.5)" fill="#87523e" data-original="#87523e" class=""></path><path d="M0 0h-49.168c-6.146 0-11.128-4.981-11.128-11.128v-336.059c0-6.146 4.982-11.128 11.128-11.128H414.02c6.018 0 10.984 4.779 11.125 10.795.273 11.749-2.466 32.378-19.185 58.365-28.551 44.377-111.748 86.073-191.817 99.127-28.933 4.716-50.907 28.555-53.088 57.789L151.957-10.3A11.128 11.128 0 0 1 140.86 0H33.324" style="stroke-width:15;stroke-linecap:round;stroke-linejoin:round;stroke-miterlimit:10;stroke-dasharray:none;stroke-opacity:1" transform="translate(79.338 416.903)" fill="none" stroke="#000000" stroke-width="15" stroke-linecap="round" stroke-linejoin="round" stroke-miterlimit="10" stroke-dasharray="none" stroke-opacity="" data-original="#000000" class=""></path><path d="M0 0h-138.727c-6.146 0-11.128-4.981-11.128-11.128v-21.143c0-6.145 4.982-11.127 11.128-11.127H0Z" style="fill-opacity:1;fill-rule:nonzero;stroke:none" transform="translate(157.355 341.234)" fill="#d0a08f" data-original="#d0a08f"></path><path d="M0 0h-43.399v-43.398H0c6.146 0 11.127 4.982 11.127 11.127v21.143C11.127-4.981 6.146 0 0 0" style="fill-opacity:1;fill-rule:nonzero;stroke:none" transform="translate(242.297 341.234)" fill="#d0a08f" data-original="#d0a08f"></path><path d="M0 0v-21.15c0-6.14-4.98-11.121-11.12-11.121h-25.53c6.14 0 11.13 4.981 11.13 11.121V0c0 6.14-4.99 11.12-11.13 11.12h25.53C-4.98 11.12 0 6.14 0 0" style="fill-opacity:1;fill-rule:nonzero;stroke:none" transform="translate(253.42 330.11)" fill="#c68d7a" data-original="#c68d7a"></path><path d="M0 0h-138.727c-6.146 0-11.128-4.981-11.128-11.128v-21.143c0-6.145 4.982-11.127 11.128-11.127H0Z" style="stroke-width:15;stroke-linecap:round;stroke-linejoin:round;stroke-miterlimit:10;stroke-dasharray:none;stroke-opacity:1" transform="translate(157.355 341.234)" fill="none" stroke="#000000" stroke-width="15" stroke-linecap="round" stroke-linejoin="round" stroke-miterlimit="10" stroke-dasharray="none" stroke-opacity="" data-original="#000000" class=""></path><path d="M0 0h-43.399v-43.398H0c6.146 0 11.127 4.982 11.127 11.127v21.143C11.127-4.981 6.146 0 0 0Z" style="stroke-width:15;stroke-linecap:round;stroke-linejoin:round;stroke-miterlimit:10;stroke-dasharray:none;stroke-opacity:1" transform="translate(242.297 341.234)" fill="none" stroke="#000000" stroke-width="15" stroke-linecap="round" stroke-linejoin="round" stroke-miterlimit="10" stroke-dasharray="none" stroke-opacity="" data-original="#000000" class=""></path><path d="M0 0v172.222c0 7.362 7.021 12.695 14.114 10.719l31.157-8.678a11.128 11.128 0 0 0 8.143-10.72V0c0-6.146-4.982-11.128-11.128-11.128H11.128C4.982-11.128 0-6.146 0 0" style="fill-opacity:1;fill-rule:nonzero;stroke:none" transform="translate(278.094 63.875)" fill="#d0a08f" data-original="#d0a08f"></path><path d="M0 0v-163.55c0-6.139-4.979-11.12-11.13-11.12h-26.44c6.15 0 11.13 4.981 11.13 11.12V9c0 2.93-1.15 5.65-3.08 7.67l21.38-5.95C-3.33 9.38 0 4.99 0 0" style="fill-opacity:1;fill-rule:nonzero;stroke:none" transform="translate(331.51 227.42)" fill="#c68d7a" data-original="#c68d7a"></path><path d="M0 0v-97.463c0-6.145 4.982-11.128 11.128-11.128h31.158c6.146 0 11.128 4.983 11.128 11.128V66.08c0 4.996-3.33 9.38-8.143 10.72l-31.157 8.679C7.021 87.454 0 82.121 0 74.759V33.324" style="stroke-width:15;stroke-linecap:round;stroke-linejoin:round;stroke-miterlimit:10;stroke-dasharray:none;stroke-opacity:1" transform="translate(278.094 161.338)" fill="none" stroke="#000000" stroke-width="15" stroke-linecap="round" stroke-linejoin="round" stroke-miterlimit="10" stroke-dasharray="none" stroke-opacity="" data-original="#000000" class=""></path><path d="m0 0 78.049 34.86" style="stroke-width:15;stroke-linecap:round;stroke-linejoin:round;stroke-miterlimit:10;stroke-dasharray:none;stroke-opacity:1" transform="translate(334.113 152.403)" fill="none" stroke="#000000" stroke-width="15" stroke-linecap="round" stroke-linejoin="round" stroke-miterlimit="10" stroke-dasharray="none" stroke-opacity="" data-original="#000000" class=""></path><path d="M0 0v71.96" style="stroke-width:15;stroke-linecap:round;stroke-linejoin:round;stroke-miterlimit:10;stroke-dasharray:none;stroke-opacity:1" transform="translate(157.355 285.322)" fill="none" stroke="#000000" stroke-width="15" stroke-linecap="round" stroke-linejoin="round" stroke-miterlimit="10" stroke-dasharray="none" stroke-opacity="" data-original="#000000" class=""></path><path d="M0 0v71.96" style="stroke-width:15;stroke-linecap:round;stroke-linejoin:round;stroke-miterlimit:10;stroke-dasharray:none;stroke-opacity:1" transform="translate(198.898 285.322)" fill="none" stroke="#000000" stroke-width="15" stroke-linecap="round" stroke-linejoin="round" stroke-miterlimit="10" stroke-dasharray="none" stroke-opacity="" data-original="#000000" class=""></path><path d="m0 0-14.111-6.601c-5.567-2.603-12.191-.202-14.795 5.366l-59.406 127.003 34.27 16.03L5.365 14.795C7.969 9.228 5.567 2.604 0 0" style="fill-opacity:1;fill-rule:nonzero;stroke:none" transform="translate(162.956 163.446)" fill="#bb7c63" data-original="#bb7c63"></path><path d="M0 0v-66.25c0-5.391-1.38-10.471-3.8-14.9L-53.41 24.89l34.27 16.03z" style="fill-opacity:1;fill-rule:nonzero;stroke:none" transform="translate(128.05 264.32)" fill="#aa6a50" data-original="#aa6a50"></path><path d="m0 0-14.111-6.601c-5.567-2.603-12.191-.202-14.795 5.366l-59.406 127.003 34.27 16.03L5.365 14.795C7.969 9.228 5.567 2.604 0 0Z" style="stroke-width:15;stroke-linecap:round;stroke-linejoin:round;stroke-miterlimit:10;stroke-dasharray:none;stroke-opacity:1" transform="translate(162.956 163.446)" fill="none" stroke="#000000" stroke-width="15" stroke-linecap="round" stroke-linejoin="round" stroke-miterlimit="10" stroke-dasharray="none" stroke-opacity="" data-original="#000000" class=""></path><path d="M0 0v-110.22c0-6.14-4.98-11.12-11.13-11.12h-15.58c-6.14 0-11.13 4.98-11.13 11.12V0Z" style="fill-opacity:1;fill-rule:nonzero;stroke:none" transform="translate(108.05 308.29)" fill="#c68d7a" data-original="#c68d7a"></path><path d="M0 0v-39.73h-33.41c-1.5 0-2.98.11-4.43.32V0z" style="fill-opacity:1;fill-rule:nonzero;stroke:none" transform="translate(108.05 308.29)" fill="#bb7c63" data-original="#bb7c63"></path><path d="M0 0h-15.579c-6.146 0-11.128 4.981-11.128 11.128v110.21h37.835V11.128C11.128 4.981 6.146 0 0 0Z" style="stroke-width:15;stroke-linecap:round;stroke-linejoin:round;stroke-miterlimit:10;stroke-dasharray:none;stroke-opacity:1" transform="translate(96.92 186.947)" fill="none" stroke="#000000" stroke-width="15" stroke-linecap="round" stroke-linejoin="round" stroke-miterlimit="10" stroke-dasharray="none" stroke-opacity="" data-original="#000000" class=""></path><path d="M0 0h-38.577c-6.145 0-11.127 4.982-11.127 11.128v38.577c0 6.146 4.982 11.128 11.127 11.128H0c6.146 0 11.128-4.982 11.128-11.128V11.128C11.128 4.982 6.146 0 0 0" style="fill-opacity:1;fill-rule:nonzero;stroke:none" transform="translate(113.214 288.563)" fill="#c68d7a" data-original="#c68d7a"></path><path d="M0 0v-38.579C0-44.72-4.98-49.71-11.13-49.71h-23.71c6.14 0 11.13 4.99 11.13 11.131V0c0 6.141-4.99 11.131-11.13 11.131h23.71C-4.98 11.131 0 6.141 0 0" style="fill-opacity:1;fill-rule:nonzero;stroke:none" transform="translate(124.34 338.27)" fill="#bb7c63" data-original="#bb7c63"></path><path d="M0 0h-38.577c-6.145 0-11.127 4.982-11.127 11.128v38.577c0 6.146 4.982 11.128 11.127 11.128H0c6.146 0 11.128-4.982 11.128-11.128V11.128C11.128 4.982 6.146 0 0 0Z" style="stroke-width:15;stroke-linecap:round;stroke-linejoin:round;stroke-miterlimit:10;stroke-dasharray:none;stroke-opacity:1" transform="translate(113.214 288.563)" fill="none" stroke="#000000" stroke-width="15" stroke-linecap="round" stroke-linejoin="round" stroke-miterlimit="10" stroke-dasharray="none" stroke-opacity="" data-original="#000000" class=""></path><path d="M0 0h-9.02" style="stroke-width:15;stroke-linecap:round;stroke-linejoin:round;stroke-miterlimit:10;stroke-dasharray:none;stroke-opacity:1" transform="translate(61.5 88.5)" fill="none" stroke="#000000" stroke-width="15" stroke-linecap="round" stroke-linejoin="round" stroke-miterlimit="10" stroke-dasharray="none" stroke-opacity="" data-original="#000000" class=""></path><path d="M0 0h-9.019" style="stroke-width:15;stroke-linecap:round;stroke-linejoin:round;stroke-miterlimit:10;stroke-dasharray:none;stroke-opacity:1" transform="translate(105.855 88.5)" fill="none" stroke="#000000" stroke-width="15" stroke-linecap="round" stroke-linejoin="round" stroke-miterlimit="10" stroke-dasharray="none" stroke-opacity="" data-original="#000000" class=""></path><path d="M0 0h-9.02" style="stroke-width:15;stroke-linecap:round;stroke-linejoin:round;stroke-miterlimit:10;stroke-dasharray:none;stroke-opacity:1" transform="translate(150.21 88.5)" fill="none" stroke="#000000" stroke-width="15" stroke-linecap="round" stroke-linejoin="round" stroke-miterlimit="10" stroke-dasharray="none" stroke-opacity="" data-original="#000000" class=""></path><path d="M0 0h-9.02" style="stroke-width:15;stroke-linecap:round;stroke-linejoin:round;stroke-miterlimit:10;stroke-dasharray:none;stroke-opacity:1" transform="translate(194.564 88.5)" fill="none" stroke="#000000" stroke-width="15" stroke-linecap="round" stroke-linejoin="round" stroke-miterlimit="10" stroke-dasharray="none" stroke-opacity="" data-original="#000000" class=""></path><path d="M0 0h-9.019" style="stroke-width:15;stroke-linecap:round;stroke-linejoin:round;stroke-miterlimit:10;stroke-dasharray:none;stroke-opacity:1" transform="translate(238.918 88.5)" fill="none" stroke="#000000" stroke-width="15" stroke-linecap="round" stroke-linejoin="round" stroke-miterlimit="10" stroke-dasharray="none" stroke-opacity="" data-original="#000000" class=""></path><path d="M0 0h-9.02" style="stroke-width:15;stroke-linecap:round;stroke-linejoin:round;stroke-miterlimit:10;stroke-dasharray:none;stroke-opacity:1" transform="translate(377.146 88.5)" fill="none" stroke="#000000" stroke-width="15" stroke-linecap="round" stroke-linejoin="round" stroke-miterlimit="10" stroke-dasharray="none" stroke-opacity="" data-original="#000000" class=""></path><path d="M0 0h-9.02" style="stroke-width:15;stroke-linecap:round;stroke-linejoin:round;stroke-miterlimit:10;stroke-dasharray:none;stroke-opacity:1" transform="translate(421.5 88.5)" fill="none" stroke="#000000" stroke-width="15" stroke-linecap="round" stroke-linejoin="round" stroke-miterlimit="10" stroke-dasharray="none" stroke-opacity="" data-original="#000000" class=""></path><path d="M0 0h-9.019" style="stroke-width:15;stroke-linecap:round;stroke-linejoin:round;stroke-miterlimit:10;stroke-dasharray:none;stroke-opacity:1" transform="translate(465.854 88.5)" fill="none" stroke="#000000" stroke-width="15" stroke-linecap="round" stroke-linejoin="round" stroke-miterlimit="10" stroke-dasharray="none" stroke-opacity="" data-original="#000000" class=""></path></g></g></svg>