<svg xmlns="http://www.w3.org/2000/svg" version="1.1" xmlns:xlink="http://www.w3.org/1999/xlink" width="512" height="512" x="0" y="0" viewBox="0 0 682.667 682.667" style="enable-background:new 0 0 512 512" xml:space="preserve" class=""><g><defs><clipPath id="a" clipPathUnits="userSpaceOnUse"><path d="M0 512h512V0H0Z" fill="#000000" opacity="1" data-original="#000000"></path></clipPath></defs><g clip-path="url(#a)" transform="matrix(1.33333 0 0 -1.33333 0 682.667)"><path d="M0 0c-14.359 0-27.858 5.592-38.012 15.746-18.328 18.327-20.967 47.128-6.275 68.482l58.105 84.456c20.516 29.817 16.829 70.034-8.762 95.626-14.178 14.178-33.03 21.986-53.08 21.986-14.444 0-28.023 5.625-38.235 15.838l-41.144 41.143c-10.213 10.213-15.838 23.793-15.838 38.237 0 20.05-7.809 38.901-21.986 53.078-25.592 25.592-65.809 29.278-95.627 8.763l-84.457-58.105c-21.353-14.69-50.154-12.052-68.481 6.276-10.152 10.153-15.745 23.652-15.745 38.012 0 14.359 5.593 27.858 15.746 38.012l12.284 12.284c7.207 7.208 18.893 7.208 26.1.001 7.207-7.207 7.208-18.892.001-26.099l-12.285-12.286a16.73 16.73 0 0 1-4.936-11.912c0-4.5 1.752-8.731 4.935-11.913a16.847 16.847 0 0 1 21.461-1.966l84.457 58.105c44.478 30.602 104.47 25.104 142.646-13.072 21.149-21.149 32.797-49.268 32.797-79.178 0-4.585 1.786-8.895 5.026-12.137l41.145-41.144a17.054 17.054 0 0 1 12.136-5.026c29.91 0 58.029-11.648 79.178-32.797 38.177-38.177 43.675-98.169 13.073-142.648l-58.106-84.455a16.85 16.85 0 0 1 1.967-21.462A16.738 16.738 0 0 1 0 36.91c4.5 0 8.73 1.753 11.911 4.934L24.196 54.13c7.207 7.207 18.894 7.207 26.101 0 7.207-7.206 7.208-18.892.001-26.099L38.013 15.746C27.859 5.592 14.359 0 0 0" style="fill-opacity:1;fill-rule:nonzero;stroke:none" transform="translate(437.037 7.5)" fill="#bb7c63" data-original="#bb7c63"></path><path d="M0 0c29.911 0 58.025-11.653 79.175-32.803 38.177-38.176 43.678-98.167 13.074-142.644L34.14-259.904a16.85 16.85 0 0 1 1.972-21.461A16.73 16.73 0 0 1 48.02-286.3a16.73 16.73 0 0 1 11.908 4.935l12.289 12.29c7.206 7.205 18.894 7.198 26.099-.008 7.205-7.205 7.205-18.886 0-26.092l-12.29-12.289a44.652 44.652 0 0 0-2.403-2.249c5.883 7.241 5.444 17.904-1.295 24.643-7.205 7.205-18.893 7.212-26.105 0l-12.284-12.283a16.728 16.728 0 0 0-11.907-4.935 16.741 16.741 0 0 0-11.915 4.928c-5.749 5.749-6.569 14.772-1.966 21.468l58.104 84.45c30.603 44.477 25.109 104.475-13.067 142.651-21.151 21.15-49.272 32.796-79.183 32.796a17.057 17.057 0 0 0-12.141 5.028l-41.139 41.139a17.057 17.057 0 0 0-5.028 12.141c0 29.911-11.646 58.032-32.796 79.182-38.176 38.177-98.167 43.678-142.644 13.074l-84.456-58.11c-6.697-4.603-15.72-3.783-21.469 1.966a16.741 16.741 0 0 0-4.928 11.915c0 4.497 1.753 8.726 4.936 11.908l12.282 12.282c7.212 7.213 7.205 18.901 0 26.106-6.739 6.739-17.402 7.177-24.643 1.294a44.775 44.775 0 0 0 2.256 2.412l12.283 12.282c7.205 7.206 18.886 7.206 26.091 0 7.206-7.205 7.213-18.894.008-26.099l-12.283-12.283c-3.188-3.189-4.942-7.417-4.942-11.914s1.754-8.726 4.935-11.908a16.852 16.852 0 0 1 21.461-1.973l84.457 58.11c44.477 30.604 104.468 25.103 142.645-13.074 21.149-21.15 32.802-49.264 32.802-79.175-.007-4.589 1.782-8.895 5.028-12.141l41.139-41.14C-8.896 1.782-4.589-.007 0 0" style="fill-opacity:1;fill-rule:nonzero;stroke:none" transform="translate(389.017 330.709)" fill="#aa6a50" data-original="#aa6a50" class=""></path><path d="M0 0c3.245-3.246 7.552-5.035 12.141-5.027v-36.911c-14.454 0-28.023 5.621-38.241 15.839l-41.139 41.14c-10.218 10.217-15.846 23.793-15.839 38.24h36.911c-.008-4.59 1.781-8.896 5.027-12.141z" style="fill-opacity:1;fill-rule:nonzero;stroke:none" transform="translate(376.876 335.736)" fill="#e0d3ce" data-original="#e0d3ce"></path><path d="M0 0c3.245-3.246 7.552-5.035 12.141-5.027v-17.127a113.05 113.05 0 0 1-15.995 1.132 17.058 17.058 0 0 0-12.141 5.027l-41.14 41.14a17.06 17.06 0 0 0-5.027 12.141c0 5.402-.382 10.748-1.132 15.995h17.127c-.008-4.59 1.781-8.896 5.027-12.141z" style="fill-opacity:1;fill-rule:nonzero;stroke:none" transform="translate(376.876 335.736)" fill="#cdc0bb" data-original="#cdc0bb"></path><path d="M0 0v-36.91" style="stroke-width:15;stroke-linecap:round;stroke-linejoin:round;stroke-miterlimit:10;stroke-dasharray:none;stroke-opacity:1" transform="translate(389.013 330.707)" fill="none" stroke="#000000" stroke-width="15" stroke-linecap="round" stroke-linejoin="round" stroke-miterlimit="10" stroke-dasharray="none" stroke-opacity="" data-original="#000000" class=""></path><path d="M0 0h36.91" style="stroke-width:15;stroke-linecap:round;stroke-linejoin:round;stroke-miterlimit:10;stroke-dasharray:none;stroke-opacity:1" transform="translate(293.796 389.014)" fill="none" stroke="#000000" stroke-width="15" stroke-linecap="round" stroke-linejoin="round" stroke-miterlimit="10" stroke-dasharray="none" stroke-opacity="" data-original="#000000" class=""></path><path d="m0 0 43.789 63.641 26.538-26.539-43.781-63.648Z" style="fill-opacity:1;fill-rule:nonzero;stroke:none" transform="translate(402.537 105.952)" fill="#fdc266" data-original="#fdc266"></path><path d="m0 0 26.54-26.541 9.988 14.521L9.99 14.519Z" style="fill-opacity:1;fill-rule:nonzero;stroke:none" transform="translate(436.336 155.074)" fill="#feb541" data-original="#feb541"></path><path d="m0 0-26.546 26.546" style="stroke-width:15;stroke-linecap:round;stroke-linejoin:round;stroke-miterlimit:10;stroke-dasharray:none;stroke-opacity:1" transform="translate(429.083 79.406)" fill="none" stroke="#000000" stroke-width="15" stroke-linecap="round" stroke-linejoin="round" stroke-miterlimit="10" stroke-dasharray="none" stroke-opacity="" data-original="#000000" class=""></path><path d="m0 0 26.538-26.539" style="stroke-width:15;stroke-linecap:round;stroke-linejoin:round;stroke-miterlimit:10;stroke-dasharray:none;stroke-opacity:1" transform="translate(446.326 169.593)" fill="none" stroke="#000000" stroke-width="15" stroke-linecap="round" stroke-linejoin="round" stroke-miterlimit="10" stroke-dasharray="none" stroke-opacity="" data-original="#000000" class=""></path><path d="m0 0 26.538-26.538-63.641-43.79-26.545 26.547z" style="fill-opacity:1;fill-rule:nonzero;stroke:none" transform="translate(143.055 472.864)" fill="#fdc266" data-original="#fdc266"></path><path d="m0 0 26.54-26.541 14.519 9.991L14.521 9.988Z" style="fill-opacity:1;fill-rule:nonzero;stroke:none" transform="translate(128.534 462.877)" fill="#feb541" data-original="#feb541"></path><path d="m0 0-26.546 26.546" style="stroke-width:15;stroke-linecap:round;stroke-linejoin:round;stroke-miterlimit:10;stroke-dasharray:none;stroke-opacity:1" transform="translate(105.952 402.537)" fill="none" stroke="#000000" stroke-width="15" stroke-linecap="round" stroke-linejoin="round" stroke-miterlimit="10" stroke-dasharray="none" stroke-opacity="" data-original="#000000" class=""></path><path d="m0 0 26.538-26.538" style="stroke-width:15;stroke-linecap:round;stroke-linejoin:round;stroke-miterlimit:10;stroke-dasharray:none;stroke-opacity:1" transform="translate(143.055 472.864)" fill="none" stroke="#000000" stroke-width="15" stroke-linecap="round" stroke-linejoin="round" stroke-miterlimit="10" stroke-dasharray="none" stroke-opacity="" data-original="#000000" class=""></path><path d="M0 0c9.775-8.36 22.076-12.918 35.079-12.918 20.051 0 38.902-7.808 53.08-21.986 25.592-25.593 29.279-65.809 8.764-95.627l-58.107-84.455c-14.691-21.354-12.052-50.155 6.276-68.483 10.153-10.154 23.652-15.745 38.012-15.745 14.359 0 27.859 5.591 38.012 15.745l12.285 12.286c7.207 7.207 7.206 18.892-.001 26.1-7.207 7.206-18.892 7.206-26.099-.001L95.016-257.37a16.735 16.735 0 0 0-11.912-4.934c-4.5 0-8.73 1.752-11.913 4.934a16.85 16.85 0 0 0-1.966 21.462l58.105 84.456c27.16 39.476 25.861 91.16-1.459 128.979" style="stroke-width:15;stroke-linecap:round;stroke-linejoin:round;stroke-miterlimit:10;stroke-dasharray:none;stroke-opacity:1" transform="translate(353.934 306.714)" fill="none" stroke="#000000" stroke-width="15" stroke-linecap="round" stroke-linejoin="round" stroke-miterlimit="10" stroke-dasharray="none" stroke-opacity="" data-original="#000000" class=""></path><path d="m0 0 28.945 19.914c29.818 20.514 70.034 16.828 95.627-8.764 14.177-14.177 21.986-33.027 21.986-53.078 0-13.427 4.86-26.106 13.749-36.03" style="stroke-width:15;stroke-linecap:round;stroke-linejoin:round;stroke-miterlimit:10;stroke-dasharray:none;stroke-opacity:1" transform="translate(147.238 430.942)" fill="none" stroke="#000000" stroke-width="15" stroke-linecap="round" stroke-linejoin="round" stroke-miterlimit="10" stroke-dasharray="none" stroke-opacity="" data-original="#000000" class=""></path><path d="M0 0c-19.339 14.674-42.811 22.623-67.508 22.623a17.055 17.055 0 0 0-12.136 5.026l-41.144 41.143a17.06 17.06 0 0 0-5.026 12.137c0 29.91-11.648 58.029-32.797 79.178-38.176 38.176-98.168 43.675-142.647 13.073l-84.457-58.106a16.847 16.847 0 0 0-21.461 1.967 16.735 16.735 0 0 0-4.934 11.912c0 4.5 1.752 8.73 4.935 11.913l12.285 12.285c7.207 7.208 7.206 18.892-.001 26.099-7.207 7.208-18.892 7.208-26.099 0l-12.284-12.285c-10.154-10.153-15.747-23.653-15.747-38.012 0-14.359 5.593-27.859 15.746-38.012 18.327-18.328 47.128-20.966 68.481-6.275l28.073 19.314" style="stroke-width:15;stroke-linecap:round;stroke-linejoin:round;stroke-miterlimit:10;stroke-dasharray:none;stroke-opacity:1" transform="translate(456.52 308.084)" fill="none" stroke="#000000" stroke-width="15" stroke-linecap="round" stroke-linejoin="round" stroke-miterlimit="10" stroke-dasharray="none" stroke-opacity="" data-original="#000000" class=""></path><path d="m0 0 27.944-27.945c4.3-4.299 4.3-11.271 0-15.571L8.407-63.053c-4.299-4.299-11.271-4.299-15.57 0l-27.944 27.945c-4.3 4.299-4.293 11.264.006 15.564L-15.563-.007C-11.265 4.292-4.299 4.299 0 0" style="fill-opacity:1;fill-rule:nonzero;stroke:none" transform="translate(347.043 374.125)" fill="#fdc266" data-original="#fdc266"></path><path d="m0 0 27.944-27.945c4.3-4.299 4.3-11.271 0-15.571L15.57-55.89c-.608.452-1.187.962-1.732 1.506l-41.14 41.14c-.247.247-.495.509-.728.77L-15.563-.007C-11.265 4.292-4.299 4.299 0 0" style="fill-opacity:1;fill-rule:nonzero;stroke:none" transform="translate(347.043 374.125)" fill="#feb541" data-original="#feb541"></path><path d="m0 0 2.62-2.62c4.3-4.299 11.271-4.299 15.57 0l19.538 19.538c4.299 4.299 4.299 11.27 0 15.569l-27.94 27.94c-4.299 4.3-11.269 4.3-15.569 0l-19.538-19.538c-4.299-4.299-4.299-11.27 0-15.569l1.756-1.757" style="stroke-width:15;stroke-linecap:round;stroke-linejoin:round;stroke-miterlimit:10;stroke-dasharray:none;stroke-opacity:1" transform="translate(337.257 313.693)" fill="none" stroke="#000000" stroke-width="15" stroke-linecap="round" stroke-linejoin="round" stroke-miterlimit="10" stroke-dasharray="none" stroke-opacity="" data-original="#000000" class=""></path><path d="m0 0 5.505 46.255" style="stroke-width:15;stroke-linecap:round;stroke-linejoin:round;stroke-miterlimit:10;stroke-dasharray:none;stroke-opacity:1" transform="translate(226.983 458.245)" fill="none" stroke="#000000" stroke-width="15" stroke-linecap="round" stroke-linejoin="round" stroke-miterlimit="10" stroke-dasharray="none" stroke-opacity="" data-original="#000000" class=""></path><path d="m0 0-15.602 43.178" style="stroke-width:15;stroke-linecap:round;stroke-linejoin:round;stroke-miterlimit:10;stroke-dasharray:none;stroke-opacity:1" transform="translate(202.365 456.892)" fill="none" stroke="#000000" stroke-width="15" stroke-linecap="round" stroke-linejoin="round" stroke-miterlimit="10" stroke-dasharray="none" stroke-opacity="" data-original="#000000" class=""></path><path d="m0 0 46.255 5.505" style="stroke-width:15;stroke-linecap:round;stroke-linejoin:round;stroke-miterlimit:10;stroke-dasharray:none;stroke-opacity:1" transform="translate(458.245 226.984)" fill="none" stroke="#000000" stroke-width="15" stroke-linecap="round" stroke-linejoin="round" stroke-miterlimit="10" stroke-dasharray="none" stroke-opacity="" data-original="#000000" class=""></path><path d="m0 0 43.178-15.602" style="stroke-width:15;stroke-linecap:round;stroke-linejoin:round;stroke-miterlimit:10;stroke-dasharray:none;stroke-opacity:1" transform="translate(456.892 202.366)" fill="none" stroke="#000000" stroke-width="15" stroke-linecap="round" stroke-linejoin="round" stroke-miterlimit="10" stroke-dasharray="none" stroke-opacity="" data-original="#000000" class=""></path><path d="m0 0 375.78-375.78" style="stroke-width:15;stroke-linecap:round;stroke-linejoin:round;stroke-miterlimit:10;stroke-dasharray:none;stroke-opacity:1" transform="translate(23.245 399.026)" fill="none" stroke="#000000" stroke-width="15" stroke-linecap="round" stroke-linejoin="round" stroke-miterlimit="10" stroke-dasharray="none" stroke-opacity="" data-original="#000000" class=""></path></g></g></svg>