<svg xmlns="http://www.w3.org/2000/svg" version="1.1" xmlns:xlink="http://www.w3.org/1999/xlink" width="512" height="512" x="0" y="0" viewBox="0 0 682.667 682.667" style="enable-background:new 0 0 512 512" xml:space="preserve" class=""><g><defs><clipPath id="a" clipPathUnits="userSpaceOnUse"><path d="M0 512h512V0H0Z" fill="#000000" opacity="1" data-original="#000000"></path></clipPath></defs><g clip-path="url(#a)" transform="matrix(1.33333 0 0 -1.33333 0 682.667)"><path d="m0 0 60 30h-240l60-30c33.14-16.57 46.57-56.859 30-90-58.67-96.391-74.02-219.391-43.71-328.359 45.97 25.979 102.44 25.809 148.28-.481C46.98-310.561 31.25-186.17-30-90-46.57-56.859-33.14-16.57 0 0" style="fill-opacity:1;fill-rule:nonzero;stroke:none" transform="translate(316 472)" fill="#8690af" data-original="#8690af" class=""></path><path d="M0 0c-13.45 33.649-46.04 55.71-82.28 55.71l60 120-60-30c-33.14-16.57-46.57-56.859-30-90 69.84-109.657 79.587-253.883 30-369 11.2-1.6 22.58-3.04 34-3 55.99.21 112.78 20.78 152 60z" style="fill-opacity:1;fill-rule:nonzero;stroke:none" transform="translate(398.28 326.29)" fill="#ff7b79" data-original="#ff7b79" class=""></path><path d="m0 0-60 30L0-90c-36.24 0-68.83-22.061-82.28-55.71L-186-402c39.22-39.22 96.01-59.79 152-60 11.42-.04 22.8 1.4 34 3-47.523 118.988-35.655 261.135 30 369C46.57-56.859 33.14-16.57 0 0" style="fill-opacity:1;fill-rule:nonzero;stroke:none" transform="translate(196 472)" fill="#ff7b79" data-original="#ff7b79" class=""></path><path d="M0 0h240l-60-120H60Z" style="stroke-width:20;stroke-linecap:round;stroke-linejoin:round;stroke-miterlimit:10;stroke-dasharray:none;stroke-opacity:1" transform="translate(136 502)" fill="none" stroke="#000000" stroke-width="20" stroke-linecap="round" stroke-linejoin="round" stroke-miterlimit="10" stroke-dasharray="none" stroke-opacity="" data-original="#000000" class=""></path><path d="m0 0 60-30c33.14-16.57 46.57-56.86 30-90" style="stroke-width:20;stroke-linecap:round;stroke-linejoin:round;stroke-miterlimit:10;stroke-dasharray:none;stroke-opacity:1" transform="translate(136 502)" fill="none" stroke="#000000" stroke-width="20" stroke-linecap="round" stroke-linejoin="round" stroke-miterlimit="10" stroke-dasharray="none" stroke-opacity="" data-original="#000000" class=""></path><path d="m0 0-60-30c-33.14-16.57-46.57-56.86-30-90" style="stroke-width:20;stroke-linecap:round;stroke-linejoin:round;stroke-miterlimit:10;stroke-dasharray:none;stroke-opacity:1" transform="translate(376 502)" fill="none" stroke="#000000" stroke-width="20" stroke-linecap="round" stroke-linejoin="round" stroke-miterlimit="10" stroke-dasharray="none" stroke-opacity="" data-original="#000000" class=""></path><path d="M0 0c-36.24 0-68.83-22.06-82.28-55.71L-186-312c39.22-39.22 96.01-59.79 152-60 11.42-.04 22.8 1.4 34 3a395.18 395.18 0 0 0-13.71 40.64C-44.02-219.39-28.67-96.39 30 0" style="stroke-width:20;stroke-linecap:round;stroke-linejoin:round;stroke-miterlimit:10;stroke-dasharray:none;stroke-opacity:1" transform="translate(196 382)" fill="none" stroke="#000000" stroke-width="20" stroke-linecap="round" stroke-linejoin="round" stroke-miterlimit="10" stroke-dasharray="none" stroke-opacity="" data-original="#000000" class=""></path><path d="M0 0c.03.021.05.03.08.04 45.97 25.981 102.44 25.811 148.28-.479.01 0 .01-.01.02-.01" style="stroke-width:20;stroke-linecap:round;stroke-linejoin:round;stroke-miterlimit:10;stroke-dasharray:none;stroke-opacity:1" transform="translate(182.21 53.6)" fill="none" stroke="#000000" stroke-width="20" stroke-linecap="round" stroke-linejoin="round" stroke-miterlimit="10" stroke-dasharray="none" stroke-opacity="" data-original="#000000" class=""></path><path d="M0 0c61.25-96.17 76.98-220.56 44.57-328.84A366.425 366.425 0 0 0 30-369c11.2-1.6 22.58-3.04 34-3 55.99.21 112.78 20.78 152 60l-34.111 84.288" style="stroke-width:20;stroke-linecap:round;stroke-linejoin:round;stroke-miterlimit:10;stroke-dasharray:none;stroke-opacity:1" transform="translate(286 382)" fill="none" stroke="#000000" stroke-width="20" stroke-linecap="round" stroke-linejoin="round" stroke-miterlimit="10" stroke-dasharray="none" stroke-opacity="" data-original="#000000" class=""></path><path d="m0 0-35.845 88.573c-13.45 33.651-46.04 55.71-82.28 55.71" style="stroke-width:20;stroke-linecap:round;stroke-linejoin:round;stroke-miterlimit:10;stroke-dasharray:none;stroke-opacity:1" transform="translate(434.125 237.717)" fill="none" stroke="#000000" stroke-width="20" stroke-linecap="round" stroke-linejoin="round" stroke-miterlimit="10" stroke-dasharray="none" stroke-opacity="" data-original="#000000" class=""></path><path d="M0 0c0-5.522-4.477-10-10-10S-20-5.522-20 0s4.477 10 10 10S0 5.522 0 0" style="fill-opacity:1;fill-rule:nonzero;stroke:none" transform="translate(461 196)" fill="#000000" data-original="#000000"></path></g></g></svg>