<svg xmlns="http://www.w3.org/2000/svg" version="1.1" xmlns:xlink="http://www.w3.org/1999/xlink" width="512" height="512" x="0" y="0" viewBox="0 0 682.667 682.667" style="enable-background:new 0 0 512 512" xml:space="preserve" class=""><g><defs><clipPath id="a" clipPathUnits="userSpaceOnUse"><path d="M0 512h512V0H0Z" fill="#000000" opacity="1" data-original="#000000"></path></clipPath></defs><g clip-path="url(#a)" transform="matrix(1.33333 0 0 -1.33333 0 682.667)"><path d="M0 0h-386.336v24.263c0 106.684 86.484 193.168 193.168 193.168C-86.484 217.431 0 130.947 0 24.263Z" style="fill-opacity:1;fill-rule:nonzero;stroke:none" transform="translate(449.166 176.738)" fill="#e0d3ce" data-original="#e0d3ce"></path><path d="M0 0c-10-7.77-21.88-15.14-36.43-17.22-3.17-.45-6.41-.68-9.61-.68-35.059 0-65.549 27.22-69.399 61.97-2.51 22.7 7.07 45.379 23.439 59.689a193.67 193.67 0 0 0 47.641-34.92C-25.02 49.51-9.77 26.09 0 0" style="fill-opacity:1;fill-rule:nonzero;stroke:none" transform="translate(436.947 268.75)" fill="#cdc0bb" data-original="#cdc0bb"></path><path d="M0 0c-3.85-34.75-34.33-61.97-69.39-61.97h-.009c-3.201 0-6.44.23-9.61.68-14.55 2.08-26.43 9.45-36.43 17.22C-98.629.83-65.58 37.8-23.44 59.689-7.07 45.379 2.51 22.7 0 0" style="fill-opacity:1;fill-rule:nonzero;stroke:none" transform="translate(190.489 312.82)" fill="#cdc0bb" data-original="#cdc0bb"></path><path d="M0 0v-24.259h-42V0c0 53.341-21.621 101.641-56.577 136.597-30.305 30.305-70.637 50.585-115.583 55.444a193.737 193.737 0 0 0 20.995 1.133c53.341 0 101.632-21.621 136.588-56.577C-21.621 101.641 0 53.341 0 0" style="fill-opacity:1;fill-rule:nonzero;stroke:none" transform="translate(449.163 200.999)" fill="#cdc0bb" data-original="#cdc0bb"></path><path d="M0 0c0 106.684 86.484 193.168 193.168 193.168 106.684 0 193.168-86.484 193.168-193.168" style="stroke-width:15;stroke-linecap:round;stroke-linejoin:round;stroke-miterlimit:10;stroke-dasharray:none;stroke-opacity:1" transform="translate(62.83 201.001)" fill="none" stroke="#000000" stroke-width="15" stroke-linecap="round" stroke-linejoin="round" stroke-miterlimit="10" stroke-dasharray="none" stroke-opacity="" data-original="#000000" class=""></path><path d="M0 0v-54.991a9.066 9.066 0 0 1 9.065-9.066h387.091a9.066 9.066 0 0 1 9.066 9.066V0a9.065 9.065 0 0 1-9.066 9.065H9.065A9.065 9.065 0 0 1 0 0" style="fill-opacity:1;fill-rule:nonzero;stroke:none" transform="translate(53.388 201.606)" fill="#fea714" data-original="#fea714"></path><path d="M0 0v-54.99c0-5.004-4.062-9.066-9.065-9.066h-32.554c5.004 0 9.065 4.062 9.065 9.066V0c0 5.004-4.061 9.065-9.065 9.065h32.554C-4.062 9.065 0 5.004 0 0" style="fill-opacity:1;fill-rule:nonzero;stroke:none" transform="translate(458.61 201.606)" fill="#fd9a01" data-original="#fd9a01"></path><path d="M0 0h-296.551a9.065 9.065 0 0 1-9.065-9.065v-54.992a9.065 9.065 0 0 1 9.065-9.065H90.54a9.065 9.065 0 0 1 9.065 9.065v54.992A9.065 9.065 0 0 1 90.54 0H33.324" style="stroke-width:15;stroke-linecap:round;stroke-linejoin:round;stroke-miterlimit:10;stroke-dasharray:none;stroke-opacity:1" transform="translate(359.004 210.672)" fill="none" stroke="#000000" stroke-width="15" stroke-linecap="round" stroke-linejoin="round" stroke-miterlimit="10" stroke-dasharray="none" stroke-opacity="" data-original="#000000" class=""></path><path d="m0 0-32.935-19.358a9.068 9.068 0 0 0-9.187 0L-75.057 0a9.066 9.066 0 0 0-4.472 7.815v322.979a9.065 9.065 0 0 0 9.066 9.065h65.87a9.065 9.065 0 0 0 9.065-9.065V7.815A9.064 9.064 0 0 0 0 0" style="fill-opacity:1;fill-rule:nonzero;stroke:none" transform="translate(293.527 61.474)" fill="#fdc266" data-original="#fdc266"></path><path d="m0 0-32.935-19.358a9.068 9.068 0 0 0-9.187 0L-75.057 0a9.066 9.066 0 0 0-4.472 7.815v322.979a9.065 9.065 0 0 0 9.066 9.065h65.87a9.065 9.065 0 0 0 9.065-9.065V7.815A9.064 9.064 0 0 0 0 0" style="fill-opacity:1;fill-rule:nonzero;stroke:none" transform="translate(293.527 61.474)" fill="#fdc266" data-original="#fdc266"></path><path d="M0 0v-322.981a9.083 9.083 0 0 0-4.469-7.814l-22.573-13.263a8.956 8.956 0 0 1 1.359 4.76V0c0 5.004-4.061 9.065-9.065 9.065h25.683C-4.062 9.065 0 5.004 0 0" style="fill-opacity:1;fill-rule:nonzero;stroke:none" transform="translate(297.998 392.269)" fill="#feb541" data-original="#feb541"></path><path d="M0 0v-17.05a9.065 9.065 0 0 1 4.472-7.815l32.935-19.358a9.064 9.064 0 0 1 9.187 0l32.935 19.358a9.065 9.065 0 0 1 4.472 7.815v322.979a9.065 9.065 0 0 1-9.065 9.065H9.065A9.065 9.065 0 0 1 0 305.929V33.324" style="stroke-width:15;stroke-linecap:round;stroke-linejoin:round;stroke-miterlimit:10;stroke-dasharray:none;stroke-opacity:1" transform="translate(213.998 86.339)" fill="none" stroke="#000000" stroke-width="15" stroke-linecap="round" stroke-linejoin="round" stroke-miterlimit="10" stroke-dasharray="none" stroke-opacity="" data-original="#000000" class=""></path><path d="M0 0c0-9.012-7.306-16.317-16.317-16.317-9.013 0-16.318 7.305-16.318 16.317s7.305 16.318 16.318 16.318C-7.306 16.318 0 9.012 0 0" style="fill-opacity:1;fill-rule:nonzero;stroke:none" transform="translate(272.316 174.11)" fill="#fff2e2" data-original="#fff2e2"></path><path d="M0 0c0-9.012-7.306-16.317-16.317-16.317-9.013 0-16.318 7.305-16.318 16.317s7.305 16.318 16.318 16.318C-7.306 16.318 0 9.012 0 0Z" style="stroke-width:15;stroke-linecap:round;stroke-linejoin:round;stroke-miterlimit:10;stroke-dasharray:none;stroke-opacity:1" transform="translate(272.316 174.11)" fill="none" stroke="#000000" stroke-width="15" stroke-linecap="round" stroke-linejoin="round" stroke-miterlimit="10" stroke-dasharray="none" stroke-opacity="" data-original="#000000" class=""></path><path d="M0 0h.094" style="stroke-width:15;stroke-linecap:round;stroke-linejoin:round;stroke-miterlimit:10;stroke-dasharray:none;stroke-opacity:1" transform="translate(255.952 226.388)" fill="none" stroke="#000000" stroke-width="15" stroke-linecap="round" stroke-linejoin="round" stroke-miterlimit="10" stroke-dasharray="none" stroke-opacity="" data-original="#000000" class=""></path><path d="M0 0h.094" style="stroke-width:15;stroke-linecap:round;stroke-linejoin:round;stroke-miterlimit:10;stroke-dasharray:none;stroke-opacity:1" transform="translate(330.857 174.11)" fill="none" stroke="#000000" stroke-width="15" stroke-linecap="round" stroke-linejoin="round" stroke-miterlimit="10" stroke-dasharray="none" stroke-opacity="" data-original="#000000" class=""></path><path d="M0 0h.094" style="stroke-width:15;stroke-linecap:round;stroke-linejoin:round;stroke-miterlimit:10;stroke-dasharray:none;stroke-opacity:1" transform="translate(362.888 174.11)" fill="none" stroke="#000000" stroke-width="15" stroke-linecap="round" stroke-linejoin="round" stroke-miterlimit="10" stroke-dasharray="none" stroke-opacity="" data-original="#000000" class=""></path><path d="M0 0h.094" style="stroke-width:15;stroke-linecap:round;stroke-linejoin:round;stroke-miterlimit:10;stroke-dasharray:none;stroke-opacity:1" transform="translate(394.919 174.11)" fill="none" stroke="#000000" stroke-width="15" stroke-linecap="round" stroke-linejoin="round" stroke-miterlimit="10" stroke-dasharray="none" stroke-opacity="" data-original="#000000" class=""></path><path d="M0 0h.094" style="stroke-width:15;stroke-linecap:round;stroke-linejoin:round;stroke-miterlimit:10;stroke-dasharray:none;stroke-opacity:1" transform="translate(426.95 174.11)" fill="none" stroke="#000000" stroke-width="15" stroke-linecap="round" stroke-linejoin="round" stroke-miterlimit="10" stroke-dasharray="none" stroke-opacity="" data-original="#000000" class=""></path><path d="M0 0h.094" style="stroke-width:15;stroke-linecap:round;stroke-linejoin:round;stroke-miterlimit:10;stroke-dasharray:none;stroke-opacity:1" transform="translate(84.953 174.11)" fill="none" stroke="#000000" stroke-width="15" stroke-linecap="round" stroke-linejoin="round" stroke-miterlimit="10" stroke-dasharray="none" stroke-opacity="" data-original="#000000" class=""></path><path d="M0 0h.094" style="stroke-width:15;stroke-linecap:round;stroke-linejoin:round;stroke-miterlimit:10;stroke-dasharray:none;stroke-opacity:1" transform="translate(116.984 174.11)" fill="none" stroke="#000000" stroke-width="15" stroke-linecap="round" stroke-linejoin="round" stroke-miterlimit="10" stroke-dasharray="none" stroke-opacity="" data-original="#000000" class=""></path><path d="M0 0h.094" style="stroke-width:15;stroke-linecap:round;stroke-linejoin:round;stroke-miterlimit:10;stroke-dasharray:none;stroke-opacity:1" transform="translate(149.015 174.11)" fill="none" stroke="#000000" stroke-width="15" stroke-linecap="round" stroke-linejoin="round" stroke-miterlimit="10" stroke-dasharray="none" stroke-opacity="" data-original="#000000" class=""></path><path d="M0 0h.094" style="stroke-width:15;stroke-linecap:round;stroke-linejoin:round;stroke-miterlimit:10;stroke-dasharray:none;stroke-opacity:1" transform="translate(181.046 174.11)" fill="none" stroke="#000000" stroke-width="15" stroke-linecap="round" stroke-linejoin="round" stroke-miterlimit="10" stroke-dasharray="none" stroke-opacity="" data-original="#000000" class=""></path><path d="M0 0h.094" style="stroke-width:15;stroke-linecap:round;stroke-linejoin:round;stroke-miterlimit:10;stroke-dasharray:none;stroke-opacity:1" transform="translate(255.952 259.93)" fill="none" stroke="#000000" stroke-width="15" stroke-linecap="round" stroke-linejoin="round" stroke-miterlimit="10" stroke-dasharray="none" stroke-opacity="" data-original="#000000" class=""></path><path d="M0 0h.094" style="stroke-width:15;stroke-linecap:round;stroke-linejoin:round;stroke-miterlimit:10;stroke-dasharray:none;stroke-opacity:1" transform="translate(255.952 293.472)" fill="none" stroke="#000000" stroke-width="15" stroke-linecap="round" stroke-linejoin="round" stroke-miterlimit="10" stroke-dasharray="none" stroke-opacity="" data-original="#000000" class=""></path><path d="M0 0h.094" style="stroke-width:15;stroke-linecap:round;stroke-linejoin:round;stroke-miterlimit:10;stroke-dasharray:none;stroke-opacity:1" transform="translate(255.952 327.014)" fill="none" stroke="#000000" stroke-width="15" stroke-linecap="round" stroke-linejoin="round" stroke-miterlimit="10" stroke-dasharray="none" stroke-opacity="" data-original="#000000" class=""></path><path d="M0 0h.094" style="stroke-width:15;stroke-linecap:round;stroke-linejoin:round;stroke-miterlimit:10;stroke-dasharray:none;stroke-opacity:1" transform="translate(255.952 360.555)" fill="none" stroke="#000000" stroke-width="15" stroke-linecap="round" stroke-linejoin="round" stroke-miterlimit="10" stroke-dasharray="none" stroke-opacity="" data-original="#000000" class=""></path><path d="M0 0c19.858 5.935 37.989 10.064 55.715 21.623 27.415 17.875 41.918 44.355 51.157 75.168 2.77 9.238 15.45 11.792 20.374 2.71 2.551-4.705 2.743-12.177 3.253-17.34 5.918-60.011-24.52-117.608-69.516-155.722-10.535-8.923-22.436-19.068-36.555-21.085C-2.89-98.551-28.845-78.312-31.878-50.95-34.232-29.718-20.886-6.242 0 0" style="fill-opacity:1;fill-rule:nonzero;stroke:none" transform="translate(373.264 365.978)" fill="#faf7f7" data-original="#faf7f7"></path><path d="M0 0c-10.54-8.93-22.44-19.07-36.56-21.09-21.57-3.08-42.29 8.9-51.54 27.55 8.661-4.34 18.621-6.22 28.77-4.77 14.12 2.02 26.02 12.16 36.55 21.09 43.67 36.979 73.63 92.319 69.949 150.399 4.221 6.83 14.721 7.95 19.09-.12 2.551-4.7 2.75-12.18 3.261-17.34C75.429 95.709 45 38.11 0 0" style="fill-opacity:1;fill-rule:nonzero;stroke:none" transform="translate(434.248 292.42)" fill="#f3eae6" data-original="#f3eae6"></path><path d="M0 0c19.858 5.935 37.989 10.064 55.715 21.623 27.415 17.875 41.918 44.355 51.157 75.168 2.77 9.238 15.45 11.792 20.374 2.71 2.551-4.705 2.743-12.177 3.253-17.34 5.918-60.011-24.52-117.608-69.516-155.722-10.535-8.923-22.436-19.068-36.555-21.085C-2.89-98.551-28.845-78.312-31.878-50.95-34.232-29.718-20.886-6.242 0 0Z" style="stroke-width:15;stroke-linecap:round;stroke-linejoin:round;stroke-miterlimit:10;stroke-dasharray:none;stroke-opacity:1" transform="translate(373.264 365.978)" fill="none" stroke="#000000" stroke-width="15" stroke-linecap="round" stroke-linejoin="round" stroke-miterlimit="10" stroke-dasharray="none" stroke-opacity="" data-original="#000000" class=""></path><path d="M0 0c-19.858 5.935-37.989 10.064-55.715 21.623-27.415 17.875-41.918 44.355-51.157 75.168-2.77 9.238-15.45 11.792-20.374 2.71-2.551-4.705-2.743-12.177-3.253-17.34-5.918-60.011 24.52-117.608 69.516-155.722 10.535-8.923 22.436-19.068 36.555-21.085C2.89-98.551 28.845-78.312 31.878-50.95 34.232-29.718 20.886-6.242 0 0" style="fill-opacity:1;fill-rule:nonzero;stroke:none" transform="translate(138.733 365.978)" fill="#faf7f7" data-original="#faf7f7"></path><path d="M0 0c-1.84-16.6-12.12-30.58-26.02-38.13 2.88 5.35 4.81 11.3 5.51 17.62C-18.16.72-31.5 24.189-52.39 30.439-72.25 36.37-90.379 40.5-108.099 52.06c-27.42 17.879-41.92 44.359-51.16 75.169-.62 2.08-1.75 3.82-3.18 5.17.01.24.04.47.06.71.51 5.16.71 12.64 3.26 17.34 4.92 9.08 17.6 6.53 20.37-2.71 9.24-30.81 23.74-57.29 51.16-75.17 17.719-11.56 35.86-15.69 55.709-21.619C-10.99 44.709 2.36 21.229 0 0" style="fill-opacity:1;fill-rule:nonzero;stroke:none" transform="translate(170.609 315.03)" fill="#f3eae6" data-original="#f3eae6"></path><path d="M0 0a215.621 215.621 0 0 1 15.105-14.114c10.535-8.923 22.437-19.067 36.556-21.085 27.318-3.905 53.272 16.335 56.305 43.696 2.354 21.232-10.992 44.708-31.878 50.95C56.23 65.382 38.099 69.512 20.373 81.07c-27.415 17.875-41.917 44.355-51.157 75.168-2.77 9.239-15.449 11.792-20.374 2.71-2.55-4.704-2.743-12.176-3.252-17.34C-58.533 99.802-45 59.176-21.204 25.483" style="stroke-width:15;stroke-linecap:round;stroke-linejoin:round;stroke-miterlimit:10;stroke-dasharray:none;stroke-opacity:1" transform="translate(62.645 306.53)" fill="none" stroke="#000000" stroke-width="15" stroke-linecap="round" stroke-linejoin="round" stroke-miterlimit="10" stroke-dasharray="none" stroke-opacity="" data-original="#000000" class=""></path><path d="m0 0-.013.284" style="stroke-width:15;stroke-linecap:round;stroke-linejoin:round;stroke-miterlimit:10;stroke-dasharray:none;stroke-opacity:1" transform="translate(256.048 118.786)" fill="none" stroke="#000000" stroke-width="15" stroke-linecap="round" stroke-linejoin="round" stroke-miterlimit="10" stroke-dasharray="none" stroke-opacity="" data-original="#000000" class=""></path><path d="m0 0-.013.284" style="stroke-width:15;stroke-linecap:round;stroke-linejoin:round;stroke-miterlimit:10;stroke-dasharray:none;stroke-opacity:1" transform="translate(255.962 88.14)" fill="none" stroke="#000000" stroke-width="15" stroke-linecap="round" stroke-linejoin="round" stroke-miterlimit="10" stroke-dasharray="none" stroke-opacity="" data-original="#000000" class=""></path><path d="m0 0 .278.013" style="stroke-width:15;stroke-linecap:round;stroke-linejoin:round;stroke-miterlimit:10;stroke-dasharray:none;stroke-opacity:1" transform="translate(271.211 103.555)" fill="none" stroke="#000000" stroke-width="15" stroke-linecap="round" stroke-linejoin="round" stroke-miterlimit="10" stroke-dasharray="none" stroke-opacity="" data-original="#000000" class=""></path><path d="m0 0 .278.013" style="stroke-width:15;stroke-linecap:round;stroke-linejoin:round;stroke-miterlimit:10;stroke-dasharray:none;stroke-opacity:1" transform="translate(240.507 103.64)" fill="none" stroke="#000000" stroke-width="15" stroke-linecap="round" stroke-linejoin="round" stroke-miterlimit="10" stroke-dasharray="none" stroke-opacity="" data-original="#000000" class=""></path></g></g></svg>