<svg xmlns="http://www.w3.org/2000/svg" version="1.1" xmlns:xlink="http://www.w3.org/1999/xlink" width="512" height="512" x="0" y="0" viewBox="0 0 682.667 682.667" style="enable-background:new 0 0 512 512" xml:space="preserve" class=""><g><defs><clipPath id="a" clipPathUnits="userSpaceOnUse"><path d="M0 512h512V0H0Z" fill="#000000" opacity="1" data-original="#000000"></path></clipPath></defs><g clip-path="url(#a)" transform="matrix(1.33333 0 0 -1.33333 0 682.667)"><path d="M0 0c0-108.201-47.854-226.19-115.153-273.853-5.216-3.694-12.43.04-12.43 6.432 0 1.809.625 3.561 1.763 4.966 8.927 11.019 48.821 62.821 51.531 111.72 2.729 49.238 32.3 40.84 38.538 91.132 1.497 12.075-6.118 23.405-17.859 26.591-23.163 6.284-62.906 13.553-92.83.579 0 0-15.357-75.672-3.654-99.476 11.693-23.793-3.572-42.11-27.995-42.11-24.424 0-39.689 18.317-27.996 42.11 11.703 23.804-3.654 99.476-3.654 99.476-29.924 12.974-69.666 5.705-92.829-.579-11.743-3.186-19.357-14.516-17.86-26.591 6.238-50.292 35.808-41.894 38.538-91.132 2.71-48.899 42.604-100.701 51.531-111.72a7.886 7.886 0 0 0 1.763-4.966c0-6.392-7.214-10.126-12.43-6.432C-308.325-226.19-356.179-108.201-356.179 0c0 139.663 79.733 210.146 178.09 210.146C-79.733 210.146 0 139.663 0 0" style="fill-opacity:1;fill-rule:nonzero;stroke:none" transform="translate(434.09 282.82)" fill="#cdc0bb" data-original="#cdc0bb"></path><path d="M0 0c0-108.2-47.85-226.19-115.15-273.85-5.22-3.7-12.43.04-12.43 6.43 0 1.81.62 3.56 1.76 4.96 6.2 7.65 27.33 34.97 40.57 67.33 16.63 30.35 29.77 65.39 38.29 101.94 5 7.81 9.25 17.82 11.21 33.59.65 5.25-.42 10.35-2.81 14.71 1.74 15.01 2.64 30.04 2.64 44.89 0 131.05-70.21 201.19-160.12 209.33 5.9.54 11.89.81 17.95.81C-79.73 210.14 0 139.66 0 0" style="fill-opacity:1;fill-rule:nonzero;stroke:none" transform="translate(434.09 282.82)" fill="#b9acac" data-original="#b9acac"></path><path d="M0 0h-81.9v187.282c0 5.62 4.556 10.176 10.176 10.176h61.548c5.62 0 10.176-4.556 10.176-10.176Z" style="fill-opacity:1;fill-rule:nonzero;stroke:none" transform="translate(296.95 307.041)" fill="#f3eae6" data-original="#f3eae6"></path><path d="M241.667 307.042h28.667V504.5h-28.667z" style="fill-opacity:1;fill-rule:nonzero;stroke:none" fill="#cdc0bb" data-original="#cdc0bb"></path><path d="M0 0v176.458" style="stroke-width:15;stroke-linecap:round;stroke-linejoin:round;stroke-miterlimit:10;stroke-dasharray:none;stroke-opacity:1" transform="translate(270.333 328.041)" fill="none" stroke="#000000" stroke-width="15" stroke-linecap="round" stroke-linejoin="round" stroke-miterlimit="10" stroke-dasharray="none" stroke-opacity="" data-original="#000000" class=""></path><path d="M0 0v-176.458" style="stroke-width:15;stroke-linecap:round;stroke-linejoin:round;stroke-miterlimit:10;stroke-dasharray:none;stroke-opacity:1" transform="translate(241.667 504.5)" fill="none" stroke="#000000" stroke-width="15" stroke-linecap="round" stroke-linejoin="round" stroke-miterlimit="10" stroke-dasharray="none" stroke-opacity="" data-original="#000000" class=""></path><path d="M0 0v-73.963h81.9v187.282c0 5.62-4.556 10.176-10.176 10.176H10.176C4.556 123.495 0 118.939 0 113.319V33.324" style="stroke-width:15;stroke-linecap:round;stroke-linejoin:round;stroke-miterlimit:10;stroke-dasharray:none;stroke-opacity:1" transform="translate(215.05 381.005)" fill="none" stroke="#000000" stroke-width="15" stroke-linecap="round" stroke-linejoin="round" stroke-miterlimit="10" stroke-dasharray="none" stroke-opacity="" data-original="#000000" class=""></path><path d="M0 0c0-108.21-47.854-226.201-115.153-273.862-5.216-3.695-12.43.039-12.43 6.431v.01c0 1.809.625 3.561 1.763 4.966 8.927 11.019 48.821 62.821 51.531 111.72 2.727 49.234 32.301 40.839 38.539 91.121 1.496 12.079-6.116 23.416-17.87 26.601-23.162 6.279-62.901 13.545-92.82.58 0 0-15.357-75.672-3.654-99.476 11.693-23.792-3.572-42.11-27.995-42.11-24.424 0-39.689 18.318-27.996 42.11 11.703 23.804-3.654 99.476-3.654 99.476-29.919 12.965-69.658 5.699-92.82-.58-11.754-3.185-19.366-14.522-17.87-26.601 6.238-50.282 35.811-41.887 38.539-91.121 2.71-48.899 42.604-100.701 51.531-111.72a7.886 7.886 0 0 0 1.763-4.966v-.01c0-6.392-7.214-10.126-12.43-6.431C-308.325-226.201-356.179-108.21-356.179 0c0 3.317.04 6.594.132 9.831 24.902 17.076 102.234 60.713 177.958 5.963C-102.366 70.544-25.034 26.907-.132 9.831-.041 6.594 0 3.317 0 0" style="fill-opacity:1;fill-rule:nonzero;stroke:none" transform="translate(434.09 282.824)" fill="#e0d3ce" data-original="#e0d3ce"></path><path d="M0 0a436.134 436.134 0 0 0-3.501-13.963h35.923C41.775 20.911 46.96 57.581 46.96 93.19c0 3.31-.04 6.59-.13 9.83-7.78 5.34-20.69 13.27-37.07 19.99.84-9.56 1.28-19.5 1.28-29.82 0-14.85-.9-29.88-2.64-44.89 2.39-4.36 3.46-9.46 2.81-14.71C9.25 17.82 5 7.81 0 0" style="fill-opacity:1;fill-rule:nonzero;stroke:none" transform="translate(387.13 189.63)" fill="#cdc0bb" data-original="#cdc0bb"></path><path d="M0 0c-1.897 34.251-16.786 40.616-27.773 58.245h-35.639C-45.614-18.677-7.371-88.966 40.864-123.127c5.217-3.694 12.43.039 12.43 6.431v.01c0 1.81-.624 3.561-1.763 4.966C42.604-100.7 2.71-48.898 0 0" style="fill-opacity:1;fill-rule:nonzero;stroke:none" transform="translate(152.2 132.089)" fill="#f8f3f1" data-original="#f8f3f1"></path><path d="M0 0c-10.987-17.629-25.876-23.993-27.773-58.245-2.71-48.898-42.604-100.7-51.532-111.719a7.894 7.894 0 0 1-1.763-4.966v-.01c0-6.393 7.214-10.126 12.431-6.432C-20.402-147.211 17.841-76.921 35.638 0Z" style="fill-opacity:1;fill-rule:nonzero;stroke:none" transform="translate(387.574 190.333)" fill="#f3eae6" data-original="#f3eae6"></path><path d="M0 0h-35.638" style="stroke-width:15;stroke-linecap:round;stroke-linejoin:round;stroke-miterlimit:10;stroke-dasharray:none;stroke-opacity:1" transform="translate(124.426 190.333)" fill="none" stroke="#000000" stroke-width="15" stroke-linecap="round" stroke-linejoin="round" stroke-miterlimit="10" stroke-dasharray="none" stroke-opacity="" data-original="#000000" class=""></path><path d="M0 0h-35.638" style="stroke-width:15;stroke-linecap:round;stroke-linejoin:round;stroke-miterlimit:10;stroke-dasharray:none;stroke-opacity:1" transform="translate(423.212 190.333)" fill="none" stroke="#000000" stroke-width="15" stroke-linecap="round" stroke-linejoin="round" stroke-miterlimit="10" stroke-dasharray="none" stroke-opacity="" data-original="#000000" class=""></path><path d="m0 0 31.649 48.232L63.298 0" style="stroke-width:15;stroke-linecap:round;stroke-linejoin:round;stroke-miterlimit:10;stroke-dasharray:none;stroke-opacity:1" transform="translate(224.35 250.386)" fill="none" stroke="#000000" stroke-width="15" stroke-linecap="round" stroke-linejoin="round" stroke-miterlimit="10" stroke-dasharray="none" stroke-opacity="" data-original="#000000" class=""></path><path d="M0 0c24.902 17.076 102.233 60.713 177.958 5.963C253.681 60.713 331.013 17.076 355.915 0" style="stroke-width:15;stroke-linecap:round;stroke-linejoin:round;stroke-miterlimit:10;stroke-dasharray:none;stroke-opacity:1" transform="translate(78.043 292.655)" fill="none" stroke="#000000" stroke-width="15" stroke-linecap="round" stroke-linejoin="round" stroke-miterlimit="10" stroke-dasharray="none" stroke-opacity="" data-original="#000000" class=""></path><path d="M0 0c-77.685-17.949-135.291-86.68-135.291-205.392 0-108.201 47.854-226.191 115.153-273.853 5.217-3.694 12.43.04 12.43 6.432a7.886 7.886 0 0 1-1.763 4.966c-4.381 5.407-16.218 20.639-27.46 40.525" style="stroke-width:15;stroke-linecap:round;stroke-linejoin:round;stroke-miterlimit:10;stroke-dasharray:none;stroke-opacity:1" transform="translate(213.201 488.211)" fill="none" stroke="#000000" stroke-width="15" stroke-linecap="round" stroke-linejoin="round" stroke-miterlimit="10" stroke-dasharray="none" stroke-opacity="" data-original="#000000" class=""></path><path d="M0 0c-5.168 13.298-8.905 27.349-9.671 41.169-2.729 49.238-32.3 40.841-38.537 91.133-1.498 12.074 6.117 23.404 17.859 26.59 23.163 6.285 62.905 13.553 92.829.58 0 0 15.357-75.673 3.654-99.476-11.693-23.793 3.572-42.111 27.996-42.111 24.423 0 39.688 18.318 27.995 42.111-11.703 23.803 3.654 99.476 3.654 99.476 29.924 12.973 69.667 5.705 92.83-.58 11.742-3.186 19.357-14.516 17.859-26.59-6.238-50.292-35.808-41.895-38.537-91.133-2.71-48.899-42.605-100.7-51.532-111.72a7.892 7.892 0 0 1-1.763-4.966c0-6.392 7.214-10.126 12.43-6.431 67.299 47.662 115.153 165.652 115.153 273.852 0 44.605-8.143 82.14-22.418 112.59" style="stroke-width:15;stroke-linecap:round;stroke-linejoin:round;stroke-miterlimit:10;stroke-dasharray:none;stroke-opacity:1" transform="translate(161.87 90.915)" fill="none" stroke="#000000" stroke-width="15" stroke-linecap="round" stroke-linejoin="round" stroke-miterlimit="10" stroke-dasharray="none" stroke-opacity="" data-original="#000000" class=""></path><path d="M0 0c-24.206 33.923-58.009 55.341-96.774 64.145" style="stroke-width:15;stroke-linecap:round;stroke-linejoin:round;stroke-miterlimit:10;stroke-dasharray:none;stroke-opacity:1" transform="translate(394.91 424.216)" fill="none" stroke="#000000" stroke-width="15" stroke-linecap="round" stroke-linejoin="round" stroke-miterlimit="10" stroke-dasharray="none" stroke-opacity="" data-original="#000000" class=""></path><path d="M0 0h28.468" style="stroke-width:15;stroke-linecap:round;stroke-linejoin:round;stroke-miterlimit:10;stroke-dasharray:none;stroke-opacity:1" transform="translate(398.587 223.21)" fill="none" stroke="#000000" stroke-width="15" stroke-linecap="round" stroke-linejoin="round" stroke-miterlimit="10" stroke-dasharray="none" stroke-opacity="" data-original="#000000" class=""></path><path d="M0 0h-28.468" style="stroke-width:15;stroke-linecap:round;stroke-linejoin:round;stroke-miterlimit:10;stroke-dasharray:none;stroke-opacity:1" transform="translate(113.412 223.21)" fill="none" stroke="#000000" stroke-width="15" stroke-linecap="round" stroke-linejoin="round" stroke-miterlimit="10" stroke-dasharray="none" stroke-opacity="" data-original="#000000" class=""></path><path d="M0 0c0-16.033-12.998-29.031-29.031-29.031-16.034 0-29.032 12.998-29.032 29.031 0 16.034 12.998 29.032 29.032 29.032C-12.998 29.032 0 16.034 0 0" style="fill-opacity:1;fill-rule:nonzero;stroke:none" transform="translate(285.031 299.229)" fill="#faf7f7" data-original="#faf7f7"></path><path d="M0 0c0-16.033-12.998-29.031-29.031-29.031-16.034 0-29.032 12.998-29.032 29.031 0 16.034 12.998 29.032 29.032 29.032C-12.998 29.032 0 16.034 0 0Z" style="stroke-width:15;stroke-linecap:round;stroke-linejoin:round;stroke-miterlimit:10;stroke-dasharray:none;stroke-opacity:1" transform="translate(285.031 299.229)" fill="none" stroke="#000000" stroke-width="15" stroke-linecap="round" stroke-linejoin="round" stroke-miterlimit="10" stroke-dasharray="none" stroke-opacity="" data-original="#000000" class=""></path><path d="M0 0h.105" style="stroke-width:15;stroke-linecap:round;stroke-linejoin:round;stroke-miterlimit:10;stroke-dasharray:none;stroke-opacity:1" transform="translate(255.947 246.705)" fill="none" stroke="#000000" stroke-width="15" stroke-linecap="round" stroke-linejoin="round" stroke-miterlimit="10" stroke-dasharray="none" stroke-opacity="" data-original="#000000" class=""></path><path d="M0 0h.105" style="stroke-width:15;stroke-linecap:round;stroke-linejoin:round;stroke-miterlimit:10;stroke-dasharray:none;stroke-opacity:1" transform="translate(255.947 223.21)" fill="none" stroke="#000000" stroke-width="15" stroke-linecap="round" stroke-linejoin="round" stroke-miterlimit="10" stroke-dasharray="none" stroke-opacity="" data-original="#000000" class=""></path><path d="M0 0h.105" style="stroke-width:15;stroke-linecap:round;stroke-linejoin:round;stroke-miterlimit:10;stroke-dasharray:none;stroke-opacity:1" transform="translate(255.947 199.718)" fill="none" stroke="#000000" stroke-width="15" stroke-linecap="round" stroke-linejoin="round" stroke-miterlimit="10" stroke-dasharray="none" stroke-opacity="" data-original="#000000" class=""></path><path d="M0 0s23.258-21.013 12.214-60.874" style="stroke-width:15;stroke-linecap:round;stroke-linejoin:round;stroke-miterlimit:10;stroke-dasharray:none;stroke-opacity:1" transform="translate(313.886 319.875)" fill="none" stroke="#000000" stroke-width="15" stroke-linecap="round" stroke-linejoin="round" stroke-miterlimit="10" stroke-dasharray="none" stroke-opacity="" data-original="#000000" class=""></path><path d="M0 0s8.792-33.619-8.417-62.199" style="stroke-width:15;stroke-linecap:round;stroke-linejoin:round;stroke-miterlimit:10;stroke-dasharray:none;stroke-opacity:1" transform="translate(365.103 321.2)" fill="none" stroke="#000000" stroke-width="15" stroke-linecap="round" stroke-linejoin="round" stroke-miterlimit="10" stroke-dasharray="none" stroke-opacity="" data-original="#000000" class=""></path><path d="M0 0s25.528 14.414 29.524 54.401" style="stroke-width:15;stroke-linecap:round;stroke-linejoin:round;stroke-miterlimit:10;stroke-dasharray:none;stroke-opacity:1" transform="translate(381.623 251.597)" fill="none" stroke="#000000" stroke-width="15" stroke-linecap="round" stroke-linejoin="round" stroke-miterlimit="10" stroke-dasharray="none" stroke-opacity="" data-original="#000000" class=""></path><path d="M0 0s-23.258-21.013-12.214-60.874" style="stroke-width:15;stroke-linecap:round;stroke-linejoin:round;stroke-miterlimit:10;stroke-dasharray:none;stroke-opacity:1" transform="translate(198.113 319.875)" fill="none" stroke="#000000" stroke-width="15" stroke-linecap="round" stroke-linejoin="round" stroke-miterlimit="10" stroke-dasharray="none" stroke-opacity="" data-original="#000000" class=""></path><path d="M0 0s-8.792-33.619 8.417-62.199" style="stroke-width:15;stroke-linecap:round;stroke-linejoin:round;stroke-miterlimit:10;stroke-dasharray:none;stroke-opacity:1" transform="translate(146.896 321.2)" fill="none" stroke="#000000" stroke-width="15" stroke-linecap="round" stroke-linejoin="round" stroke-miterlimit="10" stroke-dasharray="none" stroke-opacity="" data-original="#000000" class=""></path><path d="M0 0s-25.528 14.414-29.524 54.401" style="stroke-width:15;stroke-linecap:round;stroke-linejoin:round;stroke-miterlimit:10;stroke-dasharray:none;stroke-opacity:1" transform="translate(130.376 251.597)" fill="none" stroke="#000000" stroke-width="15" stroke-linecap="round" stroke-linejoin="round" stroke-miterlimit="10" stroke-dasharray="none" stroke-opacity="" data-original="#000000" class=""></path><path d="M0 0h.104" style="stroke-width:15;stroke-linecap:round;stroke-linejoin:round;stroke-miterlimit:10;stroke-dasharray:none;stroke-opacity:1" transform="translate(329.381 358.334)" fill="none" stroke="#000000" stroke-width="15" stroke-linecap="round" stroke-linejoin="round" stroke-miterlimit="10" stroke-dasharray="none" stroke-opacity="" data-original="#000000" class=""></path><path d="M0 0h.104" style="stroke-width:15;stroke-linecap:round;stroke-linejoin:round;stroke-miterlimit:10;stroke-dasharray:none;stroke-opacity:1" transform="translate(329.381 395.466)" fill="none" stroke="#000000" stroke-width="15" stroke-linecap="round" stroke-linejoin="round" stroke-miterlimit="10" stroke-dasharray="none" stroke-opacity="" data-original="#000000" class=""></path><path d="M0 0h.104" style="stroke-width:15;stroke-linecap:round;stroke-linejoin:round;stroke-miterlimit:10;stroke-dasharray:none;stroke-opacity:1" transform="translate(329.381 432.6)" fill="none" stroke="#000000" stroke-width="15" stroke-linecap="round" stroke-linejoin="round" stroke-miterlimit="10" stroke-dasharray="none" stroke-opacity="" data-original="#000000" class=""></path><path d="M0 0h.104" style="stroke-width:15;stroke-linecap:round;stroke-linejoin:round;stroke-miterlimit:10;stroke-dasharray:none;stroke-opacity:1" transform="translate(182.515 358.334)" fill="none" stroke="#000000" stroke-width="15" stroke-linecap="round" stroke-linejoin="round" stroke-miterlimit="10" stroke-dasharray="none" stroke-opacity="" data-original="#000000" class=""></path><path d="M0 0h.104" style="stroke-width:15;stroke-linecap:round;stroke-linejoin:round;stroke-miterlimit:10;stroke-dasharray:none;stroke-opacity:1" transform="translate(182.515 395.466)" fill="none" stroke="#000000" stroke-width="15" stroke-linecap="round" stroke-linejoin="round" stroke-miterlimit="10" stroke-dasharray="none" stroke-opacity="" data-original="#000000" class=""></path><path d="M0 0h.104" style="stroke-width:15;stroke-linecap:round;stroke-linejoin:round;stroke-miterlimit:10;stroke-dasharray:none;stroke-opacity:1" transform="translate(182.515 432.6)" fill="none" stroke="#000000" stroke-width="15" stroke-linecap="round" stroke-linejoin="round" stroke-miterlimit="10" stroke-dasharray="none" stroke-opacity="" data-original="#000000" class=""></path></g></g></svg>