<svg xmlns="http://www.w3.org/2000/svg" version="1.1" xmlns:xlink="http://www.w3.org/1999/xlink" width="512" height="512" x="0" y="0" viewBox="0 0 682.667 682.667" style="enable-background:new 0 0 512 512" xml:space="preserve" class=""><g><defs><clipPath id="a" clipPathUnits="userSpaceOnUse"><path d="M0 512h512V0H0Z" fill="#000000" opacity="1" data-original="#000000"></path></clipPath></defs><g clip-path="url(#a)" transform="matrix(1.33333 0 0 -1.33333 0 682.667)"><path d="m0 0-16.958-37.135c47.68-38.255 78.194-97.002 78.194-162.88 0-115.277-93.446-208.723-208.722-208.723-115.277 0-208.723 93.446-208.723 208.723 0 65.878 30.515 124.625 78.194 162.88L-294.973 0c-61.28-45.256-101.013-117.994-101.013-200.015 0-137.247 111.254-248.5 248.5-248.5 137.246 0 248.5 111.253 248.5 248.5C101.014-117.994 61.28-45.256 0 0" style="fill-opacity:1;fill-rule:nonzero;stroke:none" transform="translate(403.486 467.028)" fill="#e0d3ce" data-original="#e0d3ce"></path><path d="M0 0c0-137.24-111.25-248.5-248.5-248.5-4.439 0-8.86.12-13.25.35C-130.66-241.27-26.5-132.8-26.5 0c0 73.06-31.52 138.75-81.72 184.23l7.21 15.79C-39.73 154.76 0 82.02 0 0" style="fill-opacity:1;fill-rule:nonzero;stroke:none" transform="translate(504.5 267.01)" fill="#cdc0bb" data-original="#cdc0bb"></path><path d="M0 0a208.675 208.675 0 0 1-20.05-18.35 57.763 57.763 0 0 0-22.139 25.2l-2.8 6.18A248.756 248.756 0 0 0-16.96 37.14z" style="fill-opacity:1;fill-rule:nonzero;stroke:none" transform="translate(125.47 429.89)" fill="#cdc0bb" data-original="#cdc0bb"></path><path d="m0 0-2.8-6.18c-4.809-10.61-12.609-19.28-22.139-25.2a208.675 208.675 0 0 1-20.05 18.35l16.96 37.14A248.844 248.844 0 0 0 0 0" style="fill-opacity:1;fill-rule:nonzero;stroke:none" transform="translate(431.52 442.92)" fill="#cdc0bb" data-original="#cdc0bb"></path><path d="M0 0a209.858 209.858 0 0 0 3.613-38.763c0-115.276-93.446-208.723-208.722-208.723-115.277 0-208.723 93.447-208.723 208.723 0 65.878 30.515 124.625 78.194 162.88l-16.958 37.135c-61.28-45.255-101.013-117.993-101.013-200.015 0-137.246 111.254-248.5 248.5-248.5 137.246 0 248.5 111.254 248.5 248.5 0 82.022-39.734 154.76-101.014 200.015l-16.958-37.135c29.655-23.794 52.665-55.518 65.828-91.952" style="stroke-width:15;stroke-linecap:round;stroke-linejoin:round;stroke-miterlimit:10;stroke-dasharray:none;stroke-opacity:1" transform="translate(461.11 305.775)" fill="none" stroke="#000000" stroke-width="15" stroke-linecap="round" stroke-linejoin="round" stroke-miterlimit="10" stroke-dasharray="none" stroke-opacity="" data-original="#000000" class=""></path><path d="M0 0c-2.569 4.909-8.548 7.022-13.657 4.705a10.455 10.455 0 0 1-5.075-4.907c-3.258-6.594-8.371-12.09-15.069-15.127l-2.253-1.022a11.752 11.752 0 0 0-12.133 1.476l-3.256 2.569A61.563 61.563 0 0 1-101.618-.271c-10.515-2.1-21.402-1.284-31.437 2.492-8.577 3.228-16.774-5.528-12.989-13.873l18.912-41.7c8.632-19.033 31.058-27.464 50.091-18.833l68.628 31.124C3.986-35.438 9.479-20.828 3.855-8.429L.274-.533.027.012Z" style="fill-opacity:1;fill-rule:nonzero;stroke:none" transform="translate(228.626 498.354)" fill="#fdc266" data-original="#fdc266" class=""></path><path d="m0 0 28.139 12.761c12.399 5.623 17.891 20.233 12.268 32.632l-3.581 7.897-.247.544-.027-.012c-2.57 4.909-8.548 7.022-13.657 4.705a10.457 10.457 0 0 1-5.076-4.907c-3.256-6.594-8.37-12.089-15.068-15.127L.498 37.471a11.754 11.754 0 0 0-12.133 1.476l-3.258 2.569a61.559 61.559 0 0 1-50.173 12.035c-10.515-2.1-21.403-1.283-31.437 2.492-8.577 3.228-16.774-5.527-12.989-13.873L-90.58.47c8.631-19.032 31.058-27.464 50.091-18.833l10.147 4.602" style="stroke-width:15;stroke-linecap:round;stroke-linejoin:round;stroke-miterlimit:10;stroke-dasharray:none;stroke-opacity:1" transform="translate(192.074 444.532)" fill="none" stroke="#000000" stroke-width="15" stroke-linecap="round" stroke-linejoin="round" stroke-miterlimit="10" stroke-dasharray="none" stroke-opacity="" data-original="#000000" class=""></path><path d="m0 0 12.973.647" style="stroke-width:15;stroke-linecap:round;stroke-linejoin:round;stroke-miterlimit:10;stroke-dasharray:none;stroke-opacity:1" transform="translate(130.17 471.105)" fill="none" stroke="#000000" stroke-width="15" stroke-linecap="round" stroke-linejoin="round" stroke-miterlimit="10" stroke-dasharray="none" stroke-opacity="" data-original="#000000" class=""></path><path d="M0 0c2.569 4.909 8.548 7.022 13.657 4.705a10.455 10.455 0 0 0 5.075-4.907c3.258-6.594 8.371-12.09 15.069-15.127l2.253-1.022a11.752 11.752 0 0 1 12.133 1.476l3.256 2.569A61.563 61.563 0 0 0 101.618-.271c10.515-2.1 21.402-1.284 31.437 2.492 8.577 3.228 16.774-5.528 12.989-13.873l-18.912-41.7C118.5-72.385 96.074-80.816 77.041-72.185L8.413-41.061C-3.986-35.438-9.479-20.828-3.855-8.429L-.274-.533l.247.545z" style="fill-opacity:1;fill-rule:nonzero;stroke:none" transform="translate(283.374 498.354)" fill="#fdc266" data-original="#fdc266" class=""></path><path d="M0 0c2.569 4.909 8.548 7.022 13.657 4.705a10.455 10.455 0 0 0 5.075-4.907c3.258-6.594 8.371-12.09 15.069-15.127l2.253-1.022a11.752 11.752 0 0 1 12.133 1.476l3.256 2.569A61.563 61.563 0 0 0 101.618-.271c10.515-2.1 21.402-1.284 31.437 2.492 8.577 3.228 16.774-5.528 12.989-13.873l-18.912-41.7C118.5-72.385 96.074-80.816 77.041-72.185L8.413-41.061C-3.986-35.438-9.479-20.828-3.855-8.429L-.274-.533l.247.545z" style="stroke-width:15;stroke-linecap:round;stroke-linejoin:round;stroke-miterlimit:10;stroke-dasharray:none;stroke-opacity:1" transform="translate(283.374 498.354)" fill="none" stroke="#000000" stroke-width="15" stroke-linecap="round" stroke-linejoin="round" stroke-miterlimit="10" stroke-dasharray="none" stroke-opacity="" data-original="#000000" class=""></path><path d="m0 0-12.973.647" style="stroke-width:15;stroke-linecap:round;stroke-linejoin:round;stroke-miterlimit:10;stroke-dasharray:none;stroke-opacity:1" transform="translate(381.83 471.105)" fill="none" stroke="#000000" stroke-width="15" stroke-linecap="round" stroke-linejoin="round" stroke-miterlimit="10" stroke-dasharray="none" stroke-opacity="" data-original="#000000" class=""></path><path d="M0 0c17.2 15.86 38.09 27.86 61.359 34.53" style="stroke-width:15;stroke-linecap:round;stroke-linejoin:round;stroke-miterlimit:10;stroke-dasharray:none;stroke-opacity:1" transform="translate(21.24 348.7)" fill="none" stroke="#000000" stroke-width="15" stroke-linecap="round" stroke-linejoin="round" stroke-miterlimit="10" stroke-dasharray="none" stroke-opacity="" data-original="#000000" class=""></path><path d="M0 0v.01c5.051 25.72 16.65 49.91 33.79 70" style="stroke-width:15;stroke-linecap:round;stroke-linejoin:round;stroke-miterlimit:10;stroke-dasharray:none;stroke-opacity:1" transform="translate(13.93 210.6)" fill="none" stroke="#000000" stroke-width="15" stroke-linecap="round" stroke-linejoin="round" stroke-miterlimit="10" stroke-dasharray="none" stroke-opacity="" data-original="#000000" class=""></path><path d="M0 0v.01a153.65 153.65 0 0 0 .83 67.44" style="stroke-width:15;stroke-linecap:round;stroke-linejoin:round;stroke-miterlimit:10;stroke-dasharray:none;stroke-opacity:1" transform="translate(71.22 100.85)" fill="none" stroke="#000000" stroke-width="15" stroke-linecap="round" stroke-linejoin="round" stroke-miterlimit="10" stroke-dasharray="none" stroke-opacity="" data-original="#000000" class=""></path><path d="M0 0c6.89-21.88 18.67-42.21 34.75-59.21" style="stroke-width:15;stroke-linecap:round;stroke-linejoin:round;stroke-miterlimit:10;stroke-dasharray:none;stroke-opacity:1" transform="translate(146.94 89.02)" fill="none" stroke="#000000" stroke-width="15" stroke-linecap="round" stroke-linejoin="round" stroke-miterlimit="10" stroke-dasharray="none" stroke-opacity="" data-original="#000000" class=""></path><path d="M0 0c23.271-6.67 44.16-18.67 61.36-34.53" style="stroke-width:15;stroke-linecap:round;stroke-linejoin:round;stroke-miterlimit:10;stroke-dasharray:none;stroke-opacity:1" transform="translate(429.403 383.23)" fill="none" stroke="#000000" stroke-width="15" stroke-linecap="round" stroke-linejoin="round" stroke-miterlimit="10" stroke-dasharray="none" stroke-opacity="" data-original="#000000" class=""></path><path d="M0 0c17.141-20.09 28.74-44.28 33.79-70v-.01" style="stroke-width:15;stroke-linecap:round;stroke-linejoin:round;stroke-miterlimit:10;stroke-dasharray:none;stroke-opacity:1" transform="translate(464.283 280.61)" fill="none" stroke="#000000" stroke-width="15" stroke-linecap="round" stroke-linejoin="round" stroke-miterlimit="10" stroke-dasharray="none" stroke-opacity="" data-original="#000000" class=""></path><path d="M0 0c5.261-22.1 5.561-45.18.83-67.44v-.01" style="stroke-width:15;stroke-linecap:round;stroke-linejoin:round;stroke-miterlimit:10;stroke-dasharray:none;stroke-opacity:1" transform="translate(439.953 168.3)" fill="none" stroke="#000000" stroke-width="15" stroke-linecap="round" stroke-linejoin="round" stroke-miterlimit="10" stroke-dasharray="none" stroke-opacity="" data-original="#000000" class=""></path><path d="M0 0c16.08 17 27.86 37.33 34.75 59.21" style="stroke-width:15;stroke-linecap:round;stroke-linejoin:round;stroke-miterlimit:10;stroke-dasharray:none;stroke-opacity:1" transform="translate(330.313 29.81)" fill="none" stroke="#000000" stroke-width="15" stroke-linecap="round" stroke-linejoin="round" stroke-miterlimit="10" stroke-dasharray="none" stroke-opacity="" data-original="#000000" class=""></path><path d="M0 0h-88.885c-5.522 0-10 4.477-10 10v44c0 5.523 4.478 10 10 10H0c5.522 0 10-4.477 10-10V10C10 4.477 5.522 0 0 0" style="fill-opacity:1;fill-rule:nonzero;stroke:none" transform="translate(301.942 8)" fill="#fdc266" data-original="#fdc266" class=""></path><path d="M0 0v-44c0-5.52-4.47-10-10-10h-32.879c5.529 0 10 4.48 10 10V0c0 5.52-4.471 10-10 10H-10C-4.47 10 0 5.52 0 0" style="fill-opacity:1;fill-rule:nonzero;stroke:none" transform="translate(311.94 62)" fill="#feb541" data-original="#feb541"></path><path d="M0 0h-27.947c-5.523 0-10-4.477-10-10v-44c0-5.523 4.477-10 10-10h88.885c5.522 0 10 4.477 10 10v44c0 5.523-4.478 10-10 10H33.323" style="stroke-width:15;stroke-linecap:round;stroke-linejoin:round;stroke-miterlimit:10;stroke-dasharray:none;stroke-opacity:1" transform="translate(241.005 72)" fill="none" stroke="#000000" stroke-width="15" stroke-linecap="round" stroke-linejoin="round" stroke-miterlimit="10" stroke-dasharray="none" stroke-opacity="" data-original="#000000" class=""></path><path d="M0 0h.104" style="stroke-width:15;stroke-linecap:round;stroke-linejoin:round;stroke-miterlimit:10;stroke-dasharray:none;stroke-opacity:1" transform="translate(377.948 444.85)" fill="none" stroke="#000000" stroke-width="15" stroke-linecap="round" stroke-linejoin="round" stroke-miterlimit="10" stroke-dasharray="none" stroke-opacity="" data-original="#000000" class=""></path><path d="M0 0h.104" style="stroke-width:15;stroke-linecap:round;stroke-linejoin:round;stroke-miterlimit:10;stroke-dasharray:none;stroke-opacity:1" transform="translate(133.948 444.85)" fill="none" stroke="#000000" stroke-width="15" stroke-linecap="round" stroke-linejoin="round" stroke-miterlimit="10" stroke-dasharray="none" stroke-opacity="" data-original="#000000" class=""></path></g></g></svg>