<svg xmlns="http://www.w3.org/2000/svg" version="1.1" xmlns:xlink="http://www.w3.org/1999/xlink" width="512" height="512" x="0" y="0" viewBox="0 0 682.667 682.667" style="enable-background:new 0 0 512 512" xml:space="preserve" class=""><g><defs><clipPath id="a" clipPathUnits="userSpaceOnUse"><path d="M0 512h512V0H0Z" fill="#000000" opacity="1" data-original="#000000"></path></clipPath></defs><g clip-path="url(#a)" transform="matrix(1.33333 0 0 -1.33333 0 682.667)"><path d="M0 0c0-137.243-111.257-248.5-248.5-248.5S-497-137.243-497 0s111.257 248.5 248.5 248.5S0 137.243 0 0" style="fill-opacity:1;fill-rule:nonzero;stroke:none" transform="translate(504.5 256)" fill="#cdc0bb" data-original="#cdc0bb" class=""></path><path d="M0 0c0-137.24-111.26-248.5-248.5-248.5-6.13 0-12.2.22-18.22.66C-137.98-238.51-36.439-131.11-36.439 0S-137.98 238.51-266.72 247.84c6.02.44 12.09.66 18.22.66C-111.26 248.5 0 137.24 0 0" style="fill-opacity:1;fill-rule:nonzero;stroke:none" transform="translate(504.5 256)" fill="#b9acac" data-original="#b9acac" class=""></path><path d="M0 0c0-137.243-111.257-248.5-248.5-248.5S-497-137.243-497 0s111.257 248.5 248.5 248.5S0 137.243 0 0Z" style="stroke-width:15;stroke-linecap:round;stroke-linejoin:round;stroke-miterlimit:10;stroke-dasharray:none;stroke-opacity:1" transform="translate(504.5 256)" fill="none" stroke="#000000" stroke-width="15" stroke-linecap="round" stroke-linejoin="round" stroke-miterlimit="10" stroke-dasharray="none" stroke-opacity="" data-original="#000000" class=""></path><path d="M0 0c0-107.122-86.84-193.962-193.962-193.962-107.122 0-193.962 86.84-193.962 193.962 0 107.122 86.84 193.962 193.962 193.962C-86.84 193.962 0 107.122 0 0" style="fill-opacity:1;fill-rule:nonzero;stroke:none" transform="translate(449.962 256)" fill="#60b8ff" data-original="#60b8ff" class=""></path><path d="M0 0c0-107.12-86.84-193.96-193.96-193.96-8.24 0-16.37.51-24.34 1.52C-122.67-180.47-48.68-98.88-48.68 0s-73.99 180.47-169.62 192.44c7.97 1.01 16.1 1.52 24.34 1.52C-86.84 193.96 0 107.12 0 0" style="fill-opacity:1;fill-rule:nonzero;stroke:none" transform="translate(449.96 256)" fill="#26a5fe" data-original="#26a5fe" class=""></path><path d="m0 0 46.694 71.11 43.932-42.77 11.568-58.73-52 3.5L36.751.863 52.194 18" style="stroke-width:15;stroke-linecap:round;stroke-linejoin:round;stroke-miterlimit:10;stroke-dasharray:none;stroke-opacity:1" transform="translate(304.806 302.89)" fill="none" stroke="#000000" stroke-width="15" stroke-linecap="round" stroke-linejoin="round" stroke-miterlimit="10" stroke-dasharray="none" stroke-opacity="" data-original="#000000" class=""></path><path d="m0 0 39.379-77.762-58.943-16.88-56.717 19.138 28.87 43.39 30.765-2.12 7.201-21.916" style="stroke-width:15;stroke-linecap:round;stroke-linejoin:round;stroke-miterlimit:10;stroke-dasharray:none;stroke-opacity:1" transform="translate(271.25 191.667)" fill="none" stroke="#000000" stroke-width="15" stroke-linecap="round" stroke-linejoin="round" stroke-miterlimit="10" stroke-dasharray="none" stroke-opacity="" data-original="#000000" class=""></path><path d="m0 0-46.817 71.261-43.932-42.77-11.568-58.73 52 3.5 13.443 27.753-15.443 17.136" style="stroke-width:15;stroke-linecap:round;stroke-linejoin:round;stroke-miterlimit:10;stroke-dasharray:none;stroke-opacity:1" transform="translate(207.317 302.74)" fill="none" stroke="#000000" stroke-width="15" stroke-linecap="round" stroke-linejoin="round" stroke-miterlimit="10" stroke-dasharray="none" stroke-opacity="" data-original="#000000" class=""></path><path d="m0 0-56.334-127.868L-112.668 0c-4.608 10.46 1.043 22.614 12.026 25.776 14.069 4.05 28.934 6.218 44.308 6.218 15.374 0 30.239-2.168 44.308-6.218C-1.043 22.614 4.608 10.46 0 0" style="fill-opacity:1;fill-rule:nonzero;stroke:none" transform="translate(312.334 383.868)" fill="#faf7f7" data-original="#faf7f7"></path><path d="m0 0-56.334-127.868L-112.668 0c-4.608 10.46 1.043 22.614 12.026 25.776 14.069 4.05 28.934 6.218 44.308 6.218 15.374 0 30.239-2.168 44.308-6.218C-1.043 22.614 4.608 10.46 0 0Z" style="stroke-width:15;stroke-linecap:round;stroke-linejoin:round;stroke-miterlimit:10;stroke-dasharray:none;stroke-opacity:1" transform="translate(312.334 383.868)" fill="none" stroke="#000000" stroke-width="15" stroke-linecap="round" stroke-linejoin="round" stroke-miterlimit="10" stroke-dasharray="none" stroke-opacity="" data-original="#000000" class=""></path><path d="M0 0a132.33 132.33 0 0 0 28.069 2.995c9.493 0 18.9-1.005 28.07-2.995l-28.07-65.678z" style="fill-opacity:1;fill-rule:nonzero;stroke:none" transform="translate(227.93 386.568)" fill="#fe7d43" data-original="#fe7d43"></path><path d="M0 0a132.33 132.33 0 0 0 28.069 2.995c9.493 0 18.9-1.005 28.07-2.995l-28.07-65.678z" style="stroke-width:15;stroke-linecap:round;stroke-linejoin:round;stroke-miterlimit:10;stroke-dasharray:none;stroke-opacity:1" transform="translate(227.93 386.568)" fill="none" stroke="#000000" stroke-width="15" stroke-linecap="round" stroke-linejoin="round" stroke-miterlimit="10" stroke-dasharray="none" stroke-opacity="" data-original="#000000" class=""></path><path d="m0 0 138.904 15.147-82.57-112.72c-6.755-9.221-20.105-10.405-28.336-2.473C17.457-89.887 8.146-78.098.46-64.784c-7.688 13.315-13.242 27.272-16.77 41.481C-19.063-12.21-11.363-1.239 0 0" style="fill-opacity:1;fill-rule:nonzero;stroke:none" transform="translate(116.999 240.852)" fill="#faf7f7" data-original="#faf7f7"></path><path d="m0 0 53.711 73.323-138.904-15.147c-11.364-1.239-19.064-12.21-16.31-23.303 3.527-14.209 9.082-28.166 16.77-41.48 7.686-13.315 16.997-25.104 27.538-35.263 8.23-7.932 21.581-6.749 28.336 2.473l9.255 12.634" style="stroke-width:15;stroke-linecap:round;stroke-linejoin:round;stroke-miterlimit:10;stroke-dasharray:none;stroke-opacity:1" transform="translate(202.192 182.677)" fill="none" stroke="#000000" stroke-width="15" stroke-linecap="round" stroke-linejoin="round" stroke-miterlimit="10" stroke-dasharray="none" stroke-opacity="" data-original="#000000" class=""></path><path d="M0 0a132.291 132.291 0 0 0-16.628 22.811 132.384 132.384 0 0 0-11.441 25.806l70.914 8.531z" style="fill-opacity:1;fill-rule:nonzero;stroke:none" transform="translate(156.862 166.407)" fill="#fe7d43" data-original="#fe7d43"></path><path d="M0 0a132.291 132.291 0 0 0-16.628 22.811 132.384 132.384 0 0 0-11.441 25.806l70.914 8.531z" style="stroke-width:15;stroke-linecap:round;stroke-linejoin:round;stroke-miterlimit:10;stroke-dasharray:none;stroke-opacity:1" transform="translate(156.862 166.407)" fill="none" stroke="#000000" stroke-width="15" stroke-linecap="round" stroke-linejoin="round" stroke-miterlimit="10" stroke-dasharray="none" stroke-opacity="" data-original="#000000" class=""></path><path d="m0 0-138.904 15.147 82.57-112.72c6.754-9.221 20.105-10.405 28.336-2.473C-17.457-89.887-8.146-78.098-.46-64.784c7.688 13.315 13.241 27.272 16.769 41.481C19.062-12.21 11.362-1.239 0 0" style="fill-opacity:1;fill-rule:nonzero;stroke:none" transform="translate(394.808 240.852)" fill="#faf7f7" data-original="#faf7f7"></path><path d="M0 0c-3.53-14.21-9.09-28.17-16.771-41.48-7.689-13.32-17-25.1-27.539-35.26a18.74 18.74 0 0 0-6.56-4.12c22.49 28.78 37.03 64.08 40.31 102.59C-2.51 18.1 2.25 9.09 0 0" style="fill-opacity:1;fill-rule:nonzero;stroke:none" transform="translate(411.12 217.55)" fill="#eee2dd" data-original="#eee2dd"></path><path d="m0 0-138.904 15.147 82.57-112.72c6.754-9.221 20.105-10.405 28.336-2.473C-17.457-89.887-8.146-78.098-.46-64.784c7.688 13.315 13.241 27.272 16.769 41.481C19.062-12.21 11.362-1.239 0 0Z" style="stroke-width:15;stroke-linecap:round;stroke-linejoin:round;stroke-miterlimit:10;stroke-dasharray:none;stroke-opacity:1" transform="translate(394.808 240.852)" fill="none" stroke="#000000" stroke-width="15" stroke-linecap="round" stroke-linejoin="round" stroke-miterlimit="10" stroke-dasharray="none" stroke-opacity="" data-original="#000000" class=""></path><path d="M0 0a132.244 132.244 0 0 1 16.629 22.811 132.38 132.38 0 0 1 11.44 25.806l-70.913 8.531z" style="fill-opacity:1;fill-rule:nonzero;stroke:none" transform="translate(354.943 166.407)" fill="#fe7d43" data-original="#fe7d43"></path><path d="M0 0a132.244 132.244 0 0 1 16.629 22.811 132.38 132.38 0 0 1 11.44 25.806l-70.913 8.531z" style="stroke-width:15;stroke-linecap:round;stroke-linejoin:round;stroke-miterlimit:10;stroke-dasharray:none;stroke-opacity:1" transform="translate(354.943 166.407)" fill="none" stroke="#000000" stroke-width="15" stroke-linecap="round" stroke-linejoin="round" stroke-miterlimit="10" stroke-dasharray="none" stroke-opacity="" data-original="#000000" class=""></path><path d="M0 0c-8.399 93.025-82.468 167.098-175.491 175.497" style="stroke-width:15;stroke-linecap:round;stroke-linejoin:round;stroke-miterlimit:10;stroke-dasharray:none;stroke-opacity:1" transform="translate(449.153 273.662)" fill="none" stroke="#000000" stroke-width="15" stroke-linecap="round" stroke-linejoin="round" stroke-miterlimit="10" stroke-dasharray="none" stroke-opacity="" data-original="#000000" class=""></path><path d="M0 0c-99.797-7.976-178.3-91.482-178.3-193.331 0-107.122 86.84-193.962 193.962-193.962 101.85 0 185.356 78.503 193.331 178.3" style="stroke-width:15;stroke-linecap:round;stroke-linejoin:round;stroke-miterlimit:10;stroke-dasharray:none;stroke-opacity:1" transform="translate(240.338 449.331)" fill="none" stroke="#000000" stroke-width="15" stroke-linecap="round" stroke-linejoin="round" stroke-miterlimit="10" stroke-dasharray="none" stroke-opacity="" data-original="#000000" class=""></path><path d="M0 0c0-35.53-28.803-64.333-64.333-64.333S-128.666-35.53-128.666 0s28.803 64.333 64.333 64.333S0 35.53 0 0" style="fill-opacity:1;fill-rule:nonzero;stroke:none" transform="translate(320.333 256)" fill="#b9acac" data-original="#b9acac" class=""></path><path d="M0 0c0-35.53-28.8-64.33-64.33-64.33-4.82 0-9.51.53-14.03 1.54C-49.58-56.39-28.07-30.71-28.07 0s-21.51 56.39-50.29 62.79c4.52 1.01 9.21 1.54 14.03 1.54C-28.8 64.33 0 35.53 0 0" style="fill-opacity:1;fill-rule:nonzero;stroke:none" transform="translate(320.33 256)" fill="#9e9797" data-original="#9e9797"></path><path d="M0 0c0-35.53-28.803-64.333-64.333-64.333S-128.666-35.53-128.666 0s28.803 64.333 64.333 64.333S0 35.53 0 0Z" style="stroke-width:15;stroke-linecap:round;stroke-linejoin:round;stroke-miterlimit:10;stroke-dasharray:none;stroke-opacity:1" transform="translate(320.333 256)" fill="none" stroke="#000000" stroke-width="15" stroke-linecap="round" stroke-linejoin="round" stroke-miterlimit="10" stroke-dasharray="none" stroke-opacity="" data-original="#000000" class=""></path><path d="M0 0c0-20.284-16.444-36.728-36.729-36.728-20.284 0-36.728 16.444-36.728 36.728 0 20.284 16.444 36.728 36.728 36.728C-16.444 36.728 0 20.284 0 0" style="fill-opacity:1;fill-rule:nonzero;stroke:none" transform="translate(292.728 256)" fill="#f3eae6" data-original="#f3eae6"></path><path d="M0 0c0-20.28-16.45-36.73-36.73-36.73-4.97 0-9.71.99-14.031 2.78C-37.44-28.44-28.07-15.31-28.07 0c0 15.31-9.37 28.44-22.691 33.95a36.582 36.582 0 0 0 14.031 2.78C-16.45 36.73 0 20.28 0 0" style="fill-opacity:1;fill-rule:nonzero;stroke:none" transform="translate(292.73 256)" fill="#e0d3ce" data-original="#e0d3ce"></path><path d="M0 0c0-20.284-16.444-36.728-36.729-36.728-20.284 0-36.728 16.444-36.728 36.728 0 20.284 16.444 36.728 36.728 36.728C-16.444 36.728 0 20.284 0 0Z" style="stroke-width:15;stroke-linecap:round;stroke-linejoin:round;stroke-miterlimit:10;stroke-dasharray:none;stroke-opacity:1" transform="translate(292.728 256)" fill="none" stroke="#000000" stroke-width="15" stroke-linecap="round" stroke-linejoin="round" stroke-miterlimit="10" stroke-dasharray="none" stroke-opacity="" data-original="#000000" class=""></path><path d="M0 0v.104" style="stroke-width:15;stroke-linecap:round;stroke-linejoin:round;stroke-miterlimit:10;stroke-dasharray:none;stroke-opacity:1" transform="translate(34.334 255.304)" fill="none" stroke="#000000" stroke-width="15" stroke-linecap="round" stroke-linejoin="round" stroke-miterlimit="10" stroke-dasharray="none" stroke-opacity="" data-original="#000000" class=""></path><path d="M0 0v.104" style="stroke-width:15;stroke-linecap:round;stroke-linejoin:round;stroke-miterlimit:10;stroke-dasharray:none;stroke-opacity:1" transform="translate(477.666 256.593)" fill="none" stroke="#000000" stroke-width="15" stroke-linecap="round" stroke-linejoin="round" stroke-miterlimit="10" stroke-dasharray="none" stroke-opacity="" data-original="#000000" class=""></path><path d="m0 0-.052.089" style="stroke-width:15;stroke-linecap:round;stroke-linejoin:round;stroke-miterlimit:10;stroke-dasharray:none;stroke-opacity:1" transform="translate(64.38 144.565)" fill="none" stroke="#000000" stroke-width="15" stroke-linecap="round" stroke-linejoin="round" stroke-miterlimit="10" stroke-dasharray="none" stroke-opacity="" data-original="#000000" class=""></path><path d="m0 0-.052.089" style="stroke-width:15;stroke-linecap:round;stroke-linejoin:round;stroke-miterlimit:10;stroke-dasharray:none;stroke-opacity:1" transform="translate(447.672 367.346)" fill="none" stroke="#000000" stroke-width="15" stroke-linecap="round" stroke-linejoin="round" stroke-miterlimit="10" stroke-dasharray="none" stroke-opacity="" data-original="#000000" class=""></path><path d="m0 0-.089.052" style="stroke-width:15;stroke-linecap:round;stroke-linejoin:round;stroke-miterlimit:10;stroke-dasharray:none;stroke-opacity:1" transform="translate(145.77 63.684)" fill="none" stroke="#000000" stroke-width="15" stroke-linecap="round" stroke-linejoin="round" stroke-miterlimit="10" stroke-dasharray="none" stroke-opacity="" data-original="#000000" class=""></path><path d="m0 0-.089.052" style="stroke-width:15;stroke-linecap:round;stroke-linejoin:round;stroke-miterlimit:10;stroke-dasharray:none;stroke-opacity:1" transform="translate(366.32 448.265)" fill="none" stroke="#000000" stroke-width="15" stroke-linecap="round" stroke-linejoin="round" stroke-miterlimit="10" stroke-dasharray="none" stroke-opacity="" data-original="#000000" class=""></path><path d="M0 0h-.104" style="stroke-width:15;stroke-linecap:round;stroke-linejoin:round;stroke-miterlimit:10;stroke-dasharray:none;stroke-opacity:1" transform="translate(256.696 34.334)" fill="none" stroke="#000000" stroke-width="15" stroke-linecap="round" stroke-linejoin="round" stroke-miterlimit="10" stroke-dasharray="none" stroke-opacity="" data-original="#000000" class=""></path><path d="M0 0h-.104" style="stroke-width:15;stroke-linecap:round;stroke-linejoin:round;stroke-miterlimit:10;stroke-dasharray:none;stroke-opacity:1" transform="translate(255.407 477.666)" fill="none" stroke="#000000" stroke-width="15" stroke-linecap="round" stroke-linejoin="round" stroke-miterlimit="10" stroke-dasharray="none" stroke-opacity="" data-original="#000000" class=""></path><path d="m0 0-.09-.052" style="stroke-width:15;stroke-linecap:round;stroke-linejoin:round;stroke-miterlimit:10;stroke-dasharray:none;stroke-opacity:1" transform="translate(367.435 64.38)" fill="none" stroke="#000000" stroke-width="15" stroke-linecap="round" stroke-linejoin="round" stroke-miterlimit="10" stroke-dasharray="none" stroke-opacity="" data-original="#000000" class=""></path><path d="m0 0-.09-.052" style="stroke-width:15;stroke-linecap:round;stroke-linejoin:round;stroke-miterlimit:10;stroke-dasharray:none;stroke-opacity:1" transform="translate(144.654 447.672)" fill="none" stroke="#000000" stroke-width="15" stroke-linecap="round" stroke-linejoin="round" stroke-miterlimit="10" stroke-dasharray="none" stroke-opacity="" data-original="#000000" class=""></path><path d="m0 0-.052-.09" style="stroke-width:15;stroke-linecap:round;stroke-linejoin:round;stroke-miterlimit:10;stroke-dasharray:none;stroke-opacity:1" transform="translate(448.316 145.77)" fill="none" stroke="#000000" stroke-width="15" stroke-linecap="round" stroke-linejoin="round" stroke-miterlimit="10" stroke-dasharray="none" stroke-opacity="" data-original="#000000" class=""></path><path d="m0 0-.052-.09" style="stroke-width:15;stroke-linecap:round;stroke-linejoin:round;stroke-miterlimit:10;stroke-dasharray:none;stroke-opacity:1" transform="translate(63.735 366.32)" fill="none" stroke="#000000" stroke-width="15" stroke-linecap="round" stroke-linejoin="round" stroke-miterlimit="10" stroke-dasharray="none" stroke-opacity="" data-original="#000000" class=""></path></g></g></svg>