<svg xmlns="http://www.w3.org/2000/svg" version="1.1" xmlns:xlink="http://www.w3.org/1999/xlink" width="512" height="512" x="0" y="0" viewBox="0 0 682.667 682.667" style="enable-background:new 0 0 512 512" xml:space="preserve" class=""><g><defs><clipPath id="a" clipPathUnits="userSpaceOnUse"><path d="M0 512h512V0H0Z" fill="#000000" opacity="1" data-original="#000000"></path></clipPath></defs><g clip-path="url(#a)" transform="matrix(1.33333 0 0 -1.33333 0 682.667)"><path d="M0 0v-360.218l-16.75 15.26a9.974 9.974 0 0 0-3.25 7.37V0Z" style="fill-opacity:1;fill-rule:nonzero;stroke:none" transform="translate(323.03 426.25)" fill="#bb7c63" data-original="#bb7c63"></path><path d="M0 0v-375.027a9.957 9.957 0 0 0-3.26-7.361l-37.059-33.759a9.951 9.951 0 0 0-13.42 0L-90.8-382.388a9.964 9.964 0 0 0-3.26 7.361V0Z" style="fill-opacity:1;fill-rule:nonzero;stroke:none" transform="translate(303.03 426.25)" fill="#bb7c63" data-original="#bb7c63"></path><path d="M0 0v-375.027a9.957 9.957 0 0 0-3.26-7.361l-37.059-33.759a9.951 9.951 0 0 0-13.42 0l-15.721 14.32 34.511 31.439a9.964 9.964 0 0 1 3.26 7.361V0z" style="fill-opacity:1;fill-rule:nonzero;stroke:none" transform="translate(303.03 426.25)" fill="#aa6a50" data-original="#aa6a50" class=""></path><path d="M0 0v-34.8h17.537a69.372 69.372 0 0 1 29.493-6.559A69.368 69.368 0 0 1 76.522-34.8H94.06V0Z" style="fill-opacity:1;fill-rule:nonzero;stroke:none" transform="translate(208.97 426.25)" fill="#aa6a50" data-original="#aa6a50" class=""></path><path d="M0 0v-322.768l-16.75 15.25a9.966 9.966 0 0 0-3.25 7.36V0Z" style="fill-opacity:1;fill-rule:nonzero;stroke:none" transform="translate(417.08 426.25)" fill="#aa6a50" data-original="#aa6a50" class=""></path><path d="M0 0v-337.588c0-2.809-1.18-5.48-3.26-7.37l-37.06-33.76c-3.8-3.46-9.61-3.46-13.42 0l-37.06 33.76a9.974 9.974 0 0 0-3.25 7.37V0Z" style="fill-opacity:1;fill-rule:nonzero;stroke:none" transform="translate(397.08 426.25)" fill="#aa6a50" data-original="#aa6a50" class=""></path><path d="M0 0v-360.218l-16.75 15.26a9.974 9.974 0 0 0-3.25 7.37V0Z" style="fill-opacity:1;fill-rule:nonzero;stroke:none" transform="translate(323.03 426.25)" fill="#935b44" data-original="#935b44" class=""></path><path d="M0 0v-337.588c0-2.809-1.18-5.48-3.26-7.37l-37.06-33.76c-3.8-3.46-9.61-3.46-13.42 0l-15.72 14.321 34.51 31.439a9.946 9.946 0 0 1 3.26 7.37V0Z" style="fill-opacity:1;fill-rule:nonzero;stroke:none" transform="translate(397.08 426.25)" fill="#935b44" data-original="#935b44" class=""></path><path d="M397.079 391.45h-94.05v34.8h94.05z" style="fill-opacity:1;fill-rule:nonzero;stroke:none" fill="#935b44" data-original="#935b44" class=""></path><path d="M0 0v-300.158a9.97 9.97 0 0 0-3.25-7.36l-37.07-33.76a9.96 9.96 0 0 0-13.41 0l-37.07 33.76a9.966 9.966 0 0 0-3.25 7.36V0Z" style="fill-opacity:1;fill-rule:nonzero;stroke:none" transform="translate(491.129 426.25)" fill="#935b44" data-original="#935b44" class=""></path><path d="M0 0v-322.768l-16.75 15.25a9.966 9.966 0 0 0-3.25 7.36V0Z" style="fill-opacity:1;fill-rule:nonzero;stroke:none" transform="translate(417.08 426.25)" fill="#7c4b37" data-original="#7c4b37" class=""></path><path d="M0 0v-300.158a9.97 9.97 0 0 0-3.25-7.36l-37.07-33.76a9.96 9.96 0 0 0-13.41 0l-15.73 14.32 34.52 31.439a9.97 9.97 0 0 1 3.25 7.361V0Z" style="fill-opacity:1;fill-rule:nonzero;stroke:none" transform="translate(491.129 426.25)" fill="#7c4b37" data-original="#7c4b37" class=""></path><path d="M491.129 391.45h-94.05v34.8h94.05z" style="fill-opacity:1;fill-rule:nonzero;stroke:none" fill="#7c4b37" data-original="#7c4b37" class=""></path><path d="M0 0v-337.588c0-2.809-1.18-5.48-3.25-7.37l-37.06-33.76c-3.81-3.46-9.62-3.46-13.419 0l-37.06 33.76a9.947 9.947 0 0 0-3.261 7.37V0Z" style="fill-opacity:1;fill-rule:nonzero;stroke:none" transform="translate(208.97 426.25)" fill="#aa6a50" data-original="#aa6a50" class=""></path><path d="M0 0v-337.588c0-2.809-1.18-5.48-3.25-7.37l-37.06-33.76c-3.81-3.46-9.62-3.46-13.419 0l-15.72 14.321 34.51 31.439a9.977 9.977 0 0 1 3.25 7.37V0Z" style="fill-opacity:1;fill-rule:nonzero;stroke:none" transform="translate(208.97 426.25)" fill="#935b44" data-original="#935b44" class=""></path><path d="M114.92 426.25h94.05v-34.8h-94.05z" style="fill-opacity:1;fill-rule:nonzero;stroke:none" fill="#935b44" data-original="#935b44" class=""></path><path d="M0 0v-300.158c0-2.8-1.18-5.47-3.25-7.36l-37.069-33.76a9.96 9.96 0 0 0-13.41 0l-37.07 33.76a9.966 9.966 0 0 0-3.25 7.36V0Z" style="fill-opacity:1;fill-rule:nonzero;stroke:none" transform="translate(114.92 426.25)" fill="#935b44" data-original="#935b44" class=""></path><path d="M0 0v-300.158c0-2.8-1.18-5.47-3.25-7.36l-37.069-33.76a9.96 9.96 0 0 0-13.41 0l-15.73 14.32 34.52 31.439a9.97 9.97 0 0 1 3.25 7.361V0Z" style="fill-opacity:1;fill-rule:nonzero;stroke:none" transform="translate(114.92 426.25)" fill="#7c4b37" data-original="#7c4b37" class=""></path><path d="M114.92 391.45H20.871v34.8h94.049z" style="fill-opacity:1;fill-rule:nonzero;stroke:none" fill="#7c4b37" data-original="#7c4b37" class=""></path><path d="M0 0v-187.782a9.962 9.962 0 0 1 3.254-7.364l37.064-33.759a9.96 9.96 0 0 1 13.415 0l37.065 33.759a9.962 9.962 0 0 1 3.254 7.364v375.025H0V33.323" style="stroke-width:15;stroke-linecap:round;stroke-linejoin:round;stroke-miterlimit:10;stroke-dasharray:none;stroke-opacity:1" transform="translate(208.974 239.005)" fill="none" stroke="#000000" stroke-width="15" stroke-linecap="round" stroke-linejoin="round" stroke-miterlimit="10" stroke-dasharray="none" stroke-opacity="" data-original="#000000" class=""></path><path d="M0 0a9.96 9.96 0 0 1 3.254-7.364l37.064-33.76a9.962 9.962 0 0 1 13.415 0l37.065 33.76A9.96 9.96 0 0 1 94.052 0v337.589H0" style="stroke-width:15;stroke-linecap:round;stroke-linejoin:round;stroke-miterlimit:10;stroke-dasharray:none;stroke-opacity:1" transform="translate(303.025 88.66)" fill="none" stroke="#000000" stroke-width="15" stroke-linecap="round" stroke-linejoin="round" stroke-miterlimit="10" stroke-dasharray="none" stroke-opacity="" data-original="#000000" class=""></path><path d="M0 0a9.96 9.96 0 0 1 3.253-7.364l37.065-33.759a9.962 9.962 0 0 1 13.415 0L90.798-7.364A9.962 9.962 0 0 1 94.052 0v171.577" style="stroke-width:15;stroke-linecap:round;stroke-linejoin:round;stroke-miterlimit:10;stroke-dasharray:none;stroke-opacity:1" transform="translate(397.077 126.095)" fill="none" stroke="#000000" stroke-width="15" stroke-linecap="round" stroke-linejoin="round" stroke-miterlimit="10" stroke-dasharray="none" stroke-opacity="" data-original="#000000" class=""></path><path d="M0 0v95.253h-94.052" style="stroke-width:15;stroke-linecap:round;stroke-linejoin:round;stroke-miterlimit:10;stroke-dasharray:none;stroke-opacity:1" transform="translate(491.129 330.995)" fill="none" stroke="#000000" stroke-width="15" stroke-linecap="round" stroke-linejoin="round" stroke-miterlimit="10" stroke-dasharray="none" stroke-opacity="" data-original="#000000" class=""></path><path d="M0 0v-337.589a9.962 9.962 0 0 1 3.254-7.364l37.064-33.76a9.962 9.962 0 0 1 13.415 0l37.066 33.76a9.96 9.96 0 0 1 3.253 7.364M0 0h-94.051v-300.153a9.965 9.965 0 0 1 3.253-7.365l37.066-33.758a9.962 9.962 0 0 1 13.415 0l37.064 33.758A9.965 9.965 0 0 1 0-300.153" style="stroke-width:15;stroke-linecap:round;stroke-linejoin:round;stroke-miterlimit:10;stroke-dasharray:none;stroke-opacity:1" transform="translate(114.922 426.248)" fill="none" stroke="#000000" stroke-width="15" stroke-linecap="round" stroke-linejoin="round" stroke-miterlimit="10" stroke-dasharray="none" stroke-opacity="" data-original="#000000" class=""></path><path d="M0 0h-475.134c-5.501 0-9.961 4.46-9.961 9.961v66.57c0 5.502 4.46 9.961 9.961 9.961H0c5.502 0 9.961-4.459 9.961-9.961V9.961C9.961 4.46 5.502 0 0 0" style="fill-opacity:1;fill-rule:nonzero;stroke:none" transform="translate(493.566 411.45)" fill="#fe6a30" data-original="#fe6a30" class=""></path><path d="M0 0v-66.57c0-5.5-4.46-9.96-9.96-9.96h-36c5.5 0 9.96 4.46 9.96 9.96V0c0 5.5-4.46 9.96-9.96 9.96h36C-4.46 9.96 0 5.5 0 0" style="fill-opacity:1;fill-rule:nonzero;stroke:none" transform="translate(503.528 487.98)" fill="#fe5426" data-original="#fe5426"></path><path d="M0 0h-107.905c-5.501 0-9.961-4.459-9.961-9.961v-66.57c0-5.501 4.46-9.961 9.961-9.961h475.134c5.501 0 9.96 4.46 9.96 9.961v66.57c0 5.502-4.459 9.961-9.96 9.961H33.324" style="stroke-width:15;stroke-linecap:round;stroke-linejoin:round;stroke-miterlimit:10;stroke-dasharray:none;stroke-opacity:1" transform="translate(126.338 497.941)" fill="none" stroke="#000000" stroke-width="15" stroke-linecap="round" stroke-linejoin="round" stroke-miterlimit="10" stroke-dasharray="none" stroke-opacity="" data-original="#000000" class=""></path><path d="M0 0c-.241 4.278-3.777 7.676-8.116 7.676a8.094 8.094 0 0 1-5.143-1.834C-17.659 2.237-23.016 0-28.704 0h-1.914a9.086 9.086 0 0 0-8.073 4.915l-1.474 2.85A47.61 47.61 0 0 1-71.661 32.27a44.83 44.83 0 0 0-4.052 1.168l-32.871-59.672h89.542C-8.513-26.234.023-17.698.023-7.169V0z" style="fill-opacity:1;fill-rule:nonzero;stroke:none" transform="translate(372.62 437.684)" fill="#fea714" data-original="#fea714" class=""></path><path d="M0 0c-.241 4.278-3.777 7.676-8.116 7.676a8.094 8.094 0 0 1-5.143-1.834C-17.659 2.237-23.016 0-28.704 0h-1.914a9.086 9.086 0 0 0-8.073 4.915l-1.474 2.85A47.61 47.61 0 0 1-71.661 32.27a44.83 44.83 0 0 0-4.052 1.168l-32.871-59.672h89.542C-8.513-26.234.023-17.698.023-7.169V0z" style="stroke-width:15;stroke-linecap:round;stroke-linejoin:round;stroke-miterlimit:10;stroke-dasharray:none;stroke-opacity:1" transform="translate(372.62 437.684)" fill="none" stroke="#000000" stroke-width="15" stroke-linecap="round" stroke-linejoin="round" stroke-miterlimit="10" stroke-dasharray="none" stroke-opacity="" data-original="#000000" class=""></path><path d="M0 0c.242 4.278 3.777 7.676 8.116 7.676a8.092 8.092 0 0 0 5.143-1.834C17.66 2.237 23.017 0 28.705 0h1.913a9.089 9.089 0 0 1 8.074 4.915l1.474 2.85A47.61 47.61 0 0 0 71.662 32.27c1.374.319 2.72.724 4.052 1.168l32.87-59.672H19.042C8.513-26.234-.023-17.698-.023-7.169V0z" style="fill-opacity:1;fill-rule:nonzero;stroke:none" transform="translate(139.38 437.684)" fill="#fea714" data-original="#fea714" class=""></path><path d="M0 0c.242 4.278 3.777 7.676 8.116 7.676a8.092 8.092 0 0 0 5.143-1.834C17.66 2.237 23.017 0 28.705 0h1.913a9.089 9.089 0 0 1 8.074 4.915l1.474 2.85A47.61 47.61 0 0 0 71.662 32.27c1.374.319 2.72.724 4.052 1.168l32.87-59.672H19.042C8.513-26.234-.023-17.698-.023-7.169V0z" style="stroke-width:15;stroke-linecap:round;stroke-linejoin:round;stroke-miterlimit:10;stroke-dasharray:none;stroke-opacity:1" transform="translate(139.38 437.684)" fill="none" stroke="#000000" stroke-width="15" stroke-linecap="round" stroke-linejoin="round" stroke-miterlimit="10" stroke-dasharray="none" stroke-opacity="" data-original="#000000" class=""></path><path d="M0 0c0-27.506-22.298-49.804-49.804-49.804-27.507 0-49.804 22.298-49.804 49.804 0 27.507 22.297 49.805 49.804 49.805C-22.298 49.805 0 27.507 0 0" style="fill-opacity:1;fill-rule:nonzero;stroke:none" transform="translate(305.804 454.695)" fill="#fedba6" data-original="#fedba6"></path><path d="M0 0c0-27.51-22.29-49.81-49.8-49.81-4.28 0-8.44.54-12.4 1.56C-40.69-42.739-24.8-23.229-24.8 0c0 23.22-15.89 42.729-37.4 48.24 3.96 1.02 8.12 1.56 12.4 1.56C-22.29 49.8 0 27.5 0 0" style="fill-opacity:1;fill-rule:nonzero;stroke:none" transform="translate(305.8 454.7)" fill="#fdc266" data-original="#fdc266"></path><path d="M0 0c0-27.506-22.298-49.804-49.804-49.804-27.507 0-49.804 22.298-49.804 49.804 0 27.507 22.297 49.805 49.804 49.805C-22.298 49.805 0 27.507 0 0Z" style="stroke-width:15;stroke-linecap:round;stroke-linejoin:round;stroke-miterlimit:10;stroke-dasharray:none;stroke-opacity:1" transform="translate(305.804 454.695)" fill="none" stroke="#000000" stroke-width="15" stroke-linecap="round" stroke-linejoin="round" stroke-miterlimit="10" stroke-dasharray="none" stroke-opacity="" data-original="#000000" class=""></path><path d="M0 0h.103" style="stroke-width:15;stroke-linecap:round;stroke-linejoin:round;stroke-miterlimit:10;stroke-dasharray:none;stroke-opacity:1" transform="translate(402.826 454.695)" fill="none" stroke="#000000" stroke-width="15" stroke-linecap="round" stroke-linejoin="round" stroke-miterlimit="10" stroke-dasharray="none" stroke-opacity="" data-original="#000000" class=""></path><path d="M0 0h.103" style="stroke-width:15;stroke-linecap:round;stroke-linejoin:round;stroke-miterlimit:10;stroke-dasharray:none;stroke-opacity:1" transform="translate(433.057 454.695)" fill="none" stroke="#000000" stroke-width="15" stroke-linecap="round" stroke-linejoin="round" stroke-miterlimit="10" stroke-dasharray="none" stroke-opacity="" data-original="#000000" class=""></path><path d="M0 0h.103" style="stroke-width:15;stroke-linecap:round;stroke-linejoin:round;stroke-miterlimit:10;stroke-dasharray:none;stroke-opacity:1" transform="translate(463.287 454.695)" fill="none" stroke="#000000" stroke-width="15" stroke-linecap="round" stroke-linejoin="round" stroke-miterlimit="10" stroke-dasharray="none" stroke-opacity="" data-original="#000000" class=""></path><path d="M0 0h.103" style="stroke-width:15;stroke-linecap:round;stroke-linejoin:round;stroke-miterlimit:10;stroke-dasharray:none;stroke-opacity:1" transform="translate(48.61 454.695)" fill="none" stroke="#000000" stroke-width="15" stroke-linecap="round" stroke-linejoin="round" stroke-miterlimit="10" stroke-dasharray="none" stroke-opacity="" data-original="#000000" class=""></path><path d="M0 0h.104" style="stroke-width:15;stroke-linecap:round;stroke-linejoin:round;stroke-miterlimit:10;stroke-dasharray:none;stroke-opacity:1" transform="translate(78.84 454.695)" fill="none" stroke="#000000" stroke-width="15" stroke-linecap="round" stroke-linejoin="round" stroke-miterlimit="10" stroke-dasharray="none" stroke-opacity="" data-original="#000000" class=""></path><path d="M0 0h.104" style="stroke-width:15;stroke-linecap:round;stroke-linejoin:round;stroke-miterlimit:10;stroke-dasharray:none;stroke-opacity:1" transform="translate(109.07 454.695)" fill="none" stroke="#000000" stroke-width="15" stroke-linecap="round" stroke-linejoin="round" stroke-miterlimit="10" stroke-dasharray="none" stroke-opacity="" data-original="#000000" class=""></path><path d="m0 0-.013.295" style="stroke-width:15;stroke-linecap:round;stroke-linejoin:round;stroke-miterlimit:10;stroke-dasharray:none;stroke-opacity:1" transform="translate(256.049 470.503)" fill="none" stroke="#000000" stroke-width="15" stroke-linecap="round" stroke-linejoin="round" stroke-miterlimit="10" stroke-dasharray="none" stroke-opacity="" data-original="#000000" class=""></path><path d="m0 0-.014.296" style="stroke-width:15;stroke-linecap:round;stroke-linejoin:round;stroke-miterlimit:10;stroke-dasharray:none;stroke-opacity:1" transform="translate(255.964 438.593)" fill="none" stroke="#000000" stroke-width="15" stroke-linecap="round" stroke-linejoin="round" stroke-miterlimit="10" stroke-dasharray="none" stroke-opacity="" data-original="#000000" class=""></path><path d="m0 0 .277.014" style="stroke-width:15;stroke-linecap:round;stroke-linejoin:round;stroke-miterlimit:10;stroke-dasharray:none;stroke-opacity:1" transform="translate(271.136 454.644)" fill="none" stroke="#000000" stroke-width="15" stroke-linecap="round" stroke-linejoin="round" stroke-miterlimit="10" stroke-dasharray="none" stroke-opacity="" data-original="#000000" class=""></path><path d="m0 0 .276.014" style="stroke-width:15;stroke-linecap:round;stroke-linejoin:round;stroke-miterlimit:10;stroke-dasharray:none;stroke-opacity:1" transform="translate(240.587 454.733)" fill="none" stroke="#000000" stroke-width="15" stroke-linecap="round" stroke-linejoin="round" stroke-miterlimit="10" stroke-dasharray="none" stroke-opacity="" data-original="#000000" class=""></path><path d="M0 0h.104" style="stroke-width:15;stroke-linecap:round;stroke-linejoin:round;stroke-miterlimit:10;stroke-dasharray:none;stroke-opacity:1" transform="translate(255.997 185.076)" fill="none" stroke="#000000" stroke-width="15" stroke-linecap="round" stroke-linejoin="round" stroke-miterlimit="10" stroke-dasharray="none" stroke-opacity="" data-original="#000000" class=""></path><path d="M0 0h.104" style="stroke-width:15;stroke-linecap:round;stroke-linejoin:round;stroke-miterlimit:10;stroke-dasharray:none;stroke-opacity:1" transform="translate(255.997 217.196)" fill="none" stroke="#000000" stroke-width="15" stroke-linecap="round" stroke-linejoin="round" stroke-miterlimit="10" stroke-dasharray="none" stroke-opacity="" data-original="#000000" class=""></path><path d="M0 0h.104" style="stroke-width:15;stroke-linecap:round;stroke-linejoin:round;stroke-miterlimit:10;stroke-dasharray:none;stroke-opacity:1" transform="translate(255.997 249.315)" fill="none" stroke="#000000" stroke-width="15" stroke-linecap="round" stroke-linejoin="round" stroke-miterlimit="10" stroke-dasharray="none" stroke-opacity="" data-original="#000000" class=""></path><path d="M0 0h.104" style="stroke-width:15;stroke-linecap:round;stroke-linejoin:round;stroke-miterlimit:10;stroke-dasharray:none;stroke-opacity:1" transform="translate(351.148 115.763)" fill="none" stroke="#000000" stroke-width="15" stroke-linecap="round" stroke-linejoin="round" stroke-miterlimit="10" stroke-dasharray="none" stroke-opacity="" data-original="#000000" class=""></path><path d="M0 0h.104" style="stroke-width:15;stroke-linecap:round;stroke-linejoin:round;stroke-miterlimit:10;stroke-dasharray:none;stroke-opacity:1" transform="translate(351.148 147.883)" fill="none" stroke="#000000" stroke-width="15" stroke-linecap="round" stroke-linejoin="round" stroke-miterlimit="10" stroke-dasharray="none" stroke-opacity="" data-original="#000000" class=""></path><path d="m0 0 .104-.001" style="stroke-width:15;stroke-linecap:round;stroke-linejoin:round;stroke-miterlimit:10;stroke-dasharray:none;stroke-opacity:1" transform="translate(351.148 180.003)" fill="none" stroke="#000000" stroke-width="15" stroke-linecap="round" stroke-linejoin="round" stroke-miterlimit="10" stroke-dasharray="none" stroke-opacity="" data-original="#000000" class=""></path><path d="m0 0 .104-.001" style="stroke-width:15;stroke-linecap:round;stroke-linejoin:round;stroke-miterlimit:10;stroke-dasharray:none;stroke-opacity:1" transform="translate(445.151 161.524)" fill="none" stroke="#000000" stroke-width="15" stroke-linecap="round" stroke-linejoin="round" stroke-miterlimit="10" stroke-dasharray="none" stroke-opacity="" data-original="#000000" class=""></path><path d="M0 0h.104" style="stroke-width:15;stroke-linecap:round;stroke-linejoin:round;stroke-miterlimit:10;stroke-dasharray:none;stroke-opacity:1" transform="translate(445.151 193.644)" fill="none" stroke="#000000" stroke-width="15" stroke-linecap="round" stroke-linejoin="round" stroke-miterlimit="10" stroke-dasharray="none" stroke-opacity="" data-original="#000000" class=""></path><path d="m0 0 .104-.001" style="stroke-width:15;stroke-linecap:round;stroke-linejoin:round;stroke-miterlimit:10;stroke-dasharray:none;stroke-opacity:1" transform="translate(445.151 225.764)" fill="none" stroke="#000000" stroke-width="15" stroke-linecap="round" stroke-linejoin="round" stroke-miterlimit="10" stroke-dasharray="none" stroke-opacity="" data-original="#000000" class=""></path><path d="M0 0h-.104" style="stroke-width:15;stroke-linecap:round;stroke-linejoin:round;stroke-miterlimit:10;stroke-dasharray:none;stroke-opacity:1" transform="translate(160.85 115.763)" fill="none" stroke="#000000" stroke-width="15" stroke-linecap="round" stroke-linejoin="round" stroke-miterlimit="10" stroke-dasharray="none" stroke-opacity="" data-original="#000000" class=""></path><path d="M0 0h-.104" style="stroke-width:15;stroke-linecap:round;stroke-linejoin:round;stroke-miterlimit:10;stroke-dasharray:none;stroke-opacity:1" transform="translate(160.85 147.883)" fill="none" stroke="#000000" stroke-width="15" stroke-linecap="round" stroke-linejoin="round" stroke-miterlimit="10" stroke-dasharray="none" stroke-opacity="" data-original="#000000" class=""></path><path d="m0 0-.104-.001" style="stroke-width:15;stroke-linecap:round;stroke-linejoin:round;stroke-miterlimit:10;stroke-dasharray:none;stroke-opacity:1" transform="translate(160.85 180.003)" fill="none" stroke="#000000" stroke-width="15" stroke-linecap="round" stroke-linejoin="round" stroke-miterlimit="10" stroke-dasharray="none" stroke-opacity="" data-original="#000000" class=""></path><path d="m0 0-.104-.001" style="stroke-width:15;stroke-linecap:round;stroke-linejoin:round;stroke-miterlimit:10;stroke-dasharray:none;stroke-opacity:1" transform="translate(66.849 161.524)" fill="none" stroke="#000000" stroke-width="15" stroke-linecap="round" stroke-linejoin="round" stroke-miterlimit="10" stroke-dasharray="none" stroke-opacity="" data-original="#000000" class=""></path><path d="M0 0h-.104" style="stroke-width:15;stroke-linecap:round;stroke-linejoin:round;stroke-miterlimit:10;stroke-dasharray:none;stroke-opacity:1" transform="translate(66.849 193.644)" fill="none" stroke="#000000" stroke-width="15" stroke-linecap="round" stroke-linejoin="round" stroke-miterlimit="10" stroke-dasharray="none" stroke-opacity="" data-original="#000000" class=""></path><path d="m0 0-.104-.001" style="stroke-width:15;stroke-linecap:round;stroke-linejoin:round;stroke-miterlimit:10;stroke-dasharray:none;stroke-opacity:1" transform="translate(66.849 225.764)" fill="none" stroke="#000000" stroke-width="15" stroke-linecap="round" stroke-linejoin="round" stroke-miterlimit="10" stroke-dasharray="none" stroke-opacity="" data-original="#000000" class=""></path><path d="M0 0c0-18.275-8.313-33.089-18.566-33.089-10.254 0-18.567 14.814-18.567 33.089 0 18.274 8.313 33.089 18.567 33.089C-8.313 33.089 0 18.274 0 0" style="fill-opacity:1;fill-rule:nonzero;stroke:none" transform="translate(274.566 111.508)" fill="#fe6a30" data-original="#fe6a30" class=""></path><path d="M0 0c0-18.275-8.313-33.089-18.566-33.089-10.254 0-18.567 14.814-18.567 33.089 0 18.274 8.313 33.089 18.567 33.089C-8.313 33.089 0 18.274 0 0Z" style="stroke-width:15;stroke-linecap:round;stroke-linejoin:round;stroke-miterlimit:10;stroke-dasharray:none;stroke-opacity:1" transform="translate(274.566 111.508)" fill="none" stroke="#000000" stroke-width="15" stroke-linecap="round" stroke-linejoin="round" stroke-miterlimit="10" stroke-dasharray="none" stroke-opacity="" data-original="#000000" class=""></path></g></g></svg>