<svg xmlns="http://www.w3.org/2000/svg" version="1.1" xmlns:xlink="http://www.w3.org/1999/xlink" width="512" height="512" x="0" y="0" viewBox="0 0 682.667 682.667" style="enable-background:new 0 0 512 512" xml:space="preserve" class=""><g><defs><clipPath id="a" clipPathUnits="userSpaceOnUse"><path d="M0 512h512V0H0Z" fill="#000000" opacity="1" data-original="#000000"></path></clipPath></defs><g clip-path="url(#a)" transform="matrix(1.33333 0 0 -1.33333 0 682.667)"><path d="m0 0-50.498 50.498 324.532 306.939a185.931 185.931 0 0 0 65.997 40.288c4.469 1.573 8.769-2.727 7.196-7.196a185.922 185.922 0 0 0-40.288-65.997z" style="fill-opacity:1;fill-rule:nonzero;stroke:none" transform="translate(156.942 106.443)" fill="#cdc0bb" data-original="#cdc0bb"></path><path d="m0 0-18.831 18.83 306.94 324.532a186.241 186.241 0 0 1 23.618 30.887 186.726 186.726 0 0 1 8.266 15.068 186.268 186.268 0 0 0 20.046 8.408c2.234.777 4.426.099 5.862-1.337 1.435-1.435 2.114-3.627 1.329-5.855a185.608 185.608 0 0 0-16.673-35.115 185.566 185.566 0 0 0-23.618-30.886Z" style="fill-opacity:1;fill-rule:nonzero;stroke:none" transform="translate(156.938 106.445)" fill="#b9acac" data-original="#b9acac"></path><path d="m0 0 146.449 154.843a185.917 185.917 0 0 1 40.288 65.997c1.574 4.469-2.727 8.769-7.195 7.196a185.938 185.938 0 0 1-65.998-40.287l-50.427-47.694" style="stroke-width:15;stroke-linecap:round;stroke-linejoin:round;stroke-miterlimit:10;stroke-dasharray:none;stroke-opacity:1" transform="translate(317.432 276.132)" fill="none" stroke="#000000" stroke-width="15" stroke-linecap="round" stroke-linejoin="round" stroke-miterlimit="10" stroke-dasharray="none" stroke-opacity="" data-original="#000000"></path><path d="m0 0-249.92-236.372 50.498-50.498 137.583 145.469" style="stroke-width:15;stroke-linecap:round;stroke-linejoin:round;stroke-miterlimit:10;stroke-dasharray:none;stroke-opacity:1" transform="translate(356.364 393.313)" fill="none" stroke="#000000" stroke-width="15" stroke-linecap="round" stroke-linejoin="round" stroke-miterlimit="10" stroke-dasharray="none" stroke-opacity="" data-original="#000000"></path><path d="M0 0c-19.516-7.227-42.306-3.005-57.982 12.671-15.684 15.684-19.905 38.474-12.679 57.99a11.784 11.784 0 0 0 2.702 4.242c4.405 4.406 11.95 4.808 16.786-.028 7.785-7.785 20.393-7.778 28.171 0l53.139 53.139 27.217-27.217L4.215 47.659c-7.778-7.779-7.778-20.393-.001-28.171C10.31 13.393 8.083 2.991 0 0" style="fill-opacity:1;fill-rule:nonzero;stroke:none" transform="translate(81.582 10.922)" fill="#aa6a50" data-original="#aa6a50"></path><path d="M0 0c-19.516-7.227-42.306-3.005-57.982 12.671a55.02 55.02 0 0 0-7.064 8.662c14.75-9.729 33.156-11.589 49.32-5.607 8.082 2.991 10.31 13.392 4.215 19.487-7.779 7.779-7.779 20.393 0 28.172l53.138 53.138 15.727-15.726L4.215 47.659c-7.778-7.779-7.778-20.393-.001-28.171C10.31 13.393 8.083 2.991 0 0" style="fill-opacity:1;fill-rule:nonzero;stroke:none" transform="translate(81.582 10.922)" fill="#935b44" data-original="#935b44"></path><path d="m0 0-19.523-19.523L-46.74 7.693l19.523 19.523Z" style="fill-opacity:1;fill-rule:nonzero;stroke:none" transform="translate(138.935 111.72)" fill="#935b44" data-original="#935b44"></path><path d="M0 0c13.937-7.457 30.41-8.476 45.042-3.059 8.084 2.993 10.309 13.396 4.213 19.492v0c-7.78 7.779-7.78 20.392 0 28.171l53.137 53.138-27.213 27.212-53.137-53.137c-7.779-7.779-20.392-7.779-28.172 0v0c-6.095 6.096-16.498 3.871-19.491-4.213-5.247-14.172-4.45-30.069 2.38-43.718" style="stroke-width:15;stroke-linecap:round;stroke-linejoin:round;stroke-miterlimit:10;stroke-dasharray:none;stroke-opacity:1" transform="translate(36.543 13.98)" fill="none" stroke="#000000" stroke-width="15" stroke-linecap="round" stroke-linejoin="round" stroke-miterlimit="10" stroke-dasharray="none" stroke-opacity="" data-original="#000000"></path><path d="m0 0-70.198 70.198a5.643 5.643 0 0 0 0 7.979l15.519 15.519a5.64 5.64 0 0 0 7.979 0l70.198-70.197a5.64 5.64 0 0 0 0-7.979L7.979 0A5.64 5.64 0 0 0 0 0" style="fill-opacity:1;fill-rule:nonzero;stroke:none" transform="translate(155.043 84.844)" fill="#fedba6" data-original="#fedba6"></path><path d="m0 0-15.521-15.521a5.642 5.642 0 0 0-7.983.007l-18.83 18.83a5.64 5.64 0 0 1 7.976 0l15.521 15.521a5.646 5.646 0 0 1 0 7.976l18.83-18.83A5.648 5.648 0 0 0 0 0" style="fill-opacity:1;fill-rule:nonzero;stroke:none" transform="translate(178.547 100.364)" fill="#fdc266" data-original="#fdc266"></path><path d="m0 0-70.198 70.198a5.643 5.643 0 0 0 0 7.979l15.519 15.519a5.64 5.64 0 0 0 7.979 0l70.198-70.197a5.64 5.64 0 0 0 0-7.979L7.979 0A5.64 5.64 0 0 0 0 0Z" style="stroke-width:15;stroke-linecap:round;stroke-linejoin:round;stroke-miterlimit:10;stroke-dasharray:none;stroke-opacity:1" transform="translate(155.043 84.844)" fill="none" stroke="#000000" stroke-width="15" stroke-linecap="round" stroke-linejoin="round" stroke-miterlimit="10" stroke-dasharray="none" stroke-opacity="" data-original="#000000"></path><path d="m0 0 65.302 65.302" style="stroke-width:15;stroke-linecap:round;stroke-linejoin:round;stroke-miterlimit:10;stroke-dasharray:none;stroke-opacity:1" transform="translate(143.442 143.44)" fill="none" stroke="#000000" stroke-width="15" stroke-linecap="round" stroke-linejoin="round" stroke-miterlimit="10" stroke-dasharray="none" stroke-opacity="" data-original="#000000"></path><path d="M0 0c-4.017-10.852-1.669-23.524 7.049-32.243 8.719-8.718 21.391-11.066 32.243-7.049" style="stroke-width:15;stroke-linecap:round;stroke-linejoin:round;stroke-miterlimit:10;stroke-dasharray:none;stroke-opacity:1" transform="translate(39.994 79.285)" fill="none" stroke="#000000" stroke-width="15" stroke-linecap="round" stroke-linejoin="round" stroke-miterlimit="10" stroke-dasharray="none" stroke-opacity="" data-original="#000000"></path></g></g></svg>