<svg xmlns="http://www.w3.org/2000/svg" version="1.1" xmlns:xlink="http://www.w3.org/1999/xlink" width="512" height="512" x="0" y="0" viewBox="0 0 340 340" style="enable-background:new 0 0 512 512" xml:space="preserve"><g><linearGradient id="a" x1="118.381" x2="118.381" y1="318.52" y2="90.264" gradientUnits="userSpaceOnUse"><stop offset="0" stop-color="#ffd2c8"></stop><stop offset="1" stop-color="#ff9b9b"></stop></linearGradient><linearGradient xlink:href="#a" id="d" x1="150.637" x2="150.637" y1="318.52" y2="90.264"></linearGradient><linearGradient xlink:href="#a" id="e" x1="172.858" x2="172.858" y1="318.52" y2="90.264"></linearGradient><linearGradient id="b" x1="194.204" x2="194.204" y1="324.219" y2="137.214" gradientUnits="userSpaceOnUse"><stop offset="0" stop-color="#f58582"></stop><stop offset="1" stop-color="#db5c5c"></stop></linearGradient><linearGradient xlink:href="#b" id="f" x1="149.276" x2="149.276" y1="324.209" y2="137.216"></linearGradient><linearGradient xlink:href="#a" id="g" x1="182.894" x2="182.894" y1="318.52" y2="90.264"></linearGradient><linearGradient xlink:href="#a" id="h" x1="215.151" x2="215.151" y1="318.52" y2="90.264"></linearGradient><linearGradient id="c" x1="286.188" x2="286.188" y1="-28.886" y2="224.787" gradientUnits="userSpaceOnUse"><stop offset="0" stop-color="#fffea7"></stop><stop offset="1" stop-color="#ffb74c"></stop></linearGradient><linearGradient xlink:href="#a" id="i" x1="135.871" x2="135.871" y1="318.52" y2="90.264"></linearGradient><linearGradient xlink:href="#c" id="j" x1="204.533" x2="204.533" y1="-28.886" y2="224.787"></linearGradient><linearGradient xlink:href="#c" id="k" x1="66.391" x2="66.391" y1="-27.021" y2="224.491"></linearGradient><path fill="url(#a)" d="M113.9 117.613h20.61v72.5h-32.258V129.26a11.646 11.646 0 0 1 11.648-11.647z" opacity="1" data-original="url(#a)"></path><path fill="url(#a)" d="M134.509 117.613h32.257v72.502h-32.257z" opacity="1" data-original="url(#a)"></path><path fill="url(#a)" d="m117.506 270.5 4.091 8.676v43.65h96.338v-56.015s13.344-5.532 13.344-34.174v-80.458l-63.719 16.556-53.124 42.747z" opacity="1" data-original="url(#a)"></path><path fill="url(#b)" d="M231.279 160.519a16.128 16.128 0 0 1-16.128 16.128 16.127 16.127 0 0 1-16.126-16.087v10.057a16.128 16.128 0 0 1-16.128 16.128 16.128 16.128 0 0 1-16.128-16.128v-1.243l-9.637 7.755a26.568 26.568 0 0 0 48.013 8.009c17.605 7.414 26.137-3.517 26.137-3.517z" opacity="1" data-original="url(#b)"></path><path fill="url(#b)" d="m114.436 211.482.228 4.376 46.6 29.147a7.718 7.718 0 0 0 7.666.3c4.567-9.774 3.924-24.049 3.924-24.049a34.653 34.653 0 0 0-11.019-17.629c16.93-6.172 21.224-27.161 22.277-39.191l-16.555 4.3z" opacity="1" data-original="url(#b)"></path><path fill="url(#a)" d="M199.022 117.613h-32.256v53l12.154 15.635a16.161 16.161 0 0 0 3.974.493 16.128 16.128 0 0 0 16.128-16.128z" opacity="1" data-original="url(#a)"></path><path fill="url(#a)" d="M199.022 117.613h20.61a11.646 11.646 0 0 1 11.646 11.646v31.259a16.128 16.128 0 0 1-16.128 16.128 16.128 16.128 0 0 1-16.128-16.128v-42.905z" opacity="1" data-original="url(#a)"></path><path fill="url(#c)" d="M271.275 96.334c-8.313 3.821-15.394 10.473-20.854 20.854a97.117 97.117 0 0 1 17.155 55.263 98.115 98.115 0 0 1-1.6 17.665h52.6a3.377 3.377 0 0 0 3.377-3.377v-28.7a3.377 3.377 0 0 0-3.377-3.377h-23.138a126.05 126.05 0 0 0-24.163-58.328z" opacity="1" data-original="url(#c)"></path><path fill="url(#a)" d="M118.246 168.735h41.43a6.45 6.45 0 0 1 6.347 7.648c-1.841 9.645-8.175 24.984-29.85 24.984 0 0 33.827 2.765 33.827 53.1l-48.4 24.716s-19.854-29.693-19.854-53.476c0-13.4.351-29.785.658-41.538a15.844 15.844 0 0 1 15.842-15.434z" opacity="1" data-original="url(#a)"></path><path fill="url(#c)" d="m289.037 28.257-42.92 42.919a126.039 126.039 0 0 0-58.328-24.163V23.872a3.377 3.377 0 0 0-3.377-3.377h-28.824a3.377 3.377 0 0 0-3.377 3.377v23.141a126.039 126.039 0 0 0-58.328 24.163C98.651 79.7 105.8 86.51 114.737 92.03a97.584 97.584 0 0 1 135.684 25.158l20.854-20.854 42.919-42.92a3.376 3.376 0 0 0 0-4.775l-20.382-20.382a3.376 3.376 0 0 0-4.775 0z" opacity="1" data-original="url(#c)"></path><path fill="url(#c)" d="m25.822 53.414 42.99 42.71a126.939 126.939 0 0 0-24.25 58.538H21.421a3.377 3.377 0 0 0-3.377 3.377v28.7a3.377 3.377 0 0 0 3.377 3.377h52.6a97.7 97.7 0 0 1 40.716-98.086L93.883 71.176l-42.92-42.919a3.376 3.376 0 0 0-4.775 0L25.814 48.631a3.375 3.375 0 0 0 .008 4.783z" opacity="1" data-original="url(#c)"></path><g fill="#3c3c4f"><path d="M18.044 193.44h55.98a3.325 3.325 0 0 0 3.27-3.922 94.373 94.373 0 0 1 39.328-94.75 3.324 3.324 0 0 0 .465-5.088L98.822 71.414c6.572-5.056 25.154-17.413 53.814-21.1a3.324 3.324 0 0 0 2.9-3.3V23.819h28.93v23.194a3.324 3.324 0 0 0 2.861 3.292 123.184 123.184 0 0 1 56.792 23.527 3.322 3.322 0 0 0 4.349-.306l42.956-42.956 20.457 20.456-61.043 61.044a100.955 100.955 0 0 0-123.87-30.9 3.324 3.324 0 1 0 2.84 6.011 94.31 94.31 0 0 1 117.875 31.894 3.325 3.325 0 0 0 2.435 1.425c.1.009.2.014.3.014a3.325 3.325 0 0 0 2.35-.974l18.141-18.14c5.282 7.435 18.445 28.17 21.224 53.622a3.326 3.326 0 0 0 3.305 2.964h23.194v28.806h-48.748a102.038 102.038 0 0 0 1.015-14.341 99.994 99.994 0 0 0-9.465-42.71 3.324 3.324 0 1 0-6.021 2.817 93.408 93.408 0 0 1 8.838 39.893 95.014 95.014 0 0 1-1.545 17.067 3.325 3.325 0 0 0 3.27 3.922h55.98a3.324 3.324 0 0 0 3.324-3.324v-35.454a3.324 3.324 0 0 0-3.324-3.324h-23.582c-3.749-26.914-17.631-47.832-22.69-54.713l43.249-43.248a3.326 3.326 0 0 0 0-4.7l-25.159-25.159a3.323 3.323 0 0 0-4.7 0l-43.288 43.289a129.893 129.893 0 0 0-54.673-22.65V20.5a3.324 3.324 0 0 0-3.324-3.324h-35.578a3.324 3.324 0 0 0-3.324 3.324v23.621c-29.711 4.478-48.4 17.423-54.818 22.541L50.926 23.518a3.325 3.325 0 0 0-4.7 0L21.067 48.676a3.326 3.326 0 0 0 .008 4.709l43.363 43.078a130.374 130.374 0 0 0-22.733 54.875H18.044a3.324 3.324 0 0 0-3.324 3.324v35.454a3.324 3.324 0 0 0 3.324 3.324zm3.324-35.454h23.194a3.325 3.325 0 0 0 3.292-2.862 123.635 123.635 0 0 1 23.614-57 3.323 3.323 0 0 0-.313-4.357L28.126 51.019l20.45-20.449 61.043 61.043A100.956 100.956 0 0 0 69.1 172.451a102.038 102.038 0 0 0 1.015 14.341H21.368z" fill="#3c3c4f" opacity="1" data-original="#3c3c4f"></path><path d="M221.259 322.829v-54.135c4.2-2.927 13.344-12.053 13.344-36.057V128.264a13.99 13.99 0 0 0-13.974-13.975h-10.957a13.945 13.945 0 0 0-10.65 4.949 13.941 13.941 0 0 0-10.65-4.949h-10.956a13.943 13.943 0 0 0-10.65 4.949 13.943 13.943 0 0 0-10.65-4.949h-10.957a13.941 13.941 0 0 0-10.65 4.949 13.945 13.945 0 0 0-10.65-4.949H112.9a13.99 13.99 0 0 0-13.974 13.975v61.8c-.258 10.831-.509 24.279-.509 35.635 0 22.527 16.53 49.309 19.853 54.465v42.661h6.648v-43.65c0-.028-.007-.054-.008-.081a3.219 3.219 0 0 0-.057-.569c-.022-.108-.061-.209-.093-.314s-.054-.206-.1-.307a3.257 3.257 0 0 0-.272-.512c-.014-.021-.021-.044-.035-.064v-.006l-.005-.009c-.35-.525-19.283-29.195-19.283-51.614 0-13.49.357-29.987.657-41.451a12.454 12.454 0 0 1 12.522-12.193h45.035c-.442 4.541-2.047 12.925-7.838 18.874-4.591 4.718-11.074 7.11-19.27 7.11a3.324 3.324 0 0 0-.286 6.635c1.257.115 30.789 3.342 30.789 49.785a3.324 3.324 0 1 0 6.648 0 92.3 92.3 0 0 0-1.548-17.4c3.293-23.987 27.761-25.672 28.84-25.734a3.324 3.324 0 0 0-.351-6.639c-.267.014-22.912 1.457-31.9 20.492a45.578 45.578 0 0 0-13.166-18.7 39.755 39.755 0 0 0-5.756-3.963 28.594 28.594 0 0 0 10.8-6.987 33.532 33.532 0 0 0 7.514-12.687 20.228 20.228 0 0 0 9.452 6.385 19.46 19.46 0 0 0 24.686-14.5 19.342 19.342 0 0 0 26.053.405v57.511c0 25.649-11.232 31.074-11.293 31.1-.013 0-.024.013-.037.019s-.02 0-.03.009a63.389 63.389 0 0 1-24.166 4.13 3.324 3.324 0 1 0-.11 6.647q.617.011 1.223.011a73.662 73.662 0 0 0 21.078-3.055v51.322zm-90.074-157.418h-12.939a19.11 19.11 0 0 0-12.67 4.753v-41.9a7.335 7.335 0 0 1 7.326-7.327h10.957a7.335 7.335 0 0 1 7.326 7.327zm32.257 0h-25.609v-37.147a7.335 7.335 0 0 1 7.326-7.327h10.957a7.335 7.335 0 0 1 7.326 7.327zm32.256 5.206a12.817 12.817 0 0 1-16.571 12.242l-.1-.029a13.287 13.287 0 0 1-8.974-10.88c-.012-.08-.044-.15-.061-.227.119-1.628.106-2.715.1-3.019v-40.44a7.335 7.335 0 0 1 7.326-7.327h10.956a7.335 7.335 0 0 1 7.326 7.327zm19.453 2.706a12.819 12.819 0 0 1-12.805-12.8v-32.259a7.335 7.335 0 0 1 7.326-7.327h10.957a7.335 7.335 0 0 1 7.326 7.327v32.255a12.819 12.819 0 0 1-12.804 12.804z" fill="#3c3c4f" opacity="1" data-original="#3c3c4f"></path></g></g></svg>