<svg xmlns="http://www.w3.org/2000/svg" version="1.1" xmlns:xlink="http://www.w3.org/1999/xlink" width="512" height="512" x="0" y="0" viewBox="0 0 340 340" style="enable-background:new 0 0 512 512" xml:space="preserve" class=""><g><linearGradient id="b" x1="113.71" x2="45.832" y1="89.179" y2="39.402" gradientUnits="userSpaceOnUse"><stop offset="0" stop-color="#c2cfff"></stop><stop offset="1" stop-color="#f0f9ff"></stop></linearGradient><linearGradient id="a" x1="24.308" x2="85.456" y1="38.029" y2="101.616" gradientUnits="userSpaceOnUse"><stop offset="0" stop-color="#c1d1ff"></stop><stop offset="1" stop-color="#7a88c2"></stop></linearGradient><linearGradient xlink:href="#a" id="d" x1="31.688" x2="92.836" y1="30.932" y2="94.518"></linearGradient><linearGradient xlink:href="#b" id="e" x1="225.897" x2="285.371" y1="92.968" y2="41.898"></linearGradient><linearGradient xlink:href="#a" id="f" x1="327.724" x2="259.776" y1="11.697" y2="98.159"></linearGradient><linearGradient xlink:href="#a" id="g" x1="319.917" x2="251.969" y1="5.562" y2="92.023"></linearGradient><linearGradient id="c" x1="93.574" x2="431.704" y1="106.319" y2="401.307" gradientUnits="userSpaceOnUse"><stop offset="0" stop-color="#8080ad"></stop><stop offset="1" stop-color="#515180"></stop></linearGradient><linearGradient xlink:href="#c" id="h" x1="246.301" x2="-189.377" y1="94.039" y2="524.859"></linearGradient><linearGradient xlink:href="#c" id="i" x1="100.027" x2="438.157" y1="98.922" y2="393.91"></linearGradient><linearGradient xlink:href="#c" id="j" x1="245.736" x2="-189.942" y1="93.468" y2="524.288"></linearGradient><linearGradient id="k" x1="170" x2="170" y1="165.704" y2="287.812" gradientUnits="userSpaceOnUse"><stop offset="0" stop-color="#e56a60"></stop><stop offset="1" stop-color="#c15152"></stop></linearGradient><linearGradient id="l" x1="170" x2="170" y1="112.923" y2="287.083" gradientUnits="userSpaceOnUse"><stop offset="0" stop-color="#ffd49f"></stop><stop offset="1" stop-color="#ffa664"></stop></linearGradient><linearGradient id="m" x1="170" x2="170" y1="23.796" y2="162.225" gradientUnits="userSpaceOnUse"><stop offset="0" stop-color="#ff617f"></stop><stop offset="1" stop-color="#e82f68"></stop></linearGradient><path fill="url(#b)" d="m94.055 92.672 6.614-6.614C88.8 74.19 85.63 58.544 84.8 51.886a4.7 4.7 0 0 0-3.532-3.974c-28.719-7.2-61.541-29.025-61.541-29.025C46.916 49.537 73 77.393 94.055 92.672z" opacity="1" data-original="url(#b)" class=""></path><path fill="url(#a)" d="M52.729 83.96c6.661.835 22.3 4.008 34.165 15.872l6.888-6.887.273-.273-74.332-73.785S41.54 51.7 48.747 80.421a4.709 4.709 0 0 0 3.982 3.539z" opacity="1" data-original="url(#a)" class=""></path><path fill="url(#a)" d="m86.894 99.832 6.888-6.887.273-.273 6.614-6.614a50.509 50.509 0 0 1-7.469-9.576L69.115 88.27a53.492 53.492 0 0 1 17.779 11.562z" opacity="1" data-original="url(#a)" class=""></path><path fill="url(#b)" d="M258.742 47.911a4.708 4.708 0 0 0-3.539 3.982c-.835 6.661-4.008 22.3-15.872 34.165l6.657 6.657c21.117-15.913 47.125-43.491 74.289-73.828 0 0-32.818 21.813-61.535 29.024z" opacity="1" data-original="url(#b)" class=""></path><path fill="url(#a)" d="m246.218 92.945 6.887 6.887c11.868-11.868 27.515-15.039 34.172-15.873a4.7 4.7 0 0 0 3.974-3.531c7.205-28.719 29.026-61.541 29.026-61.541l-74.289 73.828z" opacity="1" data-original="url(#a)" class=""></path><path fill="url(#a)" d="M246.289 77.284a50.2 50.2 0 0 1-6.958 8.774l6.657 6.657.23.23 6.887 6.887a54.306 54.306 0 0 1 19.74-12.326z" opacity="1" data-original="url(#a)" class=""></path><path fill="url(#c)" d="M321.421 313.074a5.665 5.665 0 0 1-7.51 7.51 70.85 70.85 0 0 1-20.566-14.3L91.221 104.159 105 90.385l202.118 202.122a70.839 70.839 0 0 1 14.303 20.567z" opacity="1" data-original="url(#c)" class=""></path><path fill="url(#c)" d="M26.089 320.584a5.665 5.665 0 0 1-7.51-7.51 70.839 70.839 0 0 1 14.3-20.567L235 90.385l13.775 13.774L46.656 306.282a70.841 70.841 0 0 1-20.567 14.302z" opacity="1" data-original="url(#c)" class=""></path><path fill="url(#c)" d="M110.835 96.418a90.318 90.318 0 0 1-13.766 13.631 8.584 8.584 0 0 1-11.422-.683 8.63 8.63 0 0 1 .5-12.647 109.722 109.722 0 0 0 11.4-11.4 8.629 8.629 0 0 1 12.647-.5l.051.051a8.645 8.645 0 0 1 .59 11.548z" opacity="1" data-original="url(#c)" class=""></path><path fill="url(#c)" d="M242.745 110a90.305 90.305 0 0 1-13.63-13.765 8.583 8.583 0 0 1 .683-11.422 8.629 8.629 0 0 1 12.647.5 109.722 109.722 0 0 0 11.4 11.4 8.63 8.63 0 0 1 .5 12.647l-.051.051a8.647 8.647 0 0 1-11.549.589z" opacity="1" data-original="url(#c)" class=""></path><path fill="url(#k)" d="M110.449 160.239c1.735 34.81 6.937 67.38 16.144 97.363 20.863-18.38 65.951-18.38 86.814 0 9.207-29.983 14.409-62.553 16.144-97.363z" opacity="1" data-original="url(#k)" class=""></path><path fill="url(#l)" d="m251.018 241.264-2.688-6.927a69.178 69.178 0 0 1-4.585-29.437c2-31.181-1.084-104.616-73.745-109.565-72.661 4.949-75.747 78.384-73.744 109.565a69.163 69.163 0 0 1-4.586 29.437l-2.687 6.927a13.21 13.21 0 0 0 1.715 12.7c13.473 17.942 26.784 27.717 36.686 33a8.012 8.012 0 0 0 11.578-8.805 105.025 105.025 0 0 1-.585-40 25.667 25.667 0 0 1 4-9.825 41.473 41.473 0 0 0 2.122-3.492 10.916 10.916 0 0 0-3.195-14.082 97.664 97.664 0 0 1-20.854-20.457 15.364 15.364 0 0 1-2.994-7.662 43.4 43.4 0 0 1 .663-13.525 91.885 91.885 0 0 1 35.024 13.684 15.05 15.05 0 0 1 6.839 12.014l.7 16.619a14.266 14.266 0 0 0 9.318 13.6 14.266 14.266 0 0 0 9.318-13.6l.7-16.619a15.049 15.049 0 0 1 6.84-12.014 91.887 91.887 0 0 1 35.021-13.676 43.366 43.366 0 0 1 .663 13.525 15.372 15.372 0 0 1-2.993 7.662 97.664 97.664 0 0 1-20.849 20.457 10.916 10.916 0 0 0-3.2 14.082c.595 1.1 1.3 2.269 2.122 3.492a25.649 25.649 0 0 1 4 9.825 105.02 105.02 0 0 1-.584 40 8.012 8.012 0 0 0 11.577 8.805c9.9-5.284 23.214-15.06 36.686-33a13.213 13.213 0 0 0 1.717-12.708z" opacity="1" data-original="url(#l)" class=""></path><path fill="url(#m)" d="M169.749 30.164a40.3 40.3 0 0 0-10.885 1.368 6.539 6.539 0 0 0-4.8 6.478c.333 12.132 2 47.36 10.289 96.973a5.873 5.873 0 0 0 4.964 4.94 5.691 5.691 0 0 0 6.287-4.716c8.326-49.734 9.993-85.05 10.327-97.2a6.541 6.541 0 0 0-4.8-6.478 40.3 40.3 0 0 0-10.881-1.367c-.169.006-.33.006-.501.002z" opacity="1" data-original="url(#m)" class=""></path><path fill="#3c3c4f" d="m309.469 290.157-58.34-58.339c-.075-.075-4.638-17.822-4.067-26.705 1.186-18.451.64-52.774-15.693-78.844l12.021-12.021a11.942 11.942 0 0 0 15.9-15.476C273.173 87.719 290.426 87 290.6 86.99a3.322 3.322 0 0 0 3.147-2.628c6.069-28.456 29.066-63.287 29.3-63.636a3.324 3.324 0 0 0-4.609-4.608c-.348.232-35.156 23.223-63.635 29.3a3.329 3.329 0 0 0-2.629 3.142c-.006.18-.729 17.433-11.783 31.32a11.927 11.927 0 0 0-15.435 15.857l-11.207 11.203a74.09 74.09 0 0 0-28.892-12.861c2.845-24.029 3.9-42.039 4.285-52.45a13.935 13.935 0 0 0-11.886-14.3 69.753 69.753 0 0 0-14.511 0 13.934 13.934 0 0 0-11.887 14.301c.387 10.4 1.44 28.418 4.286 52.449a74.1 74.1 0 0 0-28.893 12.861l-11.169-11.17a11.939 11.939 0 0 0-15.473-15.892C88.555 65.992 87.833 48.737 87.827 48.562a3.323 3.323 0 0 0-2.627-3.147c-28.455-6.069-63.287-29.065-63.635-29.3a3.324 3.324 0 0 0-4.608 4.608c.231.349 23.222 35.156 29.3 63.636A3.322 3.322 0 0 0 49.4 86.99c.177.006 17.373.674 31.316 11.782a11.943 11.943 0 0 0 11.05 16.468 11.789 11.789 0 0 0 4.81-1.025l12.055 12.054c-16.332 26.07-16.878 60.393-15.692 78.844a66.228 66.228 0 0 1-3.8 26.44l-58.6 58.6a73.924 73.924 0 0 0-14.973 21.531 9.008 9.008 0 0 0 8.142 12.75 9.04 9.04 0 0 0 3.775-.833 73.894 73.894 0 0 0 21.532-14.974l45.107-45.106c12.125 14.153 23.678 22.1 31.705 26.379a11.336 11.336 0 0 0 16.39-12.447 97.893 97.893 0 0 1-2.066-24.436c17.5-7.789 42.207-7.788 59.714 0a97.846 97.846 0 0 1-2.066 24.436 11.308 11.308 0 0 0 16.383 12.447c8.026-4.285 19.58-12.227 31.705-26.379l45.107 45.106a73.876 73.876 0 0 0 21.531 14.974 9.02 9.02 0 0 0 3.775.832 9.007 9.007 0 0 0 8.143-12.749 73.927 73.927 0 0 0-14.974-21.527zM258.618 51.364c18.745-4.512 39.063-15.122 51.551-22.364-7.248 12.487-17.858 32.8-22.371 51.551-5.8.618-20.158 3.107-32.563 12.953a106.972 106.972 0 0 1-9.57-9.57c9.847-12.411 12.335-26.775 12.953-32.57zm-26.469 35.8a5.26 5.26 0 0 1 3.914-1.539 5.314 5.314 0 0 1 3.864 1.863 113.745 113.745 0 0 0 11.75 11.751 5.332 5.332 0 0 1-6.843 8.177 87.5 87.5 0 0 1-13.128-13.262 5.237 5.237 0 0 1 .443-6.993zm-3.232 14.012a94.321 94.321 0 0 0 9.03 9.117L227.536 120.7a70.509 70.509 0 0 0-8.644-9.5zM163.726 33.9a65.366 65.366 0 0 1 12.548 0 7.291 7.291 0 0 1 6.224 7.481c-.579 15.609-2.672 48.484-10.17 93.276a2.37 2.37 0 0 1-2.619 1.964 2.567 2.567 0 0 1-2.074-2.186c-7.468-44.678-9.554-77.478-10.133-93.053a7.291 7.291 0 0 1 6.224-7.482zM52.2 80.546C47.689 61.8 37.079 41.482 29.831 29c12.488 7.247 32.805 17.857 51.551 22.369.618 5.8 3.107 20.159 12.953 32.564a106.724 106.724 0 0 1-9.583 9.582C72.347 83.67 57.994 81.164 52.2 80.546zm42.786 26.912a5.288 5.288 0 0 1-8.529-4.359 5.312 5.312 0 0 1 1.865-3.863 113.716 113.716 0 0 0 11.748-11.75 5.319 5.319 0 0 1 3.865-1.864h.2a5.258 5.258 0 0 1 3.767 1.594 5.318 5.318 0 0 1 .346 7.117 87.458 87.458 0 0 1-13.261 13.125zm7.022 2.788a94.315 94.315 0 0 0 9.117-9.029l9.982 9.981a70.509 70.509 0 0 0-8.644 9.5zm-57.7 193.685a67.289 67.289 0 0 1-19.6 13.631 2.34 2.34 0 0 1-3.1-3.1 67.273 67.273 0 0 1 13.632-19.6L84.788 245.3a16.56 16.56 0 0 0 3.251 10.662c.616.82 1.231 1.6 1.846 2.388zm96.37-58.341c.289-2.68.642-4.99.973-6.836a22.22 22.22 0 0 1 3.484-8.552 45.038 45.038 0 0 0 2.292-3.772 14.242 14.242 0 0 0-4.193-18.37 94.48 94.48 0 0 1-20.12-19.741 12.04 12.04 0 0 1-2.347-6 43.3 43.3 0 0 1 .08-9.334 89.156 89.156 0 0 1 30.492 12.611 11.742 11.742 0 0 1 5.324 9.363l.7 16.552a17.577 17.577 0 0 0 11.617 16.688 3.312 3.312 0 0 0 2.051 0 17.577 17.577 0 0 0 11.616-16.688l.7-16.552a11.74 11.74 0 0 1 5.324-9.363 89.153 89.153 0 0 1 30.493-12.611 43.446 43.446 0 0 1 .079 9.334 12.057 12.057 0 0 1-2.346 6 94.515 94.515 0 0 1-20.121 19.741 14.242 14.242 0 0 0-4.193 18.37 45.21 45.21 0 0 0 2.292 3.772 22.2 22.2 0 0 1 3.484 8.551c.331 1.846.684 4.156.973 6.837-17.905-6.839-40.76-6.839-58.656 0zm105.968 6.383c-13.459 17.927-26.676 27.279-35.446 31.985a4.815 4.815 0 0 1-5.264-.4 4.606 4.606 0 0 1-1.651-4.681 108.983 108.983 0 0 0 .609-41.295 28.788 28.788 0 0 0-4.519-11.1 38.44 38.44 0 0 1-1.952-3.213 7.586 7.586 0 0 1 2.2-9.793A101.306 101.306 0 0 0 222.21 192.3a18.69 18.69 0 0 0 3.639-9.32 46.577 46.577 0 0 0-.745-14.666 3.327 3.327 0 0 0-3.733-2.479 94.712 94.712 0 0 0-36.319 14.171 18.4 18.4 0 0 0-8.356 14.664l-.7 16.619v.14a10.854 10.854 0 0 1-6 9.983 10.838 10.838 0 0 1-5.991-9.983v-.14l-.7-16.619a18.4 18.4 0 0 0-8.356-14.664 94.7 94.7 0 0 0-36.319-14.171 3.319 3.319 0 0 0-3.733 2.479 46.612 46.612 0 0 0-.745 14.666 18.69 18.69 0 0 0 3.64 9.321 101.271 101.271 0 0 0 21.587 21.171 7.587 7.587 0 0 1 2.2 9.792 38.356 38.356 0 0 1-1.953 3.214 28.825 28.825 0 0 0-4.519 11.1 109.079 109.079 0 0 0 .545 41 5 5 0 0 1-1.69 5.057 4.556 4.556 0 0 1-5.011.4c-8.767-4.679-22.058-14.04-35.593-32.066a9.946 9.946 0 0 1-1.274-9.507l2.52-5.526a37.877 37.877 0 0 0 2.878-9.331c1.039-6.074 2.521-16.264 2.093-22.922-1.749-27.225.357-91.17 56.381-103.984a887.325 887.325 0 0 0 5.124 34.829 9.2 9.2 0 0 0 7.853 7.691 9.013 9.013 0 0 0 9.954-7.467 886.476 886.476 0 0 0 5.161-35.053c56.024 12.815 58.13 76.76 56.381 103.984a72.99 72.99 0 0 0 4.8 30.852l2.688 6.927a9.946 9.946 0 0 1-1.273 9.511zm71.282 65.117a2.247 2.247 0 0 1-2.63.472 67.289 67.289 0 0 1-19.6-13.631l-45.579-45.579c.615-.786 1.23-1.567 1.845-2.387a16.554 16.554 0 0 0 3.252-10.664l49.556 49.557a67.27 67.27 0 0 1 13.631 19.6 2.251 2.251 0 0 1-.477 2.632z" opacity="1" data-original="#3c3c4f" class=""></path></g></svg>