<svg xmlns="http://www.w3.org/2000/svg" version="1.1" xmlns:xlink="http://www.w3.org/1999/xlink" width="512" height="512" x="0" y="0" viewBox="0 0 340 340" style="enable-background:new 0 0 512 512" xml:space="preserve" class=""><g><linearGradient id="a" x1="293.894" x2="124.471" y1="326.15" y2="127.323" gradientUnits="userSpaceOnUse"><stop offset="0" stop-color="#ffa482"></stop><stop offset="1" stop-color="#ffe4b6"></stop></linearGradient><linearGradient xlink:href="#a" id="c" x1="304.511" x2="135.089" y1="317.102" y2="118.276"></linearGradient><linearGradient xlink:href="#a" id="d" x1="65.699" x2="300.791" y1="107.327" y2="270.756"></linearGradient><linearGradient xlink:href="#a" id="e" x1="74.917" x2="310.009" y1="94.067" y2="257.496"></linearGradient><linearGradient id="b" x1="178.057" x2="96.262" y1="157.359" y2="285.699" gradientUnits="userSpaceOnUse"><stop offset="0" stop-color="#939aff"></stop><stop offset=".5" stop-color="#acd2ff"></stop><stop offset="1" stop-color="#d7eaff"></stop></linearGradient><linearGradient xlink:href="#b" id="f" x1="289.967" x2="190.108" y1="36.16" y2="173.37"></linearGradient><path fill="url(#a)" d="M52.069 190.53a17.853 17.853 0 0 1 10.754-5.13l15.139-1.59A93.071 93.071 0 0 1 183.81 77.962l1.59-15.139a17.851 17.851 0 0 1 5.129-10.755L201.094 41.5 196.3 25.64a8.787 8.787 0 0 0-8.413-6.245h-35.771a8.787 8.787 0 0 0-8.416 6.245l-10.433 34.511a115.076 115.076 0 0 0-14.978 6.2L86.517 49.327a8.789 8.789 0 0 0-10.365 1.533L50.86 76.152a8.789 8.789 0 0 0-1.533 10.365l17.019 31.772a115.076 115.076 0 0 0-6.195 14.978L25.64 143.7a8.789 8.789 0 0 0-6.245 8.413v35.768a8.787 8.787 0 0 0 6.245 8.419l15.864 4.8z" opacity="1" data-original="url(#a)"></path><path fill="url(#a)" d="m290.673 253.483-17.019-31.772a115.076 115.076 0 0 0 6.195-14.978L314.36 196.3a8.787 8.787 0 0 0 6.245-8.413v-35.771a8.787 8.787 0 0 0-6.245-8.413l-15.864-4.8-10.564 10.567a17.848 17.848 0 0 1-10.755 5.129l-15.139 1.591A93.071 93.071 0 0 1 156.19 262.038l-1.59 15.139a17.853 17.853 0 0 1-5.13 10.754L138.906 298.5l4.8 15.864a8.787 8.787 0 0 0 8.413 6.245h35.768a8.787 8.787 0 0 0 8.413-6.245l10.436-34.511a115.076 115.076 0 0 0 14.978-6.195l31.772 17.019a8.789 8.789 0 0 0 10.365-1.533l25.292-25.292a8.789 8.789 0 0 0 1.53-10.369z" opacity="1" data-original="url(#a)"></path><path fill="url(#a)" d="M246.063 158.457a17.873 17.873 0 0 0-6.31 4.074l-17.7 17.7a53.063 53.063 0 0 1-41.817 41.817l-17.7 17.7a17.857 17.857 0 0 0-4.073 6.31 76.926 76.926 0 0 0 87.6-87.606z" opacity="1" data-original="url(#a)"></path><path fill="url(#a)" d="M93.937 181.542a17.857 17.857 0 0 0 6.31-4.073l17.7-17.7a53.063 53.063 0 0 1 41.817-41.817l17.7-17.7a17.873 17.873 0 0 0 4.074-6.31 76.926 76.926 0 0 0-87.606 87.605z" opacity="1" data-original="url(#a)"></path><path fill="url(#b)" d="M232.692 146.386a18.257 18.257 0 0 1 11.694-5.305l26.322-1.753a14.231 14.231 0 0 0 9.117-4.137l21.166-21.166a13.4 13.4 0 0 0 3.9-10.235l-1.734-30.59a1.374 1.374 0 0 0-2.344-.894L280.1 93.016c-9.283 9.283-24.7 9.507-33.807.05a23.419 23.419 0 0 1 .317-32.795l21.09-21.084a1.374 1.374 0 0 0-.894-2.344l-30.596-1.737a13.4 13.4 0 0 0-10.235 3.9l-21.166 21.169a14.231 14.231 0 0 0-4.137 9.117l-1.753 26.322a18.252 18.252 0 0 1-5.305 11.694l-86.306 86.306a18.257 18.257 0 0 1-11.693 5.305l-26.323 1.753a14.231 14.231 0 0 0-9.117 4.137l-21.166 21.166a13.4 13.4 0 0 0-3.9 10.235l1.734 30.59a1.374 1.374 0 0 0 2.344.894l21.084-21.084a23.417 23.417 0 0 1 32.794-.317c9.458 9.106 9.234 24.524-.049 33.807l-20.711 20.713a1.374 1.374 0 0 0 .894 2.344l30.591 1.737a13.4 13.4 0 0 0 10.235-3.9l21.166-21.166a14.229 14.229 0 0 0 4.137-9.117l1.753-26.322a18.257 18.257 0 0 1 5.305-11.694z" opacity="1" data-original="url(#b)"></path><path fill="url(#b)" d="M300.812 72.305 280.1 93.016c-9.283 9.283-24.7 9.507-33.807.049a23.417 23.417 0 0 1 .317-32.794l21.09-21.084a1.374 1.374 0 0 0-.894-2.344l-30.596-1.737a13.4 13.4 0 0 0-10.235 3.9l-21.166 21.169a14.231 14.231 0 0 0-4.137 9.117l-1.753 26.322a18.257 18.257 0 0 1-5.305 11.694l-43.153 43.153 39.078 39.078 43.153-43.153a18.257 18.257 0 0 1 11.694-5.305l26.322-1.753a14.229 14.229 0 0 0 9.117-4.137l21.166-21.166a13.4 13.4 0 0 0 3.9-10.235l-1.734-30.59a1.375 1.375 0 0 0-2.345-.895z" opacity="1" data-original="url(#b)"></path><path fill="#ffffff" d="m124.697 204.341 79.608-79.608a7.727 7.727 0 0 1 10.924.002 7.726 7.726 0 0 1 0 10.926l-79.606 79.606a7.727 7.727 0 0 1-10.924-.002 7.726 7.726 0 0 1-.002-10.924z" opacity="1" data-original="#ffffff"></path><g fill="#3c3c4f"><path d="M24.678 140.521a12.042 12.042 0 0 0-8.607 11.6v35.768a12.042 12.042 0 0 0 8.607 11.6l15.864 4.8a3.326 3.326 0 0 0 3.313-.832l10.564-10.563a14.559 14.559 0 0 1 8.752-4.174l15.138-1.591a3.326 3.326 0 0 0 2.94-3.8 89.747 89.747 0 0 1 102.07-102.07 3.326 3.326 0 0 0 3.8-2.94l1.591-15.138a14.569 14.569 0 0 1 4.173-8.752l10.564-10.564a3.323 3.323 0 0 0 .832-3.313l-4.8-15.864a12.042 12.042 0 0 0-11.6-8.607h-35.763a12.042 12.042 0 0 0-11.6 8.607l-9.942 32.879a119.175 119.175 0 0 0-12.222 5.054L88.087 46.4A12.048 12.048 0 0 0 73.8 48.509L48.509 73.8A12.044 12.044 0 0 0 46.4 88.087l16.214 30.27a119.175 119.175 0 0 0-5.054 12.222zm38.627-6.2a112.178 112.178 0 0 1 6.015-14.546 3.323 3.323 0 0 0-.044-3.054L52.257 84.948a5.431 5.431 0 0 1 .954-6.445L78.5 53.211a5.432 5.432 0 0 1 6.445-.954l31.771 17.019a3.326 3.326 0 0 0 3.054.044 112.178 112.178 0 0 1 14.546-6.015 3.325 3.325 0 0 0 2.13-2.191L146.884 26.6a5.434 5.434 0 0 1 5.232-3.883h35.768a5.434 5.434 0 0 1 5.232 3.883l4.221 13.959-9.158 9.157a21.235 21.235 0 0 0-6.079 12.76l-1.24 11.748A96.387 96.387 0 0 0 74.224 180.86l-11.748 1.24a21.24 21.24 0 0 0-12.758 6.084l-9.157 9.157-13.961-4.225a5.434 5.434 0 0 1-3.883-5.232v-35.768a5.434 5.434 0 0 1 3.883-5.232l34.512-10.435a3.325 3.325 0 0 0 2.193-2.13zM315.322 199.479a12.042 12.042 0 0 0 8.607-11.6v-35.763a12.042 12.042 0 0 0-8.607-11.6l-15.864-4.8a3.32 3.32 0 0 0-3.313.831l-10.564 10.564a14.559 14.559 0 0 1-8.752 4.174l-15.138 1.591a3.326 3.326 0 0 0-2.94 3.8 89.747 89.747 0 0 1-102.07 102.07 3.326 3.326 0 0 0-3.8 2.94l-1.591 15.138a14.559 14.559 0 0 1-4.174 8.752l-10.564 10.564a3.325 3.325 0 0 0-.831 3.313l4.8 15.864a12.042 12.042 0 0 0 11.6 8.607h35.768a12.042 12.042 0 0 0 11.6-8.607l9.942-32.879a119.175 119.175 0 0 0 12.222-5.054l30.27 16.214a12.044 12.044 0 0 0 14.286-2.112l25.282-25.286a12.044 12.044 0 0 0 2.112-14.286l-16.214-30.27a119.175 119.175 0 0 0 5.054-12.222zm-38.627 6.2a112.062 112.062 0 0 1-6.015 14.546 3.323 3.323 0 0 0 .044 3.054l17.019 31.772a5.43 5.43 0 0 1-.954 6.444L261.5 286.789a5.429 5.429 0 0 1-6.444.954l-31.772-17.019a3.326 3.326 0 0 0-3.054-.044 112.178 112.178 0 0 1-14.546 6.015 3.325 3.325 0 0 0-2.13 2.191L193.116 313.4a5.434 5.434 0 0 1-5.232 3.883h-35.768a5.434 5.434 0 0 1-5.232-3.883l-4.221-13.959 9.158-9.157a21.24 21.24 0 0 0 6.084-12.758l1.235-11.748A96.387 96.387 0 0 0 265.776 159.14l11.748-1.235a21.24 21.24 0 0 0 12.758-6.084l9.157-9.158 13.959 4.221a5.434 5.434 0 0 1 3.883 5.232v35.768a5.434 5.434 0 0 1-3.883 5.232l-34.512 10.435a3.327 3.327 0 0 0-2.186 2.13z" fill="#3c3c4f" opacity="1" data-original="#3c3c4f"></path><path d="M157.961 249.35a79.832 79.832 0 0 0 11.906.892 80.223 80.223 0 0 0 79.483-92.281 3.325 3.325 0 0 0-4.463-2.613 21.052 21.052 0 0 0-7.484 4.832l-17.7 17.7a3.335 3.335 0 0 0-.912 1.713 49.739 49.739 0 0 1-39.191 39.195 3.335 3.335 0 0 0-1.713.912l-17.7 17.7a21.048 21.048 0 0 0-4.832 7.485 3.324 3.324 0 0 0 2.613 4.462zm6.921-7.246 17-17a56.386 56.386 0 0 0 43.227-43.227s17.8-17.76 18.235-18.1a73.585 73.585 0 0 1-79.564 79.564 14.47 14.47 0 0 1 1.102-1.241zM92.257 184.411a4.532 4.532 0 0 0 2.855.241 18.557 18.557 0 0 0 7.485-4.832l17.7-17.7a3.335 3.335 0 0 0 .912-1.713 49.739 49.739 0 0 1 39.191-39.195 3.335 3.335 0 0 0 1.713-.912l17.7-17.7a21.052 21.052 0 0 0 4.832-7.484 3.325 3.325 0 0 0-2.613-4.463 80.25 80.25 0 0 0-91.382 91.386 3.328 3.328 0 0 0 1.607 2.372zm25.689-66.465a73.964 73.964 0 0 1 52.178-21.54q3.043 0 6.1.253a14.47 14.47 0 0 1-1.105 1.237l-17 17a56.386 56.386 0 0 0-43.227 43.227l-17 17a14.47 14.47 0 0 1-1.237 1.105 73.976 73.976 0 0 1 21.291-58.282z" fill="#3c3c4f" opacity="1" data-original="#3c3c4f"></path><path d="M272.216 39.368a3.324 3.324 0 0 0-2.162-5.669L236.4 31.787a16.724 16.724 0 0 0-12.774 4.871l-21.168 21.167a17.545 17.545 0 0 0-5.1 11.247L195.6 95.393a14.924 14.924 0 0 1-4.34 9.564l-86.306 86.306a14.924 14.924 0 0 1-9.563 4.34l-26.322 1.753a17.55 17.55 0 0 0-11.248 5.1l-21.163 21.169a16.738 16.738 0 0 0-4.871 12.775l1.913 33.654a3.324 3.324 0 0 0 5.669 2.162l23.254-23.254a20.191 20.191 0 0 1 28.138-.273 19.65 19.65 0 0 1 5.983 14.111 20.976 20.976 0 0 1-6.079 14.953l-22.882 22.879a3.324 3.324 0 0 0 2.163 5.669l34.6 1.939a16.742 16.742 0 0 0 11.827-4.9l21.167-21.167a17.545 17.545 0 0 0 5.1-11.247l1.753-26.321a14.924 14.924 0 0 1 4.34-9.564l86.306-86.306a14.924 14.924 0 0 1 9.563-4.34l26.322-1.753a17.55 17.55 0 0 0 11.248-5.1l21.166-21.167a16.738 16.738 0 0 0 4.871-12.773L306.3 69.946a3.324 3.324 0 0 0-5.669-2.163l-22.88 22.882a20.986 20.986 0 0 1-14.951 6.079 19.65 19.65 0 0 1-14.109-5.984 20.19 20.19 0 0 1 .273-28.138zm-28.316 56a26.25 26.25 0 0 0 18.835 8.021 27.682 27.682 0 0 0 19.717-8.026l17.633-17.633 1.491 26.246a10.088 10.088 0 0 1-2.935 7.7l-21.166 21.167a10.911 10.911 0 0 1-6.988 3.17l-26.323 1.753a21.573 21.573 0 0 0-13.823 6.272l-86.3 86.305a21.573 21.573 0 0 0-6.272 13.824l-1.753 26.322a10.906 10.906 0 0 1-3.17 6.987l-21.167 21.167a10.071 10.071 0 0 1-7.7 2.935l-26.245-1.491 17.633-17.633a27.669 27.669 0 0 0 8.026-19.717 26.25 26.25 0 0 0-8.022-18.837 26.873 26.873 0 0 0-37.45.36l-18.006 18.007-1.491-26.246a10.088 10.088 0 0 1 2.935-7.695l21.166-21.167a10.911 10.911 0 0 1 6.988-3.17l26.323-1.753a21.573 21.573 0 0 0 13.823-6.272l86.305-86.3a21.573 21.573 0 0 0 6.272-13.824l1.753-26.322a10.906 10.906 0 0 1 3.17-6.987l21.167-21.167a10.09 10.09 0 0 1 7.7-2.935l26.245 1.491-18.011 18.001a26.873 26.873 0 0 0-.36 37.45z" fill="#3c3c4f" opacity="1" data-original="#3c3c4f"></path><path d="M217.622 122.378a11.052 11.052 0 0 0-15.63 0l-79.614 79.614a11.052 11.052 0 0 0 15.63 15.63l79.614-79.614a11.052 11.052 0 0 0 0-15.63zm-4.7 10.928-79.615 79.615a4.4 4.4 0 1 1-6.227-6.227l79.615-79.615a4.4 4.4 0 0 1 6.227 0 4.4 4.4 0 0 1 0 6.227z" fill="#3c3c4f" opacity="1" data-original="#3c3c4f"></path></g></g></svg>