<svg xmlns="http://www.w3.org/2000/svg" version="1.1" xmlns:xlink="http://www.w3.org/1999/xlink" width="512" height="512" x="0" y="0" viewBox="0 0 340 340" style="enable-background:new 0 0 512 512" xml:space="preserve" class=""><g><linearGradient id="b" x1="41.154" x2="119.344" y1="38.533" y2="184.392" gradientUnits="userSpaceOnUse"><stop offset="0" stop-color="#ffafbc"></stop><stop offset="1" stop-color="#f57f8c"></stop></linearGradient><linearGradient id="a" x1="71.902" x2="228.059" y1="48.253" y2="283.093" gradientUnits="userSpaceOnUse"><stop offset="0" stop-color="#d96c79"></stop><stop offset="1" stop-color="#bd5663"></stop></linearGradient><linearGradient xlink:href="#a" id="d" x1="50.601" x2="206.757" y1="62.417" y2="297.257"></linearGradient><linearGradient xlink:href="#b" id="e" x1="49.163" x2="142.978" y1="145.053" y2="271.552"></linearGradient><linearGradient xlink:href="#a" id="f" x1="16.517" x2="172.673" y1="85.081" y2="319.921"></linearGradient><linearGradient id="g" x1="242.675" x2="217.076" y1="124.938" y2="255.672" gradientUnits="userSpaceOnUse"><stop offset="0" stop-color="#c2cfff"></stop><stop offset="1" stop-color="#f0f9ff"></stop></linearGradient><linearGradient id="h" x1="214.561" x2="252.734" y1="309.01" y2="115.092" gradientUnits="userSpaceOnUse"><stop offset="0" stop-color="#c1d1ff"></stop><stop offset="1" stop-color="#7a88c2"></stop></linearGradient><linearGradient id="i" x1="281.822" x2="247.517" y1="67.582" y2="151.596" gradientTransform="rotate(-22.33 270.801 94.834)" gradientUnits="userSpaceOnUse"><stop offset="0" stop-color="#8080ad"></stop><stop offset="1" stop-color="#515180"></stop></linearGradient><linearGradient id="c" x1="277.453" x2="306.314" y1="3.186" y2="86.995" gradientTransform="rotate(67.67 291.514 44.08)" gradientUnits="userSpaceOnUse"><stop offset="0" stop-color="#ff9893"></stop><stop offset="1" stop-color="#f2613e"></stop></linearGradient><linearGradient id="j" x1="180.146" x2="249.605" y1="125.227" y2="136.564" gradientUnits="userSpaceOnUse"><stop offset="0" stop-color="#ffaf5b"></stop><stop offset="1" stop-color="#ffdbb4"></stop></linearGradient><linearGradient xlink:href="#c" id="k" x1="325.231" x2="267.649" y1="182.486" y2="152.435"></linearGradient><path fill="url(#b)" d="M115.01 136.679c3.645-28.612 4.021-54.724-12.079-68.243 0 0-14.027-25.369-48.051 7.76A64.168 64.168 0 0 0 37.1 72.6c-16.407-.608-22 21.636-7.263 28.862a59.7 59.7 0 0 0 13.939 4.63 56.527 56.527 0 0 1 23.593 10.647c7.6 6.03 15 15.173 15.571 28.1z" opacity="1" data-original="url(#b)" class=""></path><path fill="url(#a)" d="m88.805 143.583 40.39-8.648a93.422 93.422 0 0 1 8.975-41.428 17.21 17.21 0 0 0-8.495-23.358c-6.552-2.858-15.383-4.38-26.744-1.713 0 0 21.05 54.933-14.126 75.147z" opacity="1" data-original="url(#a)" class=""></path><path fill="url(#a)" d="M143.317 157.115s8.863-25.747-18.994-28.28-67.532 10.552-46.429 36.3z" opacity="1" data-original="url(#a)" class=""></path><path fill="url(#b)" d="M76.039 162.676c-20.576 12.394-42.961 34.791-50.693 74.865a70.272 70.272 0 0 0-.366 25.116q.144.846.311 1.72c6.383 33.3 35.9 57.146 69.8 57.146H147.3a37.185 37.185 0 0 0 36.4-29.592l20.815-99.784S192.748 170 164.681 156.986c-28.519-13.227-61.713-10.531-88.642 5.69z" opacity="1" data-original="url(#b)" class=""></path><path fill="url(#a)" d="M164.681 156.986a90.36 90.36 0 0 0-6.459-2.685c3.358 28.852 2.175 93.281-69.681 115.477-29.465 9.1-49.979 1.557-64.168-11.767.154 1.553.344 3.1.607 4.646q.144.846.311 1.72c6.383 33.3 35.9 57.146 69.8 57.146H147.3a37.185 37.185 0 0 0 36.4-29.592l20.815-99.784S192.748 170 164.681 156.986z" opacity="1" data-original="url(#a)" class=""></path><path fill="url(#g)" d="m221.171 136.222-34.486 83.911c-22.742 55.336-9.154 101.39-9.154 101.39s42.044-23.19 64.786-78.526l34.483-83.911z" opacity="1" data-original="url(#g)"></path><path fill="url(#h)" d="m276.8 159.086-23.864-9.808-7.905-3.249-23.863-9.807-10.22 24.878 21.752 14.95-46.43 112.965a4.274 4.274 0 1 0 7.906 3.25l45.724-111.26 21.747 14.955z" opacity="1" data-original="url(#h)"></path><path fill="url(#i)" d="M255.406 53.623h30.581v82.412h-30.581z" transform="rotate(22.33 270.781 94.89)" opacity="1" data-original="url(#i)"></path><ellipse cx="291.544" cy="44.103" fill="url(#c)" rx="25.31" ry="27.445" transform="rotate(-67.67 291.508 44.116)" opacity="1" data-original="url(#c)" class=""></ellipse><path fill="url(#j)" d="m256.215 130.066-40.541-16.661s-17.113-8.622-27.094 3.1a20.482 20.482 0 0 0-4.812 12.745c-.136 5.4 1.585 12.856 10.924 16.694a17.912 17.912 0 0 0 17.317-1.677 14.853 14.853 0 0 1 13.711-1.136l21.5 8.834c4.986-6.144 7.837-13.529 8.995-21.899z" opacity="1" data-original="url(#j)" class=""></path><path fill="url(#c)" d="M277.66 171.247a17.914 17.914 0 0 0 11.133 13.37c9.34 3.838 15.805-.252 19.506-4.188a20.482 20.482 0 0 0 5.541-12.446c1.146-15.352-17.085-21.256-17.085-21.256l-40.54-16.661-9 21.9 21.5 8.834a14.851 14.851 0 0 1 8.945 10.447z" opacity="1" data-original="url(#c)" class=""></path><path fill="#3c3c4f" d="M320 55.8c6-14.6-1.881-31.731-17.574-38.18s-33.342.185-39.343 14.788a27.478 27.478 0 0 0 .693 22.276 30.63 30.63 0 0 0 1.882 3.431l-25.4 61.8-23.218-9.542c-1.84-.895-19.814-9.155-30.993 3.975a23.816 23.816 0 0 0-5.605 14.817c-.234 9.264 4.377 16.315 12.984 19.852a21.141 21.141 0 0 0 19.464-1.4l-13.122 31.927a82.459 82.459 0 0 0-7.289-7.584 97.736 97.736 0 0 0-26.4-17.992 93.661 93.661 0 0 0-18.112-6.229c-.151-6.1-2.419-16.47-15.252-20.624a91.609 91.609 0 0 1 8.448-32.165c5.028-10.408.619-22.616-10.035-27.793-10.261-4.988-22.193-3.267-26.667-2.347a22.958 22.958 0 0 0-14.752-8.732C79.2 54.527 67.2 60.013 54.04 72.4a66.167 66.167 0 0 0-16.822-3.121 18.538 18.538 0 0 0-8.849 35.167 63.355 63.355 0 0 0 14.713 4.9 52.976 52.976 0 0 1 22.216 10c6.051 4.8 10.233 10.295 12.459 16.348a24.264 24.264 0 0 0-6.646 6.948c-2.452 4.068-4.223 10.556.369 18.971-18.807 12.106-41.566 34.713-49.4 75.3a73.363 73.363 0 0 0-.38 26.3c.1.587.208 1.184.325 1.791 6.646 34.676 37.374 59.843 73.066 59.843H147.3a40.458 40.458 0 0 0 11.871-1.774 37.461 37.461 0 0 0 13.628-7.211c.765 3.895 1.424 6.2 1.542 6.6a3.2 3.2 0 0 0 1.925 2.134 4.468 4.468 0 0 0 2.869-.164c1.759-.97 43.333-24.4 66.256-80.174l29.281-71.248a21.14 21.14 0 0 0 12.857 14.679 22.348 22.348 0 0 0 8.51 1.78c5.428 0 10.47-2.287 14.681-6.765a23.822 23.822 0 0 0 6.434-14.475c1.283-17.2-17.3-23.964-19.24-24.621l-23.22-9.543 25.412-61.83A27.971 27.971 0 0 0 320 55.8zm-50.766-20.866c3.389-8.246 11.726-13.134 20.794-13.134a25.965 25.965 0 0 1 9.874 1.971c12.3 5.055 18.56 18.291 13.951 29.5s-18.365 16.222-30.667 11.167A25.159 25.159 0 0 1 269.8 51.876a20.907 20.907 0 0 1-.566-16.942zm-199.8 79.2a59.551 59.551 0 0 0-24.97-11.294A56.78 56.78 0 0 1 31.3 98.474a11.89 11.89 0 0 1 5.671-22.554 61.267 61.267 0 0 1 16.736 3.386 3.323 3.323 0 0 0 3.491-.729c11.956-11.641 22.83-17.151 31.433-15.935a16.308 16.308 0 0 1 11.4 7.417l.012.018c0 .007.006.015.01.022.056.1 5.578 9.831 4.928 20.966a3.325 3.325 0 0 0 3.125 3.512h.2a3.323 3.323 0 0 0 3.315-3.13 47.3 47.3 0 0 0-3.791-20.48c4.653-.715 13.229-1.317 20.4 2.167 7.309 3.552 10.364 11.864 6.955 18.923a98.206 98.206 0 0 0-9.016 33.637c-.5-.063-1.009-.125-1.537-.173-13.611-1.237-29.664 1.06-41.074 6.7-2.744-6.741-7.481-12.816-14.127-18.089zm7.374 31.936c6.226-10.329 29.431-15.534 47.217-13.922 10.726.975 16.493 5.781 17.216 14.274a99.357 99.357 0 0 0-64.071 11.756c-2.416-4.535-2.533-8.513-.365-12.11zm94.642 161.448c-4.491 6.573-13.926 9.118-14.019 9.143-.05.012-.1.027-.15.041a33.823 33.823 0 0 1-9.977 1.5H95.093c-32.508 0-60.491-22.9-66.538-54.449-.106-.559-.206-1.108-.3-1.651a66.74 66.74 0 0 1 .352-23.928c6.236-32.319 22.771-56.761 49.145-72.648 26.542-15.988 58.516-18.05 85.528-5.522a91.134 91.134 0 0 1 24.646 16.806l.08.074a72.228 72.228 0 0 1 8.859 9.732L183.61 218.87a175.232 175.232 0 0 0-12.163 88.646zm67.795-65.783c-18.053 43.93-48.86 67.391-59.541 74.511-2.59-12.577-7.994-50.921 10.058-94.847l31.247-76.031a12.132 12.132 0 0 1 3.451.838l42.991 17.669a12.091 12.091 0 0 1 3.042 1.829zm56.25-91.931c.078.032.159.061.24.088.157.051 15.734 5.244 14.794 17.845a17.161 17.161 0 0 1-4.648 10.417c-4.454 4.735-9.776 5.874-15.822 3.39a14.657 14.657 0 0 1-9.149-11.007 18.151 18.151 0 0 0-10.933-12.812l-42.99-17.668a18.7 18.7 0 0 0-7.1-1.412 17.763 17.763 0 0 0-9.68 2.834 14.649 14.649 0 0 1-14.243 1.392c-6.047-2.485-9.03-7.039-8.866-13.535a17.151 17.151 0 0 1 4.021-10.675c8.141-9.563 22.468-2.583 23.067-2.285.076.038.154.073.232.106zm-26.949-18.264-22.136-9.1 7.081-17.229c4.016 3.305 11.875 8.51 22.1 9.177zm9.753-23.73c-11.171.221-19.647-6.78-22.137-9.1l6.684-16.263c4.016 3.306 11.875 8.51 22.1 9.177zm9.356-22.763c-11.183.219-19.65-6.779-22.138-9.095l4.926-11.988a32.907 32.907 0 0 0 22.145 9.08z" opacity="1" data-original="#3c3c4f" class=""></path></g></svg>