<svg xmlns="http://www.w3.org/2000/svg" version="1.1" xmlns:xlink="http://www.w3.org/1999/xlink" width="512" height="512" x="0" y="0" viewBox="0 0 340 340" style="enable-background:new 0 0 512 512" xml:space="preserve" class=""><g><linearGradient id="b" x1="181.99" x2="135.561" y1="109.202" y2="329.005" gradientUnits="userSpaceOnUse"><stop offset=".004" stop-color="#ffdbb1"></stop><stop offset="1" stop-color="#ffab7d"></stop></linearGradient><linearGradient id="c" x1="240.825" x2="175.287" y1="125.228" y2="289.073" gradientUnits="userSpaceOnUse"><stop offset=".004" stop-color="#ffa582"></stop><stop offset="1" stop-color="#f4806d"></stop></linearGradient><linearGradient id="a" x1="267.363" x2="208.471" y1="54.31" y2="160.751" gradientUnits="userSpaceOnUse"><stop offset=".004" stop-color="#fffff3"></stop><stop offset="1" stop-color="#ffe1bf"></stop></linearGradient><linearGradient xlink:href="#a" id="d" x1="195.261" x2="78.787" y1="120.229" y2="217.509"></linearGradient><path fill="url(#b)" d="M31.531 152.292s31.193 80.42 59.462 120.387l71.161-38.5 53.613-3.937 92.713-50.652-54.208-87.736-114.539 32.656s-53.614-8.773-108.202 27.782z" opacity="1" data-original="url(#b)"></path><path fill="url(#c)" d="m90.993 272.679 20.471 9.748s33.143-51.664 106.253-44.353c0 0 26.32-31.681 84.807-39.967l5.956-18.521s-38.124-14.622-95.15 46.3c0 .003-70.672-20.468-122.337 46.793z" opacity="1" data-original="url(#c)"></path><path fill="url(#a)" d="M149.271 103.292s29.661-53.671 99.809-44.725c0 0 37.664 52.258 55.083 93.688 0 0-58.317-1.033-90.833 73.634z" opacity="1" data-original="url(#a)"></path><path fill="url(#a)" d="m43.342 126.361 54.142 112.991s52.32-46.7 115.846-13.463c0 0-22.629-64.218-64.059-122.6 0 .003-46.608-21.653-105.929 23.072z" opacity="1" data-original="url(#a)"></path><g fill="#3c3c4f"><path d="M311.559 179.823c.007-.095.007-.189.006-.285s-.006-.2-.017-.305-.028-.185-.047-.277-.047-.2-.078-.3-.06-.172-.1-.258a2.806 2.806 0 0 0-.147-.3c-.024-.045-.039-.092-.066-.135l-13.609-22.026a48.8 48.8 0 0 1 6.6-.582 3.062 3.062 0 0 0 2.619-1.36 3.1 3.1 0 0 0 .29-2.936c-17.355-41.277-55.046-93.773-55.425-94.3a3.1 3.1 0 0 0-2.12-1.26C212.194 50.742 186.222 63.538 171 75.11a99.879 99.879 0 0 0-23 24.346 86.134 86.134 0 0 0-29.468-4.5c-17.862.166-45.728 5.319-77.044 28.931a3.1 3.1 0 0 0-.929 3.81l5.83 12.167a120.924 120.924 0 0 0-16.7 9.943 3.1 3.1 0 0 0-1.036 3.6c.313.808 31.657 81.238 59.822 121.056.018.026.043.043.062.069a3.085 3.085 0 0 0 .3.333c.066.066.127.138.2.2a3.116 3.116 0 0 0 .352.234c.083.051.161.112.248.155a.345.345 0 0 1 .032.02l20.471 9.748a3.1 3.1 0 0 0 3.935-1.121c.081-.126 8.3-12.694 25.094-24.2 15.439-10.578 41.545-22.417 78.247-18.746a3.1 3.1 0 0 0 2.687-1.1c.257-.308 26.386-30.882 82.862-38.883a3.1 3.1 0 0 0 2.514-2.118l5.956-18.521c.012-.039.015-.079.026-.118a2.978 2.978 0 0 0 .064-.3c.011-.096.026-.193.034-.292zm-9.458-4.671c-12.636-1.287-40.393 1.174-77.433 35.131 15.2-26.153 33.562-39.517 47.314-46.274a89.393 89.393 0 0 1 19.01-6.837zM174.958 79.877c20.439-15.444 44.787-21.634 72.392-18.4 5.283 7.454 35.95 51.334 52.213 87.944a90.31 90.31 0 0 0-29.978 8.869c-16.444 8-39.048 24.788-55.968 59.585-7.045-18.085-28.041-68.272-60.644-114.7a94.439 94.439 0 0 1 21.985-23.298zm-56.737 21.278c15.666-.21 26.277 3.55 29.034 4.648 32.405 45.871 53.334 95.727 60.449 113.945-30.992-13.618-58.786-9.08-77.162-2.507a120.409 120.409 0 0 0-31.962 17.234l-51.342-107.15c28.978-21.195 54.514-25.956 70.983-26.17zm-69.164 44.3 45.635 95.235a3.1 3.1 0 0 0 4.852.974 110.86 110.86 0 0 1 33.3-18.67c19.063-6.775 37.935-7.808 56.357-3.132a124.418 124.418 0 0 0-18.085 1.131c-21.87 2.982-53.182 13.521-79.956 46.479C66.7 231.158 40.4 166.243 35.3 153.405a125.439 125.439 0 0 1 13.757-7.952zm251.11 49.871c-51.809 7.87-78.127 33.459-83.723 39.519-37.869-3.373-64.924 9.026-81.026 20.116a107.834 107.834 0 0 0-24.979 23.551l-14.615-6.96c20.46-25.31 45.964-40.236 75.862-44.384 23.255-3.226 40.614 1.648 40.783 1.7.053.015.106.022.158.034s.075.021.113.029l.092.015c.088.015.176.021.264.028.058 0 .116.012.174.013h.059c.051 0 .1-.009.152-.011.029 0 .059 0 .088-.006.046 0 .093 0 .14-.009h.047c.054-.008.107-.022.161-.033s.109-.019.163-.033c.02-.005.041-.007.061-.012s.026-.009.039-.012c.054-.016.106-.038.16-.056.074-.026.149-.048.221-.079l.032-.016c.054-.024.1-.054.156-.081.069-.035.138-.069.2-.109l.037-.023c.051-.031.1-.07.144-.1s.122-.086.179-.134.113-.1.168-.156c.036-.035.075-.065.11-.1 28.65-30.609 52.153-41.344 66.825-44.959 10.625-2.619 18.255-1.971 22.106-1.266z" fill="#3c3c4f" opacity="1" data-original="#3c3c4f"></path><path d="M94.5 130.227a3.078 3.078 0 0 0 1.019-.173 79.669 79.669 0 0 1 43.568-2.517 3.1 3.1 0 0 0 1.3-6.054 85.771 85.771 0 0 0-46.907 2.723 3.1 3.1 0 0 0 1.019 6.021zM154.325 157.075a3.1 3.1 0 0 0 1.286-6.058c-39.95-8.475-65.63 14.417-66.7 15.4a3.1 3.1 0 0 0 4.168 4.58c.238-.222 24.505-21.716 61.246-13.922zM105.147 193.255a3.1 3.1 0 0 0 4.178 4.57c.953-.865 23.784-21.07 61.759-10.495a3.1 3.1 0 0 0 1.661-5.965c-41.409-11.534-66.545 10.927-67.598 11.89zM198.03 104.34a3.086 3.086 0 0 0 2.173-.89c8.914-8.779 18.314-14.22 37.6-14.22a3.1 3.1 0 1 0 0-6.192c-21.333 0-32.2 6.4-41.95 16a3.1 3.1 0 0 0 2.172 5.3zM210.581 167.278a3.1 3.1 0 0 0 5.5 2.851c.141-.269 14.45-27.008 48.344-33.151a3.1 3.1 0 0 0-1.105-6.093c-36.988 6.703-52.113 35.184-52.739 36.393zM233.225 114.564a3.1 3.1 0 0 0-3.85-2.085c-23.159 6.889-31.141 22.923-31.47 23.6a3.1 3.1 0 0 0 5.57 2.707c.07-.143 7.255-14.3 27.666-20.374a3.1 3.1 0 0 0 2.084-3.848zM246.149 114.119a3.084 3.084 0 1 0-3.084-3.084 3.083 3.083 0 0 0 3.084 3.084z" fill="#3c3c4f" opacity="1" data-original="#3c3c4f"></path></g></g></svg>