<svg xmlns="http://www.w3.org/2000/svg" version="1.1" xmlns:xlink="http://www.w3.org/1999/xlink" width="512" height="512" x="0" y="0" viewBox="0 0 340 340" style="enable-background:new 0 0 512 512" xml:space="preserve" class=""><g><linearGradient id="a" x1="244.299" x2="5.346" y1="1.245" y2="247.598" gradientUnits="userSpaceOnUse"><stop offset="0" stop-color="#fff09a"></stop><stop offset=".481" stop-color="#ffb94f"></stop><stop offset="1" stop-color="#ff794d"></stop></linearGradient><linearGradient xlink:href="#a" id="b" x1="336.411" x2="97.459" y1="90.59" y2="336.943"></linearGradient><linearGradient xlink:href="#a" id="c" x1="338.437" x2="99.485" y1="92.555" y2="338.908"></linearGradient><linearGradient xlink:href="#a" id="d" x1="242.273" x2="3.321" y1="-.72" y2="245.633"></linearGradient><linearGradient xlink:href="#a" id="e" x1="290.355" x2="51.403" y1="45.917" y2="292.271"></linearGradient><path fill="url(#a)" d="M230.828 74.706A112.354 112.354 0 0 0 180.937 57.5V23.243h-21.874V57.5a112.354 112.354 0 0 0-49.891 17.207l11.771 18.44a90.612 90.612 0 0 1 38.12-13.647v43.544h21.874V79.5a90.612 90.612 0 0 1 38.12 13.651z" opacity="1" data-original="url(#a)" class=""></path><path fill="url(#a)" d="M230.828 265.294a112.354 112.354 0 0 1-49.891 17.206v34.256h-21.874V282.5a112.354 112.354 0 0 1-49.891-17.207l11.771-18.44a90.612 90.612 0 0 0 38.12 13.651v-43.543h21.874v43.544a90.612 90.612 0 0 0 38.12-13.651z" opacity="1" data-original="url(#a)" class=""></path><path fill="url(#a)" d="M265.294 230.828a112.354 112.354 0 0 0 17.206-49.891h34.256v-21.874H282.5a112.354 112.354 0 0 0-17.207-49.891l-18.44 11.771a90.612 90.612 0 0 1 13.651 38.12h-43.543v21.874h43.544a90.612 90.612 0 0 1-13.651 38.12z" opacity="1" data-original="url(#a)" class=""></path><path fill="url(#a)" d="M74.706 230.828A112.354 112.354 0 0 1 57.5 180.937H23.243v-21.874H57.5a112.354 112.354 0 0 1 17.207-49.891l18.44 11.771a90.612 90.612 0 0 0-13.647 38.12h43.544v21.874H79.5a90.612 90.612 0 0 0 13.651 38.12z" opacity="1" data-original="url(#a)" class=""></path><circle cx="170" cy="170" r="14.228" fill="url(#e)" opacity="1" data-original="url(#e)"></circle><g fill="#3c3c4f"><path d="M219.748 96.281a3.207 3.207 0 0 0 2.015-1.407l11.771-18.441a3.21 3.21 0 0 0-.976-4.433 116.3 116.3 0 0 0-48.41-17.381V23.243a3.21 3.21 0 0 0-3.211-3.211h-21.874a3.21 3.21 0 0 0-3.211 3.211V54.62A116.3 116.3 0 0 0 107.442 72a3.21 3.21 0 0 0-.976 4.432l11.771 18.441a3.211 3.211 0 0 0 4.436.976 86.74 86.74 0 0 1 33.179-12.664v39.853a3.211 3.211 0 0 0 3.211 3.211h21.874a3.211 3.211 0 0 0 3.211-3.211V83.186a86.74 86.74 0 0 1 33.179 12.664 3.2 3.2 0 0 0 2.421.431zm-38.429-19.973a3.209 3.209 0 0 0-3.592 3.187v40.334h-15.454V79.5a3.209 3.209 0 0 0-3.592-3.187 93.13 93.13 0 0 0-36.732 12.447l-8.319-13.038A109.9 109.9 0 0 1 159.369 60.7a3.211 3.211 0 0 0 2.9-3.2V26.453h15.454V57.5a3.211 3.211 0 0 0 2.9 3.2 109.9 109.9 0 0 1 45.747 15.022l-8.319 13.033a93.13 93.13 0 0 0-36.732-12.447zM221.763 245.126a3.211 3.211 0 0 0-4.436-.976 86.74 86.74 0 0 1-33.179 12.664v-39.853a3.211 3.211 0 0 0-3.211-3.211h-21.874a3.211 3.211 0 0 0-3.211 3.211v39.853a86.74 86.74 0 0 1-33.179-12.664 3.211 3.211 0 0 0-4.436.976l-11.771 18.441a3.21 3.21 0 0 0 .976 4.432 116.3 116.3 0 0 0 48.41 17.381v31.377a3.21 3.21 0 0 0 3.211 3.211h21.874a3.21 3.21 0 0 0 3.211-3.211V285.38a116.3 116.3 0 0 0 48.41-17.38 3.21 3.21 0 0 0 .976-4.432zm-41.132 34.179a3.211 3.211 0 0 0-2.9 3.2v31.046h-15.458V282.5a3.211 3.211 0 0 0-2.9-3.2 109.9 109.9 0 0 1-45.739-15.027l8.319-13.033a93.13 93.13 0 0 0 36.732 12.447 3.209 3.209 0 0 0 3.592-3.187v-40.329h15.454v40.334a3.209 3.209 0 0 0 3.592 3.187 93.13 93.13 0 0 0 36.732-12.447l8.319 13.033a109.9 109.9 0 0 1-45.743 15.027zM316.757 155.852H285.38a116.3 116.3 0 0 0-17.38-48.41 3.21 3.21 0 0 0-4.432-.976l-18.441 11.771a3.211 3.211 0 0 0-.976 4.436 86.74 86.74 0 0 1 12.664 33.179h-39.854a3.211 3.211 0 0 0-3.211 3.211v21.874a3.211 3.211 0 0 0 3.211 3.211h39.853a86.74 86.74 0 0 1-12.664 33.179 3.211 3.211 0 0 0 .976 4.436l18.441 11.771a3.209 3.209 0 0 0 4.432-.976 116.3 116.3 0 0 0 17.381-48.41h31.377a3.21 3.21 0 0 0 3.211-3.211v-21.874a3.21 3.21 0 0 0-3.211-3.211zm-3.21 21.875H282.5a3.211 3.211 0 0 0-3.2 2.9 109.9 109.9 0 0 1-15.027 45.739l-13.033-8.319a93.13 93.13 0 0 0 12.447-36.732 3.209 3.209 0 0 0-3.187-3.592h-40.329v-15.45h40.334a3.209 3.209 0 0 0 3.187-3.592 93.13 93.13 0 0 0-12.447-36.732l13.033-8.319a109.9 109.9 0 0 1 15.027 45.739 3.211 3.211 0 0 0 3.2 2.9h31.046zM23.243 184.148H54.62A116.3 116.3 0 0 0 72 232.558a3.209 3.209 0 0 0 4.432.976l18.441-11.771a3.211 3.211 0 0 0 .976-4.436 86.74 86.74 0 0 1-12.664-33.179h39.853a3.211 3.211 0 0 0 3.211-3.211v-21.874a3.211 3.211 0 0 0-3.211-3.211H83.186a86.74 86.74 0 0 1 12.664-33.179 3.211 3.211 0 0 0-.976-4.436l-18.441-11.771a3.209 3.209 0 0 0-4.432.976 116.3 116.3 0 0 0-17.381 48.41H23.243a3.21 3.21 0 0 0-3.211 3.211v21.874a3.21 3.21 0 0 0 3.211 3.211zm3.21-21.875H57.5a3.211 3.211 0 0 0 3.2-2.9 109.9 109.9 0 0 1 15.022-45.743l13.033 8.319a93.13 93.13 0 0 0-12.447 36.732 3.209 3.209 0 0 0 3.187 3.592h40.334v15.454H79.5a3.209 3.209 0 0 0-3.187 3.592 93.13 93.13 0 0 0 12.447 36.732l-13.038 8.319A109.9 109.9 0 0 1 60.7 180.631a3.211 3.211 0 0 0-3.2-2.9H26.453zM170 152.561A17.439 17.439 0 1 0 187.439 170 17.459 17.459 0 0 0 170 152.561zm0 28.457A11.018 11.018 0 1 1 181.018 170 11.031 11.031 0 0 1 170 181.018z" fill="#3c3c4f" opacity="1" data-original="#3c3c4f" class=""></path></g></g></svg>