<svg xmlns="http://www.w3.org/2000/svg" version="1.1" xmlns:xlink="http://www.w3.org/1999/xlink" width="512" height="512" x="0" y="0" viewBox="0 0 340 340" style="enable-background:new 0 0 512 512" xml:space="preserve" class=""><g><linearGradient id="a" x1="232.089" x2="188.207" y1="31.318" y2="363.57" gradientUnits="userSpaceOnUse"><stop offset="0" stop-color="#ffd4ca"></stop><stop offset="1" stop-color="#ff9d9d"></stop></linearGradient><linearGradient id="b" x1="142.708" x2="147.495" y1="161.939" y2="200.537" gradientUnits="userSpaceOnUse"><stop offset="0" stop-color="#f78784"></stop><stop offset="1" stop-color="#dd5e5e"></stop></linearGradient><path fill="url(#a)" d="M202.239 28.46h108.924s-67.193 71.985-90.763 128.4c0 0-11.592 42.5 17.775 89.259 12.654 20.146 31.119 29.244 48.038 33.074 0 0 24.951.156 24.951 18.7a13.066 13.066 0 0 1-14.907 12.921 59.475 59.475 0 0 1-11.335-2.646 34.234 34.234 0 0 0-20.772-.639c-13.1 3.746-35.054 6.783-53.41-6.544a238.552 238.552 0 0 1-29.978-33.607 76.509 76.509 0 0 0-41.27-28.3c-14.9-4.076-31.9-11.476-38.49-24.65a43.153 43.153 0 0 1-4.594-18.548c-.343-15.869 9.187-30.269 23.631-36.85 9.772-4.452 22.1-11.367 28.1-19.951 10.014-14.295 54.1-110.619 54.1-110.619z" opacity="1" data-original="url(#a)" class=""></path><path fill="url(#b)" d="M151.054 173.31c-3.465 4.282-7.445 11.879-1.536 20.046a2.226 2.226 0 0 1-2.56 3.409c-5.578-2.012-9.692-7.868-9.1-15.217a12.919 12.919 0 0 1 11.291-11.88 2.228 2.228 0 0 1 1.905 3.642z" opacity="1" data-original="url(#b)" class=""></path><g fill="#3c3c4f"><path d="M156.508 172.126a3.1 3.1 0 0 0-3.849-4.851c-.378.3-9.262 7.443-9.261 17.36 0 5.949 3.116 11.43 9.261 16.294a3.1 3.1 0 0 0 3.843-4.857c-4.576-3.62-6.9-7.459-6.912-11.408-.02-6.897 6.832-12.464 6.918-12.538zM181.153 309.078A100.66 100.66 0 0 1 161.9 289.04a93.951 93.951 0 0 0-29.529-25.949 3.1 3.1 0 0 0-3.034 5.4 87.816 87.816 0 0 1 27.6 24.248A106.764 106.764 0 0 0 177.4 314a3.1 3.1 0 0 0 3.756-4.924zM116.43 262.536q.5.183 1 .373a3.1 3.1 0 0 0 2.2-5.79c-.35-.133-.7-.264-1.056-.4a3.1 3.1 0 1 0-2.137 5.812zM113.211 121.894a48.185 48.185 0 0 0 23.339-23.813l30.6-68.355a3.1 3.1 0 1 0-5.652-2.532L130.9 95.55a41.993 41.993 0 0 1-20.341 20.75c-21.444 10.165-56.882 33.971-53.293 79.2 2.124 26.767 18.5 48.228 47.343 62.063a3.1 3.1 0 0 0 2.678-5.585c-27.128-13.008-41.88-32.175-43.848-56.969-3.295-41.526 29.769-63.633 49.772-73.115z" fill="#00cb8a" opacity="1" data-original="#3c3c4f" class=""></path><path d="M114.615 285.676a76.185 76.185 0 0 0-9.863-6.688c-26.164-14.9-46.159-32.785-59.428-53.142a78.511 78.511 0 0 1-8.745-67.764c8.412-25.541 25.086-42.765 37.593-52.716a3.1 3.1 0 0 0-3.855-4.846C57.149 111 39.587 129.152 30.7 156.146a84.667 84.667 0 0 0 9.439 73.081c13.812 21.191 34.521 39.744 61.55 55.142a70 70 0 0 1 9.059 6.141c6.4 5.125 14.942 13.161 19.263 22.348a3.1 3.1 0 0 0 5.6-2.637c-4.825-10.261-14.081-19.011-20.996-24.545zM82.548 91.614q-.294.233-.593.46a3.1 3.1 0 0 0 3.763 4.918c.221-.17.442-.341.66-.513a3.1 3.1 0 1 0-3.83-4.865zM91.9 82.056a3.1 3.1 0 1 0 4.951 3.716 56.475 56.475 0 0 0 3.414-5.1l30.011-50.63a3.1 3.1 0 0 0-5.327-3.156L94.938 77.51a50.723 50.723 0 0 1-3.038 4.546zM29.507 107.37a3.081 3.081 0 0 0 1.17-.232C58.163 95.9 74.6 75.306 83.543 60.009c9.671-16.537 12.842-30.29 12.972-30.867a3.1 3.1 0 0 0-6.04-1.365c-.12.531-12.649 53.393-62.141 73.63a3.1 3.1 0 0 0 1.173 5.963zM59.716 280.678c-20.833-12.989-29.224-22.391-29.307-22.485a3.1 3.1 0 0 0-4.656 4.082c.355.407 8.96 10.111 30.687 23.657 25.55 15.932 28.331 26.171 28.339 26.193a3.1 3.1 0 1 0 6.08-1.171c-.243-1.263-3.185-12.843-31.143-30.276z" fill="#00cb8a" opacity="1" data-original="#3c3c4f" class=""></path><path d="M295.827 313.883a16.163 16.163 0 0 0 18.432-15.983c0-16.9-17.9-21.627-27.68-21.8-20.1-4.625-35.5-15.266-45.783-31.629-27.311-43.481-18.183-83.659-17.453-86.625 17.049-40.613 66.366-100.241 91.67-129.387h-8.25c-26.371 30.561-72.468 87.112-89.22 127.206a3.266 3.266 0 0 0-.131.379c-.488 1.79-11.608 44.36 18.14 91.72 11.24 17.894 28.053 29.484 49.976 34.448a3.058 3.058 0 0 0 .66.076c.893.008 21.878.377 21.878 15.607a9.969 9.969 0 0 1-11.382 9.854 55.947 55.947 0 0 1-10.737-2.5 37.167 37.167 0 0 0-22.649-.694c-13.834 3.956-33.828 6.122-50.614-5.982a239.582 239.582 0 0 1-29.434-33.035 79.918 79.918 0 0 0-42.942-29.438c-13.219-3.615-30.288-10.549-36.537-23.049A40.177 40.177 0 0 1 99.5 195.82a36.673 36.673 0 0 1 21.82-33.967c9.821-4.474 22.885-11.748 29.357-20.992 7.71-11.015 39.873-79.12 55.434-112.4h-6.841c-15.89 33.933-46.5 98.612-53.664 108.85-5.671 8.1-17.732 14.754-26.852 18.909a42.854 42.854 0 0 0-25.443 39.735 46.321 46.321 0 0 0 4.921 19.864c5.838 11.676 19.444 20.509 40.441 26.252a73.693 73.693 0 0 1 39.6 27.152 239.453 239.453 0 0 0 30.417 34.085c.074.066.152.128.231.186 19.821 14.391 43.645 10.573 56.081 7.016a31 31 0 0 1 18.9.583 62.21 62.21 0 0 0 11.925 2.79z" fill="#00cb8a" opacity="1" data-original="#3c3c4f" class=""></path></g></g></svg>