<svg xmlns="http://www.w3.org/2000/svg" version="1.1" xmlns:xlink="http://www.w3.org/1999/xlink" width="512" height="512" x="0" y="0" viewBox="0 0 340 340" style="enable-background:new 0 0 512 512" xml:space="preserve" class=""><g><linearGradient id="a" x1="170.003" x2="170.003" y1="44.091" y2="338.427" gradientUnits="userSpaceOnUse"><stop offset="0" stop-color="#ffd580"></stop><stop offset="1" stop-color="#ff5ba3"></stop></linearGradient><linearGradient xlink:href="#a" id="b" x1="80.857" x2="80.857" y1="44.091" y2="338.427"></linearGradient><linearGradient xlink:href="#a" id="c" x1="127.908" x2="127.908" y1="44.091" y2="338.427"></linearGradient><linearGradient xlink:href="#a" id="d" x1="189.726" x2="189.726" y1="44.091" y2="338.427"></linearGradient><path fill="url(#a)" d="M276.982 222.569a40.925 40.925 0 0 1-4.157 2.338c-5.5 2.666-12.062-.42-13.164-6.273-1.192-6.327-.727-16.58 5.733-32.416 0 0 15.083-44.626.181-79.824-6.221-14.693-27.478-14.739-33.657-.029a53.836 53.836 0 0 0-3.312 11.872 9.066 9.066 0 0 1-9.154 7.53 8.939 8.939 0 0 1-8.119-5.638c-2.1-5.462-6.148-14.838-11.421-21.745a11.694 11.694 0 0 0-13.041-3.884l-.416.142a11.21 11.21 0 0 0-7.63 10.115c-.237 5.222-2.215 11.559-10.108 12.9a15.455 15.455 0 0 1-10.515-2.027c-4.046-2.444-9.253-7.394-10.516-16.985-.826-6.279-1.287-12.382-1.541-17.5a14.608 14.608 0 0 0-28.954-1.772 247.225 247.225 0 0 0-2.974 34.689A10.233 10.233 0 0 1 103.8 124a10.568 10.568 0 0 1-8.358-4.059 69.678 69.678 0 0 1-5.032-7.441c-2.905-4.959-10.7-3.475-11.454 2.178a205.66 205.66 0 0 0-1.687 27.937 28.192 28.192 0 0 1-6.1 17.492c-7.412 9.469-18.435 28.738-16.8 58.254 0 0 .456 11.4 8.263 26.325a7.762 7.762 0 0 0 11.927 2.135c2.948-2.621 7.088-4.212 12.9-3.322 10.455 1.6 19.56 10.353 25.57 17.784a6.406 6.406 0 0 1-4.292 10.365c-.114.015-.228.03-.342.047a8.224 8.224 0 0 0-3.061 15.356 157.8 157.8 0 0 0 20.418 9.751 84.338 84.338 0 0 1 9.468 4.456 84.61 84.61 0 0 0 39.6 10.284c13.91 0 25.149-5.7 32.451-10.835a82.633 82.633 0 0 1 22.345-10.864c16.295-5.232 43.564-19.972 55.934-61.065 1.481-4.901-4.164-9.017-8.568-6.209zm-30.005-79.34c-4.753 0-8.607-4.511-8.607-10.075s3.854-10.075 8.607-10.075 8.608 4.51 8.608 10.075-3.854 10.075-8.608 10.075z" opacity="1" data-original="url(#a)"></path><path fill="#ffffff" d="M236.745 192.877a51.341 51.341 0 0 0-30.557-42.464 89.141 89.141 0 0 0-70.119 0 51.341 51.341 0 0 0-30.557 42.464c-.806 8.74-.991 18.383.669 26.074 2.752 12.744 15.057 21.2 22.806 25.363a14.371 14.371 0 0 1 7.426 10.913l1.271 10.268a9.273 9.273 0 0 0 4.876 7.058c.317.168.636.331.954.489a4.254 4.254 0 0 0 6.121-3.834v-.989a5.6 5.6 0 0 1 11.154-.695l.849 6.788a4.871 4.871 0 0 0 4.635 4.26 44.336 44.336 0 0 0 4.856-.033 44.311 44.311 0 0 0 4.855.033 4.871 4.871 0 0 0 4.635-4.26l.849-6.788a5.6 5.6 0 0 1 11.154.695v.989a4.254 4.254 0 0 0 6.121 3.834c.318-.158.637-.321.954-.489a9.273 9.273 0 0 0 4.876-7.058l1.271-10.268a14.371 14.371 0 0 1 7.426-10.913c7.749-4.165 20.054-12.619 22.806-25.363 1.66-7.691 1.475-17.334.669-26.074zm-88.818 30.781c-12.225 4.784-19.964-4.241-22.321-12.629-2.333-8.306 1.3-17.3 9.058-21.074 3.676-1.788 8.346-2.481 14.079-.518a17.662 17.662 0 0 1 11.262 11.883c1.955 6.96 1.725 16.937-12.078 22.338zm29.859 21.867a30.119 30.119 0 0 1-13.315 0c-3.051-.8-4.551-5.512-2.908-9.051a29.864 29.864 0 0 1 5.778-8.627 5.084 5.084 0 0 1 7.575 0 29.864 29.864 0 0 1 5.778 8.627c1.643 3.539.143 8.253-2.908 9.051zm38.865-34.5c-2.357 8.388-10.1 17.413-22.321 12.629-13.8-5.4-14.033-15.378-12.078-22.338a17.662 17.662 0 0 1 11.262-11.883c5.733-1.963 10.4-1.27 14.079.518 7.757 3.779 11.391 12.772 9.058 21.078z" opacity="1" data-original="#ffffff"></path><ellipse cx="80.857" cy="78.856" fill="url(#b)" rx="9.633" ry="10.661" opacity="1" data-original="url(#b)"></ellipse><ellipse cx="127.908" cy="39.121" fill="url(#c)" rx="9.633" ry="10.661" opacity="1" data-original="url(#c)" class=""></ellipse><ellipse cx="189.726" cy="62.754" fill="url(#d)" rx="9.633" ry="12.972" opacity="1" data-original="url(#d)"></ellipse><g fill="#3c3c4f"><path d="M285.437 220.384a8.8 8.8 0 0 0-10.119-.425 38.308 38.308 0 0 1-3.843 2.162 6.374 6.374 0 0 1-5.687-.018 5.7 5.7 0 0 1-3.085-4.042c-1-5.323-.851-14.964 5.558-30.673.024-.059.046-.119.066-.178.632-1.868 15.286-46.154.1-82.023a21.036 21.036 0 0 0-19.72-12.93h-.032a20.921 20.921 0 0 0-19.61 12.909 57.184 57.184 0 0 0-3.51 12.554 5.975 5.975 0 0 1-6 4.953 5.843 5.843 0 0 1-5.33-3.657c-2.029-5.269-6.268-15.2-11.849-22.51a14.724 14.724 0 0 0-16.5-4.941l-.416.141a14.263 14.263 0 0 0-9.724 12.905c-.367 8.089-4.906 9.361-6.509 9.769-8.329 1.678-15.146-2.784-17.377-11.383a2.569 2.569 0 0 0-.059-.2 24.546 24.546 0 0 1-1.031-4.559c-.706-5.362-1.217-11.166-1.519-17.253a17.751 17.751 0 0 0-16.784-16.675A17.469 17.469 0 0 0 114.13 78.9a251.372 251.372 0 0 0-3.009 35.138 7.147 7.147 0 0 1-7.32 6.87 7.507 7.507 0 0 1-5.911-2.859 66.52 66.52 0 0 1-4.809-7.112 9.182 9.182 0 0 0-9.89-4.346 9.012 9.012 0 0 0-7.3 7.682 209.257 209.257 0 0 0-1.715 28.359 25.241 25.241 0 0 1-5.44 15.57c-7.254 9.266-19.165 29.425-17.451 60.286.019.494.575 12.274 8.613 27.636a10.857 10.857 0 0 0 16.727 3.014c2.689-2.391 6.083-3.236 10.371-2.575 9.574 1.467 18.135 9.875 23.631 16.67a3.167 3.167 0 0 1 .495 3.231 3.431 3.431 0 0 1-2.819 2.121l-.353.05a11.406 11.406 0 0 0-9.745 9.188 11.211 11.211 0 0 0 5.6 11.918 161.665 161.665 0 0 0 20.818 9.943 81.53 81.53 0 0 1 9.121 4.293 87.484 87.484 0 0 0 41.091 10.664c14.894 0 26.836-6.2 34.232-11.4a79.573 79.573 0 0 1 21.511-10.45 82.7 82.7 0 0 0 10.581-4.231c11.12-5.2 20.919-13.137 29.954-24.279l.038-.048a105.147 105.147 0 0 0 17.379-34.563 8.493 8.493 0 0 0-3.093-9.286zm-2.845 7.5a99.037 99.037 0 0 1-16.315 32.516c-8.427 10.385-17.5 17.761-27.783 22.563a76.526 76.526 0 0 1-9.819 3.93 85.72 85.72 0 0 0-23.175 11.28c-6.664 4.686-17.4 10.271-30.67 10.271a81.189 81.189 0 0 1-38.118-9.9 87.808 87.808 0 0 0-9.816-4.62 155.629 155.629 0 0 1-20.019-9.557 4.973 4.973 0 0 1-2.588-5.393 5.219 5.219 0 0 1 4.552-4.213l.3-.042a9.535 9.535 0 0 0 7.727-5.959 9.312 9.312 0 0 0-1.432-9.422c-6.183-7.645-15.975-17.129-27.507-18.9a24.149 24.149 0 0 0-3.639-.287 17.175 17.175 0 0 0-11.785 4.356 4.586 4.586 0 0 1-3.907 1.057 4.5 4.5 0 0 1-3.219-2.313c-7.346-14.041-7.908-24.912-7.914-25.061-1.6-28.885 9.425-47.594 16.142-56.175a31.455 31.455 0 0 0 6.758-19.415 203.012 203.012 0 0 1 1.661-27.516 2.88 2.88 0 0 1 2.389-2.426 3.046 3.046 0 0 1 3.323 1.405A72.556 72.556 0 0 0 93 121.838a13.744 13.744 0 0 0 10.8 5.262 13.354 13.354 0 0 0 13.513-13.02 244.989 244.989 0 0 1 2.937-34.241 11.278 11.278 0 0 1 11.912-9.341 11.5 11.5 0 0 1 10.889 10.8c.311 6.252.837 12.225 1.565 17.752a30.826 30.826 0 0 0 1.262 5.611c3.116 11.828 13.007 18.167 24.656 15.779l.14-.032c6.876-1.745 10.869-7.253 11.244-15.508a8.1 8.1 0 0 1 5.536-7.326l.416-.142a8.658 8.658 0 0 1 9.58 2.838c5.113 6.7 9.082 16.019 10.993 20.978a12.019 12.019 0 0 0 10.909 7.621 12.17 12.17 0 0 0 12.306-10.107 51.057 51.057 0 0 1 3.114-11.191 14.863 14.863 0 0 1 13.909-9.115h.021a14.978 14.978 0 0 1 14.021 9.151c13.963 32.982.462 75.406-.237 77.547-5.572 13.691-7.547 25.149-5.869 34.059a11.844 11.844 0 0 0 6.383 8.42 12.521 12.521 0 0 0 11.174.061 44.258 44.258 0 0 0 4.472-2.514 2.615 2.615 0 0 1 3.053.142 2.3 2.3 0 0 1 .893 2.561z" fill="#3c3c4f" opacity="1" data-original="#3c3c4f" class=""></path><path d="M246.977 119.982c-6.453 0-11.7 5.909-11.7 13.171s5.25 13.172 11.7 13.172 11.7-5.909 11.7-13.172-5.246-13.171-11.7-13.171zm0 20.151c-3.038 0-5.511-3.131-5.511-6.98s2.473-6.978 5.511-6.978 5.512 3.131 5.512 6.978-2.473 6.98-5.512 6.98zM207.425 147.574a92.246 92.246 0 0 0-72.593 0 54.487 54.487 0 0 0-32.4 45.018c-1.014 11-.77 20.086.726 27.012 3.047 14.116 16.575 23.249 24.366 27.437a11.287 11.287 0 0 1 5.819 8.565l1.271 10.269a12.377 12.377 0 0 0 6.505 9.417c.34.18.681.355 1.02.523a7.351 7.351 0 0 0 10.6-6.608v-.989a2.5 2.5 0 0 1 4.985-.309l.848 6.787a7.937 7.937 0 0 0 7.585 6.97c2.55.1 4.341.016 4.979-.024.415.026 1.324.072 2.613.072.686 0 1.48-.013 2.364-.048a7.937 7.937 0 0 0 7.586-6.97l.848-6.787a2.5 2.5 0 0 1 4.985.309v.989a7.351 7.351 0 0 0 10.594 6.609q.512-.253 1.024-.525a12.377 12.377 0 0 0 6.5-9.416l1.271-10.269a11.288 11.288 0 0 1 5.818-8.565c7.792-4.188 21.32-13.321 24.367-27.437 1.5-6.926 1.74-16.014.726-27.012a54.487 54.487 0 0 0-32.407-45.018zm25.624 70.726c-2.522 11.684-14.394 19.606-21.245 23.288a17.493 17.493 0 0 0-9.033 13.26l-1.271 10.266a6.181 6.181 0 0 1-3.247 4.7c-.295.155-.59.306-.889.455a1.081 1.081 0 0 1-1.083-.058 1.165 1.165 0 0 1-.563-1v-.989a8.7 8.7 0 0 0-17.318-1.082l-.848 6.787a1.764 1.764 0 0 1-1.687 1.551 42.606 42.606 0 0 1-4.478-.025 3.542 3.542 0 0 0-.502 0 42.8 42.8 0 0 1-4.484.025 1.764 1.764 0 0 1-1.686-1.551l-.848-6.787a8.7 8.7 0 0 0-17.323 1.078v.989a1.165 1.165 0 0 1-.563 1 1.081 1.081 0 0 1-1.086.056q-.444-.22-.885-.452a6.183 6.183 0 0 1-3.248-4.7l-1.271-10.268a17.493 17.493 0 0 0-9.033-13.26c-6.851-3.682-18.723-11.6-21.245-23.288-1.363-6.31-1.569-14.768-.612-25.137a48.292 48.292 0 0 1 28.709-39.909 86.041 86.041 0 0 1 67.647 0 48.292 48.292 0 0 1 28.709 39.909c.952 10.372.746 18.83-.617 25.142z" fill="#3c3c4f" opacity="1" data-original="#3c3c4f" class=""></path><path d="M162.986 200.483a20.705 20.705 0 0 0-13.24-13.976c-5.871-2.011-11.4-1.786-16.436.664a20.978 20.978 0 0 0-10.685 24.7c1.821 6.478 5.979 11.876 11.125 14.437a16.916 16.916 0 0 0 7.614 1.774 21.128 21.128 0 0 0 7.691-1.535c12.168-4.767 17.245-14.265 13.931-26.064zM146.8 220.774c-3.812 1.492-7.274 1.487-10.289-.014-3.6-1.795-6.567-5.746-7.922-10.568a14.793 14.793 0 0 1 7.432-17.453 13.653 13.653 0 0 1 6.041-1.382 17.517 17.517 0 0 1 5.68 1.009 14.51 14.51 0 0 1 9.284 9.791c2.453 8.743-.988 15.002-10.226 18.617zM208.947 187.171c-5.035-2.45-10.564-2.673-16.436-.664a20.705 20.705 0 0 0-13.24 13.976c-3.314 11.8 1.763 21.3 13.931 26.059a21.132 21.132 0 0 0 7.691 1.535 16.929 16.929 0 0 0 7.614-1.774c5.146-2.561 9.3-7.959 11.125-14.437a20.978 20.978 0 0 0-10.685-24.695zm4.723 23.021c-1.355 4.822-4.316 8.773-7.922 10.568-3.016 1.5-6.477 1.507-10.289.014-9.24-3.615-12.681-9.878-10.226-18.617a14.51 14.51 0 0 1 9.284-9.791 14.422 14.422 0 0 1 19.153 17.826zM183.5 235.169a33.116 33.116 0 0 0-6.394-9.509 8.17 8.17 0 0 0-11.958 0 33.089 33.089 0 0 0-6.4 9.51 10.914 10.914 0 0 0 .035 9.028 7.615 7.615 0 0 0 4.9 4.322 33.166 33.166 0 0 0 14.882 0 7.616 7.616 0 0 0 4.9-4.323 10.914 10.914 0 0 0 .035-9.028zm-5.636 6.391a1.759 1.759 0 0 1-.864.97 27.131 27.131 0 0 1-11.748 0 1.755 1.755 0 0 1-.863-.969 4.713 4.713 0 0 1-.02-3.782 27.024 27.024 0 0 1 5.162-7.745 2.017 2.017 0 0 1 3.191 0 27.032 27.032 0 0 1 5.162 7.744 4.712 4.712 0 0 1-.018 3.782zM80.857 92.613c7.019 0 12.729-6.171 12.729-13.757S87.876 65.1 80.857 65.1s-12.73 6.171-12.73 13.757 5.711 13.756 12.73 13.756zm0-21.322c3.6 0 6.537 3.393 6.537 7.565s-2.933 7.564-6.537 7.564-6.537-3.393-6.537-7.564 2.932-7.565 6.537-7.565zM140.637 39.121c0-7.585-5.71-13.757-12.729-13.757s-12.73 6.172-12.73 13.757 5.711 13.757 12.73 13.757 12.729-6.171 12.729-13.757zm-19.266 0c0-4.171 2.932-7.565 6.537-7.565s6.537 3.394 6.537 7.565-2.933 7.565-6.537 7.565-6.537-3.394-6.537-7.565zM189.726 78.822c7.019 0 12.73-7.208 12.73-16.068s-5.711-16.068-12.73-16.068S177 53.894 177 62.754s5.707 16.068 12.726 16.068zm0-25.944c3.544 0 6.537 4.522 6.537 9.876s-2.993 9.875-6.537 9.875-6.537-4.522-6.537-9.875 2.994-9.876 6.537-9.876z" fill="#3c3c4f" opacity="1" data-original="#3c3c4f" class=""></path></g></g></svg>