<svg xmlns="http://www.w3.org/2000/svg" version="1.1" xmlns:xlink="http://www.w3.org/1999/xlink" width="512" height="512" x="0" y="0" viewBox="0 0 340 340" style="enable-background:new 0 0 512 512" xml:space="preserve" class=""><g><linearGradient id="b" x1="178.822" x2="178.822" y1="22.448" y2="360.563" gradientUnits="userSpaceOnUse"><stop offset="0" stop-color="#ffa6a8"></stop><stop offset="1" stop-color="#ea5cab"></stop></linearGradient><linearGradient id="c" x1="177.272" x2="177.272" y1="259.664" y2="131.099" gradientUnits="userSpaceOnUse"><stop offset="0" stop-color="#c0c7ff"></stop><stop offset="1" stop-color="#eef1ff"></stop></linearGradient><linearGradient id="a" x1="156.689" x2="156.689" y1="277.894" y2="140.38" gradientUnits="userSpaceOnUse"><stop offset="0" stop-color="#6a73ff"></stop><stop offset="1" stop-color="#989dff"></stop></linearGradient><linearGradient xlink:href="#a" id="d" x1="197.855" x2="197.855" y1="277.894" y2="140.38"></linearGradient><linearGradient xlink:href="#b" id="e" x1="40.993" x2="40.993" y1="22.448" y2="360.563"></linearGradient><linearGradient xlink:href="#b" id="f" x1="298.605" x2="298.605" y1="22.448" y2="360.563"></linearGradient><linearGradient xlink:href="#a" id="g" x1="177.272" x2="177.272" y1="270.472" y2="142.61"></linearGradient><path fill="url(#b)" d="M68.008 215.1a3.4 3.4 0 0 0-5.568 1.179c-7.384 19.452-22.652 88.085 121.831 102.394 0 0 108.345 12.4 115.338-98.965a3.391 3.391 0 0 0-5.577-2.817c-7.843 6.649-21.964 15.1-32.807 1.981-9.91-11.983-2.1-29.36 5.145-40.708a78.339 78.339 0 0 0 12.284-50.34c-2.473-23.275-15.02-50.546-56.863-62.283a3.378 3.378 0 0 0-4.275 3.246c-.049 8.117-1.943 24.947-16.42 28.723-14.172 3.7-27.591-8.25-26.343-22.842.475-5.55 2.2-12.415 5.872-20.891a30.647 30.647 0 0 0-1.87-28.083 3.375 3.375 0 0 0-5.893.358c-3.782 7.846-13.451 22.525-34.789 29.11 0 0-71.531 20.7-73.006 83.91-.434 18.628 8.168 33.328 20.519 44.808a29.171 29.171 0 0 1 7.367 10.652c1.955 4.983 2.9 11.513-1.012 17.866a15.079 15.079 0 0 1-22.047 4.337 21.04 21.04 0 0 1-1.886-1.635z" opacity="1" data-original="url(#b)"></path><path fill="#ffffff" d="M150.82 238.032s-12.276 19.549 9.615 35.911a1.269 1.269 0 0 0 2.012-1.18c-.664-5.178-1.434-16.278 2.435-25.177zM203.724 238.032s12.276 19.549-9.616 35.911a1.268 1.268 0 0 1-2.011-1.18c.663-5.178 1.433-16.278-2.436-25.177z" opacity="1" data-original="#ffffff"></path><path fill="url(#c)" d="M200.614 141.685a47.246 47.246 0 0 0-46.684 0c-25.533 14.486-30.878 37.094-29.313 53.961 1.447 15.6 11.791 23.922 18.365 27.688a10.807 10.807 0 0 1 5.461 9.375v6.75a8.063 8.063 0 0 0 4.272 7.22c5.194 2.65 12.168.907 12.168.907 5.891 9.924 19.971 9.783 24.778 0 0 0 6.973 1.743 12.167-.907a8.062 8.062 0 0 0 4.273-7.22v-6.75a10.8 10.8 0 0 1 5.458-9.374c6.574-3.765 16.92-12.092 18.367-27.689 1.565-16.867-3.779-39.475-29.312-53.961z" opacity="1" data-original="url(#c)"></path><path fill="url(#a)" d="M144.971 196.9c3.225 4.42 8.8 8.09 18.366 6.347a8.553 8.553 0 0 0 6.935-8.451 8.583 8.583 0 0 0-1.556-4.942c-2.483-3.53-8.017-9.291-17.176-8.153a9.6 9.6 0 0 0-6.569 15.199z" opacity="1" data-original="url(#a)"></path><path fill="url(#a)" d="M209.572 196.9c-3.224 4.42-8.8 8.09-18.366 6.347a8.554 8.554 0 0 1-6.935-8.451 8.584 8.584 0 0 1 1.557-4.942c2.482-3.53 8.016-9.291 17.175-8.153a9.6 9.6 0 0 1 6.569 15.199z" opacity="1" data-original="url(#a)"></path><path fill="url(#b)" d="M31.253 159.716a3.1 3.1 0 0 1 4.378-1.452c5.81 3.336 18.3 12.07 19.149 25.9.446 7.227-2.427 11.029-6.035 12.988-6.638 3.605-14.93.669-18.34-6.071-3.293-6.508-5.589-17.032.848-31.365z" opacity="1" data-original="url(#b)"></path><path fill="url(#b)" d="M295.858 32.667c-6 7.4-19.975 28.224-4.519 46.251a10.4 10.4 0 0 0 16.672-1.13c5.708-8.852 9.664-24.245-7.373-45.135a3.086 3.086 0 0 0-4.78.014z" opacity="1" data-original="url(#b)"></path><path fill="url(#a)" d="M182.531 153.122a6.213 6.213 0 0 0-10.518 0 21.576 21.576 0 0 0-3.477 11.429 14.367 14.367 0 0 0 2.832 8.983 7.414 7.414 0 0 0 11.807 0 14.367 14.367 0 0 0 2.833-8.983 21.576 21.576 0 0 0-3.477-11.429z" opacity="1" data-original="url(#a)"></path><path fill="#ffffff" d="M142.025 147.068c-5.608.047-14.838-1.619-15.675-12.926 0 0-.968-6.451 8.634-13.874a10.493 10.493 0 0 0 3.958-10.347 14.9 14.9 0 0 0-6.388-9.615 1.35 1.35 0 0 0-2.121 1.191 10.022 10.022 0 0 1-5 9.445s-14.834 6.752-23.958 25.305a32.082 32.082 0 0 0 2.738 23.12l24.251 6.372c8.171-1.072 11.421-9.088 13.561-18.671zM212.519 147.068c5.608.047 14.837-1.619 15.675-12.926 0 0 .968-6.451-8.634-13.874a10.494 10.494 0 0 1-3.959-10.347 14.9 14.9 0 0 1 6.389-9.615 1.35 1.35 0 0 1 2.121 1.191 10.018 10.018 0 0 0 5 9.445s14.834 6.752 23.958 25.305c2.59 14.29-2.013 23.823-13.9 28.541a43.329 43.329 0 0 1-28.817-8.084z" opacity="1" data-original="#ffffff"></path><path fill="#f7dce9" d="M146.3 146.686a24.978 24.978 0 0 1-4.276.38c-2.894 7.139-8.189 13.073-17.657 14.343-17.007 2.28-21.714-13.411-22.885-25.159a62.484 62.484 0 0 0-1.516 3.307 25.841 25.841 0 0 0 1.29 22.958c3.8 6.551 10.9 13.624 24.178 16.8.001-.004 27.906-10.603 20.866-32.629zM253.061 136.25c-1.172 11.748-5.878 27.439-22.886 25.159-9.467-1.27-14.762-7.2-17.656-14.343a24.962 24.962 0 0 1-4.276-.38c-7.039 22.026 20.866 32.625 20.866 32.625 13.275-3.172 20.378-10.245 24.177-16.8a25.844 25.844 0 0 0 1.291-22.958 63.845 63.845 0 0 0-1.516-3.303z" opacity="1" data-original="#f7dce9"></path><g fill="#3c3c4f"><path d="M301.112 208.023a3.332 3.332 0 0 0-3.7.954c-.115.136-11.61 13.465-22.781 13.465h-.105c-4.086-.031-7.6-1.891-10.736-5.686-8.45-10.219-1.735-25.653 5.386-36.8a81.987 81.987 0 0 0 12.788-52.481c-2.531-23.81-15.658-54.644-63.83-66.322a3.325 3.325 0 0 0-4.088 3.579c.026.253 2.449 25.33-13.784 29.565a17.286 17.286 0 0 1-15.669-3.626 18.528 18.528 0 0 1-6.524-15.716c.488-5.707 2.376-12.387 5.611-19.855a33.566 33.566 0 0 0 2.22-19.9 31.723 31.723 0 0 0-8.6-16.672 3.328 3.328 0 0 0-5.549 1.447c-.273.954-6.993 23.48-34.6 32A132.315 132.315 0 0 0 93.308 76.09l-.09.079c-6.588 5.982-14.772 13.944-19.656 22.509A79.458 79.458 0 0 0 61.744 139c-.413 17.707 6.847 33.628 21.58 47.319a26 26 0 0 1 6.534 9.431c2.177 5.548 1.925 10.564-.748 14.91a12.17 12.17 0 0 1-8.11 5.619 11.366 11.366 0 0 1-9.085-2.184 21.014 21.014 0 0 1-4.474-4.843 3.323 3.323 0 0 0-5.664.3c-.641 1.182-15.509 29.291-.274 58 15.723 29.629 56.918 47.943 122.391 54.427a97.05 97.05 0 0 0 10.272.468c16.514 0 49.6-3.148 75.256-25.631 7.878-6.695 14.578-15.26 20.478-26.187l.023-.043c8.5-16.288 12.985-36.274 13.338-59.4a3.321 3.321 0 0 0-2.149-3.163zm-17.071 59.468c-5.5 10.177-11.7 18.113-18.963 24.291-32.661 28.618-79.958 23.643-80.478 23.585-34.58-3.424-62.42-10.271-82.746-20.349-16.4-8.13-27.987-18.395-34.439-30.51-10.173-19.1-5.084-38.466-1.819-47.119a24.245 24.245 0 0 0 2.279 1.985 17.955 17.955 0 0 0 14.335 3.443 18.836 18.836 0 0 0 12.563-8.677c3.773-6.133 4.214-13.333 1.275-20.822a32.681 32.681 0 0 0-8.2-11.873c-13.278-12.34-19.825-26.57-19.459-42.293a72.9 72.9 0 0 1 10.863-37.036l.06-.1c4.405-7.748 12.1-15.226 18.33-20.883a127.9 127.9 0 0 1 41.411-22.79c22.659-6.994 32.853-22.507 36.86-30.919a27.319 27.319 0 0 1 1.661 25.035c-3.521 8.128-5.585 15.506-6.134 21.93a25.184 25.184 0 0 0 8.86 21.363 23.854 23.854 0 0 0 21.632 4.977c16.8-4.382 18.9-23.1 18.918-32 32.954 9.209 51.28 29.192 54.5 59.447a75.315 75.315 0 0 1-11.78 48.2c-11.918 18.657-13.615 34.085-4.906 44.616 4.41 5.333 9.735 8.057 15.828 8.1h.133c8.426 0 16.427-5.294 21.676-9.758-1.157 18.578-5.269 34.749-12.26 48.157z" fill="#3c3c4f" opacity="1" data-original="#3c3c4f"></path><path d="M151.13 178.4a12.92 12.92 0 0 0-8.844 20.457 19.409 19.409 0 0 0 16.387 8.157 29.373 29.373 0 0 0 5.26-.5 11.623 11.623 0 0 0 3-.984 7.159 7.159 0 0 1-5.367 6.89l-.185.046a3.323 3.323 0 1 0 1.548 6.464l.219-.053a13.805 13.805 0 0 0 10.452-13.488v-10.6a11.843 11.843 0 0 0-2.161-6.854c-2.918-4.141-9.439-10.887-20.309-9.535zm11.611 21.575c-6.777 1.233-11.711-.412-15.084-5.036A6.271 6.271 0 0 1 151.95 185c7.056-.891 11.535 3.194 14.047 6.768a5.294 5.294 0 0 1-3.256 8.209zM203.413 178.4c-10.875-1.351-17.39 5.4-20.3 9.54a11.849 11.849 0 0 0-2.162 6.854v10.6a13.812 13.812 0 0 0 10.457 13.49l.207.049a3.323 3.323 0 0 0 1.548-6.464l-.173-.042a7.164 7.164 0 0 1-5.379-6.894 11.623 11.623 0 0 0 3 .984 29.373 29.373 0 0 0 5.26.5 19.412 19.412 0 0 0 16.387-8.157 12.921 12.921 0 0 0-8.845-20.457zm3.474 16.539c-3.373 4.624-8.305 6.269-15.084 5.036a5.3 5.3 0 0 1-3.257-8.21c2.278-3.238 6.169-6.888 12.137-6.888a15.273 15.273 0 0 1 1.91.121 6.272 6.272 0 0 1 4.294 9.941z" fill="#3c3c4f" opacity="1" data-original="#3c3c4f"></path><path d="M256.162 164.183a29.266 29.266 0 0 0 1.476-25.923c-8.821-20.913-24.743-29.183-26.926-30.236a7.059 7.059 0 0 1-3-8.11 3.324 3.324 0 0 0-4.572-4.078 18.564 18.564 0 0 0-10.793 13.432 13.729 13.729 0 0 0 5.181 13.627c7.329 5.664 7.4 10.22 7.374 10.8a1.042 1.042 0 0 0-.018.2c-.255 3.436-1.405 5.889-3.516 7.5-3.84 2.926-9.831 2.405-11.8 2.136a74.07 74.07 0 0 0-7.311-4.737 50.87 50.87 0 0 0-49.964 0 73.921 73.921 0 0 0-7.312 4.738c-1.979.271-7.961.787-11.8-2.138-2.112-1.609-3.262-4.062-3.517-7.5a.98.98 0 0 0-.017-.2c-.024-.582.045-5.137 7.373-10.8a13.726 13.726 0 0 0 5.181-13.627 18.559 18.559 0 0 0-10.793-13.432 3.334 3.334 0 0 0-4.582 4.047 7.066 7.066 0 0 1-2.995 8.141c-2.183 1.053-18.105 9.323-26.925 30.236a29.262 29.262 0 0 0 1.476 25.923c3.453 5.954 10.257 13.619 23.274 17.544a60.71 60.71 0 0 0-.349 14.226c1.6 17.273 13.233 26.376 20.023 30.265a7.512 7.512 0 0 1 3.789 6.491v6.75a11.947 11.947 0 0 0 .318 2.722c-2.08 6.74-4.368 23.053 15.632 36.266a4.631 4.631 0 0 0 3.688-.016 3.364 3.364 0 0 0 1.4-3.413 61.581 61.581 0 0 1-.851-13.762 54.6 54.6 0 0 1 .906-6.723A18.709 18.709 0 0 0 177.2 258.3h.153a18.681 18.681 0 0 0 11.025-3.8 53.591 53.591 0 0 1 .83 6.224 61.639 61.639 0 0 1-.818 14.292 3.181 3.181 0 0 0 1.4 3.415 4.188 4.188 0 0 0 3.691.017c20-13.213 17.712-29.527 15.632-36.266a11.947 11.947 0 0 0 .318-2.722v-6.75a7.508 7.508 0 0 1 3.787-6.489c6.79-3.89 18.421-12.994 20.024-30.267a60.71 60.71 0 0 0-.349-14.226c13.007-3.928 19.816-11.591 23.269-17.545zm-152.029-3.336a22.579 22.579 0 0 1-1.1-20c8.229-19.51 23.633-26.809 23.78-26.876a3.516 3.516 0 0 0 .373-.2 13.321 13.321 0 0 0 6.177-8.25 11.657 11.657 0 0 1 2.323 5.065 7.122 7.122 0 0 1-2.731 7.052c-10.32 7.977-10.072 15.4-9.914 16.832.414 5.345 2.48 9.463 6.144 12.24 4.724 3.579 10.915 3.856 14.611 3.618 2.773 15.213-14.315 23.635-18.614 25.5-9.675-2.538-16.753-7.572-21.049-14.981zm54.554 107.292c-6.742-6.438-8.385-13.087-7.93-18.748a17.6 17.6 0 0 0 9.33 2.081 60.593 60.593 0 0 0-1.415 9.4 66.129 66.129 0 0 0 .015 7.267zm37.17 0a65.509 65.509 0 0 0-.02-7.845 57.17 57.17 0 0 0-1.322-8.822 20.768 20.768 0 0 0 9.271-2.081c.456 5.661-1.186 12.309-7.929 18.748zm30.76-72.8c-1.326 14.282-11.038 21.864-16.71 25.112a14.173 14.173 0 0 0-7.13 12.258v6.75a4.757 4.757 0 0 1-2.46 4.259 14.268 14.268 0 0 1-7.332 1.023v-8.3a3.324 3.324 0 0 0-6.648 0v10.307c-2.75 4.908-8.751 4.876-8.975 4.9h-.159c-.262-.015-6.249.011-9-4.9v-10.302a3.324 3.324 0 0 0-6.648 0v8.3a14.287 14.287 0 0 1-7.333-1.023 4.756 4.756 0 0 1-2.459-4.259v-6.75a14.177 14.177 0 0 0-7.133-12.26c-5.671-3.248-15.382-10.829-16.707-25.11a53.916 53.916 0 0 1 .453-13.646c10.345-4.52 25.689-16.223 21.719-33.664a68.362 68.362 0 0 1 5.471-3.453 44.2 44.2 0 0 1 43.4 0 68.72 68.72 0 0 1 5.471 3.453c-3.97 17.441 11.374 29.145 21.719 33.664a53.914 53.914 0 0 1 .461 13.641zm2.741-19.516c-4.3-1.849-21.407-10.23-18.611-25.5 3.694.234 9.888-.039 14.612-3.618 3.664-2.777 5.731-6.895 6.144-12.241.158-1.431.405-8.855-9.914-16.831a7.124 7.124 0 0 1-2.731-7.052 11.67 11.67 0 0 1 2.324-5.065 13.318 13.318 0 0 0 6.177 8.25 3.369 3.369 0 0 0 .365.2c.154.071 15.559 7.37 23.788 26.88a22.579 22.579 0 0 1-1.1 20c-4.298 7.412-11.378 12.446-21.054 14.977zM58.1 183.959c-1.225-19.85-23.115-29.852-24.046-30.268a3.324 3.324 0 0 0-4.31 1.51c-8.855 17.158-6.14 29.8-2.3 37.382a17.337 17.337 0 0 0 10.243 8.685 16.624 16.624 0 0 0 4.958.764 16.066 16.066 0 0 0 7.691-1.959c3.864-2.1 8.349-6.601 7.764-16.114zm-10.941 10.272a9.6 9.6 0 0 1-7.5.692 10.655 10.655 0 0 1-6.291-5.342c-2.917-5.765-4.981-15.22.826-28.306 5.376 3.124 16.52 11.017 17.266 23.094.305 4.899-1.103 8.124-4.301 9.862zM298.368 26.561a3.347 3.347 0 0 0-2.459 1c-9.77 9.977-23.827 34-7.1 53.52a13.632 13.632 0 0 0 10.42 4.817c.318 0 .638-.01.959-.032a13.626 13.626 0 0 0 10.616-6.277c5.65-8.764 11.86-27.161-10.034-51.9a3.325 3.325 0 0 0-2.402-1.128zm6.851 49.423a7.082 7.082 0 0 1-11.359.768c-13.78-16.076-1.287-34.81 4.379-41.779 15.305 18.895 12.367 32.657 6.98 41.011z" fill="#3c3c4f" opacity="1" data-original="#3c3c4f"></path><path d="M185.816 175.553a17.66 17.66 0 0 0 3.516-11 24.662 24.662 0 0 0-3.983-13.193 9.54 9.54 0 0 0-16.155 0 24.661 24.661 0 0 0-3.982 13.193 17.665 17.665 0 0 0 3.516 11 10.74 10.74 0 0 0 17.088 0zm-5.281-4.039a4.091 4.091 0 0 1-6.526 0 11.178 11.178 0 0 1-2.149-6.964 18.106 18.106 0 0 1 2.971-9.666 2.89 2.89 0 0 1 4.882 0 18.114 18.114 0 0 1 2.97 9.666 11.172 11.172 0 0 1-2.148 6.964z" fill="#3c3c4f" opacity="1" data-original="#3c3c4f"></path></g></g></svg>