<svg xmlns="http://www.w3.org/2000/svg" version="1.1" xmlns:xlink="http://www.w3.org/1999/xlink" width="512" height="512" x="0" y="0" viewBox="0 0 340 340" style="enable-background:new 0 0 512 512" xml:space="preserve" class=""><g><linearGradient id="a" x1="290.938" x2="290.938" y1="367.398" y2="158.783" gradientUnits="userSpaceOnUse"><stop offset="0" stop-color="#8fd3c2"></stop><stop offset="1" stop-color="#e2feca"></stop></linearGradient><linearGradient xlink:href="#a" id="b" x1="136.046" x2="136.046" y1="367.398" y2="158.783"></linearGradient><linearGradient xlink:href="#a" id="c" x1="224.783" x2="224.783" y1="367.398" y2="158.783"></linearGradient><linearGradient xlink:href="#a" id="d" x1="103.941" x2="103.941" y1="367.398" y2="158.783" gradientTransform="rotate(79.98 103.928 199.246)"></linearGradient><linearGradient xlink:href="#a" id="e" x1="131.172" x2="131.172" y1="367.398" y2="158.783"></linearGradient><linearGradient id="f" x1="133.399" x2="198.907" y1="119.631" y2="63.323" gradientUnits="userSpaceOnUse"><stop offset="0" stop-color="#9dc9a6"></stop><stop offset="1" stop-color="#b9e5bd"></stop></linearGradient><linearGradient id="g" x1="114.102" x2="180.346" y1="145.329" y2="70.988" gradientUnits="userSpaceOnUse"><stop offset="0" stop-color="#719184"></stop><stop offset="1" stop-color="#80ab86"></stop></linearGradient><path fill="url(#a)" d="M284.123 196.1s11.049 21.493-10.932 46.081c-4.491 5.025 2.832 12.262 8.493 8.6 12.568-8.118 24.654-19.472 27.278-34 5.874-32.501-13.362-41.171-13.362-41.171z" opacity="1" data-original="url(#a)"></path><path fill="url(#a)" d="M116.138 73.757a22.73 22.73 0 0 1-4.88 8.366 20 20 0 0 1-8.8 5.405c-6.018 1.889-19.445 7.147-29.686 18.8a27.7 27.7 0 0 0 8.607 43.147c12.723 6.295 32.938 10.8 64.663 7.088 28.991-3.388 58.429-18.326 83.417-35.14 8.563-5.761 17.643 6.515 9.6 12.978-25 20.079-58.831 37.544-102.526 40.711 0 0-59.7 5.965-93.422-23.431a39.126 39.126 0 0 1-5.76-52.264c11.146-15.5 31.673-33.133 68.543-37.914a9.464 9.464 0 0 1 10.244 12.254z" opacity="1" data-original="url(#a)"></path><path fill="url(#a)" d="M301.7 137.684c9.927-26.782-8-46.557-33.077-53.48a9.448 9.448 0 0 0-11.852 7.689l-.041.265a9.515 9.515 0 0 0 3.115 8.52c9.284 8.28 29.444 33.774-15.353 65.874-26.256 18.814-60.764 25.836-100.288 31.114-6.524.871-6.175 10.427.395 10.811 43.08 2.523 107.43-2.077 142.109-45.012.852 8.591-.813 21.758-13.517 35.97-4.491 5.024 2.832 12.261 8.493 8.6 12.568-8.117 24.654-19.472 27.278-34 3.594-19.879-2.211-30.835-7.262-36.351z" opacity="1" data-original="url(#a)"></path><ellipse cx="103.941" cy="199.358" fill="url(#d)" rx="8.389" ry="9.352" transform="rotate(-79.98 103.855 199.284)" opacity="1" data-original="url(#d)"></ellipse><path fill="url(#a)" d="M220.575 222.3c-21.145 7.082-54.277 13.887-95.364 8.057-53.337-7.568-63.3-29.067-64.789-40.149a11.308 11.308 0 0 0-7.441-9.077l-.367-.131a13.678 13.678 0 0 0-18.3 13.509c.915 18.893 10.869 31.721 22.3 40.285-2.007 22.793 5.206 62.546 75.713 74.081 0 0 52.84 10.713 83.192-22.431 4.489-4.9-.972-12.45-7.024-9.7a133.455 133.455 0 0 1-29.816 9.707c-30.191 5.73-73.927-6.041-78.613-34.287 65.166 12.65 104.486-4.179 125.675-19.959 5.14-3.832.912-11.939-5.166-9.905z" opacity="1" data-original="url(#a)"></path><path fill="url(#f)" d="M139.261 110.328s-10.633-44.862 29.6-65.252 67.87-14.657 67.87-14.657 2.768 58.1-43.012 80.972a60.355 60.355 0 0 1-29.244 6.217c-8.257-.308-18.259-1.954-25.214-7.28z" opacity="1" data-original="url(#f)"></path><path fill="url(#g)" d="M118.539 127.166c10.084-13.207 38.249-46.479 81.161-68.866a1.756 1.756 0 0 1 1.933 2.907 524.23 524.23 0 0 0-72.58 74.154 6.665 6.665 0 0 1-8.955 1.376 6.664 6.664 0 0 1-1.559-9.571z" opacity="1" data-original="url(#g)" class=""></path><g fill="#3c3c4f"><path d="M241 136.824a11.184 11.184 0 0 0-13.275-17.977c-29.889 20.111-57.492 31.762-82.043 34.632-26.412 3.087-47.581.8-62.926-6.787a24.6 24.6 0 0 1-7.651-38.312c9.871-11.232 23.068-16.251 28.283-17.888a23.172 23.172 0 0 0 10.156-6.266 25.837 25.837 0 0 0 5.545-9.5 12.389 12.389 0 0 0-2.257-11.821c-2.785-3.366-8.052-4.443-12.375-3.883C65.727 64.045 45.686 82.5 34.826 97.6a42.533 42.533 0 0 0-7.768 29.446 41.583 41.583 0 0 0 14.01 26.974c24.729 21.557 62.216 24.734 82.16 24.734 7.751 0 12.854-.48 13.527-.547 38.453-2.783 73.526-16.707 104.245-41.383zM45.15 149.341c-13.745-11.982-16.065-33.114-5.28-48.11 9.95-13.838 29.156-31.24 64.37-36.365a10.694 10.694 0 0 1 4.774.394 6.969 6.969 0 0 1 3.03 1.606c1.405 1.7 2.4 13.892-10.515 17.7a68.675 68.675 0 0 0-31.09 19.713A30.809 30.809 0 0 0 80 152.26c16.437 8.132 38.775 10.619 66.4 7.39 25.544-2.986 54.072-14.98 84.791-35.648a4.971 4.971 0 0 1 5.916 7.979c-29.717 23.87-63.633 37.34-100.887 40.041-.579.06-58.775 5.471-91.07-22.681z" fill="#3c3c4f" opacity="1" data-original="#3c3c4f" class=""></path><path d="M312.019 174.6c3.5-19.381-1.467-30.992-6.793-37.576 3.623-10.942 3.052-21.553-1.679-30.792-5.913-11.549-18.341-20.668-34.1-25.018-3.453-.953-14.306-.77-15.749 10.211 0 0-1.129 7.078 4.076 11.575 3.748 3.238 12.222 12.288 11.568 24.544-.64 11.992-9.611 24.268-26.663 36.487l-.01.008a124.1 124.1 0 0 1-26.267 14.122c-22.245 8.889-48.045 13.15-72.612 16.43a8.541 8.541 0 0 0 .624 16.992c6.155.36 12.591.573 19.208.573 41.085 0 89.134-8.215 119.87-40.337-.912 7.209-4.178 16.1-12.62 25.549a8.277 8.277 0 0 0 .029 11.252 9.534 9.534 0 0 0 12.465 2.033c.143-.093.275-.187.417-.279-.32 10.821-6.487 22.551-12.911 29.738a8.276 8.276 0 0 0 .029 11.251 10.057 10.057 0 0 0 7.5 3.532 9.068 9.068 0 0 0 4.969-1.5c16.628-10.741 26.267-22.87 28.649-36.053 2.335-12.922 1.172-23.843-3.439-32.481a38.744 38.744 0 0 0 3.439-10.261zM280 205.43a3.38 3.38 0 0 1-4.371-.852 2.149 2.149 0 0 1-.12-3.073c13.463-15.06 15.2-29.166 14.292-38.347a3.106 3.106 0 0 0-5.507-1.645c-33.169 41.065-94.175 46.518-139.51 43.864a2.328 2.328 0 0 1-.166-4.632c24.965-3.334 51.219-7.678 74.1-16.822a130.227 130.227 0 0 0 27.585-14.849c18.66-13.371 28.5-27.234 29.245-41.2.8-14.946-9.274-25.613-13.636-29.511a7.25 7.25 0 0 1-2.071-6c.844-4.843 6.185-5.649 7.954-5.16 14.083 3.889 25.1 11.857 30.22 21.861 4.227 8.256 4.487 17.523.771 27.546a3.108 3.108 0 0 0 .622 3.177c4.795 5.238 9.815 15.339 6.495 33.709-2.061 11.418-10.777 22.164-25.903 31.934zm25.907 10.8c-2.063 11.423-10.779 22.169-25.907 31.94a3.38 3.38 0 0 1-4.371-.852 2.15 2.15 0 0 1-.12-3.074c6.236-6.975 15.953-22.573 14.338-38.13a69.726 69.726 0 0 0 14.853-14.782c2.553 6.808 2.966 15.157 1.2 24.902zM101.937 210.678c10.459 1.054 13.726-6.061 14.272-9.149 1.1-6.241-3.5-12.293-10.265-13.491-3.214-.569-11.975-.145-14.271 9.148-.751 3.044.965 12.554 10.264 13.492zm-4.146-12.409c.256-2.175 3.833-4.629 7.07-4.113 3.4.541 5.737 3.422 5.23 6.291-.234 1.326-1.935 4.925-7.071 4.114-1.71-.271-5.764-1.749-5.229-6.292z" fill="#3c3c4f" opacity="1" data-original="#3c3c4f" class=""></path><path d="M227.6 234.693a8.763 8.763 0 0 0-8.007-15.337c-20.339 6.811-53.145 13.715-93.943 7.927C74.987 220.1 64.966 200.711 63.5 189.8a14.353 14.353 0 0 0-9.464-11.584l-.358-.13a16.785 16.785 0 0 0-22.466 16.577c.808 16.666 8.266 30.645 22.175 41.575-1.578 24.017 7.138 64.023 78.382 75.7a113.186 113.186 0 0 0 20.694 1.77c18.71 0 46.119-4.164 65.346-25.159a9.221 9.221 0 0 0-10.6-14.629 129.227 129.227 0 0 1-29.109 9.48 76.783 76.783 0 0 1-8.3 1.093h-.011a95.269 95.269 0 0 1-33.57-3.565c-16.671-4.97-28.025-13.873-31.932-24.825 63.086 11.08 101.796-5.388 123.313-21.41zm-126.942 14.418c-.027 0-.054 0-.082-.006-2.416-.47-4.871-.981-7.3-1.521-.043-.01-.086-.018-.129-.026a78.677 78.677 0 0 1-9.161-2.428 3.106 3.106 0 0 0-1.905 5.913 85.355 85.355 0 0 0 9.905 2.618c1.815.4 3.639.783 5.456 1.15 3.419 14.419 16.76 26.033 37.047 32.081a101.5 101.5 0 0 0 35.806 3.789 82.451 82.451 0 0 0 8.964-1.182 135.34 135.34 0 0 0 30.52-9.93 3.009 3.009 0 0 1 3.451 4.777c-28.783 31.429-79.774 21.587-80.285 21.484a2.316 2.316 0 0 0-.115-.021c-62.64-10.248-73.528-43.223-73.38-65.283a84.419 84.419 0 0 0 3.757 2.281 3.106 3.106 0 1 0 3.077-5.4 74.854 74.854 0 0 1-7.78-5.082l-.026-.022c-13.234-9.916-20.319-22.684-21.058-37.95a10.623 10.623 0 0 1 10.51-11.088 10.547 10.547 0 0 1 3.622.649l.379.137a8.166 8.166 0 0 1 5.414 6.567c1.7 12.656 12.718 35.048 67.43 42.812 42 5.96 75.815-1.163 96.788-8.187a2.551 2.551 0 0 1 2.324 4.463c-21.051 15.681-59.517 31.773-123.229 19.405zM118.354 139.3a10.677 10.677 0 0 0 13.129-2.015c39.947-50.271 83.425-82.744 83.859-83.066a3.106 3.106 0 0 0-3.079-5.348c-30.088 12.976-54.017 31.818-71.034 48.3-.1-14.946 4.5-36.676 28.875-49.218 31.848-16.389 55.8-15.82 63.289-15.107-.086 11.245-2.865 56.463-40.849 75.736a57.364 57.364 0 0 1-26.462 6.089 3.106 3.106 0 1 0-.066 6.212h.689a63.527 63.527 0 0 0 28.65-6.764c19.454-9.871 33.27-27.585 39.954-51.226a111.048 111.048 0 0 0 4.255-32.947 3.106 3.106 0 0 0-2.49-2.878c-1.173-.237-29.207-5.538-69.812 15.358-31.79 16.36-33.058 47.393-31.981 60.686a251.505 251.505 0 0 0-19.211 22.168c-1.625 2.129-3.458 10.902 2.284 14.02zm2.654-10.253c9.541-12.5 33.02-40.1 68.422-61.432a527.381 527.381 0 0 0-62.811 65.806 3.611 3.611 0 0 1-4.78.736c-2.245-1.438-1.433-4.319-.831-5.107z" fill="#3c3c4f" opacity="1" data-original="#3c3c4f" class=""></path></g></g></svg>