<svg xmlns="http://www.w3.org/2000/svg" version="1.1" xmlns:xlink="http://www.w3.org/1999/xlink" width="512" height="512" x="0" y="0" viewBox="0 0 340 340" style="enable-background:new 0 0 512 512" xml:space="preserve" class=""><g><linearGradient id="a" x1="21.56" x2="339.764" y1="-.982" y2="317.222" gradientUnits="userSpaceOnUse"><stop offset="0" stop-color="#fff09a"></stop><stop offset="1" stop-color="#ffb74c"></stop></linearGradient><linearGradient xlink:href="#a" id="b" x1="97.141" x2="415.345" y1="-76.563" y2="241.641"></linearGradient><linearGradient xlink:href="#a" id="c" x1="-.982" x2="317.222" y1="21.56" y2="339.764"></linearGradient><linearGradient xlink:href="#a" id="d" x1="-76.563" x2="241.641" y1="97.141" y2="415.345"></linearGradient><linearGradient id="e" x1="97.11" x2="235.918" y1="241.896" y2="104.981" gradientUnits="userSpaceOnUse"><stop offset="0" stop-color="#8ac2ff"></stop><stop offset="1" stop-color="#b8ecff"></stop></linearGradient><path fill="url(#a)" d="M67.428 155.688a103.6 103.6 0 0 1 116.581-88.3l.3-28.8V25.016a6.972 6.972 0 0 0-6.972-6.972H162.66a6.972 6.972 0 0 0-6.972 6.972v13.573A131.55 131.55 0 0 0 87.2 66.964L55.476 35.236a6.972 6.972 0 0 0-9.86 0l-10.38 10.38a6.972 6.972 0 0 0 0 9.86L66.964 87.2a131.55 131.55 0 0 0-28.375 68.484 46.944 46.944 0 0 0 28.839.004z" opacity="1" data-original="url(#a)"></path><path fill="url(#a)" d="M314.984 155.688h-13.573A131.55 131.55 0 0 0 273.036 87.2l31.728-31.728a6.972 6.972 0 0 0 0-9.86l-10.38-10.38a6.972 6.972 0 0 0-9.86 0L252.8 66.964a131.55 131.55 0 0 0-68.484-28.375 86 86 0 0 0-.3 28.8l.3.042a103.6 103.6 0 0 1 88.26 116.884h42.412a6.972 6.972 0 0 0 6.972-6.972V162.66a6.972 6.972 0 0 0-6.976-6.972z" opacity="1" data-original="url(#a)"></path><path fill="url(#a)" d="m294.384 304.764 10.38-10.38a6.972 6.972 0 0 0 0-9.86L273.036 252.8a131.55 131.55 0 0 0 28.375-68.484 95.342 95.342 0 0 0-28.839 0 103.6 103.6 0 0 1-116.884 88.26v42.412a6.972 6.972 0 0 0 6.972 6.972h14.68a6.972 6.972 0 0 0 6.972-6.972v-13.577a131.55 131.55 0 0 0 68.488-28.375l31.728 31.728a6.972 6.972 0 0 0 9.856 0z" opacity="1" data-original="url(#a)"></path><path fill="url(#a)" d="M155.688 301.411a58.07 58.07 0 0 0 0-28.839 103.6 103.6 0 0 1-88.26-116.884H25.016a6.972 6.972 0 0 0-6.972 6.972v14.68a6.972 6.972 0 0 0 6.972 6.972h13.573A131.55 131.55 0 0 0 66.964 252.8l-31.728 31.724a6.972 6.972 0 0 0 0 9.86l10.38 10.38a6.972 6.972 0 0 0 9.86 0L87.2 273.036a131.55 131.55 0 0 0 68.488 28.375z" opacity="1" data-original="url(#a)"></path><path fill="url(#e)" d="m217.657 147.278-22.089.139a8.856 8.856 0 0 1-8.909-9.117l1.211-40.976a6.768 6.768 0 0 0-6.765-6.967H158.9a6.768 6.768 0 0 0-6.765 6.967l1.21 40.976a8.855 8.855 0 0 1-8.908 9.117l-22.089-.139a6.767 6.767 0 0 0-6.811 6.767v19.638a6.767 6.767 0 0 0 6.811 6.767l22.089-.139a8.854 8.854 0 0 1 8.908 9.117l-1.21 53.248a6.768 6.768 0 0 0 6.765 6.967h22.21a6.768 6.768 0 0 0 6.765-6.967l-1.211-53.248a8.856 8.856 0 0 1 8.909-9.117l22.089.139a6.768 6.768 0 0 0 6.811-6.767v-19.638a6.768 6.768 0 0 0-6.816-6.767z" opacity="1" data-original="url(#e)"></path><g fill="#3c3c4f"><path d="M314.984 152.364h-10.621a134.819 134.819 0 0 0-26.89-64.9l29.642-29.641a10.31 10.31 0 0 0 0-14.562l-10.38-10.38a10.309 10.309 0 0 0-14.562 0L252.61 62.449c-17.1-13.977-43.669-25-64.974-26.86V25.016a10.308 10.308 0 0 0-10.3-10.3H162.66a10.308 10.308 0 0 0-10.3 10.3v10.621a134.819 134.819 0 0 0-64.9 26.89L57.827 32.885a10.312 10.312 0 0 0-14.562 0l-10.38 10.38a10.309 10.309 0 0 0 0 14.562l29.7 29.7c-15.63 21.26-23.118 39.364-26.869 64.841h-10.7a10.308 10.308 0 0 0-10.3 10.3v14.68a10.308 10.308 0 0 0 10.3 10.3h10.621a134.819 134.819 0 0 0 26.89 64.9l-29.642 29.625a10.31 10.31 0 0 0 0 14.562l10.38 10.38a10.31 10.31 0 0 0 14.562 0l29.626-29.626c16.691 12.916 40.036 22.525 64.911 26.738v10.758a10.308 10.308 0 0 0 10.3 10.3h14.68a10.308 10.308 0 0 0 10.3-10.3v-10.622a134.819 134.819 0 0 0 64.9-26.89l29.641 29.642a10.311 10.311 0 0 0 14.562 0l10.38-10.38a10.309 10.309 0 0 0 0-14.562l-29.465-29.465C290 238.64 302.6 212.015 304.533 187.636h10.451a10.308 10.308 0 0 0 10.3-10.3V162.66a10.308 10.308 0 0 0-10.3-10.296zm3.648 24.976a3.652 3.652 0 0 1-3.648 3.648h-38.665a107.8 107.8 0 0 0 .566-10.988 105.9 105.9 0 0 0-21.863-64.778 107.667 107.667 0 0 0-55.28-37.9A3.324 3.324 0 1 0 197.9 73.7a100.3 100.3 0 0 1 71.383 110.153 3.326 3.326 0 0 0 3.293 3.78h25.284c-2.075 23.925-15.36 50.8-27.195 62.829a3.326 3.326 0 0 0 .02 4.682l31.728 31.728a3.651 3.651 0 0 1 0 5.159l-10.379 10.379a3.65 3.65 0 0 1-5.159 0l-31.728-31.728a3.326 3.326 0 0 0-4.435-.239 128.2 128.2 0 0 1-66.756 27.66 3.324 3.324 0 0 0-2.968 3.305v13.573a3.652 3.652 0 0 1-3.648 3.648h-14.68a3.652 3.652 0 0 1-3.648-3.648v-38.662a106.913 106.913 0 0 0 113.818-77.088 3.324 3.324 0 0 0-6.4-1.814 100.3 100.3 0 0 1-110.29 71.862 3.326 3.326 0 0 0-3.78 3.293v24.913c-24.533-4.325-47.341-14.062-63.045-27.014a3.325 3.325 0 0 0-4.466.214l-31.724 31.728a3.65 3.65 0 0 1-5.159 0l-10.379-10.379a3.651 3.651 0 0 1 0-5.159l31.728-31.728a3.325 3.325 0 0 0 .239-4.435 128.2 128.2 0 0 1-27.66-66.756 3.324 3.324 0 0 0-3.3-2.968H25.016a3.652 3.652 0 0 1-3.648-3.648v-14.68a3.652 3.652 0 0 1 3.648-3.648h38.665a106.912 106.912 0 0 0 77.211 113.852 3.324 3.324 0 1 0 1.807-6.4 100.3 100.3 0 0 1-71.978-110.32 3.324 3.324 0 0 0-3.293-3.78h-25c3.765-24.675 11.329-42.141 27.186-63.158a3.326 3.326 0 0 0-.3-4.353L37.587 53.125a3.651 3.651 0 0 1 0-5.159l10.379-10.379a3.651 3.651 0 0 1 5.159 0l31.728 31.728a3.325 3.325 0 0 0 4.435.239 128.2 128.2 0 0 1 66.756-27.66 3.324 3.324 0 0 0 2.968-3.3V25.016a3.652 3.652 0 0 1 3.648-3.648h14.68a3.652 3.652 0 0 1 3.648 3.648v13.538l-.264 25.1A107.777 107.777 0 0 0 170 63.116a107.28 107.28 0 0 0-102.831 77.656 3.324 3.324 0 1 0 6.4 1.814A100.6 100.6 0 0 1 170 69.763a101.793 101.793 0 0 1 13.564.916 3.323 3.323 0 0 0 3.769-3.259l.264-25.162c20.952 1.973 47.149 13.232 63 27.2a3.325 3.325 0 0 0 4.549-.143l31.728-31.728a3.651 3.651 0 0 1 5.159 0l10.379 10.379a3.651 3.651 0 0 1 0 5.159l-31.727 31.728a3.325 3.325 0 0 0-.239 4.435 128.2 128.2 0 0 1 27.66 66.756 3.324 3.324 0 0 0 3.305 2.968h13.573a3.652 3.652 0 0 1 3.648 3.648z" fill="#3c3c4f" opacity="1" data-original="#3c3c4f"></path><path d="m189.982 138.4 1.211-40.976a10.092 10.092 0 0 0-10.088-10.389H158.9a10.092 10.092 0 0 0-10.088 10.389l1.211 40.976a5.533 5.533 0 0 1-5.565 5.695l-22.09-.14a10.093 10.093 0 0 0-10.155 10.092v19.638a10.026 10.026 0 0 0 2.978 7.158 10.193 10.193 0 0 0 7.177 2.933l22.091-.139h.036a5.53 5.53 0 0 1 5.527 5.717l-1.21 53.226a10.092 10.092 0 0 0 10.088 10.387h22.21a10.091 10.091 0 0 0 10.083-10.367l-1.211-53.271a5.485 5.485 0 0 1 1.573-4.029 5.418 5.418 0 0 1 3.992-1.665l22.09.139a10.2 10.2 0 0 0 7.177-2.933 10.026 10.026 0 0 0 2.978-7.158v-19.638a10.093 10.093 0 0 0-10.155-10.092l-22.091.14h-.036a5.532 5.532 0 0 1-5.528-5.695zm5.606 12.343 22.09-.139a3.442 3.442 0 0 1 3.466 3.443v19.638a3.443 3.443 0 0 1-3.443 3.443h-.023l-22.089-.139a12.178 12.178 0 0 0-12.252 12.511l1.21 53.271a3.443 3.443 0 0 1-3.442 3.545H158.9a3.443 3.443 0 0 1-3.442-3.568l1.21-53.225a12.179 12.179 0 0 0-12.171-12.539h-.08l-22.09.139a3.443 3.443 0 0 1-3.466-3.443v-19.635a3.442 3.442 0 0 1 3.466-3.443l22.089.139h.081a12.18 12.18 0 0 0 12.166-12.541l-1.21-40.976a3.442 3.442 0 0 1 3.442-3.545h22.21a3.443 3.443 0 0 1 3.442 3.545l-1.21 40.976a12.181 12.181 0 0 0 12.251 12.539z" fill="#3c3c4f" opacity="1" data-original="#3c3c4f"></path></g></g></svg>