<svg xmlns="http://www.w3.org/2000/svg" version="1.1" xmlns:xlink="http://www.w3.org/1999/xlink" width="512" height="512" x="0" y="0" viewBox="0 0 340 340" style="enable-background:new 0 0 512 512" xml:space="preserve" class=""><g><linearGradient id="a" x1="78.942" x2="63.954" y1="149.612" y2="129.102" gradientUnits="userSpaceOnUse"><stop offset="0" stop-color="#ffe4cb"></stop><stop offset="1" stop-color="#fffaed"></stop></linearGradient><linearGradient id="c" x1="58.225" x2="78.168" y1="130.166" y2="149.739" gradientUnits="userSpaceOnUse"><stop offset="0" stop-color="#e5c1a7"></stop><stop offset="1" stop-color="#d0a88b"></stop></linearGradient><linearGradient id="d" x1="284.435" x2="278.526" y1="189.402" y2="158.012" gradientUnits="userSpaceOnUse"><stop offset="0" stop-color="#d6c4a4"></stop><stop offset="1" stop-color="#c1ab88"></stop></linearGradient><linearGradient id="e" x1="198.671" x2="85.353" y1="115.889" y2="238.478" gradientUnits="userSpaceOnUse"><stop offset="0" stop-color="#b6d5bf"></stop><stop offset=".996" stop-color="#9ab9a4"></stop></linearGradient><linearGradient xlink:href="#a" id="f" x1="152.447" x2="127.203" y1="99.558" y2="51.042"></linearGradient><linearGradient xlink:href="#a" id="g" x1="275.638" x2="296.543" y1="86.515" y2="91.643"></linearGradient><linearGradient id="b" x1="292.418" x2="206.028" y1="82.955" y2="345.697" gradientUnits="userSpaceOnUse"><stop offset="0" stop-color="#88a78d"></stop><stop offset=".996" stop-color="#6f8b78"></stop></linearGradient><linearGradient xlink:href="#b" id="h" x1="182.761" x2="96.371" y1="46.9" y2="309.642"></linearGradient><linearGradient xlink:href="#a" id="i" x1="130.698" x2="182.764" y1="227.601" y2="229.573"></linearGradient><linearGradient xlink:href="#c" id="j" x1="186.363" x2="126.905" y1="228.44" y2="249.49"></linearGradient><linearGradient xlink:href="#c" id="k" x1="126.558" x2="146.131" y1="60.039" y2="101.77"></linearGradient><linearGradient xlink:href="#c" id="l" x1="308.649" x2="274.674" y1="89.511" y2="99.851"></linearGradient><path fill="url(#a)" d="m55.105 120.908 23.946 9.492s1.125 12-7.684 14.1-16.033-7.833-16.033-7.833c-1.541-4.079-2.947-8.272-4.037-12.348a2.858 2.858 0 0 1 3.808-3.411z" opacity="1" data-original="url(#a)"></path><path fill="url(#c)" d="M68.715 165.55 87.4 133.71l-8.349-3.31a65.586 65.586 0 0 0-5.425 7.172 7.558 7.558 0 0 1-8.184 3.273 36.726 36.726 0 0 1-10.106-4.181 244.139 244.139 0 0 0 13.379 28.886z" opacity="1" data-original="url(#c)"></path><path fill="url(#d)" d="m266.714 165.55 12.015 16.93a2.333 2.333 0 0 0 4.112-.593c2.3-6.721 6.455-20.436 7.089-33.584z" opacity="1" data-original="url(#d)"></path><path fill="url(#e)" d="m310.377 109.5-9.529-25.95a162.066 162.066 0 0 0-9.348-31.832 21.862 21.862 0 0 0-15-12.71 460.447 460.447 0 0 0-47.276-9.015 21.688 21.688 0 0 0-11.3 1.572 372.132 372.132 0 0 0-47 24.483l-9.189-1.531a16.649 16.649 0 0 0-11.02 2 286.083 286.083 0 0 0-35.895 24.777 16.549 16.549 0 0 0-6.154 12.885v9.054A21.031 21.031 0 0 1 98.208 113.6a149.184 149.184 0 0 0-12.289 15.04C69.175 152.077 33.1 210.586 22.375 292.154c20.906 16.62 52.567 15.365 92.716 0l43.147-102.3s2.5-38.215 16.454-59.951c38.344-59.745 72.6-36.736 72.6-36.736a88.387 88.387 0 0 1 5.025 32.9 18.441 18.441 0 0 1-3.716 10.346 47.171 47.171 0 0 1-27.208 17.189 5.17 5.17 0 0 0-1.151 9.706 112.979 112.979 0 0 0 15.654 6.139l.308.093c33.181 1.992 52.22-21.515 68.588-49.837l3.936-3.548a6.124 6.124 0 0 0 1.649-6.655z" opacity="1" data-original="url(#e)"></path><path fill="url(#a)" d="M122.03 45.3c-.326 3.88-.707 9.343-.933 15.725 1.384 13.1 5.5 24.707 12.663 34.644 13.363 1.045 21.646-3.969 24.24-15.786a27.532 27.532 0 0 0-1.7-6.311 10.394 10.394 0 0 0-2.346-3.52l-26.9-26.6a2.954 2.954 0 0 0-5.024 1.848z" opacity="1" data-original="url(#a)"></path><path fill="url(#a)" d="M285.363 77.805a10.455 10.455 0 0 0-11.228 6.144C279.209 104 294.532 106 310.312 95.342l6.33-5.687a2.444 2.444 0 0 0-.883-4.148c-6.371-2.044-19.214-5.907-30.396-7.702z" opacity="1" data-original="url(#a)"></path><path fill="url(#b)" d="M282.437 123.905a3.5 3.5 0 0 0-4.246 3.16 52.093 52.093 0 0 1-5.078 19.413c-4.955 9.675-19.226 22.032-36.906 23.06a38.074 38.074 0 0 0 13.861 1.523c16.42-1.276 54.476-8.735 54.735-50.46 0 0 0-.311-.01-.894 0 0-9.946 6.929-22.356 4.198z" opacity="1" data-original="url(#b)"></path><path fill="url(#b)" d="M231.422 77.16s-51.184-1.84-98.922 78.64c-16.516 27.841-26.988 78.47-30.231 95.846a47.1 47.1 0 0 1-8.3 19.309c-9.653 13.111-30.54 30.025-71.594 21.2q-1.359 10.326-2.148 21.137h154.022s-.86-13.649-1.712-34.117a7.557 7.557 0 0 1 .987-4.062l5.9-10.348a7.567 7.567 0 0 0 .885-5.026l-7.458-43.6a133.168 133.168 0 0 1-1.914-23.93c.062-5.7.169-11.345.328-16.889a61.3 61.3 0 0 1 5.176-23.066c6.825-15.421 21.988-40.866 52.26-57.623a11.615 11.615 0 0 1 5.619-1.465h12.974a28.524 28.524 0 0 0-15.872-16.006z" opacity="1" data-original="url(#b)"></path><path fill="url(#a)" d="M143.873 202.067a10.442 10.442 0 0 0-12.635 3.646 48.726 48.726 0 0 0-7.675 17.544s1.463 27.214 23.013 31.447c15.457 3.036 42.832-16.081 42.832-16.081l8.262-6.425a3.055 3.055 0 0 0-.5-5.145c-9.834-4.916-34.47-17.072-53.297-24.986z" opacity="1" data-original="url(#a)"></path><path fill="url(#c)" d="M146.01 244.927c-14.583-2.589-20.275-12.859-22.443-21.669a43.464 43.464 0 0 0 .093 18.351c3.269 15.039 11.1 22.575 16.955 26.223a10.5 10.5 0 0 0 12.013-.6l36.78-28.607c-11.475 4.43-28.119 9.015-43.398 6.302z" opacity="1" data-original="url(#c)"></path><path fill="url(#c)" d="M158 79.883a20.256 20.256 0 0 1-9.5 9.5 9.021 9.021 0 0 1-9.551-1.282c-10.67-8.909-15.633-18.8-17.85-27.079a254.241 254.241 0 0 0 1 35.345 10.387 10.387 0 0 0 6.287 8.486c4.424 1.843 11.3 2.365 20.26-4.088 9.116-6.565 10.21-14.797 9.354-20.882z" opacity="1" data-original="url(#c)"></path><path fill="url(#c)" d="m295.7 108.473 14.616-13.131a84.473 84.473 0 0 1-12.306 2.341 24.174 24.174 0 0 1-13.461-2.3c-7.227-3.575-9.722-7.928-10.4-11.424a10.235 10.235 0 0 0-.734 2.491 24.169 24.169 0 0 0 9.385 22.9 10.412 10.412 0 0 0 12.9-.877z" opacity="1" data-original="url(#c)"></path><g fill="#3c3c4f"><path d="M90.3 155.26a3.714 3.714 0 1 0 3.714 3.714 3.713 3.713 0 0 0-3.714-3.714zM213.3 70.232a3.714 3.714 0 1 0 3.714 3.714 3.714 3.714 0 0 0-3.714-3.714z" fill="#3c3c4f" opacity="1" data-original="#3c3c4f"></path><path d="M320.8 83.9c-.587-.2-8.2-2.829-17.668-5.359-1.521-5.425-6.267-22.088-8.773-28.031a25.055 25.055 0 0 0-17.125-14.52 461.187 461.187 0 0 0-47.6-9.076 24.85 24.85 0 0 0-12.942 1.8 374.737 374.737 0 0 0-46.4 24.085l-8.05-1.342c-.96-.16-9.017-1.26-17.78 4.843l-19.646-19.431a3.107 3.107 0 0 0-5.269 1.843 311.605 311.605 0 0 0-1.75 36.273 311.018 311.018 0 0 0-4.931 3.891 19.577 19.577 0 0 0-7.31 15.3v7.716a337.853 337.853 0 0 0-5.838 5.675c-5.909 5.885-17.038 20.262-17.4 20.784l-31.141-12.342a3.107 3.107 0 0 0-4.194 3.484c2.805 14.333 10.676 31.329 15.5 40.881-18.776 34.3-40.648 87.12-45.359 152.713l-.013.2h6.228c6.674-92.11 47.745-158.549 65.1-182.852 4.724-6.614 16.626-19.421 17.109-19.9v12.392a9.984 9.984 0 0 1-1.649 5.5 213.583 213.583 0 0 0-8.189 13.568 3.106 3.106 0 1 0 5.431 3.016 209.359 209.359 0 0 1 7.949-13.171 16.182 16.182 0 0 0 2.671-8.911V94.178a13.4 13.4 0 0 1 5-10.469c.4-.323.818-.652 1.227-.978.248 6.09.73 12.349 1.559 18.453a3.113 3.113 0 0 0 .64 1.507 19.509 19.509 0 0 0 14.415 6.484c4.41 0 9.738-1.488 15.85-5.888 14.91-10.735 11.437-26.585 7.517-33.465a3.056 3.056 0 0 0-.515-.671l-8.491-8.4c6.471-4.066 11.988-3.217 12.252-3.173l9.188 1.531a3.1 3.1 0 0 0 2.129-.412 369.073 369.073 0 0 1 46.587-24.273 18.611 18.611 0 0 1 9.7-1.353 455.138 455.138 0 0 1 46.935 8.951 18.827 18.827 0 0 1 12.868 10.9c1.878 4.44 5.378 16.235 7.562 23.878a109.418 109.418 0 0 0-19.172-3.017 3.088 3.088 0 0 0-2.712 1.381c-.348.522-8.438 12.935-1.52 26.77 6.349 12.7 16.247 13.386 18.47 13.44a3.1 3.1 0 0 0 2.3-.8l11.563-10.389 2.345 6.384a3.006 3.006 0 0 1-.813 3.283l-3.936 3.548-8.345 7.522a3.066 3.066 0 0 0-.227 4.387 3.285 3.285 0 0 0 4.387.227l2.776-2.5c-3.951 33.476-36.851 39.792-51.469 40.929a34.9 34.9 0 0 1-13.031-1.485 109.427 109.427 0 0 1-15.207-5.964 2.09 2.09 0 0 1-.935-2.815 2.181 2.181 0 0 1 1.506-1.087c15.081-3.558 24.039-11.919 28.9-18.306a21.292 21.292 0 0 0 4.351-11.989 90.832 90.832 0 0 0-5.235-34.295l-.005-.009v-.008A31.482 31.482 0 0 0 232.636 74.3a3.106 3.106 0 0 0-2.428 5.718 25.619 25.619 0 0 1 12.017 10.043h-6.2a20.881 20.881 0 0 0-10.36 2.712c-34.738 19.881-47.759 47.68-50.923 55.726-8.525 21.684-6.734 49-5.661 61.48-10.79-5.063-22.254-10.217-31.254-13.717a3.1 3.1 0 0 0-3.225.6c-.812.744-19.821 18.54-13.982 45.4 5.886 27.074 25.666 31.53 26.485 31.784a3.083 3.083 0 0 0 2.558-.585L176 252.986s2.34 8.2-.438 12.276l-3.806 6.676a17.191 17.191 0 0 0-2.245 9.262c.4 9.516 1.318 21.926 2.142 32.092h6.233c-.83-10.194-1.761-22.77-2.169-32.357a10.994 10.994 0 0 1 1.436-5.919l3.806-6.677c3.8-7.149.6-19.679.6-19.679l21.841-16.98a3.106 3.106 0 0 0-.5-5.221c-.223-.114-12.41-6.3-27.3-13.4l-.12-1.356c-.957-10.714-3.5-39.176 5.054-60.931 2.976-7.569 15.248-33.733 48.226-52.606a14.653 14.653 0 0 1 7.275-1.892h9.062a87.427 87.427 0 0 1 4.119 29.764 15.118 15.118 0 0 1-3.089 8.508c-4.243 5.578-12.091 12.885-25.38 16.021a8.277 8.277 0 0 0-1.851 15.54 115.952 115.952 0 0 0 16.084 6.309 41.019 41.019 0 0 0 15.341 1.74 93.065 93.065 0 0 0 16.692-2.827l11.766 16.579a3.106 3.106 0 0 0 2.533 1.309 3.291 3.291 0 0 0 .37-.021 3.111 3.111 0 0 0 2.517-1.937c.108-.27 7.726-28.553 7.726-28.553 9.043-7.913 15.756-19.794 15.985-37.623l2.9-2.618a9.187 9.187 0 0 0 2.485-10.039l-3.2-8.713 11.761-10.567A3.106 3.106 0 0 0 320.8 83.9zM66.167 153.811c-3.911-8.05-8.89-19.339-11.747-29.833L78.7 133.6a342.323 342.323 0 0 0-12.533 20.211zm86.59-80.575c1.2 2.366 7.11 15.622-5.928 25.009-12.075 8.693-19.236 3.181-21.244 1.161-2.624-20.291-1.366-42.748-.481-53.515zM195.7 229.8l-48.585 37.787c-4.014-1.423-16.21-7.266-20.421-26.632-4.277-19.68 6.807-33.832 10.782-38.15 18.953 7.559 47.407 21.584 58.224 26.995zm84.684-50.35-7.143-10.065a64.112 64.112 0 0 0 11.185-5.248s-3.203 12.778-4.042 15.308zm9.956-70.336c-2.246-.263-7.9-1.757-12-9.953-4.119-8.239-1.272-15.9.3-19.052 11.3.882 27.084 5.491 35.07 8.013z" fill="#3c3c4f" opacity="1" data-original="#3c3c4f"></path></g></g></svg>