<svg xmlns="http://www.w3.org/2000/svg" version="1.1" xmlns:xlink="http://www.w3.org/1999/xlink" width="512" height="512" x="0" y="0" viewBox="0 0 340 340" style="enable-background:new 0 0 512 512" xml:space="preserve" class=""><g><linearGradient id="a" x1="87.046" x2="87.046" y1="-13.07" y2="316.699" gradientUnits="userSpaceOnUse"><stop offset="0" stop-color="#95a4ff"></stop><stop offset=".5" stop-color="#aedcff"></stop><stop offset="1" stop-color="#d9f4ff"></stop></linearGradient><linearGradient xlink:href="#a" id="d" x1="50.373" x2="50.373" y1="-13.07" y2="316.699" gradientTransform="rotate(83.98 50.341 85.467)"></linearGradient><linearGradient xlink:href="#a" id="e" x1="82.491" x2="82.491" y1="-13.07" y2="316.699" gradientTransform="rotate(83.98 82.43 172.71)"></linearGradient><linearGradient xlink:href="#a" id="f" x1="252.954" x2="252.954" y1="-13.07" y2="316.699"></linearGradient><linearGradient xlink:href="#a" id="g" x1="288.579" x2="288.579" y1="-13.07" y2="316.699" gradientTransform="rotate(5.73 287.916 54.944)"></linearGradient><linearGradient xlink:href="#a" id="h" x1="258.047" x2="258.047" y1="-13.07" y2="316.699" gradientTransform="rotate(3.62 258.133 189.678)"></linearGradient><linearGradient id="b" x1="125.025" x2="125.025" y1="302.932" y2="90.323" gradientTransform="matrix(1 0 0 -1 0 348.157)" gradientUnits="userSpaceOnUse"><stop offset="0" stop-color="#ffd4ca"></stop><stop offset="1" stop-color="#ff9d9d"></stop></linearGradient><linearGradient xlink:href="#b" id="i" x1="155.071" x2="155.071" y1="302.932" y2="90.323"></linearGradient><linearGradient xlink:href="#b" id="j" x1="175.768" x2="175.768" y1="317.909" y2="84.749"></linearGradient><linearGradient id="c" x1="195.651" x2="195.651" y1="308.241" y2="134.055" gradientTransform="matrix(1 0 0 -1 0 348.157)" gradientUnits="userSpaceOnUse"><stop offset="0" stop-color="#f78784"></stop><stop offset="1" stop-color="#dd5e5e"></stop></linearGradient><linearGradient xlink:href="#c" id="k" x1="153.803" x2="153.803" y1="39.932" y2="214.099"></linearGradient><linearGradient xlink:href="#b" id="l" x1="185.116" x2="185.116" y1="302.932" y2="90.323"></linearGradient><linearGradient xlink:href="#b" id="m" x1="215.162" x2="215.162" y1="302.932" y2="90.323"></linearGradient><linearGradient xlink:href="#b" id="n" x1="141.317" x2="141.317" y1="302.932" y2="90.323"></linearGradient><path fill="url(#a)" d="M44.027 121.1a7.053 7.053 0 0 1 7.056 7.225c-.431 17.06-8.207 66.195 5.6 107.672a8.386 8.386 0 0 0 15.613.7 170.754 170.754 0 0 1 1.812-3.929 7.96 7.96 0 0 1 14.808 1.087c5.239 17.16 18.215 41.493 50.357 55.811a10.864 10.864 0 0 1 6.5 9.9v.228a11 11 0 0 1-10.694 11c-23.4.694-81.412 2.805-99.794-39.087-16.611-37.864 1.685-143.551 1.685-143.551a7.057 7.057 0 0 1 7.057-7.056z" opacity="1" data-original="url(#a)"></path><ellipse cx="50.373" cy="85.482" fill="url(#d)" rx="10.47" ry="8.438" transform="rotate(-83.98 50.376 85.446)" opacity="1" data-original="url(#d)"></ellipse><ellipse cx="82.491" cy="172.744" fill="url(#e)" rx="10.47" ry="8.197" transform="rotate(-83.98 82.5 172.676)" opacity="1" data-original="url(#e)"></ellipse><path fill="url(#a)" d="M295.973 121.1a7.053 7.053 0 0 0-7.056 7.225c.431 17.06 8.207 66.195-5.6 107.672a8.386 8.386 0 0 1-15.613.7 170.754 170.754 0 0 0-1.812-3.929 7.96 7.96 0 0 0-14.808 1.087c-5.239 17.16-18.215 41.493-50.357 55.811a10.864 10.864 0 0 0-6.5 9.9v.228a11 11 0 0 0 10.694 11c23.405.694 81.412 2.805 99.793-39.087 16.615-37.865-1.681-143.552-1.681-143.552a7.057 7.057 0 0 0-7.06-7.055z" opacity="1" data-original="url(#a)"></path><ellipse cx="288.579" cy="55.375" fill="url(#g)" rx="8.48" ry="10.47" transform="rotate(-5.73 287.802 55.525)" opacity="1" data-original="url(#g)"></ellipse><ellipse cx="258.047" cy="189.7" fill="url(#h)" rx="8.392" ry="10.47" transform="rotate(-3.62 258.055 189.78)" opacity="1" data-original="url(#h)"></ellipse><path fill="url(#b)" d="M110 164.827h30.046v57.944a9.589 9.589 0 0 1-9.589 9.589h-9.607A10.848 10.848 0 0 1 110 221.511v-56.684z" opacity="1" data-original="url(#b)"></path><path fill="url(#b)" d="M140.048 164.827h30.046v57.929a9.6 9.6 0 0 1-9.6 9.6h-10.843a9.6 9.6 0 0 1-9.6-9.6v-57.929h-.003z" opacity="1" data-original="url(#b)"></path><path fill="url(#b)" d="m124.21 89.95 3.811-8.082V25.846h89.734v67.542s12.429 5.154 12.429 31.832v74.943l-59.35-15.421-49.483-39.817z" opacity="1" data-original="url(#b)"></path><path fill="url(#c)" d="M230.184 192.4a15.022 15.022 0 0 0-15.022-15.023 15.021 15.021 0 0 0-15.02 14.985v-9.367a15.023 15.023 0 0 0-15.023-15.023 15.023 15.023 0 0 0-15.023 15.023v1.157l-8.976-7.223a24.747 24.747 0 0 1 44.722-7.46 24.709 24.709 0 0 1 24.345 3.277z" opacity="1" data-original="url(#c)"></path><path fill="url(#c)" d="M186.254 188.749c-.981-11.2-4.98-30.755-20.749-36.5a32.276 32.276 0 0 0 10.263-16.42c.232-10.893-2.629-18.307-5.705-23.1a7.159 7.159 0 0 0-5.09.974l-43.41 27.149-.212 4.076 49.483 39.817z" opacity="1" data-original="url(#c)"></path><path fill="url(#b)" d="M190.447 232.359h-10.662a9.691 9.691 0 0 1-9.692-9.691v-39.679c.259-7.53 3.247-12.983 11.321-14.563a15.06 15.06 0 0 1 3.7-.46 15.023 15.023 0 0 1 15.023 15.023v39.679a9.691 9.691 0 0 1-9.69 9.691z" opacity="1" data-original="url(#b)"></path><path fill="url(#b)" d="M215.162 177.372a15.023 15.023 0 0 1 15.023 15.023v29.116a10.848 10.848 0 0 1-10.848 10.848h-8.445a10.752 10.752 0 0 1-10.752-10.752v-29.212a15.023 15.023 0 0 1 15.023-15.023z" opacity="1" data-original="url(#b)"></path><path fill="url(#b)" d="M124.9 184.742h38.59a6.007 6.007 0 0 0 5.911-7.123c-1.714-8.984-7.614-23.272-27.8-23.272 0 0 31.509-2.576 31.509-49.457l-45.089-23.022s-18.493 27.659-18.493 49.811c0 12.482.327 27.744.612 38.69a14.759 14.759 0 0 0 14.76 14.373z" opacity="1" data-original="url(#b)"></path><g fill="#3c3c4f"><path d="M140.533 286.841c-30.807-13.723-43.463-36.878-48.655-53.886a11.056 11.056 0 0 0-20.563-1.517 170.566 170.566 0 0 0-1.846 4 5.243 5.243 0 0 1-5.129 3.15 5.078 5.078 0 0 1-4.718-3.572C48.6 201.9 51.569 163.941 53.344 141.26c.4-5.142.751-9.582.834-12.858A10.149 10.149 0 0 0 44.027 118a10.165 10.165 0 0 0-10.15 9.865c-1.2 6.971-17.985 107.341-1.424 145.084a60.685 60.685 0 0 0 1.586 3.334l.044.083c6.617 11.963 15.768 20.808 27.2 26.291 19.406 9.867 42.717 11.494 60.064 11.494 4.961 0 9.435-.133 13.189-.245l.636-.019a14.038 14.038 0 0 0 13.7-14.09v-.228a13.99 13.99 0 0 0-8.339-12.728zm2.146 12.959a7.876 7.876 0 0 1-7.689 7.9l-.637.018c-16.336.487-46.744 1.392-70.293-10.594l-.067-.033c-10.251-4.908-18.482-12.876-24.468-23.68a52.788 52.788 0 0 1-1.4-2.948c-16.05-36.578 1.715-140.732 1.9-141.78a3.12 3.12 0 0 0 .046-.528 3.963 3.963 0 0 1 6.8-2.764 3.916 3.916 0 0 1 1.12 2.854c-.079 3.112-.42 7.477-.816 12.531-1.812 23.148-4.845 61.89 6.576 96.2a11.482 11.482 0 0 0 21.378.989 164.44 164.44 0 0 1 1.778-3.856 4.863 4.863 0 0 1 9.052.657c5.569 18.24 19.12 43.062 52.058 57.735a7.79 7.79 0 0 1 4.666 7.074zM38.9 84.276c-.781 7.439 3.728 14.033 10.053 14.7a9.774 9.774 0 0 0 1.025.053 11 11 0 0 0 7.748-3.374 14.886 14.886 0 0 0 4.117-8.964c.781-7.439-3.728-14.033-10.053-14.7-6.327-.681-12.106 4.846-12.89 12.285zm16.786 1.764a8.815 8.815 0 0 1-2.347 5.244 4.652 4.652 0 0 1-3.739 1.531c-2.879-.3-4.959-3.917-4.541-7.892.4-3.8 2.956-6.794 5.693-6.794.13 0 .26.007.391.02 2.881.303 4.957 3.917 4.543 7.891z" fill="#3c3c4f" opacity="1" data-original="#3c3c4f"></path><path d="M83.908 159.253c-6.186-.657-11.866 4.872-12.648 12.31a15.118 15.118 0 0 0 2.068 9.581 10.538 10.538 0 0 0 7.744 5.091 9.23 9.23 0 0 0 .993.053c5.8 0 10.916-5.324 11.657-12.363.778-7.44-3.622-14.025-9.814-14.672zm3.655 14.024c-.418 3.976-3.1 7.086-5.843 6.8a4.469 4.469 0 0 1-3.143-2.221 9.036 9.036 0 0 1-1.159-5.646c.4-3.8 2.868-6.819 5.489-6.819a3.5 3.5 0 0 1 .354.018c2.75.291 4.72 3.891 4.302 7.868zM295.973 118a10.149 10.149 0 0 0-10.151 10.4c.083 3.275.43 7.716.833 12.857 1.776 22.68 4.749 60.641-6.277 93.759a5.078 5.078 0 0 1-4.717 3.572 5.235 5.235 0 0 1-5.131-3.152 168.23 168.23 0 0 0-1.844-4 11.056 11.056 0 0 0-20.564 1.516 87.721 87.721 0 0 1-2.526 7.153c-.017.043-.034.086-.048.129-3 8.541-9.013 17.655-18.381 27.865a91.535 91.535 0 0 1-27.7 18.739 13.992 13.992 0 0 0-8.338 12.731v.228a14.038 14.038 0 0 0 13.7 14.09l.635.019c3.726.111 8.2.244 13.182.244 28.233 0 72.705-4.284 88.9-41.2 16.562-37.743-.228-138.113-1.424-145.084A10.165 10.165 0 0 0 295.973 118zm5.9 152.461c-17.379 39.6-72.636 37.958-96.231 37.255l-.635-.018a7.877 7.877 0 0 1-7.69-7.9v-.228a7.79 7.79 0 0 1 4.666-7.074 97.7 97.7 0 0 0 29.617-20.065c.03-.03.06-.061.089-.093 9.949-10.834 16.388-20.642 19.683-29.983 1-2.483 1.9-5.037 2.678-7.592a4.864 4.864 0 0 1 9.052-.658c.619 1.3 1.213 2.59 1.778 3.856a11.483 11.483 0 0 0 21.379-.988c11.421-34.306 8.388-73.049 6.575-96.2-.4-5.054-.738-9.418-.816-12.531a3.955 3.955 0 0 1 3.96-4.05 3.966 3.966 0 0 1 3.961 3.961 3.021 3.021 0 0 0 .046.528c.175 1.051 17.942 105.205 1.891 141.783zM287.239 41.876a10.888 10.888 0 0 0-7.945 5.023 14.848 14.848 0 0 0-2.234 9.62c.7 7.057 5.921 12.405 11.874 12.405.326 0 .655-.016.985-.049 6.352-.631 10.918-7.2 10.179-14.643a14.844 14.844 0 0 0-4.082-8.992 10.885 10.885 0 0 0-8.777-3.364zm2.068 20.837c-2.891.3-5.69-2.829-6.086-6.806a8.774 8.774 0 0 1 1.247-5.6 4.679 4.679 0 0 1 3.383-2.264c.125-.012.25-.018.376-.018a4.816 4.816 0 0 1 3.386 1.573 8.779 8.779 0 0 1 2.324 5.251c.394 3.972-1.726 7.576-4.63 7.864z" fill="#3c3c4f" opacity="1" data-original="#3c3c4f"></path><path d="M257.192 176.162a10.779 10.779 0 0 0-8.067 4.743 14.929 14.929 0 0 0-2.543 9.519c.456 7.221 5.64 12.835 11.7 12.835.206 0 .412-.007.621-.02a10.779 10.779 0 0 0 8.067-4.743 14.945 14.945 0 0 0 2.544-9.52c-.473-7.465-6.005-13.201-12.322-12.814zm4.711 18.773a4.683 4.683 0 0 1-3.392 2.124c-2.844.188-5.5-3.037-5.749-7.025a8.849 8.849 0 0 1 1.43-5.568 4.681 4.681 0 0 1 3.39-2.124c.077-.005.154-.008.231-.008 2.774 0 5.274 3.152 5.52 7.033a8.855 8.855 0 0 1-1.433 5.568zM233.567 197.38v-72.16c0-22.359-8.513-30.859-12.429-33.586V25.846h-6.193v63.171a68.97 68.97 0 0 0-20.772-2.838 3.1 3.1 0 0 0 .05 6.192h.052a58.606 58.606 0 0 1 22.518 3.851h.009c.105.048 10.568 5.1 10.568 28.992v53.569a18.016 18.016 0 0 0-24.267.377 18.126 18.126 0 0 0-22.829-13.56 16.173 16.173 0 0 0-9.163 5.439 30.956 30.956 0 0 0-6.807-11.259 26.61 26.61 0 0 0-10.06-6.509 37.16 37.16 0 0 0 5.361-3.69 42.467 42.467 0 0 0 12.263-17.418c8.369 17.73 29.46 19.074 29.709 19.087h.164a3.1 3.1 0 0 0 .158-6.188c-.975-.051-23.775-1.5-26.857-23.969a86 86 0 0 0 1.442-16.213 3.1 3.1 0 0 0-6.192 0c0 43.261-27.508 46.265-28.665 46.371a3.1 3.1 0 0 0 .252 6.182c7.634 0 13.673 2.228 17.949 6.621 5.4 5.543 6.89 13.355 7.3 17.582h-41.942a11.6 11.6 0 0 1-11.663-11.358c-.28-10.686-.612-26.058-.612-38.609 0-20.94 17.791-47.821 17.971-48.09a3.08 3.08 0 0 0 .52-1.72V25.846h-6.192v55.1c-3.094 4.8-18.493 29.748-18.493 50.732 0 10.567.234 23.1.475 33.191v57.569a13.031 13.031 0 0 0 13.016 13.017h10.2a12.986 12.986 0 0 0 9.92-4.61 12.988 12.988 0 0 0 9.92 4.61h10.212a12.986 12.986 0 0 0 9.92-4.61 12.988 12.988 0 0 0 9.921 4.61h10.205a12.988 12.988 0 0 0 9.92-4.61 12.986 12.986 0 0 0 9.92 4.61h10.2a13.031 13.031 0 0 0 13.016-13.017zm-96.329 25.059a6.831 6.831 0 0 1-6.824 6.824h-10.2a6.831 6.831 0 0 1-6.824-6.824v-39.028a17.8 17.8 0 0 0 11.8 4.428h12.052zm30.046 0a6.831 6.831 0 0 1-6.824 6.824h-10.206a6.831 6.831 0 0 1-6.823-6.824v-34.6h23.853zm30.046 0a6.831 6.831 0 0 1-6.824 6.824H180.3a6.831 6.831 0 0 1-6.824-6.824v-37.67a33.51 33.51 0 0 0-.181-3.826 2.987 2.987 0 0 0 .124-.426c1.48-7.618 7.334-8.723 7.966-8.82a3.13 3.13 0 0 0 .508-.111 11.941 11.941 0 0 1 15.436 11.4zm30.045-25.059v25.059a6.831 6.831 0 0 1-6.824 6.824h-10.2a6.831 6.831 0 0 1-6.824-6.824V192.4a11.927 11.927 0 1 1 23.853 0z" fill="#3c3c4f" opacity="1" data-original="#3c3c4f"></path></g></g></svg>