<svg xmlns="http://www.w3.org/2000/svg" version="1.1" xmlns:xlink="http://www.w3.org/1999/xlink" width="512" height="512" x="0" y="0" viewBox="0 0 340 340" style="enable-background:new 0 0 512 512" xml:space="preserve" class=""><g><radialGradient id="a" cx="178.04" cy="172.882" r="267.221" gradientUnits="userSpaceOnUse"><stop offset="0" stop-color="#d9f4ff"></stop><stop offset=".5" stop-color="#aedcff"></stop><stop offset="1" stop-color="#95a4ff"></stop></radialGradient><radialGradient xlink:href="#a" id="d" cx="178.04" cy="172.882" r="267.221"></radialGradient><radialGradient xlink:href="#a" id="e" cx="174.765" cy="182.644" r="254.047"></radialGradient><radialGradient xlink:href="#a" id="f" cx="191.262" cy="170.588" r="239.882"></radialGradient><linearGradient id="b" x1="126.717" x2="126.717" y1="292.644" y2="80.035" gradientUnits="userSpaceOnUse"><stop offset="0" stop-color="#ffd4ca"></stop><stop offset="1" stop-color="#ff9d9d"></stop></linearGradient><linearGradient xlink:href="#b" id="g" x1="156.763" x2="156.763" y1="292.644" y2="80.035"></linearGradient><linearGradient xlink:href="#b" id="h" x1="177.46" x2="177.46" y1="307.662" y2="74.445"></linearGradient><linearGradient id="c" x1="197.343" x2="197.343" y1="215.994" y2="149.526" gradientUnits="userSpaceOnUse"><stop offset="0" stop-color="#f78784"></stop><stop offset="1" stop-color="#dd5e5e"></stop></linearGradient><linearGradient xlink:href="#c" id="i" x1="155.495" x2="155.495" y1="215.994" y2="149.526"></linearGradient><linearGradient xlink:href="#b" id="j" x1="186.808" x2="186.808" y1="292.644" y2="80.035"></linearGradient><linearGradient xlink:href="#b" id="k" x1="216.854" x2="216.854" y1="292.644" y2="80.035"></linearGradient><linearGradient xlink:href="#b" id="l" x1="143.009" x2="143.009" y1="292.644" y2="80.035"></linearGradient><path fill="url(#a)" d="M227.76 172.013s12.307 5.358 32.333 6.369a31.415 31.415 0 0 0 10.807-1.332c8.619-2.645 28.37-6.888 42.188 4.144v24.542s-16.824-18.539-43.837-13.772c0 0 5.035 8.856 24.75 22.779a1.3 1.3 0 0 1 .548.95l3.208 37.821a3.772 3.772 0 0 0 .82 2.049 88.679 88.679 0 0 0 14.511 14.263V303.2s-16.608-21.7-31.608-32.368a3.778 3.778 0 0 1-1.569-2.832c-.427-6.475-2.242-28.814-7.808-45.805a39.09 39.09 0 0 0-15.873-20.548c-6.8-4.425-16.516-9.686-26.881-11.895z" opacity="1" data-original="url(#a)"></path><path fill="url(#a)" d="m225.662 136.517 19.383-1.22a44.487 44.487 0 0 0 13.389-14.564 7.355 7.355 0 0 0 .952-3.062c.506-6.486 2.277-32.09.025-46.677a1.9 1.9 0 0 1 .489-1.594c4.172-4.464 28.327-29.6 53.193-40.414v50.662a103.223 103.223 0 0 0-29.126 15.523 9.637 9.637 0 0 0-2.934 3.672c-2.7 5.976-10.153 23.155-11.653 34.2a64.694 64.694 0 0 0 11.343 2.252 45.63 45.63 0 0 1-14.753 8.638 11.841 11.841 0 0 1-3.361.671 386.714 386.714 0 0 0-38.755 4.06zM70.019 27.935H30.008l33.714 30.594a2.3 2.3 0 0 1 .754 1.824L62.957 90.74a20.507 20.507 0 0 0 .746 6.594l5.079 17.976-15.4-11.279a3.083 3.083 0 0 1-1.233-2.073l-2-14.782a3.074 3.074 0 0 0-.828-1.718L30.008 65.286V81.91a.906.906 0 0 0 .24.614l7.2 7.792a7.088 7.088 0 0 1 1.806 3.784l2.6 17.769a3.086 3.086 0 0 0 1.51 2.224l73.707 42.553v-17.328s-21.1-5.85-32.07-24.229a10.421 10.421 0 0 1-1.449-5.251c-.07-7.509.159-29.284 4.539-49.457a12.6 12.6 0 0 0-2.074-9.962zM30.008 164.912l85.517 5.032v17.731A127.51 127.51 0 0 0 86 186.151a21.164 21.164 0 0 0-18.4 13.875c-3.656 10.232-5.02 27.2 6.723 52.3a9.782 9.782 0 0 1 .019 8.292c-2.32 4.968-7.336 13.534-17.472 23.44 0 0 7.879-28.09-5.545-47.935 0 0-14.612 20.72-21.314 39.689v-50.528a34.531 34.531 0 0 1 4.9-17.775c4.565-7.609 12.342-18.362 23.419-26.254 0 0-13.153-.584-28.318 0z" opacity="1" data-original="url(#a)"></path><path fill="url(#a)" d="m47.285 299.4.093.109a6.617 6.617 0 0 1 .406 7.923l-.067.1a10.116 10.116 0 0 1-8.428 4.529h-5.751a3.006 3.006 0 0 1-2.9-3.807 17.482 17.482 0 0 1 7.292-10.243 7.154 7.154 0 0 1 9.355 1.389z" opacity="1" data-original="url(#a)"></path><path fill="url(#a)" d="m30.008 117.425 14.237 11.646a39.5 39.5 0 0 0 6.926 4.542l37.995 19.555s-35.248-3.239-59.158-.94z" opacity="1" data-original="url(#a)"></path><path fill="url(#a)" d="M296.824 119.215a17.251 17.251 0 0 0-3.535 3.931 4.349 4.349 0 0 0 1.967 6.376 26.1 26.1 0 0 0 4.974 1.422 4.413 4.413 0 0 0 3.837-1.1 17.523 17.523 0 0 0 2.262-2.551 4.321 4.321 0 0 0-.353-5.464 13.374 13.374 0 0 0-4.685-3.284 4.379 4.379 0 0 0-4.467.67z" opacity="1" data-original="url(#a)"></path><path fill="url(#a)" d="M248.417 160.539a137.587 137.587 0 0 0 25.537 2.673 8.98 8.98 0 0 0 3.066-.572c4.8-1.774 20.984-7.124 36.068-4.751v-16.011a40.7 40.7 0 0 0-32.351 8.913 21.668 21.668 0 0 1-5.7 3.415c-5.556 2.306-16.437 6.21-26.62 6.333z" opacity="1" data-original="url(#a)"></path><path fill="url(#b)" d="M122.542 105.509h8.545a10.653 10.653 0 0 1 10.653 10.653v56.88h-30.046v-56.685a10.848 10.848 0 0 1 10.848-10.848z" opacity="1" data-original="url(#b)"></path><path fill="url(#b)" d="M153.379 105.509h6.766a11.64 11.64 0 0 1 11.64 11.64v55.893H141.74v-55.893a11.64 11.64 0 0 1 11.639-11.64z" opacity="1" data-original="url(#b)"></path><path fill="url(#b)" d="m125.9 247.919 3.813 8.081v56.065h89.734V244.48s12.429-5.153 12.429-31.831v-74.943l-59.35 15.421-49.483 39.817z" opacity="1" data-original="url(#b)"></path><path fill="url(#c)" d="M231.876 145.474a15.023 15.023 0 0 1-15.022 15.026 15.021 15.021 0 0 1-15.02-14.985v9.368a15.022 15.022 0 0 1-15.026 15.017 15.022 15.022 0 0 1-15.023-15.022v-1.158l-8.976 7.223a24.747 24.747 0 0 0 44.722 7.46 24.7 24.7 0 0 0 24.345-3.276z" opacity="1" data-original="url(#c)"></path><path fill="url(#c)" d="M177.46 202.045a32.279 32.279 0 0 0-10.26-16.421c15.77-5.749 19.769-25.3 20.75-36.5l-15.42 4.007-49.483 39.817.212 4.076 43.41 27.149a7.178 7.178 0 0 0 6.4.611c5.023-9.416 4.391-22.739 4.391-22.739z" opacity="1" data-original="url(#c)"></path><path fill="url(#b)" d="M190.728 105.509h-7.84a11.1 11.1 0 0 0-11.1 11.1v38.271c.155 8.219 3.758 13.232 11.321 14.563a15.059 15.059 0 0 0 3.7.459 15.022 15.022 0 0 0 15.023-15.022v-38.268a11.1 11.1 0 0 0-11.104-11.103z" opacity="1" data-original="url(#b)"></path><path fill="url(#b)" d="M212.876 105.509h8.152a10.848 10.848 0 0 1 10.848 10.848v29.116a15.023 15.023 0 0 1-15.022 15.027 15.023 15.023 0 0 1-15.023-15.023v-28.922a11.045 11.045 0 0 1 11.045-11.046z" opacity="1" data-original="url(#b)"></path><path fill="url(#b)" d="M126.591 153.127h38.591a6.007 6.007 0 0 1 5.911 7.123c-1.714 8.984-7.614 23.272-27.8 23.272 0 0 31.509 2.576 31.509 49.457L129.713 256s-18.493-27.658-18.493-49.81c0-12.482.327-27.744.612-38.69a14.759 14.759 0 0 1 14.759-14.373z" opacity="1" data-original="url(#b)"></path><g fill="#3c3c4f"><path d="M44.67 293.069a3.092 3.092 0 0 0-2.458-.327 20.93 20.93 0 0 0-15.3 19.27 3.1 3.1 0 0 0 3.1 3.149h9.281a13.175 13.175 0 0 0 10.994-5.892 9.89 9.89 0 0 0-.647-11.88 22.546 22.546 0 0 0-4.97-4.32zm.457 12.771a7 7 0 0 1-5.838 3.129h-5.645a14.289 14.289 0 0 1 8.906-9.821 17.235 17.235 0 0 1 2.388 2.274 3.679 3.679 0 0 1 .189 4.418zM299.347 114.757a3.09 3.09 0 0 0-2.138.373c-.3.179-7.472 4.461-8.631 11.75a3.094 3.094 0 0 0 .761 2.564c.555.613 3.766 3.725 12.531 4.9a3.246 3.246 0 0 0 2.059-.449 20.062 20.062 0 0 0 6.828-8.076 3.1 3.1 0 0 0-.036-2.638 16.662 16.662 0 0 0-11.374-8.424zm2.109 13.261a21.054 21.054 0 0 1-6.243-1.927 13.309 13.309 0 0 1 4.168-4.952 10.336 10.336 0 0 1 4.973 3.542 14.394 14.394 0 0 1-2.898 3.337zM313.088 155.13c-17.07-2.738-34.692 3.642-38.11 4.973a91.409 91.409 0 0 1-6.669-.13c2.891-.928 5.4-1.88 7.3-2.654a27.651 27.651 0 0 0 7.487-4.466c10.132-8.584 22-9.033 29.989-7.979v-6.305c-9.169-1.1-22.365-.292-33.992 9.56a21.5 21.5 0 0 1-5.818 3.454c-5.257 2.14-15.483 5.746-24.9 5.86a3.1 3.1 0 0 0-.606 6.124 139.911 139.911 0 0 0 25.63 2.744c.762 0 1.527-.01 2.288-.031a3.1 3.1 0 0 0 1.1-.232c.231-.1 19.186-7.762 36.3-4.619zM313.088 265.9c-5.726-5.258-10.547-10.608-12.236-12.526l-3.269-38.541a3.094 3.094 0 0 0-1.306-2.272c-11.539-8.1-18-14.464-21.323-18.249 19-1.565 31.972 8.749 38.134 15.206v-8.338c-8.9-7.545-24.03-16.095-44.41-12.258a3.1 3.1 0 0 0-2.119 4.573c.219.384 5.488 9.41 24.976 23.295l3.233 38.114a3.088 3.088 0 0 0 .729 1.747 166.752 166.752 0 0 0 17.591 17.491zM61.365 60.571 59.7 93.943a3.108 3.108 0 0 0 .112 1l3.545 12.557-8.137-5.962-2.139-15.77a3.1 3.1 0 0 0-.831-1.725L30.008 60.809v8.955L47.08 87.6l2.18 16.076a3.1 3.1 0 0 0 1.238 2.082l16.454 12.054a3.663 3.663 0 0 0 3.536.086 3.518 3.518 0 0 0 1.221-3.612l-5.8-20.537 1.716-34.328a3.1 3.1 0 0 0-1.012-2.447l-32-29.035h-4.605v2.807a3.1 3.1 0 0 0 1.018 2.3zM30.008 121.425l15.5 12.678a3.1 3.1 0 0 0 .543.357l28.071 14.448a325.733 325.733 0 0 0-44.114.276v6.216c27.6-2.409 58.489.813 58.829.851a3.1 3.1 0 0 0 1.746-5.832L49.175 129.1l-19.167-15.675z" fill="#3c3c4f" opacity="1" data-original="#3c3c4f"></path><path d="M32.928 276.84c4.754-13.456 13.723-28.024 18.217-34.9 9.048 18.011 2.809 41.037 2.741 41.282a3.1 3.1 0 0 0 1.4 3.5 3.514 3.514 0 0 0 3.743-.449c9.457-9.242 14.614-17.4 17.274-22.627a15.777 15.777 0 0 0 .285-13.787c-7.805-17.109-10.259-32.136-7.294-44.662a21.131 21.131 0 0 1 19.481-16.117 125.705 125.705 0 0 1 19.491.694 1098.39 1098.39 0 0 0-.143 16.457c0 20.985 15.4 45.931 18.493 50.732v55.1h6.193v-56.021a3.079 3.079 0 0 0-.52-1.717c-.18-.27-17.971-27.151-17.971-48.091 0-12.522.332-27.907.612-38.609a11.6 11.6 0 0 1 11.663-11.357h41.948c-.411 4.229-1.907 12.039-7.3 17.581-4.276 4.394-10.315 6.622-17.95 6.622a3.1 3.1 0 0 0-.266 6.18c1.171.107 28.679 3.112 28.679 46.373a3.1 3.1 0 0 0 6.192 0 85.913 85.913 0 0 0-1.442-16.213c3.069-22.357 25.888-23.915 26.864-23.97a3.1 3.1 0 0 0-.328-6.183c-.249.013-21.341 1.356-29.71 19.087a42.461 42.461 0 0 0-12.263-17.418 37.2 37.2 0 0 0-5.362-3.691 26.631 26.631 0 0 0 10.063-6.508c9.527-9.831 9.183-24.436 9.164-25.053a3.1 3.1 0 0 0-3.095-3h-45.196a17.805 17.805 0 0 0-11.8 4.427v-39.031a6.832 6.832 0 0 1 6.824-6.823h10.2a6.831 6.831 0 0 1 6.825 6.823v26.407a3.1 3.1 0 0 0 6.192 0v-26.407a6.831 6.831 0 0 1 6.824-6.823h10.205a6.831 6.831 0 0 1 6.824 6.823v26.407a3.1 3.1 0 0 0 6.192 0v-26.407a6.832 6.832 0 0 1 6.824-6.823h10.206a6.831 6.831 0 0 1 6.824 6.823v39.45a11.94 11.94 0 0 1-15.435 11.4 3.1 3.1 0 0 0-1.82 5.918 18.123 18.123 0 0 0 23.033-13.5 18.015 18.015 0 0 0 24.267.376v53.57c0 23.89-10.462 28.943-10.519 28.971l-.033.017c-.01 0-.02 0-.029.009a59.338 59.338 0 0 1-22.518 3.852h-.052a3.1 3.1 0 0 0-3.095 3.044c-.028 1.711 1.78 3.157 4.183 3.157a68.578 68.578 0 0 0 19.634-2.845v63.169h6.192v-65.783c3.917-2.727 12.43-11.227 12.43-33.585v-18.169a110.068 110.068 0 0 1 17.322 8.294 40.761 40.761 0 0 1 17.784 23.305c5.588 19.112 6.837 43.611 6.849 43.856a3.1 3.1 0 0 0 1.34 2.4c15.588 10.7 28.55 26.689 34.82 35.154v-10.175c-7.036-8.747-17.6-20.373-30.062-29.208-.363-5.78-1.96-26.515-7-43.765a46.945 46.945 0 0 0-20.48-26.841c-2.219-1.366-12.34-7.024-20.569-9.542v-10.364a125.4 125.4 0 0 0 24.1 3.792 44.559 44.559 0 0 0 13.476-1.643c7.641-2.3 24.293-7.295 40.537 3.977v-7.315c-17.537-10.026-34.96-4.805-42.32-2.592a30.357 30.357 0 0 1-11.34 1.391 113.822 113.822 0 0 1-24.455-4.039v-19.8c11.764-2.46 29.249-3.78 29.43-3.793a3.111 3.111 0 0 0 .682-.129 48.738 48.738 0 0 0 17.764-9.946 3.1 3.1 0 0 0-1.8-5.325 65.5 65.5 0 0 1-8.153-1.429c2.376-11.779 10.037-28.709 11.621-32.137 9.017-7.352 20.712-12.8 28.568-15.968v-6.671c-8.248 3.163-22.325 9.373-33.06 18.321a3.1 3.1 0 0 0-.816 1.053c-.449.948-11.022 23.376-12.9 37.245a3.1 3.1 0 0 0 2.131 3.372c.121.039 1.826.575 4.519 1.162a43.209 43.209 0 0 1-9.37 4.312c-2.557.2-17.378 1.41-28.614 3.623v-6.06l10.267-.646a3.107 3.107 0 0 0 1.448-.466 47.4 47.4 0 0 0 15.33-17.312 3.108 3.108 0 0 0 .329-1.142c.114-1.307 2.687-31.322.206-48.4 4.621-4.985 25.232-26.337 50.535-39.307v-6.925c-30.978 14.89-55.07 41.974-56.149 43.2a3.094 3.094 0 0 0-.728 2.571c2.533 14.734.383 43.188.017 47.71a42.357 42.357 0 0 1-12.223 13.941l-9.032.569v-17.359a13.032 13.032 0 0 0-13.017-13.016h-10.2a12.985 12.985 0 0 0-9.92 4.609 12.987 12.987 0 0 0-9.92-4.609h-10.211a12.987 12.987 0 0 0-9.92 4.609 12.985 12.985 0 0 0-9.92-4.609H151.66a12.985 12.985 0 0 0-9.92 4.609 12.987 12.987 0 0 0-9.921-4.609h-10.2a13.031 13.031 0 0 0-13.019 13.016v17.023a63.114 63.114 0 0 1-18.2-14.937 19.019 19.019 0 0 1-3.756-11.644c.074-9.23.733-27.242 4.316-44.161a17.49 17.49 0 0 0-2.849-13.726L73.944 27.935h-7.578l16.7 23.671a11.293 11.293 0 0 1 1.845 8.863c-3.7 17.45-4.375 35.931-4.451 45.4a25.233 25.233 0 0 0 5.022 15.445 67.807 67.807 0 0 0 23.118 18.053v8.812l-63.683-36.764L42 91.48a3.093 3.093 0 0 0-.789-1.653L30.008 77.7v9.126l6 6.5 3 20.47a3.1 3.1 0 0 0 1.516 2.233l68.075 39.3v11.1l-78.59-4.625v6.2l78.59 4.624s-.156 7.254-.225 10.916a129.309 129.309 0 0 0-19.9-.659 27.353 27.353 0 0 0-25.2 20.871c-3.289 13.9-.7 30.267 7.686 48.658a9.62 9.62 0 0 1-.168 8.406 72.841 72.841 0 0 1-9 13.368c1.163-10.465.99-26.677-7.9-39.814a3.1 3.1 0 0 0-5.095-.049A223.834 223.834 0 0 0 33.1 260.794v-34.656a34.961 34.961 0 0 1 .668-6.8 34.064 34.064 0 0 1 4.417-11.269c4.345-7.05 11.677-16.987 21.934-24.294a3.1 3.1 0 0 0-1.771-5.618c-.179 0-14.79-.12-28.344.147v6.196c6.95-.139 14.2-.175 19.626-.176a97 97 0 0 0-16.716 20.5 40.235 40.235 0 0 0-5.219 13.31 41.169 41.169 0 0 0-.787 8.007v49.67c.076 2.825 4.849 3.841 6.02 1.029zM228.78 145.516a11.927 11.927 0 0 1-23.853 0v-30.045a6.831 6.831 0 0 1 6.824-6.823h10.2a6.831 6.831 0 0 1 6.824 6.823z" fill="#3c3c4f" opacity="1" data-original="#3c3c4f"></path></g></g></svg>