<svg xmlns="http://www.w3.org/2000/svg" version="1.1" xmlns:xlink="http://www.w3.org/1999/xlink" width="512" height="512" x="0" y="0" viewBox="0 0 340 340" style="enable-background:new 0 0 512 512" xml:space="preserve" class=""><g><linearGradient id="a" x1="43.94" x2="309.298" y1="13.786" y2="342.618" gradientUnits="userSpaceOnUse"><stop offset="0" stop-color="#919ece"></stop><stop offset="1" stop-color="#60609b"></stop></linearGradient><linearGradient xlink:href="#a" id="b" x1="45.754" x2="311.111" y1="12.323" y2="341.154"></linearGradient><linearGradient xlink:href="#a" id="c" x1="74.203" x2="339.561" y1="-10.635" y2="318.196"></linearGradient><circle cx="170" cy="170" r="141.691" fill="url(#a)" opacity="1" data-original="url(#a)"></circle><path fill="#ffffff" d="M109.24 260.113A108.684 108.684 0 0 1 230.76 79.887c17.632 22.218 25.865 48.421 19.45 80.833z" opacity="1" data-original="#ffffff"></path><path fill="url(#a)" d="M278.672 170a108.554 108.554 0 0 0-47.513-89.836 85.946 85.946 0 0 1-3.933 51.466C210.661 173.032 170 170 170 170s-40.661-3.032-57.226 38.37a85.957 85.957 0 0 0-3.934 51.464A108.681 108.681 0 0 0 278.672 170z" opacity="1" data-original="url(#a)"></path><circle cx="170" cy="108.076" r="15.485" fill="url(#c)" opacity="1" data-original="url(#c)"></circle><circle cx="170" cy="231.923" r="15.485" fill="#ffffff" opacity="1" data-original="#ffffff"></circle><g fill="#3c3c4f"><path d="M170 314.787c79.836 0 144.787-64.951 144.787-144.787S249.836 25.213 170 25.213 25.213 90.164 25.213 170 90.164 314.787 170 314.787zm0-283.382c76.421 0 138.6 62.174 138.6 138.6S246.421 308.6 170 308.6 31.405 246.421 31.405 170 93.579 31.405 170 31.405z" fill="#3c3c4f" opacity="1" data-original="#3c3c4f"></path><path d="M107.107 262.4h.009a132.258 132.258 0 0 0 18.684 10.284c1.578.8 18.564 9.085 44.2 9.085a111.773 111.773 0 0 0 62.965-204.121C216.048 64.9 188.5 58.231 170 58.231A111.774 111.774 0 0 0 107.107 262.4zM235.615 87.288A105.577 105.577 0 0 1 170 275.576c-24.761 0-41.285-8.357-41.446-8.44a2.492 2.492 0 0 0-.181-.086 128.25 128.25 0 0 1-16.779-9.111 82.181 82.181 0 0 1 4.055-48.417c15.491-38.717 52.558-36.54 54.121-36.432a62.518 62.518 0 0 0 23.683-3.836c11.76-4.246 27.664-14.02 36.648-36.473a87.81 87.81 0 0 0 5.514-45.493zM170 64.424c17.156 0 42.489 6.021 58.384 17.538a82.173 82.173 0 0 1-4.033 48.518c-15.49 38.719-52.557 36.544-54.121 36.435a62.515 62.515 0 0 0-23.683 3.834c-11.759 4.251-27.664 14.019-36.647 36.472a87.815 87.815 0 0 0-5.508 45.535A105.6 105.6 0 0 1 170 64.424z" fill="#3c3c4f" opacity="1" data-original="#3c3c4f"></path><path d="M170 126.657a18.581 18.581 0 1 0-18.581-18.581A18.6 18.6 0 0 0 170 126.657zm0-30.97a12.389 12.389 0 1 1-12.388 12.389A12.4 12.4 0 0 1 170 95.687zM170 213.342a18.581 18.581 0 1 0 18.581 18.581A18.6 18.6 0 0 0 170 213.342zm0 30.97a12.389 12.389 0 1 1 12.389-12.389A12.4 12.4 0 0 1 170 244.312z" fill="#3c3c4f" opacity="1" data-original="#3c3c4f"></path></g></g></svg>