<svg xmlns="http://www.w3.org/2000/svg" version="1.1" xmlns:xlink="http://www.w3.org/1999/xlink" width="512" height="512" x="0" y="0" viewBox="0 0 340 340" style="enable-background:new 0 0 512 512" xml:space="preserve" class=""><g><linearGradient id="a" x1="99.194" x2="151.455" y1="90.41" y2="145.161" gradientUnits="userSpaceOnUse"><stop offset="0" stop-color="#b2d782"></stop><stop offset="1" stop-color="#91b366"></stop></linearGradient><linearGradient xlink:href="#a" id="c" x1="130.225" x2="182.487" y1="60.789" y2="115.539"></linearGradient><linearGradient id="b" x1="61.274" x2="362.284" y1="277.937" y2="-21.785" gradientUnits="userSpaceOnUse"><stop offset="0" stop-color="#9090bd"></stop><stop offset="1" stop-color="#616190"></stop></linearGradient><linearGradient id="d" x1="311.342" x2="251.327" y1="18.413" y2="92.098" gradientUnits="userSpaceOnUse"><stop offset="0" stop-color="#daeaff"></stop><stop offset="1" stop-color="#93a1ed"></stop></linearGradient><linearGradient id="e" x1="267.299" x2="318.645" y1="50.19" y2="10.513" gradientUnits="userSpaceOnUse"><stop offset="0" stop-color="#dbe8ff"></stop><stop offset="1" stop-color="#fff"></stop></linearGradient><linearGradient id="f" x1="139.632" x2="239.905" y1="101.399" y2="269.831" gradientUnits="userSpaceOnUse"><stop offset="0" stop-color="#ff8da3"></stop><stop offset="1" stop-color="#ff556f"></stop></linearGradient><linearGradient xlink:href="#b" id="g" x1="61.639" x2="362.65" y1="278.304" y2="-21.418"></linearGradient><linearGradient xlink:href="#b" id="h" x1="61.548" x2="362.558" y1="278.212" y2="-21.51"></linearGradient><path fill="url(#a)" d="M68.484 93.758s55.652-33.615 92.483 29.08c0 0-58.653 15.79-92.483-29.08z" opacity="1" data-original="url(#a)"></path><path fill="url(#a)" d="m162.141 53.7 4.509 7.284a15.038 15.038 0 0 1 .91 14.258c-4.348 9.314-9.256 27.75 3.84 50.392l-10.149 8.191s-38.46-45.231.89-80.125z" opacity="1" data-original="url(#a)"></path><path fill="url(#b)" d="M268.555 83.478 234.6 117.431l-13.774-10.293 35.694-35.694c5.73 2.194 9.592 6.364 12.035 12.034z" opacity="1" data-original="url(#b)"></path><path fill="url(#d)" d="M281.315 81.825c2.895 2.9 2.724 6.293 1.407 9.36a3.3 3.3 0 0 0 .948 3.791c3.6 3.064 7.353 6.091 10.939 8.711a1.293 1.293 0 0 0 2.055-.95c.761-10.488 4.716-54.13 19.135-78.536-24.407 14.418-68.049 18.373-78.536 19.135a1.293 1.293 0 0 0-.951 2.054c2.621 3.587 5.648 7.335 8.711 10.939a3.3 3.3 0 0 0 3.792.948c3.066-1.316 6.464-1.488 9.359 1.408 2.645 2.645 2.265 5.843 1.36 8.22a13.051 13.051 0 0 1-3.012 4.539l12.033 12.034a13.035 13.035 0 0 1 4.54-3.013c2.376-.904 5.575-1.285 8.22 1.36z" opacity="1" data-original="url(#d)"></path><path fill="url(#e)" d="m286.183 52.2 29.617-28c-16.118 9.521-40.618 14.478-58.424 16.967 3.187 8.826 9.041 12.72 14.194 14.377a14.73 14.73 0 0 0 14.613-3.344z" opacity="1" data-original="url(#e)"></path><path fill="url(#f)" d="M164.362 126.594s-39.647-14.672-59.626 11.238-3.746 58.068-3.746 58.068 9.978 23.979 58.689 43.933a26.915 26.915 0 0 0 26.029-2.942 33.512 33.512 0 0 0 6.982-6.732 14.488 14.488 0 0 1 13.573-5.662 98.753 98.753 0 0 0 11.947.957 27.152 27.152 0 0 0 25.911-17.4c7.822-20.278 16.448-56.824-1.992-93.921a39.115 39.115 0 0 0-26.282-20.959c-14.173-3.157-33.591.976-51.485 33.42z" opacity="1" data-original="url(#f)"></path><path fill="url(#b)" d="M96.581 243.419s-14.907 4.844-38.329-.109a4.69 4.69 0 0 0-4.5 1.508c-5.038 5.778-19.361 22.3-29.55 35.04 0 0 19.462-8.79 32.1 3.845s3.845 32.1 3.845 32.1c12.736-10.189 29.261-24.511 35.04-29.55a4.691 4.691 0 0 0 1.508-4.5c-4.959-23.427-.114-38.334-.114-38.334z" opacity="1" data-original="url(#b)"></path><path fill="url(#b)" d="m156.02 171.946-88.889 88.889a8.7 8.7 0 0 0-.594 11.826 8.509 8.509 0 0 0 12.421.414l89.1-89.1a8.509 8.509 0 0 0 .207-11.818 8.508 8.508 0 0 0-12.245-.211z" opacity="1" data-original="url(#b)"></path><path fill="#3c3c4f" d="M25.516 282.786c.175-.079 17.628-7.7 28.51 3.187s3.265 28.336 3.19 28.5a3.21 3.21 0 0 0 4.931 3.828c15.573-12.458 37.043-31.3 37.258-31.485a3.209 3.209 0 0 0 1-3.154 96.209 96.209 0 0 1-2.7-24.8l31.111-31.112c8.174 5.622 22.166 11.987 29.636 15.047a30.685 30.685 0 0 0 11.633 2.286 29.788 29.788 0 0 0 17.52-5.61 36.709 36.709 0 0 0 7.636-7.378 11.312 11.312 0 0 1 10.556-4.425 102.2 102.2 0 0 0 12.345.988 30.49 30.49 0 0 0 28.968-19.448c7.484-19.4 18.816-59.909-2.5-97.25l26.214-26.214a9.772 9.772 0 0 1 3.412-2.282c3.029-1.152 4.32.142 4.808.63.75.749 2.742 2.742-.137 7.481a3.21 3.21 0 0 0 .642 4.094 192.891 192.891 0 0 0 15.121 12.008 3.211 3.211 0 0 0 5.047-2.46c.028-.521 2.96-52.5 18.845-79.385a3.21 3.21 0 0 0-4.4-4.4C287.3 37.31 235.3 40.254 234.78 40.282a3.21 3.21 0 0 0-2.459 5.046 192.469 192.469 0 0 0 12.008 15.121 3.21 3.21 0 0 0 4.094.643c4.737-2.88 6.73-.888 7.481-.137.487.487 1.781 1.781.63 4.808a9.781 9.781 0 0 1-2.283 3.411l-25.668 25.668a40.827 40.827 0 0 0-12.038-4.8c-12.635-2.814-30.436-.538-47.5 23.1-6.547-18.427.522-34.612 1.422-36.538a18.181 18.181 0 0 0-1.087-17.314l-4.509-7.284a3.21 3.21 0 0 0-4.86-.712c-16.024 14.211-19.938 29.973-18.65 44.036a289.02 289.02 0 0 0-5.2-3.981c-13.336-9.567-29.584-12.647-46.987-8.907a76.235 76.235 0 0 0-22.392 8.592 3.211 3.211 0 0 0-.863 4.656 79.09 79.09 0 0 0 47.2 30.3 40.667 40.667 0 0 0-10.929 9.878c-15.062 19.533-10.877 42.178-7.042 53.938a51.574 51.574 0 0 0 6.518 13.131 65.216 65.216 0 0 0 8.524 10.29l-29.059 29.067a96.4 96.4 0 0 1-24.8-2.705 3.21 3.21 0 0 0-3.154 1.006c-.189.215-19.026 21.685-31.485 37.257a3.211 3.211 0 0 0 3.823 4.934zM247.538 54.331q-3.668-4.311-6.552-8.062c12.962-1.1 44.476-4.687 67.529-14.785-10.1 23.054-13.684 54.567-14.785 67.53q-3.741-2.878-8.061-6.552c2.114-4.9 1.408-9.414-2.084-12.906-3.044-3.045-7.175-3.786-11.631-2.091a15.269 15.269 0 0 0-3.185 1.686l-7.921-7.921a15.237 15.237 0 0 0 1.686-3.184c1.7-4.457.954-8.587-2.09-11.631-3.491-3.493-8.005-4.198-12.906-2.084zm8.984 21.653 7.493 7.494-22.866 22.866a42.793 42.793 0 0 0-7.248-7.738zM161.48 58.728l2.44 3.942a11.779 11.779 0 0 1 .731 11.21c-1.091 2.336-10.174 23.134.087 45.7a127.562 127.562 0 0 0-1.876 3.137 82.081 82.081 0 0 0-6.311-1.636c-8.071-14.361-17.087-40.255 4.929-62.353zM73.369 94.767c9.025-4.475 35.6-15.021 59 1.762 2.286 1.708 8.482 6.446 10.723 8.594a77.738 77.738 0 0 0 5.492 14.609c-7.276-.878-13.687-.228-24.856 1.458.001 0-30.996-.904-50.359-26.423zm33.6 104.546a45.192 45.192 0 0 1-5.712-11.493c-3.442-10.556-7.237-30.832 6.022-48.028 18.282-23.708 55.6-10.324 55.969-10.188a3.207 3.207 0 0 0 3.926-1.46c13.665-24.774 30.253-35.785 47.976-31.838a35.677 35.677 0 0 1 24.1 19.254c18.179 36.57 8.975 72.925 1.87 91.341a24.067 24.067 0 0 1-22.843 15.34 95.9 95.9 0 0 1-11.568-.925 17.739 17.739 0 0 0-16.573 6.889 30.308 30.308 0 0 1-6.309 6.078 23.844 23.844 0 0 1-22.94 2.575c-6.47-2.651-19.579-8.566-27.444-13.731l36.877-36.877a11.72 11.72 0 0 0-16.575-16.574L114.73 208.7a56.237 56.237 0 0 1-7.762-9.387zm51.322-25.1a5.253 5.253 0 0 1 3.744-1.552h.1a5.3 5.3 0 0 1 3.653 9.044l-89.095 89.1a5.3 5.3 0 0 1-7.739-.262 5.464 5.464 0 0 1 .452-7.438zM56.745 246.269a105.1 105.1 0 0 0 18.027 2.384l-9.911 9.911a11.9 11.9 0 0 0-.736 16.216 11.62 11.62 0 0 0 8.436 3.991c.125 0 .249.006.374.006a11.768 11.768 0 0 0 8.293-3.432l10.119-10.118a105.188 105.188 0 0 0 2.383 18.028c-4.109 3.587-16.337 14.211-27.82 23.7 1.126-7.435.621-17.563-7.343-25.527s-18.093-8.47-25.527-7.343c9.493-11.478 20.118-23.706 23.705-27.816z" opacity="1" data-original="#3c3c4f"></path></g></svg>