<svg xmlns="http://www.w3.org/2000/svg" version="1.1" xmlns:xlink="http://www.w3.org/1999/xlink" width="512" height="512" x="0" y="0" viewBox="0 0 340 340" style="enable-background:new 0 0 512 512" xml:space="preserve" class=""><g><linearGradient id="b" x1="418.787" x2="167.386" y1="308.423" y2="181.271" gradientUnits="userSpaceOnUse"><stop offset="0" stop-color="#c2cfff"></stop><stop offset="1" stop-color="#f0f9ff"></stop></linearGradient><linearGradient id="c" x1="-6.125" x2="230.301" y1="11.237" y2="205.982" gradientUnits="userSpaceOnUse"><stop offset="0" stop-color="#c1d1ff"></stop><stop offset="1" stop-color="#7a88c2"></stop></linearGradient><linearGradient id="d" x1="56.353" x2="61.012" y1="21.517" y2="73.189" gradientUnits="userSpaceOnUse"><stop offset="0" stop-color="#8080ad"></stop><stop offset="1" stop-color="#515180"></stop></linearGradient><linearGradient id="a" x1="23.09" x2="35.879" y1="-10.212" y2="52.848" gradientUnits="userSpaceOnUse"><stop offset="0" stop-color="#ff8a83"></stop><stop offset="1" stop-color="#f2613e"></stop></linearGradient><linearGradient xlink:href="#a" id="e" x1="55.258" x2="74.649" y1="131.201" y2="86.046"></linearGradient><linearGradient id="f" x1="180.301" x2="342.77" y1="63.34" y2="172.53" gradientUnits="userSpaceOnUse"><stop offset="0" stop-color="#ff547c"></stop><stop offset="1" stop-color="#ff73aa"></stop></linearGradient><linearGradient id="g" x1="82.776" x2="185.626" y1="332.152" y2="159.65" gradientUnits="userSpaceOnUse"><stop offset="0" stop-color="#f3ae99"></stop><stop offset="1" stop-color="#ffeecd"></stop></linearGradient><linearGradient id="h" x1="147.508" x2="124.413" y1="159.343" y2="221.315" gradientUnits="userSpaceOnUse"><stop offset="0" stop-color="#cd8089"></stop><stop offset="1" stop-color="#9e515c"></stop></linearGradient><linearGradient id="i" x1="400.091" x2="114.885" y1="261.521" y2="56.15" gradientUnits="userSpaceOnUse"><stop offset="0" stop-color="#b7083e"></stop><stop offset="1" stop-color="#d60a73"></stop></linearGradient><linearGradient id="j" x1="140.62" x2="78.549" y1="67.339" y2="71.242" gradientUnits="userSpaceOnUse"><stop offset="0" stop-color="#ffaf5b"></stop><stop offset="1" stop-color="#ffdbb4"></stop></linearGradient><path fill="url(#b)" d="M96.274 69.19 69.187 96.277l215.3 219.5a13.974 13.974 0 0 0 9.06 4.157l28.242 1.849-1.849-28.242a13.971 13.971 0 0 0-4.158-9.06z" opacity="1" data-original="url(#b)" class=""></path><path fill="url(#c)" d="M129.366 101.647 96.274 69.19 69.187 96.277l17.299 17.637z" opacity="1" data-original="url(#c)"></path><path fill="url(#d)" d="M44.683 34.061 34.058 44.686l31.79 40.052 9.443-9.443 9.444-9.444z" opacity="1" data-original="url(#d)"></path><path fill="url(#a)" d="M44.683 34.061a13.356 13.356 0 1 0-10.625 10.625s7.315-1.331 10.625-10.625z" opacity="1" data-original="url(#a)"></path><path fill="url(#a)" d="M70.822 70.825C46.7 94.944 52.663 125.084 54.9 133.329a1.894 1.894 0 0 0 2.647 1.217l13.993-6.687a1.637 1.637 0 0 0 .875-1.832c-2.81-13.189 4-28 14.8-38.8a40.075 40.075 0 0 0-16.393-16.402z" opacity="1" data-original="url(#a)"></path><path fill="url(#f)" d="M184.241 126.565s-13.344-25.51 7.849-47.488c10.544-10.935 16.134-20.606 19.089-27.565a1.5 1.5 0 0 1 2.235-.659c2.867 1.983 8.507 7.486 7.326 19.59 0 0 26.295-10.989 51.805 4.709 0 0 13.326 6.151 24.037 3.785a1.507 1.507 0 0 1 1.768 1.863c-1.066 4-4.339 11.589-14.032 13.585 0 0 23.156 14.128 12.167 52.2-3.256 11.28-3.928 19.631-2.863 25.757 0 0-4.6 14.668-10.115 14.872-35.5 1.316-21.856-27.657-21.856-27.657s.933-43.039-28.3-35.172a27.135 27.135 0 0 0-6.829 2.332c-8.53 4.931-22.371 10.894-33.65 6.132z" opacity="1" data-original="url(#f)"></path><path fill="url(#g)" d="M223.556 253.878a44.833 44.833 0 0 0-3.016-8.584 26.7 26.7 0 0 1-2.14-15.449c3.878-25.6 9.785-97.082-42.032-111.3a61.666 61.666 0 0 0-30.215-.305c-11.89 2.754-29.357 9.1-44.343 23.67a69.331 69.331 0 0 0-20.46 42.581 1117.828 1117.828 0 0 0-2.131 22.877 2.053 2.053 0 0 0 2.9 2.041c11.584-5.336 31.406-13.789 53.731-21.435 0 0 6.131 39.588-38.368 58.8a70.626 70.626 0 0 0-13.892 8.39 19.92 19.92 0 0 0-8.006 15.382 1156.02 1156.02 0 0 0-.525 24.676s-.572 9.222-4.236 16.426c-1.573 3.091 10.8 8.556 13.522 6.359 14.727-11.9 64.561-48.131 130.983-53.017a9.068 9.068 0 0 0 8.228-11.112z" opacity="1" data-original="url(#g)" class=""></path><path fill="url(#h)" d="M136.746 226.09c11.764-13.743 14.306-33.952 14.847-41.094a1.726 1.726 0 0 0-2.3-1.757l-15.31 5.394s4.432 38.848-36.5 58.142c11.755-3.532 25.092-10.7 31.386-14.278a29.546 29.546 0 0 0 7.877-6.407z" opacity="1" data-original="url(#h)"></path><path fill="url(#i)" d="M293.639 172.334c-12.04 11.143-28.806-1.538-26.744-16.093 1.645-11.613-.789-19.084-2.7-22.9a2.1 2.1 0 0 1 2.056-3.049l.146.013a2.1 2.1 0 0 0 1.51-3.72c-13.282-10.944-27.053-6.317-34.549-2.2a18.177 18.177 0 0 1 19.218 10.751 28.881 28.881 0 0 1 1.5 4.572 24.8 24.8 0 0 1-.387 12.517c-6 21.2-6.5 43.053 12.975 52.439 26.768 12.9 45.056-6.8 50.724-14.229a1.511 1.511 0 0 0-1.259-2.424c-9.915.38-20.198-2.531-22.49-15.677z" opacity="1" data-original="url(#i)"></path><path fill="url(#j)" d="m127.855 71.545 6.688-13.992a1.9 1.9 0 0 0-1.217-2.647c-8.245-2.24-38.385-8.2-62.5 15.919L87.28 87.166c10.8-10.773 25.578-17.551 38.744-14.746a1.633 1.633 0 0 0 1.831-.875z" opacity="1" data-original="url(#j)"></path><path fill="#3c3c4f" d="M96.164 243.724a74.167 74.167 0 0 0-14.485 8.72 23.192 23.192 0 0 0-9.417 18c-.265 8.308-.442 16.6-.526 24.643-.064.858-.745 8.9-3.877 15.053a7.95 7.95 0 0 0 .3 7.812c1.262 2.058 9.309 5.161 11.2 5.161a11.225 11.225 0 0 0 7.071-2.522c13.661-11.042 63.346-47.447 129.138-52.287a12.494 12.494 0 0 0 9.2-5.112 12.347 12.347 0 0 0 1.22-2.1l56.113 57.012a17.266 17.266 0 0 0 11.215 5.147l28.243 1.849a3.966 3.966 0 0 0 2.567-.967 3.319 3.319 0 0 0 .966-2.567l-1.849-28.242a17.269 17.269 0 0 0-5.146-11.216l-94.166-92.361a141.13 141.13 0 0 0-2.409-20.468q-3.8-19.245-12.8-32.031a64.19 64.19 0 0 0 19.459-7.662 15.274 15.274 0 0 1 12.476-1.262 14.437 14.437 0 0 1 8.851 8.109 25.594 25.594 0 0 1 1.322 4.046 21.536 21.536 0 0 1-.353 10.837c-8.136 28.752-3.18 47.708 14.731 56.339a43.168 43.168 0 0 0 18.869 4.6c23.686 0 37.821-22.452 38-22.734a3.324 3.324 0 0 0-3.172-5.047c-8.885.914-15.189-.763-18.712-4.981-4.743-5.676-4.922-16.742-.518-32 8.4-29.1-2.06-45.126-8.8-51.952 7.961-4.217 10.877-12.469 11.274-16.966a3.324 3.324 0 0 0-4.428-3.422c-9.01 3.216-22.038-2.262-23.625-2.957-20.341-12.416-40.864-8.942-49.9-6.41-.618-14.336-10.609-18.731-11.078-18.93a3.326 3.326 0 0 0-4.388 1.849c-2.5 6.393-7.84 16.448-19.033 28.055-13.154 13.642-13.916 28.6-12.308 38.613-.048-.013-.095-.028-.143-.042a64.838 64.838 0 0 0-30.042-.728l-38.2-37.577a30.311 30.311 0 0 1 17.439-1.1 3.325 3.325 0 0 0 3.843-1.782l8.2-17.162a3.326 3.326 0 0 0-1.886-4.566c-1.2-.426-29.029-10.011-55.646 6.186l-32.755-26a16.679 16.679 0 1 0-15.6 15.6l26 32.755c-16.2 26.615-6.612 54.445-6.186 55.645a3.274 3.274 0 0 0 1.863 1.96 4.829 4.829 0 0 0 2.7-.073l17.162-8.2a3.324 3.324 0 0 0 1.781-3.843 30.313 30.313 0 0 1 1.1-17.432l26.406 26.922a89.323 89.323 0 0 0-3.942 3.586 72.739 72.739 0 0 0-21.449 44.62 1139.51 1139.51 0 0 0-2.427 26.483 3.326 3.326 0 0 0 4.735 3.271c5.833-2.758 26.207-12.132 52.491-21.365.167 10.149-2.886 36.607-36.669 51.193zm125.524-13.381a218.775 218.775 0 0 0 2.454-31.08l89.307 87.6a10.635 10.635 0 0 1 3.169 6.9l1.6 24.46-24.461-1.6a10.633 10.633 0 0 1-6.907-3.172l-60.315-61.281a47.8 47.8 0 0 0-2.992-8.3 23.283 23.283 0 0 1-1.855-13.527zm-27.2-148.959c9.912-10.284 15.561-19.527 18.757-26.351 2.268 2.316 4.988 6.873 4.187 15.087a3.327 3.327 0 0 0 4.584 3.392c.249-.1 25.1-10.1 48.787 4.471a3.151 3.151 0 0 0 .348.187c.573.265 12.132 5.523 23.029 4.493a14.311 14.311 0 0 1-10.532 8.464 3.329 3.329 0 0 0-1.076 6.084c.855.534 20.813 13.48 10.719 48.447-5.118 17.728-4.511 30.549 1.8 38.106 3.885 4.65 9.69 7.18 17.311 7.557-6.946 7.926-22.534 20.84-44.3 10.349-14.777-7.121-18.447-23-11.22-48.54a28.188 28.188 0 0 0 .421-14.2 32.191 32.191 0 0 0-1.67-5.1 21.164 21.164 0 0 0-8.518-9.794 24.517 24.517 0 0 1 18.576 7.7 3.324 3.324 0 1 0 4.783-4.617c-15.163-15.7-36.4-9.049-45.619-3.286-5.364 3.1-13.289 6.826-21.03 7.355a54.142 54.142 0 0 0-19.142-13.3c-2.052-8.246-3.108-23.118 9.8-36.504zM33.366 41.429a10.038 10.038 0 1 1 8.078-8.208 13.017 13.017 0 0 1-8.078 8.208zm5.928 4.508a19.739 19.739 0 0 0 6.6-6.675l29.225 23.2A58.431 58.431 0 0 0 62.42 75.073zm29.627 79.49-11.228 5.366c-1.929-8.185-4.944-28.991 7.763-48.209.025-.038.042-.079.065-.118s.068-.1.1-.155a49.582 49.582 0 0 1 16.86-16.787c.014-.008.025-.021.039-.03s.044-.021.065-.035c19.148-12.662 40-9.668 48.2-7.754l-5.363 11.22c-13.07-2.195-28.349 3.745-40.552 15.949s-18.144 27.481-15.949 40.553zM79.9 102.454a57.138 57.138 0 0 1 22.547-22.548l37.21 36.609a98.552 98.552 0 0 0-31.016 15.242zm2.811 103.03c.6-7.093 1.254-14.016 1.943-20.649a66.086 66.086 0 0 1 19.473-40.541c14.4-14 31.208-20.136 42.774-22.815a58.56 58.56 0 0 1 28.586.273c20.957 5.75 34.253 22.175 39.519 48.819 4.437 22.45 1.971 46.461.106 58.776a29.91 29.91 0 0 0 2.423 17.372 41.54 41.54 0 0 1 2.789 7.945 5.551 5.551 0 0 1-1.233 5.007 6.1 6.1 0 0 1-4.2 2.019C149.4 266.569 99.5 301.77 83.685 314.28a3.647 3.647 0 0 1-3.208.667l-2.618-.7a3.625 3.625 0 0 1-2.488-4.738 55.146 55.146 0 0 0 3.006-14.079q0-.085.006-.171c.084-8.029.26-16.306.523-24.6a16.583 16.583 0 0 1 6.73-12.872 68.154 68.154 0 0 1 13.1-7.929c31.834-11.319 39.269-19.744 40.674-21.766 14.971-17.651 15.63-44.514 15.651-45.652a3.332 3.332 0 0 0-2.568-3.3 3.423 3.423 0 0 0-1.946.136l-15.83 5.577c-23.139 7.924-42.279 16.213-52.004 20.631zm53.8 5.722a58.457 58.457 0 0 0 2.88-20.954l8.651-3.048c-.889 8.234-3.879 25.1-13.817 36.719 0 0-2.405 3.356-8.708 6.812a57.963 57.963 0 0 0 10.995-19.529z" opacity="1" data-original="#3c3c4f" class=""></path></g></svg>